<?xml version="1.0" encoding="UTF-8"?>
<svg xmlns="http://www.w3.org/2000/svg" version="1.1" width="100" height="100" viewBox="0 0 100 100"><rect x="0" y="0" width="100" height="100" fill="#ffffff"/><g transform="scale(1.754)"><g transform="translate(0,0)"><path fill-rule="evenodd" d="M8 0L8 4L9 4L9 5L8 5L8 7L9 7L9 8L10 8L10 9L9 9L9 10L10 10L10 9L11 9L11 8L10 8L10 7L11 7L11 6L12 6L12 7L13 7L13 5L12 5L12 4L9 4L9 2L11 2L11 3L12 3L12 2L13 2L13 3L14 3L14 2L16 2L16 3L15 3L15 5L14 5L14 7L15 7L15 5L16 5L16 7L17 7L17 8L14 8L14 10L15 10L15 9L17 9L17 8L18 8L18 9L19 9L19 10L18 10L18 11L17 11L17 10L16 10L16 12L14 12L14 11L12 11L12 10L11 10L11 11L8 11L8 10L6 10L6 11L8 11L8 12L5 12L5 13L4 13L4 12L3 12L3 11L5 11L5 9L7 9L7 8L4 8L4 9L2 9L2 8L0 8L0 9L1 9L1 10L0 10L0 12L1 12L1 10L2 10L2 12L3 12L3 13L1 13L1 14L2 14L2 15L3 15L3 16L5 16L5 17L2 17L2 16L1 16L1 15L0 15L0 19L1 19L1 20L0 20L0 22L1 22L1 21L2 21L2 22L3 22L3 21L4 21L4 20L3 20L3 19L1 19L1 17L2 17L2 18L4 18L4 19L5 19L5 22L4 22L4 23L2 23L2 24L4 24L4 23L5 23L5 22L6 22L6 23L9 23L9 21L8 21L8 20L6 20L6 19L9 19L9 20L10 20L10 19L11 19L11 20L12 20L12 21L11 21L11 23L10 23L10 25L12 25L12 26L14 26L14 27L13 27L13 28L14 28L14 27L16 27L16 28L15 28L15 30L16 30L16 29L17 29L17 30L19 30L19 29L20 29L20 26L21 26L21 25L22 25L22 24L24 24L24 23L23 23L23 21L24 21L24 22L25 22L25 23L26 23L26 22L28 22L28 23L27 23L27 24L26 24L26 27L25 27L25 28L26 28L26 30L25 30L25 29L24 29L24 28L22 28L22 27L21 27L21 29L24 29L24 30L22 30L22 32L23 32L23 33L22 33L22 35L25 35L25 34L27 34L27 35L26 35L26 36L27 36L27 35L28 35L28 36L29 36L29 37L25 37L25 36L24 36L24 37L23 37L23 36L22 36L22 40L21 40L21 43L22 43L22 44L23 44L23 43L25 43L25 41L23 41L23 42L22 42L22 40L23 40L23 39L24 39L24 40L27 40L27 41L26 41L26 43L27 43L27 42L28 42L28 44L27 44L27 45L26 45L26 46L27 46L27 45L28 45L28 44L29 44L29 46L28 46L28 48L26 48L26 50L25 50L25 48L24 48L24 49L23 49L23 47L24 47L24 45L23 45L23 46L22 46L22 45L20 45L20 46L19 46L19 45L18 45L18 44L20 44L20 43L19 43L19 42L20 42L20 40L18 40L18 41L17 41L17 40L16 40L16 41L15 41L15 40L14 40L14 41L13 41L13 42L12 42L12 43L13 43L13 44L14 44L14 45L15 45L15 46L13 46L13 45L12 45L12 44L10 44L10 45L11 45L11 48L10 48L10 51L11 51L11 53L10 53L10 52L9 52L9 51L8 51L8 53L10 53L10 54L9 54L9 55L8 55L8 57L10 57L10 56L9 56L9 55L11 55L11 56L12 56L12 57L14 57L14 56L16 56L16 57L19 57L19 56L20 56L20 57L21 57L21 55L23 55L23 56L24 56L24 57L26 57L26 56L27 56L27 57L28 57L28 55L29 55L29 57L34 57L34 56L35 56L35 57L36 57L36 55L35 55L35 53L36 53L36 52L35 52L35 49L36 49L36 50L37 50L37 53L40 53L40 55L39 55L39 54L38 54L38 55L37 55L37 57L38 57L38 56L40 56L40 57L41 57L41 56L40 56L40 55L43 55L43 56L42 56L42 57L43 57L43 56L44 56L44 57L50 57L50 55L51 55L51 57L52 57L52 55L51 55L51 54L55 54L55 49L56 49L56 50L57 50L57 43L56 43L56 42L55 42L55 41L56 41L56 40L57 40L57 39L56 39L56 38L57 38L57 34L55 34L55 33L54 33L54 35L52 35L52 34L53 34L53 33L52 33L52 32L56 32L56 33L57 33L57 31L56 31L56 30L55 30L55 29L54 29L54 28L56 28L56 29L57 29L57 28L56 28L56 26L57 26L57 24L55 24L55 22L57 22L57 20L56 20L56 17L57 17L57 16L56 16L56 17L55 17L55 16L54 16L54 15L57 15L57 12L56 12L56 10L57 10L57 8L53 8L53 10L52 10L52 8L51 8L51 10L52 10L52 12L51 12L51 13L50 13L50 9L48 9L48 7L49 7L49 6L48 6L48 7L47 7L47 5L48 5L48 0L45 0L45 1L42 1L42 2L43 2L43 4L42 4L42 3L38 3L38 2L40 2L40 1L39 1L39 0L38 0L38 2L37 2L37 0L35 0L35 1L34 1L34 3L33 3L33 1L32 1L32 2L31 2L31 4L27 4L27 2L28 2L28 3L29 3L29 2L28 2L28 1L26 1L26 2L25 2L25 3L26 3L26 8L25 8L25 6L24 6L24 8L25 8L25 9L24 9L24 10L25 10L25 9L26 9L26 11L27 11L27 9L30 9L30 10L31 10L31 11L33 11L33 12L34 12L34 13L33 13L33 15L34 15L34 16L32 16L32 14L31 14L31 13L32 13L32 12L30 12L30 11L29 11L29 10L28 10L28 16L29 16L29 17L30 17L30 18L28 18L28 17L26 17L26 16L27 16L27 13L26 13L26 16L24 16L24 17L21 17L21 16L23 16L23 15L24 15L24 14L25 14L25 12L23 12L23 10L21 10L21 9L19 9L19 8L18 8L18 7L19 7L19 5L20 5L20 7L21 7L21 6L22 6L22 8L23 8L23 6L22 6L22 5L21 5L21 4L22 4L22 3L21 3L21 4L20 4L20 1L21 1L21 2L22 2L22 1L24 1L24 0L19 0L19 1L16 1L16 0L13 0L13 1L11 1L11 0L10 0L10 1L9 1L9 0ZM29 0L29 1L31 1L31 0ZM13 1L13 2L14 2L14 1ZM46 1L46 2L47 2L47 1ZM23 2L23 5L24 5L24 2ZM17 3L17 4L18 4L18 5L19 5L19 4L18 4L18 3ZM34 3L34 5L33 5L33 4L32 4L32 5L33 5L33 7L32 7L32 6L31 6L31 9L32 9L32 10L33 10L33 9L34 9L34 8L35 8L35 9L36 9L36 8L37 8L37 7L38 7L38 8L40 8L40 9L39 9L39 10L38 10L38 9L37 9L37 10L36 10L36 11L35 11L35 13L36 13L36 15L35 15L35 14L34 14L34 15L35 15L35 16L34 16L34 19L33 19L33 18L32 18L32 17L31 17L31 14L30 14L30 13L29 13L29 16L30 16L30 17L31 17L31 18L30 18L30 19L28 19L28 20L27 20L27 18L26 18L26 17L24 17L24 18L26 18L26 20L27 20L27 21L28 21L28 20L29 20L29 21L30 21L30 22L29 22L29 23L28 23L28 25L30 25L30 26L31 26L31 28L32 28L32 29L33 29L33 30L32 30L32 31L29 31L29 32L28 32L28 31L27 31L27 32L26 32L26 31L25 31L25 30L24 30L24 31L23 31L23 32L26 32L26 33L29 33L29 34L28 34L28 35L30 35L30 36L31 36L31 35L30 35L30 34L31 34L31 33L32 33L32 32L33 32L33 33L35 33L35 34L34 34L34 35L33 35L33 34L32 34L32 39L31 39L31 37L30 37L30 38L28 38L28 39L27 39L27 40L28 40L28 42L31 42L31 41L32 41L32 42L33 42L33 41L34 41L34 40L35 40L35 41L36 41L36 40L39 40L39 41L41 41L41 44L40 44L40 42L36 42L36 43L37 43L37 44L35 44L35 45L32 45L32 43L31 43L31 45L32 45L32 48L31 48L31 46L29 46L29 47L30 47L30 48L31 48L31 49L33 49L33 50L32 50L32 51L31 51L31 53L32 53L32 54L30 54L30 53L29 53L29 55L30 55L30 56L31 56L31 55L32 55L32 56L33 56L33 54L34 54L34 53L33 53L33 52L32 52L32 51L33 51L33 50L34 50L34 49L33 49L33 47L34 47L34 46L35 46L35 48L37 48L37 50L38 50L38 52L39 52L39 51L40 51L40 52L41 52L41 54L43 54L43 50L44 50L44 51L45 51L45 53L44 53L44 56L46 56L46 54L45 54L45 53L48 53L48 56L49 56L49 55L50 55L50 53L48 53L48 50L47 50L47 52L46 52L46 51L45 51L45 50L46 50L46 49L44 49L44 48L43 48L43 47L45 47L45 45L46 45L46 42L45 42L45 41L47 41L47 42L49 42L49 43L47 43L47 45L50 45L50 44L49 44L49 43L51 43L51 44L52 44L52 43L51 43L51 41L50 41L50 40L51 40L51 39L53 39L53 40L56 40L56 39L55 39L55 38L53 38L53 37L54 37L54 36L52 36L52 35L51 35L51 33L50 33L50 31L49 31L49 33L48 33L48 35L47 35L47 32L46 32L46 27L47 27L47 28L48 28L48 26L46 26L46 23L47 23L47 24L48 24L48 25L50 25L50 26L54 26L54 25L53 25L53 24L52 24L52 25L51 25L51 23L52 23L52 22L53 22L53 23L54 23L54 21L56 21L56 20L55 20L55 18L53 18L53 17L54 17L54 16L53 16L53 15L54 15L54 13L55 13L55 14L56 14L56 12L55 12L55 11L53 11L53 12L52 12L52 13L51 13L51 15L50 15L50 16L49 16L49 15L47 15L47 16L46 16L46 14L47 14L47 13L46 13L46 11L45 11L45 10L44 10L44 9L45 9L45 8L46 8L46 10L47 10L47 12L49 12L49 11L48 11L48 10L47 10L47 8L46 8L46 6L45 6L45 8L44 8L44 5L47 5L47 3L46 3L46 4L44 4L44 5L43 5L43 7L42 7L42 6L41 6L41 5L42 5L42 4L41 4L41 5L40 5L40 4L38 4L38 3L37 3L37 4L36 4L36 3ZM37 4L37 5L34 5L34 7L35 7L35 6L36 6L36 7L37 7L37 6L38 6L38 7L39 7L39 6L40 6L40 7L41 7L41 6L40 6L40 5L39 5L39 6L38 6L38 4ZM9 5L9 7L10 7L10 6L11 6L11 5ZM27 5L27 8L30 8L30 5ZM17 6L17 7L18 7L18 6ZM28 6L28 7L29 7L29 6ZM41 8L41 9L42 9L42 11L44 11L44 10L43 10L43 9L44 9L44 8L43 8L43 9L42 9L42 8ZM54 9L54 10L56 10L56 9ZM20 10L20 14L18 14L18 13L19 13L19 12L18 12L18 13L17 13L17 12L16 12L16 13L17 13L17 15L20 15L20 16L18 16L18 17L17 17L17 16L16 16L16 15L15 15L15 14L14 14L14 13L13 13L13 12L12 12L12 11L11 11L11 12L9 12L9 13L5 13L5 14L4 14L4 13L3 13L3 15L5 15L5 16L7 16L7 17L6 17L6 18L5 18L5 19L6 19L6 18L7 18L7 17L8 17L8 18L9 18L9 19L10 19L10 18L11 18L11 19L12 19L12 20L13 20L13 21L15 21L15 23L14 23L14 22L12 22L12 24L13 24L13 25L15 25L15 26L16 26L16 25L17 25L17 24L19 24L19 23L20 23L20 22L21 22L21 24L20 24L20 25L21 25L21 24L22 24L22 21L18 21L18 22L17 22L17 20L18 20L18 19L19 19L19 18L20 18L20 16L21 16L21 15L22 15L22 14L24 14L24 13L23 13L23 12L22 12L22 11L21 11L21 10ZM37 10L37 11L36 11L36 13L37 13L37 14L38 14L38 15L36 15L36 17L35 17L35 18L37 18L37 16L38 16L38 19L37 19L37 20L38 20L38 21L37 21L37 23L38 23L38 22L39 22L39 24L40 24L40 25L39 25L39 26L40 26L40 27L39 27L39 28L40 28L40 27L44 27L44 28L45 28L45 27L44 27L44 26L45 26L45 23L44 23L44 21L45 21L45 22L47 22L47 23L48 23L48 22L47 22L47 21L50 21L50 20L47 20L47 19L48 19L48 18L47 18L47 17L45 17L45 15L44 15L44 14L45 14L45 12L44 12L44 14L43 14L43 17L44 17L44 18L43 18L43 19L44 19L44 18L46 18L46 20L47 20L47 21L45 21L45 20L44 20L44 21L43 21L43 24L44 24L44 25L42 25L42 26L40 26L40 25L41 25L41 24L40 24L40 23L41 23L41 21L42 21L42 20L38 20L38 19L39 19L39 17L40 17L40 19L42 19L42 18L41 18L41 17L42 17L42 16L41 16L41 17L40 17L40 15L41 15L41 14L42 14L42 13L41 13L41 12L40 12L40 11L41 11L41 10L40 10L40 11L39 11L39 13L37 13L37 12L38 12L38 10ZM9 13L9 14L11 14L11 15L10 15L10 17L11 17L11 18L13 18L13 19L14 19L14 20L15 20L15 21L16 21L16 20L17 20L17 19L16 19L16 18L15 18L15 17L16 17L16 16L15 16L15 15L13 15L13 14L12 14L12 13ZM21 13L21 14L20 14L20 15L21 15L21 14L22 14L22 13ZM39 13L39 15L38 15L38 16L39 16L39 15L40 15L40 14L41 14L41 13ZM48 13L48 14L49 14L49 13ZM52 13L52 15L51 15L51 16L50 16L50 18L51 18L51 16L52 16L52 17L53 17L53 16L52 16L52 15L53 15L53 13ZM5 14L5 15L8 15L8 16L9 16L9 15L8 15L8 14ZM11 15L11 16L12 16L12 15ZM13 16L13 17L14 17L14 16ZM18 17L18 18L19 18L19 17ZM21 18L21 19L20 19L20 20L21 20L21 19L22 19L22 18ZM31 18L31 20L30 20L30 21L33 21L33 19L32 19L32 18ZM52 18L52 19L51 19L51 22L49 22L49 24L50 24L50 23L51 23L51 22L52 22L52 20L53 20L53 21L54 21L54 19L53 19L53 18ZM15 19L15 20L16 20L16 19ZM23 19L23 20L25 20L25 19ZM34 19L34 20L35 20L35 19ZM6 21L6 22L8 22L8 21ZM34 21L34 22L33 22L33 24L32 24L32 22L31 22L31 24L30 24L30 25L32 25L32 26L33 26L33 25L34 25L34 24L35 24L35 25L36 25L36 23L35 23L35 21ZM39 21L39 22L40 22L40 21ZM16 22L16 23L15 23L15 24L17 24L17 22ZM0 23L0 27L1 27L1 28L0 28L0 29L1 29L1 28L2 28L2 27L1 27L1 23ZM13 23L13 24L14 24L14 23ZM5 24L5 25L4 25L4 29L3 29L3 30L0 30L0 32L1 32L1 33L3 33L3 35L2 35L2 36L3 36L3 35L4 35L4 37L0 37L0 40L1 40L1 42L0 42L0 48L5 48L5 47L7 47L7 48L6 48L6 49L7 49L7 48L9 48L9 47L10 47L10 46L9 46L9 44L5 44L5 45L4 45L4 46L5 46L5 47L3 47L3 44L4 44L4 42L5 42L5 43L10 43L10 41L11 41L11 40L13 40L13 39L11 39L11 38L14 38L14 37L15 37L15 39L16 39L16 38L18 38L18 35L16 35L16 33L15 33L15 32L14 32L14 29L13 29L13 30L12 30L12 29L11 29L11 28L10 28L10 27L11 27L11 26L6 26L6 25L7 25L7 24ZM8 24L8 25L9 25L9 24ZM18 25L18 27L17 27L17 29L18 29L18 28L19 28L19 25ZM23 25L23 27L24 27L24 26L25 26L25 25ZM34 26L34 29L35 29L35 26ZM36 26L36 29L38 29L38 26ZM5 27L5 30L8 30L8 27ZM27 27L27 30L30 30L30 27ZM49 27L49 30L52 30L52 27ZM53 27L53 28L54 28L54 27ZM6 28L6 29L7 29L7 28ZM9 28L9 29L10 29L10 28ZM28 28L28 29L29 29L29 28ZM50 28L50 29L51 29L51 28ZM39 29L39 31L41 31L41 29ZM42 29L42 30L43 30L43 32L42 32L42 33L40 33L40 32L38 32L38 30L37 30L37 32L38 32L38 33L37 33L37 35L38 35L38 33L39 33L39 34L40 34L40 35L41 35L41 34L42 34L42 35L43 35L43 36L42 36L42 37L37 37L37 36L36 36L36 37L37 37L37 39L38 39L38 38L40 38L40 39L39 39L39 40L41 40L41 41L42 41L42 43L44 43L44 41L45 41L45 39L46 39L46 40L48 40L48 41L49 41L49 42L50 42L50 41L49 41L49 39L51 39L51 37L52 37L52 36L51 36L51 35L50 35L50 34L49 34L49 36L48 36L48 37L49 37L49 39L48 39L48 38L46 38L46 36L47 36L47 35L46 35L46 36L45 36L45 35L44 35L44 34L45 34L45 33L46 33L46 32L45 32L45 33L43 33L43 32L44 32L44 30L45 30L45 29ZM47 29L47 31L48 31L48 29ZM3 30L3 31L1 31L1 32L3 32L3 31L4 31L4 32L5 32L5 33L4 33L4 34L5 34L5 35L6 35L6 36L7 36L7 37L5 37L5 40L7 40L7 41L6 41L6 42L7 42L7 41L10 41L10 40L11 40L11 39L9 39L9 40L8 40L8 38L7 38L7 37L8 37L8 35L9 35L9 34L8 34L8 31L6 31L6 32L5 32L5 31L4 31L4 30ZM10 30L10 31L9 31L9 33L10 33L10 32L11 32L11 34L10 34L10 36L9 36L9 38L10 38L10 37L11 37L11 34L12 34L12 35L13 35L13 36L12 36L12 37L13 37L13 36L15 36L15 37L17 37L17 36L16 36L16 35L15 35L15 34L12 34L12 33L14 33L14 32L13 32L13 31L12 31L12 30ZM53 30L53 31L55 31L55 30ZM16 31L16 32L19 32L19 33L17 33L17 34L19 34L19 36L20 36L20 37L19 37L19 39L20 39L20 38L21 38L21 36L20 36L20 35L21 35L21 32L20 32L20 31ZM34 31L34 32L35 32L35 33L36 33L36 31ZM51 31L51 32L52 32L52 31ZM6 32L6 33L7 33L7 32ZM29 32L29 33L30 33L30 32ZM24 33L24 34L25 34L25 33ZM42 33L42 34L43 34L43 33ZM0 34L0 36L1 36L1 34ZM6 34L6 35L7 35L7 34ZM34 35L34 36L33 36L33 37L34 37L34 38L33 38L33 39L35 39L35 35ZM55 35L55 36L56 36L56 35ZM43 36L43 37L42 37L42 38L43 38L43 39L42 39L42 41L44 41L44 39L45 39L45 36ZM49 36L49 37L50 37L50 36ZM24 37L24 38L25 38L25 37ZM43 37L43 38L44 38L44 37ZM2 38L2 40L3 40L3 41L4 41L4 40L3 40L3 38ZM6 38L6 39L7 39L7 38ZM29 40L29 41L31 41L31 40ZM16 41L16 42L14 42L14 44L16 44L16 42L17 42L17 43L18 43L18 42L17 42L17 41ZM1 42L1 45L2 45L2 42ZM55 43L55 45L56 45L56 43ZM37 44L37 45L38 45L38 44ZM43 44L43 45L45 45L45 44ZM53 44L53 45L54 45L54 44ZM5 45L5 46L7 46L7 45ZM16 45L16 46L15 46L15 48L16 48L16 47L19 47L19 46L18 46L18 45ZM39 45L39 46L40 46L40 47L41 47L41 46L40 46L40 45ZM1 46L1 47L2 47L2 46ZM8 46L8 47L9 47L9 46ZM12 46L12 48L11 48L11 49L12 49L12 48L14 48L14 47L13 47L13 46ZM21 46L21 47L20 47L20 48L19 48L19 49L18 49L18 48L17 48L17 49L18 49L18 50L16 50L16 51L17 51L17 52L16 52L16 53L14 53L14 52L15 52L15 51L14 51L14 50L13 50L13 51L12 51L12 50L11 50L11 51L12 51L12 52L13 52L13 53L14 53L14 54L12 54L12 56L14 56L14 55L16 55L16 54L17 54L17 56L19 56L19 55L20 55L20 54L21 54L21 53L19 53L19 52L21 52L21 51L22 51L22 52L25 52L25 51L24 51L24 50L23 50L23 49L22 49L22 50L21 50L21 47L22 47L22 46ZM37 46L37 48L38 48L38 50L39 50L39 48L38 48L38 46ZM46 46L46 47L47 47L47 49L48 49L48 48L50 48L50 47L49 47L49 46L48 46L48 47L47 47L47 46ZM54 46L54 47L53 47L53 48L54 48L54 49L55 49L55 47L56 47L56 46ZM51 47L51 48L52 48L52 47ZM41 48L41 49L40 49L40 51L42 51L42 50L43 50L43 48ZM8 49L8 50L9 50L9 49ZM27 49L27 52L30 52L30 49ZM49 49L49 52L52 52L52 49ZM20 50L20 51L21 51L21 50ZM22 50L22 51L23 51L23 50ZM28 50L28 51L29 51L29 50ZM50 50L50 51L51 51L51 50ZM53 50L53 51L54 51L54 50ZM56 51L56 54L57 54L57 51ZM53 52L53 53L54 53L54 52ZM18 53L18 54L19 54L19 53ZM23 53L23 55L24 55L24 56L25 56L25 54L26 54L26 55L27 55L27 54L28 54L28 53L27 53L27 54L26 54L26 53L25 53L25 54L24 54L24 53ZM55 55L55 56L54 56L54 57L55 57L55 56L56 56L56 57L57 57L57 55ZM0 0L0 7L7 7L7 0ZM1 1L1 6L6 6L6 1ZM2 2L2 5L5 5L5 2ZM50 0L50 7L57 7L57 0ZM51 1L51 6L56 6L56 1ZM52 2L52 5L55 5L55 2ZM0 50L0 57L7 57L7 50ZM1 51L1 56L6 56L6 51ZM2 52L2 55L5 55L5 52Z" fill="#000000"/></g></g></svg>
