<?xml version="1.0" encoding="UTF-8"?>
<svg xmlns="http://www.w3.org/2000/svg" version="1.1" width="100" height="100" viewBox="0 0 100 100"><rect x="0" y="0" width="100" height="100" fill="#ffffff"/><g transform="scale(1.887)"><g transform="translate(0,0)"><path fill-rule="evenodd" d="M8 0L8 1L9 1L9 0ZM12 0L12 2L14 2L14 4L12 4L12 5L11 5L11 6L10 6L10 5L9 5L9 4L10 4L10 3L9 3L9 2L8 2L8 5L9 5L9 6L8 6L8 7L9 7L9 6L10 6L10 8L12 8L12 9L13 9L13 8L12 8L12 7L13 7L13 5L14 5L14 7L15 7L15 6L16 6L16 7L17 7L17 6L18 6L18 8L20 8L20 9L23 9L23 10L24 10L24 11L25 11L25 12L27 12L27 11L26 11L26 10L25 10L25 9L29 9L29 10L28 10L28 11L29 11L29 12L30 12L30 13L25 13L25 14L24 14L24 15L23 15L23 14L22 14L22 12L23 12L23 13L24 13L24 12L23 12L23 11L22 11L22 10L21 10L21 11L22 11L22 12L21 12L21 17L22 17L22 18L23 18L23 19L21 19L21 18L18 18L18 17L19 17L19 16L20 16L20 12L19 12L19 11L17 11L17 10L18 10L18 9L17 9L17 8L16 8L16 11L15 11L15 10L13 10L13 16L12 16L12 15L11 15L11 14L12 14L12 13L11 13L11 14L10 14L10 13L9 13L9 12L10 12L10 11L12 11L12 10L10 10L10 9L9 9L9 8L8 8L8 9L7 9L7 8L6 8L6 9L5 9L5 10L4 10L4 11L5 11L5 12L4 12L4 13L3 13L3 9L4 9L4 8L0 8L0 10L2 10L2 13L3 13L3 14L1 14L1 11L0 11L0 14L1 14L1 15L3 15L3 14L4 14L4 13L9 13L9 16L8 16L8 18L6 18L6 17L7 17L7 16L5 16L5 15L4 15L4 16L3 16L3 18L1 18L1 17L2 17L2 16L1 16L1 17L0 17L0 18L1 18L1 19L0 19L0 20L1 20L1 19L4 19L4 16L5 16L5 18L6 18L6 19L5 19L5 21L4 21L4 20L3 20L3 23L1 23L1 22L0 22L0 23L1 23L1 24L0 24L0 25L1 25L1 26L3 26L3 27L4 27L4 28L2 28L2 29L0 29L0 30L2 30L2 31L0 31L0 33L1 33L1 34L0 34L0 37L1 37L1 38L2 38L2 36L3 36L3 37L4 37L4 40L3 40L3 39L2 39L2 40L1 40L1 39L0 39L0 40L1 40L1 41L0 41L0 43L1 43L1 44L3 44L3 45L4 45L4 44L3 44L3 43L7 43L7 44L6 44L6 45L8 45L8 46L9 46L9 49L8 49L8 53L9 53L9 52L11 52L11 53L13 53L13 52L11 52L11 50L12 50L12 51L13 51L13 50L12 50L12 49L13 49L13 47L14 47L14 48L17 48L17 50L14 50L14 51L15 51L15 53L17 53L17 52L16 52L16 51L18 51L18 53L19 53L19 51L18 51L18 48L19 48L19 46L20 46L20 47L21 47L21 48L22 48L22 47L21 47L21 42L23 42L23 44L22 44L22 45L23 45L23 44L24 44L24 46L23 46L23 47L24 47L24 49L26 49L26 50L25 50L25 53L26 53L26 51L29 51L29 52L31 52L31 53L34 53L34 52L33 52L33 51L36 51L36 47L33 47L33 46L35 46L35 45L36 45L36 44L37 44L37 46L38 46L38 47L37 47L37 50L39 50L39 51L42 51L42 53L43 53L43 52L44 52L44 53L47 53L47 52L49 52L49 53L52 53L52 52L53 52L53 50L52 50L52 49L49 49L49 48L50 48L50 45L51 45L51 47L52 47L52 46L53 46L53 45L51 45L51 44L48 44L48 42L47 42L47 41L48 41L48 40L49 40L49 38L50 38L50 39L51 39L51 40L50 40L50 41L52 41L52 42L53 42L53 41L52 41L52 39L53 39L53 38L51 38L51 37L50 37L50 36L52 36L52 37L53 37L53 35L52 35L52 34L50 34L50 33L49 33L49 32L50 32L50 31L53 31L53 29L52 29L52 27L53 27L53 25L52 25L52 23L51 23L51 25L50 25L50 23L49 23L49 24L47 24L47 23L46 23L46 22L48 22L48 21L49 21L49 22L50 22L50 21L51 21L51 20L52 20L52 21L53 21L53 18L50 18L50 19L51 19L51 20L50 20L50 21L49 21L49 17L48 17L48 18L47 18L47 16L46 16L46 19L45 19L45 18L44 18L44 17L45 17L45 16L44 16L44 15L48 15L48 16L49 16L49 15L48 15L48 13L49 13L49 14L50 14L50 17L52 17L52 14L53 14L53 13L49 13L49 12L48 12L48 11L47 11L47 9L46 9L46 8L45 8L45 6L44 6L44 7L43 7L43 3L44 3L44 4L45 4L45 3L44 3L44 1L43 1L43 0L42 0L42 1L41 1L41 0L40 0L40 1L39 1L39 0L38 0L38 1L39 1L39 2L40 2L40 1L41 1L41 4L40 4L40 5L39 5L39 4L37 4L37 3L35 3L35 2L36 2L36 0L30 0L30 1L32 1L32 2L31 2L31 3L30 3L30 2L29 2L29 1L28 1L28 0L27 0L27 1L26 1L26 0L25 0L25 1L26 1L26 2L25 2L25 3L24 3L24 1L23 1L23 3L21 3L21 4L18 4L18 3L19 3L19 2L18 2L18 3L17 3L17 2L16 2L16 0L15 0L15 1L14 1L14 0ZM17 0L17 1L21 1L21 2L22 2L22 1L21 1L21 0ZM10 1L10 2L11 2L11 1ZM33 1L33 2L32 2L32 3L33 3L33 2L35 2L35 1ZM15 2L15 3L16 3L16 4L15 4L15 5L16 5L16 6L17 6L17 5L18 5L18 6L19 6L19 7L20 7L20 6L21 6L21 8L23 8L23 9L24 9L24 8L23 8L23 7L24 7L24 6L23 6L23 7L22 7L22 6L21 6L21 5L22 5L22 4L21 4L21 5L20 5L20 6L19 6L19 5L18 5L18 4L17 4L17 3L16 3L16 2ZM26 2L26 3L25 3L25 4L26 4L26 3L27 3L27 4L29 4L29 9L30 9L30 10L29 10L29 11L30 11L30 12L32 12L32 13L34 13L34 14L30 14L30 15L31 15L31 16L33 16L33 17L32 17L32 19L31 19L31 18L30 18L30 17L29 17L29 16L28 16L28 17L27 17L27 16L25 16L25 17L24 17L24 16L23 16L23 17L24 17L24 18L25 18L25 19L26 19L26 20L24 20L24 19L23 19L23 20L20 20L20 21L18 21L18 23L17 23L17 22L16 22L16 21L17 21L17 18L16 18L16 17L18 17L18 16L19 16L19 12L17 12L17 11L16 11L16 12L15 12L15 11L14 11L14 12L15 12L15 14L14 14L14 16L13 16L13 18L12 18L12 19L13 19L13 20L11 20L11 17L9 17L9 18L10 18L10 19L6 19L6 20L8 20L8 21L6 21L6 22L8 22L8 21L9 21L9 20L11 20L11 21L10 21L10 22L9 22L9 27L10 27L10 28L11 28L11 29L10 29L10 33L8 33L8 34L7 34L7 33L6 33L6 34L7 34L7 35L6 35L6 36L5 36L5 34L4 34L4 33L3 33L3 32L4 32L4 31L3 31L3 32L1 32L1 33L2 33L2 34L1 34L1 36L2 36L2 34L3 34L3 36L5 36L5 38L8 38L8 39L9 39L9 40L10 40L10 41L11 41L11 42L10 42L10 44L12 44L12 45L13 45L13 46L14 46L14 47L17 47L17 48L18 48L18 46L19 46L19 45L20 45L20 44L18 44L18 43L17 43L17 44L16 44L16 46L14 46L14 45L13 45L13 44L12 44L12 43L13 43L13 41L11 41L11 40L10 40L10 39L9 39L9 38L11 38L11 37L12 37L12 38L13 38L13 39L12 39L12 40L14 40L14 42L15 42L15 41L16 41L16 42L17 42L17 39L19 39L19 38L18 38L18 37L17 37L17 36L16 36L16 35L19 35L19 37L21 37L21 36L22 36L22 37L27 37L27 38L25 38L25 39L24 39L24 38L23 38L23 40L25 40L25 39L26 39L26 40L27 40L27 41L25 41L25 42L26 42L26 43L27 43L27 44L30 44L30 45L31 45L31 46L33 46L33 44L34 44L34 45L35 45L35 42L36 42L36 40L37 40L37 39L38 39L38 40L39 40L39 41L38 41L38 43L39 43L39 45L38 45L38 46L40 46L40 47L38 47L38 48L39 48L39 50L40 50L40 49L41 49L41 50L42 50L42 49L44 49L44 46L41 46L41 45L43 45L43 43L45 43L45 42L43 42L43 43L42 43L42 42L41 42L41 41L43 41L43 40L41 40L41 39L42 39L42 38L44 38L44 39L45 39L45 37L46 37L46 41L47 41L47 39L48 39L48 38L47 38L47 37L48 37L48 36L50 36L50 34L49 34L49 33L48 33L48 32L49 32L49 31L50 31L50 30L51 30L51 27L52 27L52 26L51 26L51 27L50 27L50 25L49 25L49 29L48 29L48 31L47 31L47 29L46 29L46 31L47 31L47 33L48 33L48 36L47 36L47 35L46 35L46 33L45 33L45 32L44 32L44 31L45 31L45 30L43 30L43 29L42 29L42 27L44 27L44 24L45 24L45 22L46 22L46 20L47 20L47 21L48 21L48 20L47 20L47 19L46 19L46 20L45 20L45 21L44 21L44 20L43 20L43 19L42 19L42 18L41 18L41 17L39 17L39 16L40 16L40 14L39 14L39 12L40 12L40 11L41 11L41 10L42 10L42 8L43 8L43 9L44 9L44 11L42 11L42 12L41 12L41 15L44 15L44 14L46 14L46 12L45 12L45 10L46 10L46 9L45 9L45 8L43 8L43 7L42 7L42 6L41 6L41 7L40 7L40 6L39 6L39 5L37 5L37 4L30 4L30 3L29 3L29 2ZM42 2L42 3L43 3L43 2ZM16 4L16 5L17 5L17 4ZM23 4L23 5L24 5L24 4ZM25 5L25 8L28 8L28 5ZM30 5L30 7L31 7L31 9L32 9L32 8L33 8L33 9L34 9L34 7L35 7L35 6L36 6L36 8L37 8L37 9L35 9L35 10L31 10L31 11L34 11L34 13L35 13L35 14L34 14L34 15L36 15L36 11L35 11L35 10L37 10L37 11L40 11L40 7L39 7L39 6L38 6L38 7L37 7L37 6L36 6L36 5L35 5L35 6L34 6L34 5L33 5L33 6L32 6L32 7L31 7L31 5ZM11 6L11 7L12 7L12 6ZM26 6L26 7L27 7L27 6ZM33 6L33 7L34 7L34 6ZM14 8L14 9L15 9L15 8ZM38 8L38 9L37 9L37 10L39 10L39 8ZM48 8L48 9L49 9L49 10L50 10L50 11L51 11L51 12L53 12L53 10L52 10L52 9L53 9L53 8L52 8L52 9L51 9L51 8ZM6 9L6 10L7 10L7 9ZM8 9L8 10L9 10L9 9ZM50 9L50 10L51 10L51 9ZM6 11L6 12L7 12L7 11ZM16 12L16 13L17 13L17 12ZM42 12L42 13L44 13L44 12ZM6 14L6 15L8 15L8 14ZM16 14L16 15L17 15L17 16L18 16L18 15L17 15L17 14ZM26 14L26 15L29 15L29 14ZM37 14L37 15L39 15L39 14ZM14 16L14 17L16 17L16 16ZM36 16L36 17L37 17L37 18L34 18L34 17L33 17L33 19L32 19L32 20L33 20L33 21L35 21L35 22L38 22L38 20L39 20L39 21L41 21L41 19L40 19L40 18L39 18L39 19L37 19L37 18L38 18L38 16ZM43 16L43 17L44 17L44 16ZM28 17L28 18L29 18L29 17ZM13 18L13 19L14 19L14 20L15 20L15 19L14 19L14 18ZM18 19L18 20L19 20L19 19ZM27 19L27 21L28 21L28 22L29 22L29 23L27 23L27 22L26 22L26 21L23 21L23 22L25 22L25 23L24 23L24 24L23 24L23 23L22 23L22 22L21 22L21 21L20 21L20 22L19 22L19 23L20 23L20 22L21 22L21 23L22 23L22 25L21 25L21 26L20 26L20 25L19 25L19 24L18 24L18 25L16 25L16 24L17 24L17 23L14 23L14 22L13 22L13 21L12 21L12 22L11 22L11 25L10 25L10 26L11 26L11 28L13 28L13 27L12 27L12 24L13 24L13 25L14 25L14 26L17 26L17 27L16 27L16 28L15 28L15 30L16 30L16 31L12 31L12 29L11 29L11 34L10 34L10 35L9 35L9 34L8 34L8 36L6 36L6 37L9 37L9 36L10 36L10 37L11 37L11 36L12 36L12 35L13 35L13 34L14 34L14 36L15 36L15 37L14 37L14 40L16 40L16 38L17 38L17 37L16 37L16 36L15 36L15 35L16 35L16 33L18 33L18 34L21 34L21 35L22 35L22 36L23 36L23 35L24 35L24 36L25 36L25 35L24 35L24 34L23 34L23 35L22 35L22 34L21 34L21 32L22 32L22 33L23 33L23 32L22 32L22 31L21 31L21 29L24 29L24 30L23 30L23 31L24 31L24 32L25 32L25 31L26 31L26 32L27 32L27 31L26 31L26 29L27 29L27 30L29 30L29 28L31 28L31 29L30 29L30 30L31 30L31 31L32 31L32 32L29 32L29 31L28 31L28 33L31 33L31 34L32 34L32 35L33 35L33 34L36 34L36 32L37 32L37 34L38 34L38 35L39 35L39 36L42 36L42 35L43 35L43 37L44 37L44 36L45 36L45 35L43 35L43 32L42 32L42 35L40 35L40 34L41 34L41 32L39 32L39 31L40 31L40 29L39 29L39 28L40 28L40 27L42 27L42 26L43 26L43 25L40 25L40 24L42 24L42 23L40 23L40 22L39 22L39 25L40 25L40 26L39 26L39 28L38 28L38 27L36 27L36 26L38 26L38 25L37 25L37 23L34 23L34 22L32 22L32 21L29 21L29 20L28 20L28 19ZM34 19L34 20L35 20L35 21L36 21L36 20L37 20L37 19ZM39 19L39 20L40 20L40 19ZM43 21L43 23L44 23L44 21ZM4 22L4 23L3 23L3 24L2 24L2 25L3 25L3 26L4 26L4 24L5 24L5 22ZM12 22L12 23L13 23L13 22ZM6 23L6 24L7 24L7 23ZM25 23L25 24L27 24L27 23ZM30 23L30 24L29 24L29 25L30 25L30 27L31 27L31 28L32 28L32 31L33 31L33 32L32 32L32 33L33 33L33 32L34 32L34 33L35 33L35 32L36 32L36 31L35 31L35 30L36 30L36 29L37 29L37 28L36 28L36 27L33 27L33 26L34 26L34 25L33 25L33 24L32 24L32 25L30 25L30 24L31 24L31 23ZM5 25L5 28L8 28L8 25ZM18 25L18 27L19 27L19 25ZM25 25L25 28L28 28L28 25ZM35 25L35 26L36 26L36 25ZM45 25L45 28L48 28L48 25ZM6 26L6 27L7 27L7 26ZM26 26L26 27L27 27L27 26ZM46 26L46 27L47 27L47 26ZM0 27L0 28L1 28L1 27ZM20 27L20 29L17 29L17 30L18 30L18 31L20 31L20 29L21 29L21 27ZM22 27L22 28L24 28L24 27ZM32 27L32 28L33 28L33 27ZM2 29L2 30L4 30L4 29ZM5 29L5 32L8 32L8 31L6 31L6 30L7 30L7 29ZM33 29L33 30L35 30L35 29ZM38 29L38 30L39 30L39 29ZM42 30L42 31L43 31L43 30ZM16 31L16 32L17 32L17 31ZM14 32L14 34L15 34L15 32ZM51 32L51 33L53 33L53 32ZM39 33L39 34L40 34L40 33ZM44 33L44 34L45 34L45 33ZM26 34L26 36L27 36L27 34ZM28 34L28 37L29 37L29 38L28 38L28 39L29 39L29 40L28 40L28 41L27 41L27 42L31 42L31 44L33 44L33 43L32 43L32 41L30 41L30 40L32 40L32 37L33 37L33 36L32 36L32 37L31 37L31 36L30 36L30 35L29 35L29 34ZM10 35L10 36L11 36L11 35ZM34 35L34 38L33 38L33 39L36 39L36 37L37 37L37 38L39 38L39 39L41 39L41 38L40 38L40 37L38 37L38 36L37 36L37 35L36 35L36 36L35 36L35 35ZM29 36L29 37L30 37L30 38L29 38L29 39L30 39L30 38L31 38L31 37L30 37L30 36ZM15 37L15 38L16 38L16 37ZM20 38L20 40L18 40L18 42L19 42L19 43L20 43L20 42L21 42L21 41L22 41L22 39L21 39L21 38ZM5 39L5 41L3 41L3 40L2 40L2 41L1 41L1 42L2 42L2 43L3 43L3 42L5 42L5 41L6 41L6 42L7 42L7 41L6 41L6 40L7 40L7 39ZM33 40L33 41L35 41L35 40ZM2 41L2 42L3 42L3 41ZM8 41L8 43L9 43L9 41ZM19 41L19 42L20 42L20 41ZM23 41L23 42L24 42L24 41ZM11 42L11 43L12 43L12 42ZM49 42L49 43L51 43L51 42ZM14 43L14 44L15 44L15 43ZM46 43L46 44L47 44L47 43ZM52 43L52 44L53 44L53 43ZM8 44L8 45L9 45L9 46L11 46L11 48L10 48L10 50L11 50L11 48L12 48L12 46L11 46L11 45L9 45L9 44ZM17 44L17 46L18 46L18 44ZM40 44L40 45L41 45L41 44ZM25 45L25 48L28 48L28 45ZM45 45L45 48L48 48L48 45ZM26 46L26 47L27 47L27 46ZM46 46L46 47L47 47L47 46ZM30 47L30 48L29 48L29 49L27 49L27 50L29 50L29 51L31 51L31 52L32 52L32 51L33 51L33 50L32 50L32 49L33 49L33 47L32 47L32 49L30 49L30 48L31 48L31 47ZM40 47L40 48L41 48L41 47ZM34 48L34 49L35 49L35 48ZM21 49L21 50L20 50L20 51L22 51L22 53L23 53L23 51L24 51L24 50L22 50L22 49ZM46 49L46 50L44 50L44 51L46 51L46 52L47 52L47 51L46 51L46 50L47 50L47 49ZM48 49L48 50L49 50L49 49ZM50 50L50 52L52 52L52 50ZM37 51L37 52L38 52L38 53L40 53L40 52L38 52L38 51ZM20 52L20 53L21 53L21 52ZM27 52L27 53L28 53L28 52ZM0 0L0 7L7 7L7 0ZM1 1L1 6L6 6L6 1ZM2 2L2 5L5 5L5 2ZM46 0L46 7L53 7L53 0ZM47 1L47 6L52 6L52 1ZM48 2L48 5L51 5L51 2ZM0 46L0 53L7 53L7 46ZM1 47L1 52L6 52L6 47ZM2 48L2 51L5 51L5 48Z" fill="#000000"/></g></g></svg>
