<?xml version="1.0" encoding="UTF-8"?>
<svg xmlns="http://www.w3.org/2000/svg" version="1.1" width="100" height="100" viewBox="0 0 100 100"><rect x="0" y="0" width="100" height="100" fill="#ffffff"/><g transform="scale(1.754)"><g transform="translate(0,0)"><path fill-rule="evenodd" d="M8 0L8 1L10 1L10 2L8 2L8 5L9 5L9 4L10 4L10 3L11 3L11 5L10 5L10 8L11 8L11 5L12 5L12 7L13 7L13 8L12 8L12 9L13 9L13 8L15 8L15 9L14 9L14 11L15 11L15 12L16 12L16 13L13 13L13 11L12 11L12 10L10 10L10 11L11 11L11 12L12 12L12 13L13 13L13 14L16 14L16 15L18 15L18 12L19 12L19 11L21 11L21 12L20 12L20 13L21 13L21 14L20 14L20 15L19 15L19 16L18 16L18 17L21 17L21 18L17 18L17 17L16 17L16 16L14 16L14 15L12 15L12 17L11 17L11 16L10 16L10 17L9 17L9 20L8 20L8 18L6 18L6 19L3 19L3 20L2 20L2 18L1 18L1 19L0 19L0 21L1 21L1 22L0 22L0 23L1 23L1 24L0 24L0 27L1 27L1 25L2 25L2 27L3 27L3 29L4 29L4 31L2 31L2 29L1 29L1 31L0 31L0 33L1 33L1 34L0 34L0 36L3 36L3 37L0 37L0 41L1 41L1 43L0 43L0 44L1 44L1 45L2 45L2 47L1 47L1 46L0 46L0 48L5 48L5 47L8 47L8 43L7 43L7 42L6 42L6 41L8 41L8 42L11 42L11 43L10 43L10 44L9 44L9 45L10 45L10 46L9 46L9 47L13 47L13 49L14 49L14 50L17 50L17 51L18 51L18 52L19 52L19 51L21 51L21 52L20 52L20 55L19 55L19 54L17 54L17 53L16 53L16 51L15 51L15 53L16 53L16 54L17 54L17 55L19 55L19 57L21 57L21 56L22 56L22 57L23 57L23 56L24 56L24 57L30 57L30 55L31 55L31 57L32 57L32 56L33 56L33 57L39 57L39 56L38 56L38 55L39 55L39 53L41 53L41 54L42 54L42 55L44 55L44 54L45 54L45 51L41 51L41 49L43 49L43 50L44 50L44 48L45 48L45 45L44 45L44 44L46 44L46 43L47 43L47 41L48 41L48 44L47 44L47 45L46 45L46 51L47 51L47 54L48 54L48 56L50 56L50 57L53 57L53 55L55 55L55 56L56 56L56 55L55 55L55 54L54 54L54 53L57 53L57 51L56 51L56 50L57 50L57 49L56 49L56 48L57 48L57 45L54 45L54 47L56 47L56 48L55 48L55 50L53 50L53 47L52 47L52 46L51 46L51 47L50 47L50 46L49 46L49 48L48 48L48 44L50 44L50 43L49 43L49 42L51 42L51 44L52 44L52 45L53 45L53 44L55 44L55 43L53 43L53 44L52 44L52 40L47 40L47 41L46 41L46 42L45 42L45 43L44 43L44 42L43 42L43 41L45 41L45 40L43 40L43 39L44 39L44 38L43 38L43 37L45 37L45 38L46 38L46 39L47 39L47 38L51 38L51 39L53 39L53 40L54 40L54 41L53 41L53 42L54 42L54 41L55 41L55 42L56 42L56 44L57 44L57 42L56 42L56 41L55 41L55 38L54 38L54 39L53 39L53 38L52 38L52 37L50 37L50 35L49 35L49 36L48 36L48 32L50 32L50 31L51 31L51 33L49 33L49 34L51 34L51 33L52 33L52 35L51 35L51 36L53 36L53 33L54 33L54 37L55 37L55 36L57 36L57 35L56 35L56 34L57 34L57 33L55 33L55 32L56 32L56 30L57 30L57 28L56 28L56 25L55 25L55 24L56 24L56 23L57 23L57 22L56 22L56 23L55 23L55 20L54 20L54 19L56 19L56 20L57 20L57 18L54 18L54 17L57 17L57 16L52 16L52 17L51 17L51 16L50 16L50 14L49 14L49 13L51 13L51 12L54 12L54 11L55 11L55 14L53 14L53 13L52 13L52 14L51 14L51 15L55 15L55 14L56 14L56 15L57 15L57 13L56 13L56 11L57 11L57 10L56 10L56 9L57 9L57 8L56 8L56 9L55 9L55 8L52 8L52 9L51 9L51 12L50 12L50 10L49 10L49 9L50 9L50 8L46 8L46 7L47 7L47 5L48 5L48 0L46 0L46 1L45 1L45 0L43 0L43 1L44 1L44 3L42 3L42 1L41 1L41 3L42 3L42 5L41 5L41 4L40 4L40 0L39 0L39 1L38 1L38 0L36 0L36 1L38 1L38 2L39 2L39 3L38 3L38 4L40 4L40 5L37 5L37 4L36 4L36 3L37 3L37 2L36 2L36 3L35 3L35 2L34 2L34 1L35 1L35 0L34 0L34 1L33 1L33 0L31 0L31 1L32 1L32 3L31 3L31 4L30 4L30 3L29 3L29 2L30 2L30 1L29 1L29 2L28 2L28 0L25 0L25 1L24 1L24 0L22 0L22 1L21 1L21 4L20 4L20 3L19 3L19 2L18 2L18 3L17 3L17 1L12 1L12 2L15 2L15 3L14 3L14 5L17 5L17 4L18 4L18 5L19 5L19 4L20 4L20 5L21 5L21 6L20 6L20 8L23 8L23 11L21 11L21 10L22 10L22 9L21 9L21 10L20 10L20 9L17 9L17 6L16 6L16 7L15 7L15 6L14 6L14 7L13 7L13 5L12 5L12 3L11 3L11 1L10 1L10 0ZM22 1L22 3L23 3L23 4L22 4L22 5L23 5L23 8L24 8L24 3L25 3L25 4L26 4L26 2L23 2L23 1ZM46 1L46 2L45 2L45 4L43 4L43 5L42 5L42 6L41 6L41 8L43 8L43 10L41 10L41 9L40 9L40 11L39 11L39 8L38 8L38 10L36 10L36 12L35 12L35 14L33 14L33 13L32 13L32 12L34 12L34 11L35 11L35 10L34 10L34 9L37 9L37 7L38 7L38 6L37 6L37 5L36 5L36 6L35 6L35 5L33 5L33 4L31 4L31 5L32 5L32 6L31 6L31 9L28 9L28 11L29 11L29 12L31 12L31 13L30 13L30 15L31 15L31 16L32 16L32 17L35 17L35 15L36 15L36 17L38 17L38 19L42 19L42 20L43 20L43 22L42 22L42 21L41 21L41 20L40 20L40 21L41 21L41 22L39 22L39 20L37 20L37 19L36 19L36 18L34 18L34 20L33 20L33 18L32 18L32 21L35 21L35 24L34 24L34 22L33 22L33 23L31 23L31 19L30 19L30 18L31 18L31 17L30 17L30 16L29 16L29 15L27 15L27 16L26 16L26 15L25 15L25 13L24 13L24 14L23 14L23 12L22 12L22 14L23 14L23 15L22 15L22 16L21 16L21 15L20 15L20 16L21 16L21 17L22 17L22 18L21 18L21 20L20 20L20 21L21 21L21 20L22 20L22 21L23 21L23 22L22 22L22 23L21 23L21 22L19 22L19 21L18 21L18 19L16 19L16 20L17 20L17 21L16 21L16 23L15 23L15 21L14 21L14 20L15 20L15 19L13 19L13 17L12 17L12 22L11 22L11 24L15 24L15 25L16 25L16 26L17 26L17 27L15 27L15 26L14 26L14 25L12 25L12 27L14 27L14 29L13 29L13 30L12 30L12 28L11 28L11 25L9 25L9 23L8 23L8 20L7 20L7 19L6 19L6 20L7 20L7 21L6 21L6 22L5 22L5 21L4 21L4 20L3 20L3 21L2 21L2 22L1 22L1 23L2 23L2 22L3 22L3 23L4 23L4 24L2 24L2 25L3 25L3 27L4 27L4 25L6 25L6 26L9 26L9 31L8 31L8 32L7 32L7 31L4 31L4 32L5 32L5 34L7 34L7 35L4 35L4 33L3 33L3 32L2 32L2 31L1 31L1 32L2 32L2 33L3 33L3 35L4 35L4 37L5 37L5 38L3 38L3 40L5 40L5 41L4 41L4 42L5 42L5 44L3 44L3 41L2 41L2 43L1 43L1 44L2 44L2 45L3 45L3 47L5 47L5 46L4 46L4 45L5 45L5 44L7 44L7 43L6 43L6 42L5 42L5 41L6 41L6 40L9 40L9 41L10 41L10 38L9 38L9 39L6 39L6 40L5 40L5 38L8 38L8 37L6 37L6 36L7 36L7 35L8 35L8 34L9 34L9 35L10 35L10 36L9 36L9 37L11 37L11 34L12 34L12 35L13 35L13 34L14 34L14 37L15 37L15 35L16 35L16 34L17 34L17 36L16 36L16 37L17 37L17 38L14 38L14 39L13 39L13 36L12 36L12 39L13 39L13 40L15 40L15 41L14 41L14 43L13 43L13 42L12 42L12 41L11 41L11 42L12 42L12 43L11 43L11 45L13 45L13 44L14 44L14 43L15 43L15 42L16 42L16 45L14 45L14 46L13 46L13 47L14 47L14 49L16 49L16 48L15 48L15 47L16 47L16 45L17 45L17 50L18 50L18 51L19 51L19 50L18 50L18 47L19 47L19 48L21 48L21 49L20 49L20 50L21 50L21 49L22 49L22 50L25 50L25 52L23 52L23 51L22 51L22 52L21 52L21 53L23 53L23 54L21 54L21 55L20 55L20 56L21 56L21 55L22 55L22 56L23 56L23 54L25 54L25 52L26 52L26 50L25 50L25 49L24 49L24 48L25 48L25 47L26 47L26 48L27 48L27 47L26 47L26 46L27 46L27 45L26 45L26 42L27 42L27 43L28 43L28 44L29 44L29 43L28 43L28 42L31 42L31 40L32 40L32 41L34 41L34 43L30 43L30 45L28 45L28 47L29 47L29 48L31 48L31 49L33 49L33 50L31 50L31 52L32 52L32 53L33 53L33 54L31 54L31 53L27 53L27 54L26 54L26 56L28 56L28 55L29 55L29 54L31 54L31 55L33 55L33 56L35 56L35 55L34 55L34 53L33 53L33 52L32 52L32 51L34 51L34 52L35 52L35 54L36 54L36 52L35 52L35 51L34 51L34 48L32 48L32 47L29 47L29 46L30 46L30 45L31 45L31 46L32 46L32 45L33 45L33 44L34 44L34 47L35 47L35 48L37 48L37 49L35 49L35 50L36 50L36 51L38 51L38 52L37 52L37 55L36 55L36 56L37 56L37 55L38 55L38 52L39 52L39 50L40 50L40 49L41 49L41 47L42 47L42 48L44 48L44 46L43 46L43 45L42 45L42 44L43 44L43 43L42 43L42 41L43 41L43 40L42 40L42 41L38 41L38 40L39 40L39 39L37 39L37 38L38 38L38 37L37 37L37 38L36 38L36 39L37 39L37 40L36 40L36 42L35 42L35 41L34 41L34 39L35 39L35 37L36 37L36 36L37 36L37 35L38 35L38 36L39 36L39 35L38 35L38 32L37 32L37 33L36 33L36 31L34 31L34 28L35 28L35 27L33 27L33 26L35 26L35 24L36 24L36 25L37 25L37 26L40 26L40 25L41 25L41 27L38 27L38 28L36 28L36 30L38 30L38 31L41 31L41 33L42 33L42 34L40 34L40 33L39 33L39 34L40 34L40 37L41 37L41 39L40 39L40 40L41 40L41 39L42 39L42 36L44 36L44 35L42 35L42 34L45 34L45 33L44 33L44 32L43 32L43 31L41 31L41 30L43 30L43 29L40 29L40 28L41 28L41 27L42 27L42 26L43 26L43 27L45 27L45 28L44 28L44 31L46 31L46 32L47 32L47 30L48 30L48 28L47 28L47 26L49 26L49 24L51 24L51 25L52 25L52 26L53 26L53 27L54 27L54 28L53 28L53 29L54 29L54 30L53 30L53 31L52 31L52 32L53 32L53 31L54 31L54 32L55 32L55 30L56 30L56 29L54 29L54 28L55 28L55 27L54 27L54 26L55 26L55 25L54 25L54 24L55 24L55 23L54 23L54 21L52 21L52 20L51 20L51 22L50 22L50 23L48 23L48 25L47 25L47 24L46 24L46 25L44 25L44 23L43 23L43 22L44 22L44 21L45 21L45 23L46 23L46 22L48 22L48 21L47 21L47 20L50 20L50 19L51 19L51 17L49 17L49 16L48 16L48 18L50 18L50 19L47 19L47 15L48 15L48 13L45 13L45 11L48 11L48 12L49 12L49 11L48 11L48 10L46 10L46 8L45 8L45 9L44 9L44 8L43 8L43 7L44 7L44 6L45 6L45 7L46 7L46 6L45 6L45 4L46 4L46 5L47 5L47 3L46 3L46 2L47 2L47 1ZM16 3L16 4L17 4L17 3ZM18 3L18 4L19 4L19 3ZM27 3L27 4L28 4L28 3ZM34 3L34 4L35 4L35 3ZM25 5L25 8L26 8L26 5ZM27 5L27 8L30 8L30 5ZM8 6L8 7L9 7L9 6ZM18 6L18 8L19 8L19 6ZM21 6L21 7L22 7L22 6ZM28 6L28 7L29 7L29 6ZM32 6L32 10L31 10L31 12L32 12L32 10L33 10L33 8L35 8L35 6L34 6L34 7L33 7L33 6ZM36 6L36 7L37 7L37 6ZM39 6L39 7L40 7L40 6ZM42 6L42 7L43 7L43 6ZM48 6L48 7L49 7L49 6ZM0 8L0 11L1 11L1 12L0 12L0 14L1 14L1 15L2 15L2 16L4 16L4 15L5 15L5 16L6 16L6 17L7 17L7 16L6 16L6 15L7 15L7 14L8 14L8 13L7 13L7 12L9 12L9 13L10 13L10 12L9 12L9 10L8 10L8 11L7 11L7 10L6 10L6 9L7 9L7 8L6 8L6 9L4 9L4 8ZM8 8L8 9L9 9L9 8ZM2 9L2 10L1 10L1 11L2 11L2 12L1 12L1 13L3 13L3 15L4 15L4 13L3 13L3 11L4 11L4 12L5 12L5 15L6 15L6 14L7 14L7 13L6 13L6 12L7 12L7 11L6 11L6 12L5 12L5 10L4 10L4 9ZM16 9L16 11L17 11L17 12L18 12L18 10L17 10L17 9ZM26 9L26 10L25 10L25 11L24 11L24 12L25 12L25 11L26 11L26 12L27 12L27 9ZM54 9L54 10L55 10L55 9ZM2 10L2 11L3 11L3 10ZM29 10L29 11L30 11L30 10ZM43 10L43 13L42 13L42 14L39 14L39 12L36 12L36 14L37 14L37 16L38 16L38 17L40 17L40 16L42 16L42 19L44 19L44 20L46 20L46 19L44 19L44 18L43 18L43 16L44 16L44 17L45 17L45 18L46 18L46 17L45 17L45 15L47 15L47 14L45 14L45 13L44 13L44 11L45 11L45 10ZM52 10L52 11L53 11L53 10ZM41 11L41 12L40 12L40 13L41 13L41 12L42 12L42 11ZM27 13L27 14L28 14L28 13ZM31 13L31 14L32 14L32 13ZM37 13L37 14L38 14L38 13ZM42 14L42 15L45 15L45 14ZM8 15L8 16L9 16L9 15ZM23 15L23 18L25 18L25 21L24 21L24 20L23 20L23 21L24 21L24 22L25 22L25 24L24 24L24 25L25 25L25 27L24 27L24 26L23 26L23 25L22 25L22 26L21 26L21 25L17 25L17 23L16 23L16 25L17 25L17 26L21 26L21 29L20 29L20 30L21 30L21 29L22 29L22 30L23 30L23 29L24 29L24 30L25 30L25 31L27 31L27 32L25 32L25 33L26 33L26 35L25 35L25 34L24 34L24 32L22 32L22 31L19 31L19 30L18 30L18 28L20 28L20 27L17 27L17 29L16 29L16 31L17 31L17 32L16 32L16 33L17 33L17 34L19 34L19 35L20 35L20 34L19 34L19 33L20 33L20 32L22 32L22 33L21 33L21 35L22 35L22 36L21 36L21 37L20 37L20 36L19 36L19 37L18 37L18 36L17 36L17 37L18 37L18 38L17 38L17 39L16 39L16 42L17 42L17 45L18 45L18 46L19 46L19 47L20 47L20 46L21 46L21 47L22 47L22 49L23 49L23 48L24 48L24 44L22 44L22 42L21 42L21 43L20 43L20 41L22 41L22 39L23 39L23 40L24 40L24 39L25 39L25 41L23 41L23 42L24 42L24 43L25 43L25 41L26 41L26 40L27 40L27 38L29 38L29 39L28 39L28 40L31 40L31 39L30 39L30 38L31 38L31 36L29 36L29 33L32 33L32 34L30 34L30 35L33 35L33 36L32 36L32 37L35 37L35 36L36 36L36 35L34 35L34 33L35 33L35 32L34 32L34 31L33 31L33 32L32 32L32 29L31 29L31 27L32 27L32 26L33 26L33 25L31 25L31 26L29 26L29 25L26 25L26 23L28 23L28 22L25 22L25 21L26 21L26 20L28 20L28 21L29 21L29 22L30 22L30 21L29 21L29 20L28 20L28 18L29 18L29 17L27 17L27 19L26 19L26 18L25 18L25 17L24 17L24 16L25 16L25 15ZM38 15L38 16L39 16L39 15ZM3 17L3 18L5 18L5 17ZM15 17L15 18L16 18L16 17ZM52 17L52 19L53 19L53 17ZM10 19L10 21L9 21L9 22L10 22L10 21L11 21L11 19ZM36 20L36 21L37 21L37 20ZM3 21L3 22L4 22L4 21ZM6 22L6 23L5 23L5 24L6 24L6 25L8 25L8 23L7 23L7 22ZM12 22L12 23L13 23L13 22ZM37 22L37 23L39 23L39 24L37 24L37 25L39 25L39 24L42 24L42 22L41 22L41 23L39 23L39 22ZM51 22L51 23L52 23L52 24L54 24L54 23L52 23L52 22ZM6 23L6 24L7 24L7 23ZM20 23L20 24L21 24L21 23ZM29 23L29 24L30 24L30 23ZM53 25L53 26L54 26L54 25ZM22 26L22 27L23 27L23 26ZM45 26L45 27L46 27L46 26ZM5 27L5 30L8 30L8 27ZM27 27L27 30L30 30L30 27ZM49 27L49 30L52 30L52 27ZM6 28L6 29L7 29L7 28ZM10 28L10 29L11 29L11 28ZM28 28L28 29L29 29L29 28ZM46 28L46 29L47 29L47 28ZM50 28L50 29L51 29L51 28ZM25 29L25 30L26 30L26 29ZM38 29L38 30L40 30L40 29ZM10 30L10 31L9 31L9 32L10 32L10 31L12 31L12 30ZM13 31L13 32L12 32L12 34L13 34L13 32L15 32L15 31ZM28 31L28 32L27 32L27 35L28 35L28 32L29 32L29 31ZM6 32L6 33L7 33L7 34L8 34L8 33L7 33L7 32ZM17 32L17 33L18 33L18 32ZM33 32L33 33L34 33L34 32ZM10 33L10 34L11 34L11 33ZM46 33L46 34L47 34L47 33ZM22 34L22 35L23 35L23 34ZM24 35L24 36L22 36L22 37L23 37L23 39L24 39L24 36L25 36L25 38L27 38L27 37L26 37L26 36L25 36L25 35ZM41 35L41 36L42 36L42 35ZM28 36L28 37L29 37L29 38L30 38L30 37L29 37L29 36ZM46 36L46 38L47 38L47 36ZM19 37L19 38L18 38L18 39L19 39L19 40L18 40L18 41L17 41L17 42L18 42L18 43L19 43L19 42L18 42L18 41L20 41L20 40L21 40L21 38L20 38L20 37ZM56 37L56 38L57 38L57 37ZM33 38L33 39L34 39L34 38ZM1 39L1 40L2 40L2 39ZM56 39L56 40L57 40L57 39ZM37 41L37 42L36 42L36 43L35 43L35 44L36 44L36 45L37 45L37 47L39 47L39 49L40 49L40 45L41 45L41 44L40 44L40 43L38 43L38 44L37 44L37 42L38 42L38 41ZM20 44L20 45L19 45L19 46L20 46L20 45L21 45L21 46L22 46L22 47L23 47L23 45L22 45L22 44ZM39 44L39 45L40 45L40 44ZM6 45L6 46L7 46L7 45ZM25 45L25 46L26 46L26 45ZM14 46L14 47L15 47L15 46ZM6 48L6 49L8 49L8 50L9 50L9 51L11 51L11 50L12 50L12 52L11 52L11 54L12 54L12 55L13 55L13 53L14 53L14 52L13 52L13 50L12 50L12 49L11 49L11 48L10 48L10 49L11 49L11 50L9 50L9 48ZM47 48L47 50L48 50L48 48ZM27 49L27 52L30 52L30 49ZM37 49L37 50L38 50L38 49ZM49 49L49 52L52 52L52 49ZM28 50L28 51L29 51L29 50ZM50 50L50 51L51 51L51 50ZM55 51L55 52L56 52L56 51ZM12 52L12 53L13 53L13 52ZM41 52L41 53L42 53L42 54L43 54L43 53L44 53L44 52ZM53 52L53 53L52 53L52 54L51 54L51 53L48 53L48 54L49 54L49 55L50 55L50 56L52 56L52 54L53 54L53 53L54 53L54 52ZM8 53L8 57L11 57L11 55L10 55L10 53ZM27 54L27 55L28 55L28 54ZM24 55L24 56L25 56L25 55ZM40 55L40 57L42 57L42 56L41 56L41 55ZM45 55L45 56L43 56L43 57L45 57L45 56L46 56L46 57L47 57L47 56L46 56L46 55ZM13 56L13 57L16 57L16 56ZM0 0L0 7L7 7L7 0ZM1 1L1 6L6 6L6 1ZM2 2L2 5L5 5L5 2ZM50 0L50 7L57 7L57 0ZM51 1L51 6L56 6L56 1ZM52 2L52 5L55 5L55 2ZM0 50L0 57L7 57L7 50ZM1 51L1 56L6 56L6 51ZM2 52L2 55L5 55L5 52Z" fill="#000000"/></g></g></svg>
