<?xml version="1.0" encoding="UTF-8"?>
<svg xmlns="http://www.w3.org/2000/svg" version="1.1" width="100" height="100" viewBox="0 0 100 100"><rect x="0" y="0" width="100" height="100" fill="#ffffff"/><g transform="scale(1.754)"><g transform="translate(0,0)"><path fill-rule="evenodd" d="M9 0L9 1L8 1L8 2L9 2L9 1L10 1L10 3L8 3L8 4L11 4L11 6L10 6L10 7L11 7L11 6L12 6L12 9L10 9L10 8L6 8L6 9L10 9L10 10L11 10L11 11L14 11L14 12L12 12L12 13L11 13L11 12L10 12L10 13L9 13L9 12L5 12L5 14L4 14L4 15L3 15L3 13L4 13L4 12L2 12L2 11L3 11L3 10L4 10L4 11L5 11L5 10L4 10L4 9L5 9L5 8L0 8L0 9L1 9L1 10L0 10L0 12L2 12L2 14L1 14L1 13L0 13L0 14L1 14L1 15L2 15L2 16L0 16L0 17L1 17L1 20L0 20L0 21L2 21L2 22L1 22L1 23L2 23L2 24L0 24L0 25L2 25L2 24L3 24L3 25L5 25L5 26L4 26L4 27L2 27L2 26L1 26L1 27L0 27L0 28L1 28L1 29L0 29L0 30L1 30L1 31L0 31L0 32L1 32L1 33L3 33L3 34L4 34L4 35L2 35L2 34L0 34L0 36L1 36L1 35L2 35L2 38L1 38L1 37L0 37L0 38L1 38L1 39L2 39L2 41L1 41L1 42L2 42L2 41L3 41L3 43L0 43L0 45L1 45L1 44L3 44L3 43L4 43L4 42L6 42L6 43L5 43L5 44L4 44L4 45L3 45L3 46L2 46L2 47L1 47L1 46L0 46L0 48L5 48L5 47L8 47L8 51L9 51L9 50L11 50L11 51L12 51L12 52L11 52L11 53L9 53L9 52L8 52L8 57L9 57L9 55L11 55L11 53L12 53L12 56L13 56L13 57L15 57L15 55L16 55L16 56L17 56L17 57L19 57L19 55L20 55L20 54L18 54L18 53L20 53L20 51L21 51L21 50L22 50L22 49L23 49L23 48L25 48L25 49L24 49L24 50L23 50L23 51L22 51L22 52L21 52L21 55L22 55L22 56L21 56L21 57L25 57L25 56L26 56L26 54L27 54L27 56L29 56L29 57L32 57L32 56L33 56L33 55L32 55L32 54L33 54L33 53L34 53L34 54L35 54L35 57L40 57L40 56L41 56L41 57L43 57L43 56L44 56L44 57L46 57L46 56L44 56L44 55L43 55L43 53L44 53L44 54L45 54L45 55L46 55L46 53L47 53L47 52L48 52L48 53L49 53L49 54L47 54L47 55L48 55L48 56L47 56L47 57L49 57L49 56L50 56L50 55L49 55L49 54L50 54L50 53L52 53L52 55L51 55L51 56L53 56L53 57L56 57L56 56L57 56L57 55L55 55L55 54L56 54L56 53L55 53L55 52L57 52L57 51L56 51L56 50L55 50L55 49L56 49L56 48L57 48L57 46L56 46L56 47L55 47L55 45L56 45L56 42L55 42L55 41L54 41L54 40L55 40L55 39L56 39L56 41L57 41L57 39L56 39L56 38L55 38L55 37L56 37L56 36L53 36L53 39L54 39L54 40L53 40L53 42L55 42L55 44L54 44L54 45L52 45L52 44L51 44L51 47L49 47L49 48L48 48L48 50L47 50L47 48L46 48L46 49L45 49L45 48L44 48L44 46L43 46L43 47L41 47L41 48L42 48L42 50L41 50L41 49L40 49L40 48L39 48L39 49L40 49L40 50L39 50L39 51L40 51L40 52L38 52L38 51L37 51L37 50L38 50L38 49L37 49L37 48L38 48L38 47L40 47L40 46L42 46L42 45L40 45L40 44L43 44L43 45L45 45L45 46L46 46L46 47L47 47L47 46L50 46L50 44L49 44L49 43L50 43L50 42L51 42L51 43L52 43L52 42L51 42L51 41L52 41L52 40L51 40L51 37L50 37L50 36L51 36L51 35L54 35L54 34L55 34L55 35L57 35L57 33L56 33L56 32L55 32L55 31L57 31L57 29L56 29L56 30L55 30L55 29L54 29L54 27L53 27L53 25L52 25L52 26L51 26L51 25L49 25L49 24L50 24L50 23L51 23L51 22L52 22L52 21L53 21L53 22L54 22L54 23L52 23L52 24L54 24L54 23L55 23L55 21L56 21L56 20L54 20L54 21L53 21L53 20L50 20L50 21L49 21L49 18L50 18L50 19L51 19L51 18L53 18L53 19L54 19L54 18L55 18L55 19L56 19L56 18L57 18L57 17L56 17L56 16L57 16L57 14L56 14L56 13L55 13L55 12L57 12L57 11L54 11L54 8L53 8L53 9L52 9L52 8L51 8L51 9L52 9L52 10L53 10L53 13L51 13L51 12L49 12L49 11L51 11L51 10L50 10L50 8L49 8L49 6L48 6L48 7L47 7L47 5L48 5L48 0L42 0L42 2L41 2L41 4L39 4L39 5L41 5L41 6L40 6L40 8L41 8L41 9L40 9L40 10L43 10L43 11L39 11L39 10L38 10L38 9L39 9L39 8L38 8L38 7L39 7L39 6L38 6L38 5L35 5L35 6L34 6L34 5L33 5L33 4L34 4L34 3L32 3L32 1L30 1L30 0L29 0L29 2L27 2L27 4L26 4L26 3L25 3L25 2L24 2L24 1L25 1L25 0L24 0L24 1L23 1L23 3L22 3L22 2L21 2L21 1L22 1L22 0L21 0L21 1L20 1L20 0L18 0L18 1L17 1L17 0L13 0L13 1L12 1L12 2L13 2L13 3L12 3L12 4L11 4L11 1L10 1L10 0ZM26 0L26 1L28 1L28 0ZM33 0L33 1L34 1L34 2L35 2L35 3L37 3L37 4L38 4L38 1L35 1L35 0ZM39 0L39 1L40 1L40 0ZM13 1L13 2L15 2L15 4L14 4L14 3L13 3L13 5L14 5L14 6L13 6L13 7L14 7L14 6L15 6L15 7L16 7L16 9L18 9L18 8L19 8L19 7L20 7L20 5L19 5L19 7L18 7L18 4L22 4L22 3L21 3L21 2L20 2L20 1L19 1L19 2L18 2L18 3L17 3L17 2L15 2L15 1ZM43 1L43 2L44 2L44 3L45 3L45 5L44 5L44 4L43 4L43 3L42 3L42 4L41 4L41 5L44 5L44 6L43 6L43 9L44 9L44 12L41 12L41 14L39 14L39 13L38 13L38 14L37 14L37 13L34 13L34 12L37 12L37 11L35 11L35 10L37 10L37 9L38 9L38 8L37 8L37 7L38 7L38 6L37 6L37 7L36 7L36 6L35 6L35 7L34 7L34 6L33 6L33 5L32 5L32 3L31 3L31 5L32 5L32 6L31 6L31 7L32 7L32 8L31 8L31 10L30 10L30 9L29 9L29 10L27 10L27 9L26 9L26 10L25 10L25 11L26 11L26 10L27 10L27 12L24 12L24 13L26 13L26 14L24 14L24 15L25 15L25 16L24 16L24 18L23 18L23 16L22 16L22 15L23 15L23 13L22 13L22 12L21 12L21 11L22 11L22 10L21 10L21 8L22 8L22 9L23 9L23 10L24 10L24 9L25 9L25 8L26 8L26 4L25 4L25 8L24 8L24 6L23 6L23 5L24 5L24 4L23 4L23 5L21 5L21 8L20 8L20 10L19 10L19 11L20 11L20 12L21 12L21 13L22 13L22 14L21 14L21 15L20 15L20 14L19 14L19 15L17 15L17 13L18 13L18 12L17 12L17 11L18 11L18 10L15 10L15 9L14 9L14 8L13 8L13 9L12 9L12 10L15 10L15 13L12 13L12 14L11 14L11 16L10 16L10 15L9 15L9 16L7 16L7 15L6 15L6 14L7 14L7 13L6 13L6 14L5 14L5 15L4 15L4 16L7 16L7 17L6 17L6 18L7 18L7 19L6 19L6 20L5 20L5 21L3 21L3 19L2 19L2 21L3 21L3 22L2 22L2 23L3 23L3 24L5 24L5 25L6 25L6 26L7 26L7 25L6 25L6 24L8 24L8 23L9 23L9 21L8 21L8 20L9 20L9 19L8 19L8 17L9 17L9 18L10 18L10 17L11 17L11 16L12 16L12 18L13 18L13 19L11 19L11 20L13 20L13 21L12 21L12 22L11 22L11 21L10 21L10 22L11 22L11 23L10 23L10 24L12 24L12 25L11 25L11 28L10 28L10 26L9 26L9 25L8 25L8 26L9 26L9 30L10 30L10 29L11 29L11 31L12 31L12 32L10 32L10 33L12 33L12 34L9 34L9 35L11 35L11 36L10 36L10 37L11 37L11 38L9 38L9 39L6 39L6 38L7 38L7 37L3 37L3 38L2 38L2 39L5 39L5 40L4 40L4 41L5 41L5 40L10 40L10 41L9 41L9 44L8 44L8 41L6 41L6 42L7 42L7 43L6 43L6 44L7 44L7 45L6 45L6 46L7 46L7 45L9 45L9 46L8 46L8 47L9 47L9 46L10 46L10 45L12 45L12 44L13 44L13 42L14 42L14 45L15 45L15 47L14 47L14 46L13 46L13 48L14 48L14 49L12 49L12 47L10 47L10 49L12 49L12 51L13 51L13 53L14 53L14 52L15 52L15 51L14 51L14 49L15 49L15 50L16 50L16 48L17 48L17 49L18 49L18 48L19 48L19 47L20 47L20 49L19 49L19 51L18 51L18 52L19 52L19 51L20 51L20 49L22 49L22 48L21 48L21 47L24 47L24 45L25 45L25 46L26 46L26 47L25 47L25 48L26 48L26 47L27 47L27 48L29 48L29 47L31 47L31 48L32 48L32 49L31 49L31 50L32 50L32 53L33 53L33 52L34 52L34 53L35 53L35 54L37 54L37 56L40 56L40 55L41 55L41 54L42 54L42 53L41 53L41 52L40 52L40 53L39 53L39 55L38 55L38 52L37 52L37 51L36 51L36 52L35 52L35 50L36 50L36 49L35 49L35 46L37 46L37 47L38 47L38 46L37 46L37 45L38 45L38 44L39 44L39 43L41 43L41 42L44 42L44 43L43 43L43 44L44 44L44 43L45 43L45 45L46 45L46 46L47 46L47 45L46 45L46 44L48 44L48 45L49 45L49 44L48 44L48 42L50 42L50 41L51 41L51 40L50 40L50 41L47 41L47 40L48 40L48 39L50 39L50 37L49 37L49 36L50 36L50 35L51 35L51 34L52 34L52 33L54 33L54 32L53 32L53 31L51 31L51 32L50 32L50 31L48 31L48 29L47 29L47 30L45 30L45 28L47 28L47 26L49 26L49 25L48 25L48 23L49 23L49 22L48 22L48 21L47 21L47 19L46 19L46 18L48 18L48 17L49 17L49 16L47 16L47 15L46 15L46 14L48 14L48 15L50 15L50 18L51 18L51 17L53 17L53 18L54 18L54 17L55 17L55 18L56 18L56 17L55 17L55 16L56 16L56 14L51 14L51 13L49 13L49 12L48 12L48 13L46 13L46 14L45 14L45 12L47 12L47 11L48 11L48 10L49 10L49 8L48 8L48 10L47 10L47 9L46 9L46 8L47 8L47 7L46 7L46 5L47 5L47 3L46 3L46 2L47 2L47 1L46 1L46 2L45 2L45 1ZM19 2L19 3L20 3L20 2ZM15 4L15 5L16 5L16 4ZM8 5L8 7L9 7L9 5ZM27 5L27 8L30 8L30 5ZM16 6L16 7L17 7L17 8L18 8L18 7L17 7L17 6ZM22 6L22 7L23 7L23 6ZM28 6L28 7L29 7L29 6ZM32 6L32 7L33 7L33 6ZM41 6L41 7L42 7L42 6ZM44 6L44 7L45 7L45 8L46 8L46 7L45 7L45 6ZM23 8L23 9L24 9L24 8ZM34 8L34 9L32 9L32 10L31 10L31 11L29 11L29 12L28 12L28 13L27 13L27 14L29 14L29 16L28 16L28 15L27 15L27 16L28 16L28 17L27 17L27 18L26 18L26 16L25 16L25 19L24 19L24 21L23 21L23 22L24 22L24 21L25 21L25 22L26 22L26 23L25 23L25 24L24 24L24 23L23 23L23 24L24 24L24 25L25 25L25 24L27 24L27 21L28 21L28 20L29 20L29 22L30 22L30 23L29 23L29 24L28 24L28 25L27 25L27 26L25 26L25 27L24 27L24 26L23 26L23 29L24 29L24 31L21 31L21 32L20 32L20 31L19 31L19 30L20 30L20 29L18 29L18 28L16 28L16 30L15 30L15 29L14 29L14 28L15 28L15 27L16 27L16 26L17 26L17 27L18 27L18 26L20 26L20 25L18 25L18 24L19 24L19 23L20 23L20 22L19 22L19 21L20 21L20 20L19 20L19 18L20 18L20 19L21 19L21 16L20 16L20 15L19 15L19 16L18 16L18 17L17 17L17 16L15 16L15 18L16 18L16 19L18 19L18 20L17 20L17 21L16 21L16 20L15 20L15 21L16 21L16 22L14 22L14 21L13 21L13 22L12 22L12 24L14 24L14 23L16 23L16 24L17 24L17 25L16 25L16 26L14 26L14 25L12 25L12 27L13 27L13 26L14 26L14 28L12 28L12 31L13 31L13 32L12 32L12 33L14 33L14 34L15 34L15 35L16 35L16 34L17 34L17 33L18 33L18 35L17 35L17 36L18 36L18 37L17 37L17 40L18 40L18 39L19 39L19 42L18 42L18 43L17 43L17 42L16 42L16 43L15 43L15 44L16 44L16 45L17 45L17 46L16 46L16 47L19 47L19 46L22 46L22 45L24 45L24 44L25 44L25 43L24 43L24 42L25 42L25 41L24 41L24 40L25 40L25 39L27 39L27 40L28 40L28 41L26 41L26 42L28 42L28 41L31 41L31 42L29 42L29 44L27 44L27 43L26 43L26 45L29 45L29 46L28 46L28 47L29 47L29 46L30 46L30 45L31 45L31 44L30 44L30 43L31 43L31 42L33 42L33 41L36 41L36 42L35 42L35 44L34 44L34 45L33 45L33 43L32 43L32 46L31 46L31 47L32 47L32 46L33 46L33 47L34 47L34 45L35 45L35 44L36 44L36 45L37 45L37 44L36 44L36 43L38 43L38 39L40 39L40 38L41 38L41 36L43 36L43 37L44 37L44 38L43 38L43 39L42 39L42 40L41 40L41 41L42 41L42 40L43 40L43 41L44 41L44 38L45 38L45 37L46 37L46 38L47 38L47 37L46 37L46 36L45 36L45 37L44 37L44 36L43 36L43 35L44 35L44 34L43 34L43 33L44 33L44 32L43 32L43 31L44 31L44 28L43 28L43 26L45 26L45 27L46 27L46 26L47 26L47 24L45 24L45 25L43 25L43 24L44 24L44 22L45 22L45 23L46 23L46 22L45 22L45 19L44 19L44 18L43 18L43 17L41 17L41 16L44 16L44 17L45 17L45 18L46 18L46 16L44 16L44 14L43 14L43 13L42 13L42 14L41 14L41 15L39 15L39 14L38 14L38 15L37 15L37 14L34 14L34 13L33 13L33 12L32 12L32 13L30 13L30 12L31 12L31 11L32 11L32 10L33 10L33 11L34 11L34 10L35 10L35 9L36 9L36 8ZM55 8L55 10L56 10L56 8ZM2 9L2 10L1 10L1 11L2 11L2 10L3 10L3 9ZM45 9L45 11L46 11L46 9ZM6 10L6 11L9 11L9 10ZM38 11L38 12L39 12L39 11ZM16 12L16 13L15 13L15 15L16 15L16 13L17 13L17 12ZM48 13L48 14L49 14L49 13ZM12 14L12 16L13 16L13 18L14 18L14 14ZM30 14L30 15L31 15L31 16L29 16L29 18L30 18L30 19L31 19L31 20L34 20L34 21L35 21L35 22L32 22L32 21L31 21L31 22L32 22L32 24L29 24L29 25L28 25L28 26L31 26L31 25L32 25L32 24L33 24L33 26L32 26L32 27L31 27L31 29L32 29L32 35L31 35L31 33L30 33L30 32L31 32L31 31L30 31L30 32L29 32L29 31L27 31L27 32L28 32L28 33L27 33L27 34L25 34L25 33L24 33L24 34L21 34L21 33L19 33L19 35L18 35L18 36L19 36L19 37L18 37L18 38L19 38L19 39L20 39L20 38L19 38L19 37L21 37L21 40L20 40L20 44L19 44L19 45L20 45L20 44L21 44L21 45L22 45L22 44L21 44L21 43L22 43L22 42L21 42L21 40L22 40L22 41L23 41L23 42L24 42L24 41L23 41L23 40L24 40L24 39L23 39L23 38L24 38L24 37L23 37L23 38L22 38L22 36L21 36L21 35L24 35L24 34L25 34L25 37L26 37L26 38L27 38L27 37L26 37L26 35L27 35L27 36L28 36L28 40L29 40L29 35L28 35L28 34L29 34L29 33L30 33L30 35L31 35L31 38L30 38L30 40L31 40L31 41L32 41L32 40L36 40L36 38L37 38L37 39L38 39L38 38L37 38L37 37L40 37L40 35L42 35L42 34L41 34L41 33L42 33L42 32L41 32L41 30L43 30L43 28L41 28L41 29L40 29L40 28L39 28L39 27L41 27L41 26L40 26L40 25L39 25L39 24L41 24L41 25L42 25L42 24L41 24L41 23L43 23L43 22L44 22L44 21L42 21L42 20L41 20L41 19L43 19L43 18L38 18L38 17L37 17L37 18L38 18L38 19L35 19L35 18L34 18L34 17L33 17L33 16L35 16L35 17L36 17L36 16L37 16L37 15L36 15L36 16L35 16L35 15L34 15L34 14ZM32 15L32 16L31 16L31 17L30 17L30 18L31 18L31 19L32 19L32 18L33 18L33 19L34 19L34 18L33 18L33 17L32 17L32 16L33 16L33 15ZM38 15L38 16L39 16L39 15ZM52 15L52 16L53 16L53 17L54 17L54 16L55 16L55 15L54 15L54 16L53 16L53 15ZM2 16L2 17L3 17L3 16ZM9 16L9 17L10 17L10 16ZM4 17L4 19L5 19L5 17ZM27 18L27 19L28 19L28 18ZM13 19L13 20L14 20L14 19ZM25 19L25 21L27 21L27 20L26 20L26 19ZM39 19L39 20L37 20L37 21L39 21L39 22L42 22L42 21L39 21L39 20L40 20L40 19ZM6 20L6 21L5 21L5 22L3 22L3 23L5 23L5 24L6 24L6 23L8 23L8 22L6 22L6 21L7 21L7 20ZM18 20L18 21L19 21L19 20ZM35 20L35 21L36 21L36 20ZM21 21L21 22L22 22L22 21ZM5 22L5 23L6 23L6 22ZM36 22L36 24L34 24L34 25L36 25L36 26L35 26L35 28L34 28L34 27L32 27L32 28L33 28L33 29L34 29L34 31L33 31L33 32L34 32L34 33L33 33L33 35L32 35L32 36L33 36L33 35L34 35L34 34L36 34L36 35L35 35L35 36L34 36L34 37L35 37L35 38L34 38L34 39L35 39L35 38L36 38L36 37L37 37L37 36L38 36L38 35L39 35L39 34L40 34L40 33L41 33L41 32L40 32L40 33L37 33L37 32L38 32L38 31L39 31L39 30L40 30L40 29L39 29L39 28L38 28L38 27L39 27L39 26L37 26L37 25L38 25L38 22ZM47 22L47 23L48 23L48 22ZM17 23L17 24L18 24L18 23ZM36 24L36 25L37 25L37 24ZM54 25L54 26L55 26L55 25ZM21 26L21 27L22 27L22 26ZM5 27L5 30L8 30L8 27ZM19 27L19 28L20 28L20 27ZM25 27L25 28L26 28L26 27ZM27 27L27 30L30 30L30 27ZM36 27L36 28L35 28L35 29L36 29L36 30L35 30L35 31L34 31L34 32L36 32L36 30L39 30L39 29L36 29L36 28L37 28L37 27ZM49 27L49 30L52 30L52 27ZM55 27L55 28L57 28L57 27ZM2 28L2 29L1 29L1 30L2 30L2 31L4 31L4 28ZM6 28L6 29L7 29L7 28ZM21 28L21 29L22 29L22 28ZM28 28L28 29L29 29L29 28ZM50 28L50 29L51 29L51 28ZM2 29L2 30L3 30L3 29ZM13 29L13 30L14 30L14 31L15 31L15 32L14 32L14 33L15 33L15 34L16 34L16 33L17 33L17 30L18 30L18 29L17 29L17 30L16 30L16 31L15 31L15 30L14 30L14 29ZM53 29L53 30L54 30L54 31L55 31L55 30L54 30L54 29ZM6 31L6 32L3 32L3 33L4 33L4 34L5 34L5 33L6 33L6 34L8 34L8 33L6 33L6 32L9 32L9 31ZM18 31L18 32L19 32L19 31ZM25 31L25 32L26 32L26 31ZM45 31L45 32L46 32L46 33L45 33L45 35L46 35L46 34L48 34L48 35L47 35L47 36L48 36L48 35L50 35L50 34L51 34L51 33L50 33L50 32L49 32L49 33L50 33L50 34L48 34L48 33L47 33L47 32L48 32L48 31L47 31L47 32L46 32L46 31ZM22 32L22 33L23 33L23 32ZM36 33L36 34L37 34L37 35L38 35L38 34L37 34L37 33ZM20 34L20 35L19 35L19 36L20 36L20 35L21 35L21 34ZM4 35L4 36L7 36L7 35ZM11 36L11 37L13 37L13 36ZM14 36L14 38L11 38L11 39L10 39L10 40L11 40L11 41L10 41L10 43L11 43L11 44L12 44L12 43L11 43L11 41L13 41L13 40L12 40L12 39L15 39L15 40L14 40L14 41L16 41L16 39L15 39L15 38L16 38L16 37L15 37L15 36ZM35 36L35 37L36 37L36 36ZM32 37L32 38L31 38L31 40L32 40L32 38L33 38L33 37ZM45 40L45 41L46 41L46 43L47 43L47 41L46 41L46 40ZM16 43L16 44L17 44L17 45L18 45L18 44L17 44L17 43ZM23 43L23 44L24 44L24 43ZM29 44L29 45L30 45L30 44ZM39 45L39 46L40 46L40 45ZM3 46L3 47L5 47L5 46ZM52 46L52 47L51 47L51 48L53 48L53 49L55 49L55 47L54 47L54 46ZM53 47L53 48L54 48L54 47ZM6 48L6 49L7 49L7 48ZM33 48L33 49L34 49L34 50L35 50L35 49L34 49L34 48ZM25 49L25 51L26 51L26 49ZM27 49L27 52L30 52L30 49ZM43 49L43 50L44 50L44 51L46 51L46 52L45 52L45 53L46 53L46 52L47 52L47 50L45 50L45 49ZM49 49L49 52L52 52L52 49ZM28 50L28 51L29 51L29 50ZM40 50L40 51L41 51L41 50ZM50 50L50 51L51 51L51 50ZM53 50L53 51L54 51L54 52L55 52L55 51L54 51L54 50ZM16 51L16 53L15 53L15 54L16 54L16 53L17 53L17 51ZM23 52L23 53L22 53L22 55L24 55L24 56L25 56L25 54L26 54L26 53L24 53L24 52ZM36 52L36 53L37 53L37 52ZM23 53L23 54L24 54L24 53ZM28 53L28 54L30 54L30 56L31 56L31 54L30 54L30 53ZM40 53L40 54L41 54L41 53ZM13 55L13 56L14 56L14 55ZM17 55L17 56L18 56L18 55ZM0 0L0 7L7 7L7 0ZM1 1L1 6L6 6L6 1ZM2 2L2 5L5 5L5 2ZM50 0L50 7L57 7L57 0ZM51 1L51 6L56 6L56 1ZM52 2L52 5L55 5L55 2ZM0 50L0 57L7 57L7 50ZM1 51L1 56L6 56L6 51ZM2 52L2 55L5 55L5 52Z" fill="#000000"/></g></g></svg>
