<?xml version="1.0" encoding="UTF-8"?>
<svg xmlns="http://www.w3.org/2000/svg" version="1.1" width="100" height="100" viewBox="0 0 100 100"><rect x="0" y="0" width="100" height="100" fill="#ffffff"/><g transform="scale(1.754)"><g transform="translate(0,0)"><path fill-rule="evenodd" d="M8 0L8 4L9 4L9 5L8 5L8 7L9 7L9 8L12 8L12 7L13 7L13 9L12 9L12 10L13 10L13 11L12 11L12 12L13 12L13 11L14 11L14 12L15 12L15 13L13 13L13 14L12 14L12 13L11 13L11 14L10 14L10 12L11 12L11 9L8 9L8 10L10 10L10 12L9 12L9 14L8 14L8 11L7 11L7 10L5 10L5 9L7 9L7 8L4 8L4 10L3 10L3 12L4 12L4 13L5 13L5 17L4 17L4 18L3 18L3 19L4 19L4 21L7 21L7 20L6 20L6 19L9 19L9 20L8 20L8 23L7 23L7 22L6 22L6 23L7 23L7 24L6 24L6 25L7 25L7 26L5 26L5 25L4 25L4 28L3 28L3 27L2 27L2 25L1 25L1 23L2 23L2 24L3 24L3 23L2 23L2 22L3 22L3 20L1 20L1 18L0 18L0 26L1 26L1 27L2 27L2 28L0 28L0 29L2 29L2 28L3 28L3 30L4 30L4 31L3 31L3 32L1 32L1 33L3 33L3 35L2 35L2 37L3 37L3 38L1 38L1 37L0 37L0 38L1 38L1 40L0 40L0 48L5 48L5 47L7 47L7 48L6 48L6 49L8 49L8 50L9 50L9 48L8 48L8 47L10 47L10 46L8 46L8 47L7 47L7 46L6 46L6 45L7 45L7 44L6 44L6 45L5 45L5 43L3 43L3 44L1 44L1 43L2 43L2 41L1 41L1 40L2 40L2 39L3 39L3 41L4 41L4 42L5 42L5 39L7 39L7 40L6 40L6 41L7 41L7 40L8 40L8 41L10 41L10 39L8 39L8 37L7 37L7 36L6 36L6 35L7 35L7 34L11 34L11 37L10 37L10 36L9 36L9 35L8 35L8 36L9 36L9 38L11 38L11 39L12 39L12 37L14 37L14 35L15 35L15 34L16 34L16 36L15 36L15 37L16 37L16 36L17 36L17 34L16 34L16 33L18 33L18 34L20 34L20 35L18 35L18 36L19 36L19 37L17 37L17 38L16 38L16 39L15 39L15 38L14 38L14 40L13 40L13 41L12 41L12 40L11 40L11 41L12 41L12 43L11 43L11 42L8 42L8 43L10 43L10 45L11 45L11 46L12 46L12 44L13 44L13 42L14 42L14 44L15 44L15 41L14 41L14 40L17 40L17 41L16 41L16 42L17 42L17 43L16 43L16 44L17 44L17 43L18 43L18 42L19 42L19 40L20 40L20 41L21 41L21 38L22 38L22 39L23 39L23 40L22 40L22 41L24 41L24 39L23 39L23 37L24 37L24 38L25 38L25 37L26 37L26 38L27 38L27 40L25 40L25 42L23 42L23 43L25 43L25 42L26 42L26 41L27 41L27 40L29 40L29 41L30 41L30 42L29 42L29 43L26 43L26 44L25 44L25 46L24 46L24 47L26 47L26 49L24 49L24 50L26 50L26 51L25 51L25 52L24 52L24 53L23 53L23 54L22 54L22 53L21 53L21 52L20 52L20 51L23 51L23 50L20 50L20 49L23 49L23 48L22 48L22 47L23 47L23 46L22 46L22 47L21 47L21 48L20 48L20 47L16 47L16 48L15 48L15 47L11 47L11 48L12 48L12 49L13 49L13 50L14 50L14 52L13 52L13 51L12 51L12 50L10 50L10 51L8 51L8 53L9 53L9 55L8 55L8 57L9 57L9 55L11 55L11 56L10 56L10 57L11 57L11 56L12 56L12 57L13 57L13 56L14 56L14 57L19 57L19 55L20 55L20 54L22 54L22 56L23 56L23 57L25 57L25 56L26 56L26 57L28 57L28 54L27 54L27 56L26 56L26 53L30 53L30 56L29 56L29 57L36 57L36 56L35 56L35 55L34 55L34 54L33 54L33 55L32 55L32 54L31 54L31 52L32 52L32 53L34 53L34 52L35 52L35 49L36 49L36 50L37 50L37 49L36 49L36 48L38 48L38 51L36 51L36 53L38 53L38 54L40 54L40 55L39 55L39 56L38 56L38 55L37 55L37 57L40 57L40 56L41 56L41 57L43 57L43 56L41 56L41 53L42 53L42 54L44 54L44 53L43 53L43 52L45 52L45 53L46 53L46 56L44 56L44 57L46 57L46 56L47 56L47 57L52 57L52 55L51 55L51 56L50 56L50 54L55 54L55 53L53 53L53 51L55 51L55 52L56 52L56 54L57 54L57 52L56 52L56 51L57 51L57 44L56 44L56 42L57 42L57 41L56 41L56 40L57 40L57 39L56 39L56 38L57 38L57 36L56 36L56 37L55 37L55 36L54 36L54 35L57 35L57 34L56 34L56 33L57 33L57 32L56 32L56 33L54 33L54 31L57 31L57 28L56 28L56 26L57 26L57 24L55 24L55 23L54 23L54 22L57 22L57 20L56 20L56 18L57 18L57 16L56 16L56 17L55 17L55 15L56 15L56 14L57 14L57 11L55 11L55 10L54 10L54 9L56 9L56 10L57 10L57 8L53 8L53 9L52 9L52 8L51 8L51 9L50 9L50 10L49 10L49 11L51 11L51 10L52 10L52 12L51 12L51 13L48 13L48 12L47 12L47 11L48 11L48 8L47 8L47 5L48 5L48 0L46 0L46 1L47 1L47 2L46 2L46 3L47 3L47 5L46 5L46 4L45 4L45 3L44 3L44 2L45 2L45 1L43 1L43 0L42 0L42 2L40 2L40 1L41 1L41 0L40 0L40 1L37 1L37 0L36 0L36 1L35 1L35 2L34 2L34 3L32 3L32 2L33 2L33 1L34 1L34 0L31 0L31 1L30 1L30 0L29 0L29 2L31 2L31 3L32 3L32 4L29 4L29 3L27 3L27 4L26 4L26 3L25 3L25 4L24 4L24 5L23 5L23 4L22 4L22 5L21 5L21 6L20 6L20 5L18 5L18 4L17 4L17 2L18 2L18 3L20 3L20 1L21 1L21 3L23 3L23 2L24 2L24 1L25 1L25 2L28 2L28 1L26 1L26 0L24 0L24 1L23 1L23 2L22 2L22 1L21 1L21 0L20 0L20 1L19 1L19 0L18 0L18 1L16 1L16 0L12 0L12 1L13 1L13 2L12 2L12 3L11 3L11 1L10 1L10 0ZM9 1L9 4L10 4L10 5L11 5L11 7L12 7L12 6L13 6L13 7L14 7L14 8L15 8L15 9L14 9L14 10L15 10L15 9L16 9L16 10L18 10L18 11L17 11L17 12L16 12L16 11L15 11L15 12L16 12L16 13L15 13L15 14L14 14L14 16L16 16L16 18L13 18L13 15L12 15L12 14L11 14L11 15L10 15L10 16L9 16L9 15L6 15L6 16L7 16L7 17L5 17L5 18L4 18L4 19L6 19L6 18L8 18L8 16L9 16L9 18L10 18L10 21L9 21L9 23L11 23L11 22L10 22L10 21L12 21L12 24L10 24L10 25L8 25L8 26L9 26L9 29L12 29L12 31L11 31L11 32L7 32L7 31L5 31L5 32L7 32L7 33L5 33L5 34L4 34L4 36L5 36L5 37L4 37L4 38L7 38L7 37L6 37L6 36L5 36L5 34L7 34L7 33L11 33L11 34L12 34L12 35L13 35L13 34L15 34L15 32L16 32L16 31L15 31L15 29L16 29L16 27L18 27L18 26L17 26L17 25L16 25L16 24L17 24L17 23L18 23L18 25L19 25L19 26L20 26L20 28L18 28L18 29L17 29L17 32L18 32L18 31L19 31L19 33L21 33L21 35L20 35L20 36L21 36L21 35L22 35L22 36L26 36L26 37L27 37L27 38L29 38L29 40L30 40L30 38L29 38L29 36L32 36L32 35L33 35L33 33L32 33L32 32L31 32L31 31L33 31L33 32L34 32L34 31L36 31L36 32L35 32L35 33L34 33L34 35L35 35L35 37L36 37L36 39L35 39L35 40L37 40L37 39L38 39L38 42L39 42L39 43L37 43L37 41L36 41L36 42L35 42L35 41L34 41L34 39L33 39L33 38L34 38L34 37L32 37L32 39L31 39L31 40L32 40L32 41L33 41L33 42L32 42L32 43L33 43L33 44L32 44L32 47L31 47L31 45L30 45L30 46L28 46L28 45L29 45L29 44L31 44L31 42L30 42L30 43L29 43L29 44L28 44L28 45L27 45L27 44L26 44L26 45L27 45L27 46L26 46L26 47L27 47L27 48L28 48L28 47L29 47L29 48L30 48L30 47L31 47L31 50L32 50L32 52L34 52L34 50L32 50L32 48L33 48L33 49L35 49L35 48L34 48L34 47L33 47L33 46L35 46L35 47L38 47L38 48L39 48L39 49L40 49L40 50L39 50L39 51L38 51L38 52L39 52L39 53L41 53L41 52L43 52L43 51L40 51L40 50L41 50L41 49L40 49L40 47L38 47L38 46L39 46L39 45L42 45L42 46L43 46L43 45L45 45L45 46L44 46L44 48L43 48L43 47L41 47L41 48L43 48L43 49L45 49L45 50L44 50L44 51L45 51L45 52L46 52L46 49L45 49L45 48L46 48L46 47L47 47L47 45L45 45L45 44L46 44L46 43L47 43L47 42L48 42L48 45L49 45L49 47L51 47L51 48L52 48L52 47L53 47L53 49L55 49L55 51L56 51L56 48L54 48L54 47L56 47L56 44L55 44L55 46L54 46L54 47L53 47L53 46L52 46L52 47L51 47L51 46L50 46L50 44L51 44L51 45L52 45L52 43L51 43L51 41L52 41L52 42L53 42L53 41L55 41L55 40L56 40L56 39L55 39L55 38L53 38L53 37L54 37L54 36L53 36L53 37L52 37L52 35L54 35L54 33L53 33L53 32L52 32L52 31L51 31L51 32L52 32L52 33L53 33L53 34L52 34L52 35L51 35L51 38L50 38L50 36L49 36L49 33L50 33L50 31L49 31L49 32L48 32L48 31L47 31L47 33L48 33L48 36L49 36L49 37L47 37L47 36L46 36L46 35L45 35L45 34L46 34L46 33L45 33L45 34L44 34L44 35L43 35L43 34L41 34L41 33L42 33L42 32L43 32L43 33L44 33L44 32L45 32L45 31L46 31L46 27L45 27L45 20L46 20L46 22L47 22L47 23L48 23L48 24L47 24L47 25L46 25L46 26L47 26L47 28L48 28L48 26L51 26L51 25L48 25L48 24L49 24L49 23L48 23L48 20L50 20L50 21L49 21L49 22L51 22L51 23L50 23L50 24L52 24L52 25L53 25L53 26L54 26L54 25L55 25L55 26L56 26L56 25L55 25L55 24L53 24L53 23L52 23L52 22L53 22L53 21L52 21L52 18L53 18L53 16L54 16L54 15L55 15L55 14L54 14L54 15L52 15L52 13L53 13L53 12L55 12L55 11L54 11L54 10L53 10L53 12L52 12L52 13L51 13L51 14L50 14L50 16L49 16L49 15L48 15L48 13L46 13L46 10L47 10L47 8L46 8L46 5L45 5L45 4L44 4L44 5L42 5L42 3L43 3L43 2L42 2L42 3L41 3L41 5L40 5L40 2L38 2L38 3L37 3L37 2L35 2L35 3L37 3L37 4L34 4L34 5L33 5L33 4L32 4L32 5L31 5L31 8L32 8L32 9L31 9L31 10L32 10L32 11L33 11L33 12L34 12L34 11L35 11L35 12L36 12L36 13L33 13L33 14L32 14L32 13L31 13L31 14L32 14L32 15L30 15L30 14L29 14L29 18L28 18L28 17L27 17L27 19L28 19L28 20L27 20L27 21L24 21L24 20L26 20L26 19L24 19L24 20L22 20L22 18L23 18L23 15L24 15L24 18L26 18L26 16L27 16L27 15L28 15L28 13L27 13L27 14L26 14L26 13L25 13L25 15L24 15L24 12L25 12L25 11L26 11L26 6L25 6L25 7L24 7L24 6L23 6L23 5L22 5L22 6L21 6L21 8L22 8L22 9L21 9L21 10L20 10L20 8L18 8L18 6L17 6L17 4L16 4L16 2L15 2L15 5L16 5L16 6L15 6L15 7L14 7L14 5L13 5L13 4L14 4L14 3L13 3L13 4L12 4L12 5L11 5L11 4L10 4L10 1ZM31 1L31 2L32 2L32 1ZM38 3L38 4L37 4L37 5L35 5L35 6L34 6L34 8L33 8L33 5L32 5L32 8L33 8L33 9L32 9L32 10L33 10L33 11L34 11L34 10L35 10L35 9L36 9L36 10L38 10L38 11L37 11L37 12L38 12L38 11L39 11L39 12L40 12L40 16L38 16L38 15L39 15L39 13L38 13L38 15L37 15L37 16L38 16L38 17L36 17L36 16L35 16L35 15L34 15L34 16L33 16L33 15L32 15L32 17L33 17L33 18L34 18L34 20L33 20L33 23L34 23L34 24L30 24L30 25L37 25L37 24L38 24L38 26L39 26L39 24L38 24L38 23L39 23L39 21L40 21L40 23L41 23L41 25L42 25L42 26L43 26L43 25L44 25L44 21L43 21L43 20L45 20L45 19L44 19L44 18L45 18L45 17L44 17L44 14L45 14L45 12L44 12L44 10L46 10L46 9L45 9L45 8L44 8L44 7L45 7L45 5L44 5L44 7L43 7L43 6L42 6L42 7L43 7L43 8L41 8L41 10L40 10L40 11L39 11L39 10L38 10L38 9L39 9L39 8L40 8L40 7L41 7L41 6L40 6L40 5L39 5L39 3ZM27 5L27 8L30 8L30 5ZM37 5L37 7L38 7L38 8L39 8L39 7L40 7L40 6L39 6L39 5ZM9 6L9 7L10 7L10 6ZM16 6L16 7L15 7L15 8L16 8L16 9L17 9L17 6ZM19 6L19 7L20 7L20 6ZM22 6L22 8L24 8L24 7L23 7L23 6ZM28 6L28 7L29 7L29 6ZM35 6L35 8L34 8L34 9L33 9L33 10L34 10L34 9L35 9L35 8L36 8L36 6ZM38 6L38 7L39 7L39 6ZM48 6L48 7L49 7L49 6ZM0 8L0 9L2 9L2 8ZM43 8L43 10L42 10L42 11L40 11L40 12L41 12L41 16L40 16L40 17L39 17L39 19L37 19L37 18L36 18L36 17L35 17L35 16L34 16L34 18L35 18L35 19L37 19L37 20L36 20L36 21L35 21L35 20L34 20L34 23L35 23L35 22L36 22L36 23L37 23L37 21L39 21L39 19L40 19L40 18L41 18L41 17L43 17L43 14L44 14L44 13L43 13L43 10L44 10L44 8ZM23 9L23 11L24 11L24 10L25 10L25 9ZM27 9L27 12L28 12L28 10L30 10L30 9ZM4 10L4 11L5 11L5 13L6 13L6 14L7 14L7 13L6 13L6 12L7 12L7 11L5 11L5 10ZM19 10L19 12L18 12L18 13L16 13L16 14L19 14L19 15L16 15L16 16L18 16L18 17L17 17L17 18L16 18L16 20L17 20L17 21L15 21L15 20L14 20L14 19L13 19L13 18L11 18L11 16L12 16L12 15L11 15L11 16L10 16L10 18L11 18L11 19L13 19L13 21L14 21L14 23L13 23L13 24L12 24L12 25L13 25L13 26L11 26L11 25L10 25L10 27L16 27L16 25L15 25L15 24L14 24L14 23L16 23L16 22L17 22L17 21L18 21L18 19L17 19L17 18L19 18L19 16L20 16L20 15L21 15L21 13L23 13L23 12L22 12L22 11L21 11L21 13L20 13L20 14L19 14L19 12L20 12L20 10ZM0 11L0 13L1 13L1 14L3 14L3 13L1 13L1 12L2 12L2 11ZM29 11L29 13L30 13L30 12L31 12L31 11ZM36 13L36 14L37 14L37 13ZM42 13L42 14L43 14L43 13ZM22 14L22 15L23 15L23 14ZM2 15L2 16L4 16L4 15ZM46 15L46 16L47 16L47 17L48 17L48 18L49 18L49 19L50 19L50 18L52 18L52 16L50 16L50 17L48 17L48 16L47 16L47 15ZM0 16L0 17L1 17L1 16ZM21 16L21 18L20 18L20 19L21 19L21 18L22 18L22 16ZM30 17L30 19L32 19L32 18L31 18L31 17ZM54 18L54 19L55 19L55 18ZM41 19L41 20L40 20L40 21L42 21L42 22L43 22L43 21L42 21L42 20L43 20L43 19ZM46 19L46 20L47 20L47 19ZM20 20L20 21L19 21L19 23L20 23L20 22L21 22L21 21L22 21L22 20ZM55 20L55 21L56 21L56 20ZM1 21L1 22L2 22L2 21ZM23 21L23 22L22 22L22 23L21 23L21 24L19 24L19 25L20 25L20 26L21 26L21 27L22 27L22 28L23 28L23 30L22 30L22 29L18 29L18 30L19 30L19 31L21 31L21 32L22 32L22 31L26 31L26 32L27 32L27 31L28 31L28 32L29 32L29 33L30 33L30 34L31 34L31 35L32 35L32 33L31 33L31 32L30 32L30 31L31 31L31 29L32 29L32 26L27 26L27 25L29 25L29 24L28 24L28 23L32 23L32 21L31 21L31 22L28 22L28 21L27 21L27 22L26 22L26 23L25 23L25 22L24 22L24 21ZM27 22L27 23L28 23L28 22ZM22 23L22 24L23 24L23 25L25 25L25 24L24 24L24 23ZM42 23L42 25L43 25L43 23ZM13 24L13 25L14 25L14 26L15 26L15 25L14 25L14 24ZM21 25L21 26L22 26L22 25ZM23 26L23 28L24 28L24 30L26 30L26 27L25 27L25 26ZM40 26L40 27L39 27L39 29L37 29L37 28L38 28L38 27L36 27L36 28L35 28L35 27L33 27L33 28L34 28L34 29L33 29L33 30L36 30L36 29L37 29L37 32L38 32L38 33L37 33L37 34L38 34L38 35L37 35L37 36L36 36L36 37L38 37L38 39L39 39L39 41L41 41L41 39L43 39L43 40L42 40L42 41L43 41L43 40L44 40L44 42L40 42L40 44L41 44L41 43L44 43L44 44L45 44L45 43L44 43L44 42L46 42L46 41L49 41L49 43L50 43L50 41L51 41L51 39L52 39L52 40L54 40L54 39L53 39L53 38L51 38L51 39L50 39L50 38L46 38L46 41L45 41L45 40L44 40L44 37L45 37L45 36L44 36L44 37L43 37L43 38L41 38L41 36L39 36L39 37L38 37L38 35L39 35L39 34L40 34L40 35L41 35L41 34L40 34L40 32L41 32L41 30L40 30L40 32L38 32L38 31L39 31L39 29L41 29L41 28L40 28L40 27L41 27L41 26ZM5 27L5 30L8 30L8 27ZM27 27L27 30L30 30L30 27ZM44 27L44 28L43 28L43 31L44 31L44 28L45 28L45 27ZM49 27L49 30L52 30L52 27ZM53 27L53 28L54 28L54 29L53 29L53 31L54 31L54 29L55 29L55 30L56 30L56 28L54 28L54 27ZM6 28L6 29L7 29L7 28ZM12 28L12 29L14 29L14 28ZM28 28L28 29L29 29L29 28ZM50 28L50 29L51 29L51 28ZM47 29L47 30L48 30L48 29ZM0 30L0 31L1 31L1 30ZM9 30L9 31L10 31L10 30ZM21 30L21 31L22 31L22 30ZM12 31L12 32L11 32L11 33L12 33L12 32L13 32L13 33L14 33L14 32L15 32L15 31ZM23 32L23 33L22 33L22 35L24 35L24 33L25 33L25 32ZM27 33L27 34L28 34L28 33ZM35 33L35 35L36 35L36 33ZM28 35L28 36L29 36L29 35ZM19 37L19 38L17 38L17 40L19 40L19 39L20 39L20 38L21 38L21 37ZM39 37L39 38L40 38L40 37ZM32 39L32 40L33 40L33 39ZM49 39L49 41L50 41L50 39ZM17 41L17 42L18 42L18 41ZM6 42L6 43L7 43L7 42ZM33 42L33 43L34 43L34 44L33 44L33 45L35 45L35 43L34 43L34 42ZM19 43L19 44L18 44L18 45L16 45L16 46L19 46L19 44L20 44L20 45L23 45L23 44L22 44L22 43L21 43L21 44L20 44L20 43ZM8 44L8 45L9 45L9 44ZM37 44L37 45L36 45L36 46L37 46L37 45L38 45L38 44ZM53 44L53 45L54 45L54 44ZM2 45L2 46L1 46L1 47L2 47L2 46L3 46L3 47L5 47L5 46L3 46L3 45ZM13 45L13 46L15 46L15 45ZM14 48L14 50L15 50L15 48ZM17 48L17 49L18 49L18 48ZM19 48L19 49L20 49L20 48ZM47 48L47 56L49 56L49 54L50 54L50 53L48 53L48 48ZM27 49L27 52L30 52L30 49ZM49 49L49 52L52 52L52 49ZM16 50L16 51L17 51L17 52L15 52L15 53L10 53L10 54L14 54L14 56L17 56L17 55L19 55L19 54L18 54L18 53L20 53L20 52L18 52L18 51L20 51L20 50L18 50L18 51L17 51L17 50ZM28 50L28 51L29 51L29 50ZM50 50L50 51L51 51L51 50ZM25 52L25 53L24 53L24 54L25 54L25 53L26 53L26 52ZM15 53L15 55L16 55L16 54L17 54L17 53ZM12 55L12 56L13 56L13 55ZM23 55L23 56L24 56L24 55ZM53 55L53 57L54 57L54 55ZM55 55L55 56L56 56L56 57L57 57L57 55ZM20 56L20 57L21 57L21 56ZM0 0L0 7L7 7L7 0ZM1 1L1 6L6 6L6 1ZM2 2L2 5L5 5L5 2ZM50 0L50 7L57 7L57 0ZM51 1L51 6L56 6L56 1ZM52 2L52 5L55 5L55 2ZM0 50L0 57L7 57L7 50ZM1 51L1 56L6 56L6 51ZM2 52L2 55L5 55L5 52Z" fill="#000000"/></g></g></svg>
