<?xml version="1.0" encoding="UTF-8"?>
<svg xmlns="http://www.w3.org/2000/svg" version="1.1" width="100" height="100" viewBox="0 0 100 100"><rect x="0" y="0" width="100" height="100" fill="#ffffff"/><g transform="scale(2.041)"><g transform="translate(0,0)"><path fill-rule="evenodd" d="M13 0L13 1L12 1L12 2L10 2L10 1L8 1L8 2L10 2L10 3L13 3L13 4L11 4L11 5L13 5L13 6L12 6L12 7L13 7L13 6L14 6L14 7L15 7L15 6L16 6L16 7L17 7L17 8L15 8L15 9L16 9L16 10L15 10L15 11L13 11L13 10L14 10L14 9L13 9L13 8L12 8L12 9L10 9L10 8L11 8L11 6L10 6L10 7L9 7L9 5L10 5L10 4L9 4L9 3L8 3L8 4L9 4L9 5L8 5L8 7L9 7L9 8L6 8L6 9L10 9L10 11L11 11L11 12L10 12L10 15L9 15L9 14L8 14L8 16L6 16L6 15L7 15L7 14L6 14L6 13L8 13L8 12L9 12L9 10L8 10L8 11L7 11L7 10L6 10L6 11L7 11L7 12L5 12L5 10L4 10L4 9L5 9L5 8L0 8L0 9L1 9L1 10L3 10L3 13L2 13L2 14L0 14L0 16L3 16L3 17L2 17L2 18L1 18L1 17L0 17L0 19L2 19L2 22L1 22L1 21L0 21L0 22L1 22L1 24L0 24L0 25L1 25L1 27L0 27L0 28L2 28L2 29L0 29L0 30L3 30L3 33L2 33L2 31L1 31L1 33L0 33L0 35L1 35L1 34L2 34L2 36L4 36L4 35L3 35L3 33L4 33L4 31L7 31L7 32L6 32L6 33L5 33L5 34L6 34L6 35L8 35L8 36L9 36L9 37L7 37L7 36L5 36L5 39L7 39L7 38L12 38L12 37L13 37L13 39L14 39L14 40L13 40L13 42L12 42L12 41L11 41L11 40L12 40L12 39L11 39L11 40L10 40L10 39L9 39L9 41L8 41L8 40L6 40L6 41L8 41L8 43L9 43L9 44L8 44L8 49L9 49L9 47L10 47L10 49L13 49L13 48L15 48L15 49L22 49L22 48L23 48L23 49L26 49L26 48L25 48L25 47L26 47L26 45L27 45L27 46L28 46L28 45L29 45L29 49L32 49L32 48L33 48L33 49L36 49L36 48L38 48L38 46L39 46L39 48L40 48L40 47L42 47L42 48L41 48L41 49L42 49L42 48L43 48L43 49L44 49L44 48L45 48L45 49L46 49L46 48L47 48L47 49L49 49L49 48L48 48L48 47L49 47L49 44L47 44L47 46L46 46L46 43L47 43L47 42L46 42L46 43L45 43L45 40L46 40L46 41L47 41L47 40L46 40L46 38L44 38L44 37L45 37L45 36L44 36L44 34L45 34L45 35L46 35L46 36L47 36L47 37L48 37L48 38L47 38L47 39L49 39L49 36L47 36L47 35L48 35L48 33L47 33L47 32L48 32L48 30L49 30L49 28L48 28L48 27L49 27L49 26L48 26L48 25L49 25L49 22L48 22L48 21L49 21L49 19L48 19L48 18L49 18L49 16L48 16L48 15L47 15L47 14L46 14L46 15L47 15L47 16L46 16L46 17L47 17L47 18L46 18L46 19L45 19L45 20L44 20L44 22L42 22L42 21L41 21L41 20L43 20L43 19L44 19L44 17L43 17L43 18L41 18L41 20L38 20L38 19L40 19L40 18L39 18L39 17L40 17L40 16L39 16L39 17L36 17L36 15L37 15L37 16L38 16L38 15L37 15L37 14L35 14L35 12L36 12L36 13L39 13L39 12L38 12L38 11L37 11L37 9L39 9L39 8L37 8L37 5L36 5L36 4L38 4L38 2L39 2L39 4L40 4L40 3L41 3L41 0L40 0L40 1L36 1L36 0L35 0L35 1L34 1L34 2L36 2L36 3L32 3L32 4L30 4L30 3L31 3L31 2L32 2L32 0L29 0L29 1L31 1L31 2L29 2L29 6L28 6L28 7L27 7L27 5L28 5L28 4L20 4L20 2L19 2L19 1L20 1L20 0L18 0L18 1L17 1L17 2L18 2L18 4L20 4L20 5L17 5L17 6L16 6L16 5L15 5L15 4L14 4L14 1L15 1L15 2L16 2L16 0ZM21 0L21 1L22 1L22 0ZM24 0L24 1L23 1L23 2L24 2L24 3L26 3L26 2L27 2L27 3L28 3L28 2L27 2L27 1L26 1L26 0ZM25 1L25 2L26 2L26 1ZM16 3L16 4L17 4L17 3ZM13 4L13 5L14 5L14 6L15 6L15 5L14 5L14 4ZM32 4L32 6L31 6L31 5L30 5L30 6L29 6L29 7L28 7L28 9L27 9L27 10L26 10L26 9L24 9L24 10L26 10L26 11L23 11L23 12L21 12L21 11L22 11L22 10L23 10L23 9L21 9L21 8L22 8L22 5L21 5L21 7L20 7L20 6L19 6L19 7L20 7L20 9L21 9L21 10L19 10L19 11L20 11L20 12L19 12L19 13L20 13L20 16L19 16L19 15L18 15L18 16L19 16L19 17L17 17L17 15L15 15L15 14L18 14L18 13L17 13L17 10L16 10L16 11L15 11L15 12L14 12L14 13L13 13L13 14L14 14L14 15L15 15L15 17L14 17L14 16L13 16L13 15L12 15L12 16L10 16L10 17L9 17L9 16L8 16L8 17L9 17L9 18L7 18L7 17L6 17L6 16L5 16L5 15L6 15L6 14L5 14L5 15L4 15L4 13L5 13L5 12L4 12L4 13L3 13L3 14L2 14L2 15L4 15L4 18L5 18L5 20L4 20L4 19L3 19L3 23L2 23L2 24L3 24L3 23L4 23L4 21L5 21L5 22L9 22L9 26L10 26L10 24L11 24L11 25L13 25L13 24L15 24L15 25L16 25L16 27L15 27L15 26L14 26L14 28L13 28L13 29L12 29L12 30L14 30L14 31L11 31L11 30L10 30L10 31L9 31L9 32L8 32L8 33L6 33L6 34L8 34L8 33L9 33L9 34L10 34L10 35L11 35L11 37L12 37L12 34L10 34L10 33L9 33L9 32L10 32L10 31L11 31L11 32L12 32L12 33L13 33L13 34L14 34L14 35L13 35L13 36L17 36L17 37L14 37L14 39L15 39L15 42L13 42L13 43L15 43L15 44L18 44L18 45L20 45L20 48L22 48L22 47L23 47L23 48L24 48L24 46L22 46L22 43L21 43L21 41L22 41L22 40L21 40L21 35L22 35L22 36L24 36L24 37L22 37L22 39L23 39L23 40L24 40L24 39L25 39L25 40L28 40L28 39L29 39L29 40L30 40L30 41L29 41L29 42L27 42L27 43L30 43L30 42L32 42L32 44L33 44L33 45L31 45L31 44L30 44L30 45L31 45L31 46L30 46L30 47L31 47L31 48L32 48L32 47L33 47L33 48L35 48L35 46L38 46L38 44L40 44L40 43L39 43L39 42L40 42L40 40L39 40L39 38L40 38L40 39L41 39L41 40L42 40L42 39L41 39L41 38L42 38L42 37L39 37L39 38L37 38L37 39L34 39L34 38L35 38L35 37L34 37L34 38L33 38L33 36L36 36L36 37L38 37L38 36L39 36L39 35L38 35L38 36L36 36L36 35L35 35L35 34L36 34L36 33L38 33L38 34L39 34L39 33L38 33L38 32L40 32L40 33L41 33L41 34L40 34L40 36L41 36L41 35L42 35L42 36L43 36L43 35L42 35L42 34L43 34L43 33L45 33L45 34L47 34L47 33L46 33L46 31L47 31L47 27L46 27L46 28L45 28L45 27L44 27L44 28L43 28L43 27L42 27L42 28L43 28L43 29L44 29L44 28L45 28L45 30L42 30L42 29L41 29L41 28L40 28L40 27L38 27L38 25L36 25L36 24L37 24L37 23L35 23L35 22L37 22L37 21L35 21L35 20L36 20L36 19L35 19L35 18L36 18L36 17L35 17L35 15L34 15L34 13L31 13L31 12L30 12L30 13L31 13L31 14L30 14L30 15L31 15L31 14L32 14L32 19L31 19L31 20L32 20L32 21L33 21L33 22L31 22L31 21L30 21L30 20L29 20L29 19L30 19L30 18L29 18L29 16L28 16L28 17L25 17L25 16L27 16L27 15L29 15L29 13L28 13L28 12L29 12L29 11L30 11L30 10L31 10L31 11L32 11L32 12L33 12L33 11L34 11L34 12L35 12L35 10L31 10L31 9L34 9L34 8L35 8L35 9L37 9L37 8L36 8L36 6L35 6L35 4L34 4L34 5L33 5L33 4ZM23 5L23 8L26 8L26 5ZM38 5L38 7L39 7L39 5ZM17 6L17 7L18 7L18 6ZM24 6L24 7L25 7L25 6ZM30 6L30 8L29 8L29 9L28 9L28 10L27 10L27 11L28 11L28 10L29 10L29 9L30 9L30 8L31 8L31 6ZM32 6L32 7L33 7L33 6ZM34 6L34 7L35 7L35 6ZM40 6L40 7L41 7L41 6ZM41 8L41 9L42 9L42 8ZM43 8L43 10L42 10L42 11L41 11L41 12L43 12L43 13L40 13L40 14L39 14L39 15L40 15L40 14L42 14L42 15L41 15L41 17L42 17L42 16L45 16L45 15L44 15L44 14L45 14L45 13L46 13L46 12L48 12L48 13L49 13L49 12L48 12L48 11L49 11L49 10L48 10L48 8L47 8L47 10L48 10L48 11L46 11L46 12L45 12L45 13L44 13L44 12L43 12L43 10L45 10L45 9L46 9L46 8L45 8L45 9L44 9L44 8ZM11 10L11 11L12 11L12 12L11 12L11 14L12 14L12 12L13 12L13 11L12 11L12 10ZM39 10L39 11L40 11L40 10ZM1 11L1 12L0 12L0 13L1 13L1 12L2 12L2 11ZM15 12L15 13L16 13L16 12ZM25 12L25 13L26 13L26 14L28 14L28 13L27 13L27 12ZM23 14L23 15L24 15L24 16L25 16L25 14ZM12 16L12 17L10 17L10 18L9 18L9 19L8 19L8 21L10 21L10 22L11 22L11 24L13 24L13 23L14 23L14 21L15 21L15 22L16 22L16 23L15 23L15 24L16 24L16 23L18 23L18 24L17 24L17 28L14 28L14 29L15 29L15 31L16 31L16 30L17 30L17 31L18 31L18 32L15 32L15 35L17 35L17 36L18 36L18 35L19 35L19 37L18 37L18 38L17 38L17 39L19 39L19 40L18 40L18 41L16 41L16 42L15 42L15 43L16 43L16 42L17 42L17 43L18 43L18 44L20 44L20 45L21 45L21 44L20 44L20 42L18 42L18 41L21 41L21 40L20 40L20 35L21 35L21 34L22 34L22 33L24 33L24 34L23 34L23 35L24 35L24 36L25 36L25 37L24 37L24 38L23 38L23 39L24 39L24 38L25 38L25 39L26 39L26 38L25 38L25 37L26 37L26 36L25 36L25 35L26 35L26 32L29 32L29 33L30 33L30 32L31 32L31 34L30 34L30 36L27 36L27 37L28 37L28 38L29 38L29 37L30 37L30 36L31 36L31 37L32 37L32 36L31 36L31 34L35 34L35 33L36 33L36 32L38 32L38 31L41 31L41 33L43 33L43 32L44 32L44 31L42 31L42 30L41 30L41 29L40 29L40 28L38 28L38 27L37 27L37 26L36 26L36 25L35 25L35 26L36 26L36 27L35 27L35 29L36 29L36 27L37 27L37 28L38 28L38 29L40 29L40 30L38 30L38 31L37 31L37 30L36 30L36 31L35 31L35 33L34 33L34 32L33 32L33 33L32 33L32 30L33 30L33 31L34 31L34 30L33 30L33 29L34 29L34 28L33 28L33 27L34 27L34 26L33 26L33 27L32 27L32 25L31 25L31 23L27 23L27 21L28 21L28 22L30 22L30 21L29 21L29 20L27 20L27 21L24 21L24 20L26 20L26 19L25 19L25 17L24 17L24 18L23 18L23 19L22 19L22 18L21 18L21 17L22 17L22 16L21 16L21 17L20 17L20 18L17 18L17 17L15 17L15 18L16 18L16 19L17 19L17 20L18 20L18 21L19 21L19 22L17 22L17 21L16 21L16 20L14 20L14 18L13 18L13 16ZM33 16L33 17L34 17L34 18L35 18L35 17L34 17L34 16ZM47 16L47 17L48 17L48 16ZM6 18L6 19L7 19L7 18ZM37 18L37 19L38 19L38 18ZM9 19L9 20L12 20L12 23L13 23L13 21L14 21L14 20L13 20L13 19ZM19 19L19 20L22 20L22 19ZM47 19L47 20L46 20L46 21L45 21L45 26L47 26L47 25L46 25L46 24L48 24L48 22L47 22L47 20L48 20L48 19ZM6 20L6 21L7 21L7 20ZM20 21L20 24L18 24L18 25L22 25L22 24L21 24L21 23L22 23L22 22L24 22L24 21ZM38 21L38 24L39 24L39 25L40 25L40 24L39 24L39 23L40 23L40 22L41 22L41 21L40 21L40 22L39 22L39 21ZM33 22L33 23L34 23L34 22ZM46 22L46 23L47 23L47 22ZM5 23L5 26L8 26L8 23ZM23 23L23 26L26 26L26 23ZM41 23L41 26L44 26L44 23ZM6 24L6 25L7 25L7 24ZM24 24L24 25L25 25L25 24ZM29 24L29 25L28 25L28 26L27 26L27 27L26 27L26 29L25 29L25 28L24 28L24 30L23 30L23 29L22 29L22 30L23 30L23 31L22 31L22 32L23 32L23 31L24 31L24 30L26 30L26 31L25 31L25 32L26 32L26 31L27 31L27 30L28 30L28 31L29 31L29 30L30 30L30 31L31 31L31 30L32 30L32 29L33 29L33 28L31 28L31 30L30 30L30 29L29 29L29 30L28 30L28 29L27 29L27 27L28 27L28 28L29 28L29 25L30 25L30 24ZM33 24L33 25L34 25L34 24ZM42 24L42 25L43 25L43 24ZM2 25L2 26L4 26L4 25ZM19 26L19 27L20 27L20 28L19 28L19 29L20 29L20 32L21 32L21 29L20 29L20 28L21 28L21 27L20 27L20 26ZM2 27L2 28L3 28L3 29L6 29L6 30L7 30L7 29L6 29L6 28L7 28L7 27L6 27L6 28L4 28L4 27ZM10 27L10 28L8 28L8 29L11 29L11 28L12 28L12 27ZM26 29L26 30L27 30L27 29ZM45 30L45 31L46 31L46 30ZM13 32L13 33L14 33L14 32ZM17 33L17 34L18 34L18 33ZM19 33L19 35L20 35L20 33ZM24 34L24 35L25 35L25 34ZM0 36L0 37L1 37L1 40L0 40L0 41L3 41L3 40L4 40L4 39L2 39L2 38L3 38L3 37L1 37L1 36ZM6 37L6 38L7 38L7 37ZM30 38L30 40L31 40L31 41L32 41L32 38ZM33 39L33 40L34 40L34 41L33 41L33 44L34 44L34 45L33 45L33 46L34 46L34 45L35 45L35 44L36 44L36 45L37 45L37 44L38 44L38 42L35 42L35 44L34 44L34 41L35 41L35 40L34 40L34 39ZM44 39L44 40L45 40L45 39ZM37 40L37 41L39 41L39 40ZM9 41L9 43L10 43L10 44L11 44L11 46L10 46L10 45L9 45L9 46L10 46L10 47L11 47L11 48L12 48L12 44L11 44L11 43L12 43L12 42L11 42L11 41ZM23 41L23 44L26 44L26 41ZM41 41L41 44L44 44L44 41ZM10 42L10 43L11 43L11 42ZM24 42L24 43L25 43L25 42ZM42 42L42 43L43 43L43 42ZM36 43L36 44L37 44L37 43ZM27 44L27 45L28 45L28 44ZM14 45L14 46L13 46L13 47L15 47L15 48L17 48L17 45L16 45L16 46L15 46L15 45ZM39 45L39 46L41 46L41 45ZM43 45L43 46L42 46L42 47L46 47L46 46L45 46L45 45ZM21 46L21 47L22 47L22 46ZM31 46L31 47L32 47L32 46ZM47 46L47 47L48 47L48 46ZM18 47L18 48L19 48L19 47ZM27 48L27 49L28 49L28 48ZM0 0L0 7L7 7L7 0ZM1 1L1 6L6 6L6 1ZM2 2L2 5L5 5L5 2ZM42 0L42 7L49 7L49 0ZM43 1L43 6L48 6L48 1ZM44 2L44 5L47 5L47 2ZM0 42L0 49L7 49L7 42ZM1 43L1 48L6 48L6 43ZM2 44L2 47L5 47L5 44Z" fill="#000000"/></g></g></svg>
