<?xml version="1.0" encoding="UTF-8"?>
<svg xmlns="http://www.w3.org/2000/svg" version="1.1" width="100" height="100" viewBox="0 0 100 100"><rect x="0" y="0" width="100" height="100" fill="#ffffff"/><g transform="scale(2.041)"><g transform="translate(0,0)"><path fill-rule="evenodd" d="M8 0L8 1L9 1L9 0ZM11 0L11 1L10 1L10 2L11 2L11 3L10 3L10 7L11 7L11 3L12 3L12 5L13 5L13 3L14 3L14 4L15 4L15 3L16 3L16 4L17 4L17 6L16 6L16 5L15 5L15 6L14 6L14 7L15 7L15 6L16 6L16 7L17 7L17 8L14 8L14 9L13 9L13 8L8 8L8 10L10 10L10 11L11 11L11 9L13 9L13 10L12 10L12 11L14 11L14 12L15 12L15 13L14 13L14 14L15 14L15 13L18 13L18 12L17 12L17 11L15 11L15 9L16 9L16 10L18 10L18 8L19 8L19 6L18 6L18 5L19 5L19 3L18 3L18 2L17 2L17 0L14 0L14 1L13 1L13 0ZM18 0L18 1L20 1L20 2L21 2L21 1L20 1L20 0ZM22 0L22 1L23 1L23 0ZM25 0L25 2L24 2L24 3L23 3L23 2L22 2L22 4L20 4L20 8L21 8L21 5L22 5L22 9L24 9L24 10L25 10L25 11L27 11L27 12L24 12L24 11L22 11L22 10L21 10L21 9L19 9L19 10L20 10L20 11L22 11L22 13L20 13L20 12L19 12L19 14L21 14L21 15L24 15L24 16L25 16L25 18L23 18L23 17L21 17L21 18L19 18L19 17L18 17L18 18L17 18L17 16L18 16L18 14L17 14L17 16L15 16L15 15L13 15L13 16L11 16L11 15L12 15L12 14L13 14L13 13L12 13L12 14L11 14L11 15L10 15L10 16L11 16L11 18L9 18L9 16L8 16L8 15L9 15L9 14L10 14L10 13L11 13L11 12L9 12L9 14L8 14L8 15L7 15L7 14L6 14L6 15L7 15L7 16L5 16L5 17L8 17L8 18L9 18L9 19L7 19L7 18L6 18L6 19L7 19L7 20L6 20L6 21L7 21L7 22L4 22L4 23L3 23L3 21L2 21L2 20L4 20L4 21L5 21L5 18L2 18L2 16L0 16L0 17L1 17L1 18L0 18L0 19L1 19L1 21L0 21L0 23L3 23L3 24L0 24L0 25L1 25L1 29L0 29L0 32L1 32L1 33L2 33L2 34L0 34L0 37L1 37L1 36L2 36L2 34L4 34L4 35L3 35L3 37L2 37L2 38L1 38L1 40L0 40L0 41L3 41L3 40L4 40L4 39L2 39L2 38L3 38L3 37L4 37L4 38L5 38L5 39L7 39L7 40L6 40L6 41L8 41L8 42L10 42L10 44L9 44L9 45L8 45L8 49L9 49L9 47L10 47L10 46L9 46L9 45L11 45L11 42L12 42L12 43L13 43L13 44L14 44L14 45L12 45L12 46L11 46L11 47L12 47L12 46L13 46L13 47L14 47L14 49L15 49L15 48L19 48L19 47L21 47L21 49L26 49L26 48L29 48L29 49L32 49L32 47L33 47L33 48L35 48L35 49L36 49L36 47L35 47L35 44L34 44L34 43L36 43L36 44L37 44L37 45L38 45L38 46L37 46L37 47L40 47L40 48L41 48L41 49L42 49L42 48L41 48L41 47L40 47L40 46L39 46L39 44L40 44L40 45L41 45L41 46L42 46L42 47L43 47L43 45L45 45L45 46L44 46L44 48L43 48L43 49L44 49L44 48L45 48L45 49L46 49L46 48L45 48L45 47L47 47L47 49L49 49L49 47L48 47L48 46L49 46L49 45L48 45L48 43L47 43L47 41L49 41L49 40L47 40L47 39L48 39L48 37L49 37L49 35L47 35L47 34L48 34L48 33L49 33L49 31L48 31L48 29L46 29L46 27L45 27L45 26L46 26L46 24L45 24L45 23L48 23L48 18L49 18L49 17L48 17L48 15L49 15L49 12L47 12L47 14L48 14L48 15L46 15L46 14L45 14L45 16L43 16L43 15L42 15L42 17L43 17L43 18L42 18L42 19L44 19L44 20L42 20L42 21L41 21L41 22L40 22L40 21L39 21L39 20L40 20L40 19L41 19L41 18L40 18L40 19L38 19L38 18L39 18L39 16L38 16L38 14L40 14L40 15L41 15L41 13L39 13L39 12L42 12L42 11L41 11L41 10L40 10L40 11L39 11L39 10L37 10L37 11L39 11L39 12L36 12L36 11L34 11L34 10L35 10L35 9L34 9L34 7L35 7L35 8L36 8L36 9L37 9L37 6L38 6L38 9L40 9L40 7L41 7L41 6L40 6L40 7L39 7L39 5L37 5L37 4L38 4L38 3L35 3L35 2L34 2L34 0L33 0L33 1L32 1L32 0L31 0L31 1L29 1L29 0L28 0L28 1L27 1L27 2L28 2L28 3L29 3L29 4L30 4L30 2L31 2L31 3L32 3L32 5L33 5L33 6L32 6L32 7L33 7L33 10L30 10L30 9L28 9L28 8L29 8L29 6L30 6L30 7L31 7L31 5L27 5L27 4L25 4L25 2L26 2L26 0ZM36 0L36 1L37 1L37 2L39 2L39 4L40 4L40 3L41 3L41 0L40 0L40 1L37 1L37 0ZM28 1L28 2L29 2L29 1ZM8 2L8 5L9 5L9 2ZM14 2L14 3L15 3L15 2ZM32 2L32 3L33 3L33 2ZM33 4L33 5L36 5L36 6L35 6L35 7L36 7L36 6L37 6L37 5L36 5L36 4ZM23 5L23 8L26 8L26 5ZM8 6L8 7L9 7L9 6ZM12 6L12 7L13 7L13 6ZM17 6L17 7L18 7L18 6ZM24 6L24 7L25 7L25 6ZM27 6L27 8L28 8L28 6ZM33 6L33 7L34 7L34 6ZM0 8L0 10L1 10L1 9L2 9L2 12L3 12L3 13L1 13L1 14L3 14L3 13L5 13L5 12L6 12L6 13L7 13L7 12L8 12L8 11L7 11L7 10L6 10L6 9L7 9L7 8L6 8L6 9L5 9L5 10L4 10L4 8ZM41 8L41 9L42 9L42 8ZM44 8L44 9L47 9L47 11L48 11L48 9L49 9L49 8L48 8L48 9L47 9L47 8ZM25 9L25 10L26 10L26 9ZM3 10L3 12L5 12L5 11L6 11L6 12L7 12L7 11L6 11L6 10L5 10L5 11L4 11L4 10ZM28 10L28 11L30 11L30 13L28 13L28 12L27 12L27 13L24 13L24 15L25 15L25 16L26 16L26 18L25 18L25 19L23 19L23 18L21 18L21 21L20 21L20 20L19 20L19 19L16 19L16 18L14 18L14 17L13 17L13 18L14 18L14 19L16 19L16 22L17 22L17 24L15 24L15 23L14 23L14 24L15 24L15 26L13 26L13 28L15 28L15 30L14 30L14 29L12 29L12 30L14 30L14 32L15 32L15 31L16 31L16 34L15 34L15 35L14 35L14 37L16 37L16 38L13 38L13 39L12 39L12 33L11 33L11 32L13 32L13 31L10 31L10 30L11 30L11 28L10 28L10 26L12 26L12 25L11 25L11 24L10 24L10 23L11 23L11 22L12 22L12 21L13 21L13 22L14 22L14 21L13 21L13 20L12 20L12 21L11 21L11 22L10 22L10 23L9 23L9 25L10 25L10 26L9 26L9 28L10 28L10 29L8 29L8 28L7 28L7 27L3 27L3 26L2 26L2 29L3 29L3 30L1 30L1 32L2 32L2 33L3 33L3 31L4 31L4 32L5 32L5 33L6 33L6 34L5 34L5 35L6 35L6 36L7 36L7 35L6 35L6 34L7 34L7 33L8 33L8 32L7 32L7 31L6 31L6 30L7 30L7 29L8 29L8 31L9 31L9 32L10 32L10 34L11 34L11 37L10 37L10 36L9 36L9 34L8 34L8 37L6 37L6 38L7 38L7 39L8 39L8 40L9 40L9 41L10 41L10 42L11 42L11 41L12 41L12 40L14 40L14 41L13 41L13 43L14 43L14 44L15 44L15 45L14 45L14 46L15 46L15 47L16 47L16 46L17 46L17 47L19 47L19 43L21 43L21 44L22 44L22 43L21 43L21 42L22 42L22 41L21 41L21 42L20 42L20 41L19 41L19 40L18 40L18 39L19 39L19 38L21 38L21 37L19 37L19 38L18 38L18 39L16 39L16 38L17 38L17 37L16 37L16 36L15 36L15 35L18 35L18 36L22 36L22 35L20 35L20 34L21 34L21 33L23 33L23 35L24 35L24 36L23 36L23 37L22 37L22 40L23 40L23 37L24 37L24 36L25 36L25 33L26 33L26 34L27 34L27 35L26 35L26 37L25 37L25 39L26 39L26 40L27 40L27 44L28 44L28 47L29 47L29 46L30 46L30 48L31 48L31 46L33 46L33 47L34 47L34 46L33 46L33 45L32 45L32 44L33 44L33 43L34 43L34 42L35 42L35 40L38 40L38 42L37 42L37 43L38 43L38 42L39 42L39 39L40 39L40 38L41 38L41 37L40 37L40 38L39 38L39 37L38 37L38 36L40 36L40 35L41 35L41 34L42 34L42 35L43 35L43 36L44 36L44 37L42 37L42 39L41 39L41 40L42 40L42 39L44 39L44 40L45 40L45 39L47 39L47 35L46 35L46 34L47 34L47 33L48 33L48 31L47 31L47 30L46 30L46 31L47 31L47 33L45 33L45 32L44 32L44 33L45 33L45 35L43 35L43 32L42 32L42 33L41 33L41 34L38 34L38 33L37 33L37 34L36 34L36 32L35 32L35 31L36 31L36 28L37 28L37 29L38 29L38 30L37 30L37 31L38 31L38 30L42 30L42 29L43 29L43 31L45 31L45 30L44 30L44 29L43 29L43 27L42 27L42 28L40 28L40 23L37 23L37 21L38 21L38 22L39 22L39 21L38 21L38 20L37 20L37 19L36 19L36 21L34 21L34 23L35 23L35 24L34 24L34 25L33 25L33 24L32 24L32 25L30 25L30 24L31 24L31 23L32 23L32 22L31 22L31 21L33 21L33 20L32 20L32 19L33 19L33 18L32 18L32 19L31 19L31 17L30 17L30 18L27 18L27 14L31 14L31 16L32 16L32 15L33 15L33 17L34 17L34 18L38 18L38 16L37 16L37 17L36 17L36 16L35 16L35 14L34 14L34 15L33 15L33 14L32 14L32 13L31 13L31 11L30 11L30 10ZM43 10L43 14L44 14L44 11L45 11L45 13L46 13L46 10ZM33 11L33 12L34 12L34 11ZM35 12L35 13L36 13L36 12ZM22 13L22 14L23 14L23 13ZM37 13L37 14L36 14L36 15L37 15L37 14L38 14L38 13ZM4 14L4 15L3 15L3 16L4 16L4 15L5 15L5 14ZM25 14L25 15L26 15L26 14ZM19 15L19 16L20 16L20 15ZM28 15L28 17L29 17L29 15ZM40 16L40 17L41 17L41 16ZM45 16L45 17L44 17L44 19L45 19L45 22L47 22L47 21L46 21L46 18L45 18L45 17L47 17L47 16ZM11 18L11 19L12 19L12 18ZM25 19L25 21L24 21L24 20L23 20L23 22L21 22L21 23L22 23L22 25L20 25L20 24L19 24L19 26L22 26L22 27L21 27L21 28L20 28L20 27L18 27L18 26L16 26L16 27L18 27L18 28L20 28L20 29L19 29L19 30L18 30L18 29L17 29L17 28L16 28L16 29L17 29L17 32L18 32L18 33L19 33L19 34L20 34L20 32L21 32L21 28L22 28L22 29L23 29L23 30L22 30L22 31L23 31L23 30L24 30L24 31L26 31L26 30L27 30L27 32L28 32L28 29L29 29L29 28L31 28L31 29L33 29L33 32L32 32L32 33L33 33L33 34L31 34L31 32L30 32L30 30L29 30L29 33L28 33L28 34L29 34L29 33L30 33L30 34L31 34L31 37L30 37L30 36L29 36L29 38L27 38L27 37L28 37L28 35L27 35L27 37L26 37L26 38L27 38L27 39L28 39L28 41L30 41L30 40L32 40L32 42L34 42L34 41L33 41L33 40L32 40L32 39L29 39L29 38L33 38L33 37L34 37L34 38L35 38L35 39L36 39L36 38L35 38L35 37L36 37L36 36L35 36L35 35L33 35L33 34L35 34L35 33L34 33L34 31L35 31L35 29L34 29L34 28L32 28L32 27L30 27L30 26L28 26L28 24L30 24L30 23L31 23L31 22L30 22L30 21L28 21L28 22L27 22L27 21L26 21L26 20L28 20L28 19ZM34 19L34 20L35 20L35 19ZM7 20L7 21L10 21L10 20ZM17 20L17 21L18 21L18 22L20 22L20 21L18 21L18 20ZM1 21L1 22L2 22L2 21ZM42 21L42 22L44 22L44 21ZM28 22L28 23L27 23L27 24L28 24L28 23L29 23L29 22ZM5 23L5 26L8 26L8 23ZM12 23L12 24L13 24L13 23ZM23 23L23 26L26 26L26 23ZM41 23L41 26L44 26L44 23ZM6 24L6 25L7 25L7 24ZM17 24L17 25L18 25L18 24ZM24 24L24 25L25 25L25 24ZM38 24L38 25L39 25L39 24ZM42 24L42 25L43 25L43 24ZM47 24L47 25L48 25L48 26L47 26L47 28L48 28L48 26L49 26L49 24ZM32 25L32 26L33 26L33 25ZM34 25L34 27L35 27L35 28L36 28L36 27L35 27L35 25ZM36 25L36 26L37 26L37 28L38 28L38 27L39 27L39 26L37 26L37 25ZM22 27L22 28L23 28L23 29L24 29L24 28L23 28L23 27ZM25 27L25 28L26 28L26 27ZM28 27L28 28L27 28L27 29L28 29L28 28L29 28L29 27ZM44 27L44 28L45 28L45 27ZM6 28L6 29L7 29L7 28ZM39 28L39 29L40 29L40 28ZM31 30L31 31L32 31L32 30ZM5 31L5 32L6 32L6 33L7 33L7 32L6 32L6 31ZM19 31L19 32L20 32L20 31ZM40 31L40 32L39 32L39 33L40 33L40 32L41 32L41 31ZM23 32L23 33L24 33L24 32ZM13 33L13 34L14 34L14 33ZM37 34L37 35L38 35L38 34ZM32 35L32 37L33 37L33 35ZM45 35L45 36L46 36L46 35ZM4 36L4 37L5 37L5 36ZM34 36L34 37L35 37L35 36ZM37 37L37 39L38 39L38 37ZM45 37L45 38L44 38L44 39L45 39L45 38L46 38L46 37ZM10 38L10 39L11 39L11 40L10 40L10 41L11 41L11 40L12 40L12 39L11 39L11 38ZM14 39L14 40L15 40L15 39ZM20 39L20 40L21 40L21 39ZM16 40L16 41L14 41L14 42L15 42L15 44L16 44L16 41L17 41L17 43L19 43L19 42L18 42L18 40ZM46 40L46 41L47 41L47 40ZM23 41L23 44L26 44L26 41ZM41 41L41 44L44 44L44 41ZM24 42L24 43L25 43L25 42ZM42 42L42 43L43 43L43 42ZM45 42L45 45L46 45L46 46L47 46L47 45L46 45L46 44L47 44L47 43L46 43L46 42ZM28 43L28 44L29 44L29 45L31 45L31 44L32 44L32 43L31 43L31 44L29 44L29 43ZM17 45L17 46L18 46L18 45ZM20 45L20 46L21 46L21 47L22 47L22 48L23 48L23 47L24 47L24 48L26 48L26 46L27 46L27 45L26 45L26 46L25 46L25 45L23 45L23 46L21 46L21 45ZM0 0L0 7L7 7L7 0ZM1 1L1 6L6 6L6 1ZM2 2L2 5L5 5L5 2ZM42 0L42 7L49 7L49 0ZM43 1L43 6L48 6L48 1ZM44 2L44 5L47 5L47 2ZM0 42L0 49L7 49L7 42ZM1 43L1 48L6 48L6 43ZM2 44L2 47L5 47L5 44Z" fill="#000000"/></g></g></svg>
