<?xml version="1.0" encoding="UTF-8"?>
<svg xmlns="http://www.w3.org/2000/svg" version="1.1" width="100" height="100" viewBox="0 0 100 100"><rect x="0" y="0" width="100" height="100" fill="#ffffff"/><g transform="scale(1.887)"><g transform="translate(0,0)"><path fill-rule="evenodd" d="M8 0L8 1L9 1L9 0ZM12 0L12 2L11 2L11 3L10 3L10 2L9 2L9 4L10 4L10 5L9 5L9 6L8 6L8 8L9 8L9 6L10 6L10 7L11 7L11 6L12 6L12 8L13 8L13 9L11 9L11 8L10 8L10 9L8 9L8 11L9 11L9 12L6 12L6 13L5 13L5 12L3 12L3 13L2 13L2 12L1 12L1 10L3 10L3 9L5 9L5 11L7 11L7 10L6 10L6 9L7 9L7 8L6 8L6 9L5 9L5 8L3 8L3 9L2 9L2 8L0 8L0 9L1 9L1 10L0 10L0 13L2 13L2 14L4 14L4 15L3 15L3 17L4 17L4 18L3 18L3 19L2 19L2 20L0 20L0 22L1 22L1 21L2 21L2 20L6 20L6 21L5 21L5 22L4 22L4 21L3 21L3 23L5 23L5 24L2 24L2 23L0 23L0 25L1 25L1 24L2 24L2 27L0 27L0 28L1 28L1 29L2 29L2 30L3 30L3 33L2 33L2 32L1 32L1 33L0 33L0 41L1 41L1 42L0 42L0 43L1 43L1 44L3 44L3 45L4 45L4 44L3 44L3 43L7 43L7 44L6 44L6 45L7 45L7 44L8 44L8 43L9 43L9 45L8 45L8 46L9 46L9 45L11 45L11 46L10 46L10 47L12 47L12 48L10 48L10 49L9 49L9 48L8 48L8 50L10 50L10 51L11 51L11 50L12 50L12 52L9 52L9 51L8 51L8 53L12 53L12 52L14 52L14 53L15 53L15 52L17 52L17 51L18 51L18 52L20 52L20 53L23 53L23 52L24 52L24 53L26 53L26 52L27 52L27 49L28 49L28 51L29 51L29 53L38 53L38 52L39 52L39 53L45 53L45 52L46 52L46 49L49 49L49 48L50 48L50 50L47 50L47 52L48 52L48 53L50 53L50 51L51 51L51 52L52 52L52 51L53 51L53 50L52 50L52 49L53 49L53 46L52 46L52 49L51 49L51 48L50 48L50 47L49 47L49 46L51 46L51 45L52 45L52 44L53 44L53 41L52 41L52 44L51 44L51 42L50 42L50 41L51 41L51 39L52 39L52 40L53 40L53 37L51 37L51 35L52 35L52 34L53 34L53 32L52 32L52 33L51 33L51 32L50 32L50 33L49 33L49 34L48 34L48 33L47 33L47 32L49 32L49 31L50 31L50 30L49 30L49 26L50 26L50 29L51 29L51 31L53 31L53 29L52 29L52 28L51 28L51 26L53 26L53 24L52 24L52 23L51 23L51 24L50 24L50 23L49 23L49 22L52 22L52 21L53 21L53 19L52 19L52 18L53 18L53 17L52 17L52 18L51 18L51 19L52 19L52 21L51 21L51 20L50 20L50 21L49 21L49 22L48 22L48 23L49 23L49 24L47 24L47 23L45 23L45 24L43 24L43 23L44 23L44 22L43 22L43 21L44 21L44 20L45 20L45 22L46 22L46 21L48 21L48 20L46 20L46 19L44 19L44 20L43 20L43 17L44 17L44 16L45 16L45 18L46 18L46 17L47 17L47 18L48 18L48 19L50 19L50 17L51 17L51 16L50 16L50 15L51 15L51 14L52 14L52 13L53 13L53 12L52 12L52 13L51 13L51 12L50 12L50 11L51 11L51 10L52 10L52 11L53 11L53 10L52 10L52 9L53 9L53 8L52 8L52 9L49 9L49 10L48 10L48 9L47 9L47 8L46 8L46 11L45 11L45 12L43 12L43 10L44 10L44 9L45 9L45 6L44 6L44 9L41 9L41 8L43 8L43 3L44 3L44 4L45 4L45 3L44 3L44 1L43 1L43 0L41 0L41 1L42 1L42 2L41 2L41 4L42 4L42 7L41 7L41 5L40 5L40 1L39 1L39 0L38 0L38 2L39 2L39 3L37 3L37 5L36 5L36 4L35 4L35 5L36 5L36 7L37 7L37 5L39 5L39 6L38 6L38 8L36 8L36 9L35 9L35 10L34 10L34 8L33 8L33 6L34 6L34 7L35 7L35 6L34 6L34 4L33 4L33 3L31 3L31 2L34 2L34 3L35 3L35 2L37 2L37 0L35 0L35 2L34 2L34 1L32 1L32 0L31 0L31 2L30 2L30 1L29 1L29 3L26 3L26 2L25 2L25 1L27 1L27 2L28 2L28 1L27 1L27 0L23 0L23 2L22 2L22 1L21 1L21 0L19 0L19 1L17 1L17 0L16 0L16 1L17 1L17 2L16 2L16 3L15 3L15 1L14 1L14 0ZM13 1L13 3L12 3L12 4L11 4L11 5L14 5L14 6L13 6L13 8L15 8L15 9L13 9L13 10L15 10L15 9L17 9L17 10L16 10L16 11L17 11L17 12L16 12L16 13L15 13L15 11L12 11L12 13L13 13L13 14L14 14L14 15L11 15L11 14L10 14L10 20L9 20L9 16L7 16L7 15L6 15L6 16L7 16L7 17L6 17L6 18L5 18L5 19L6 19L6 20L7 20L7 21L6 21L6 22L5 22L5 23L6 23L6 24L8 24L8 23L6 23L6 22L8 22L8 20L9 20L9 22L10 22L10 24L9 24L9 26L10 26L10 24L11 24L11 27L9 27L9 28L11 28L11 29L9 29L9 30L8 30L8 31L9 31L9 33L8 33L8 32L7 32L7 31L5 31L5 30L7 30L7 29L4 29L4 25L3 25L3 27L2 27L2 28L3 28L3 30L4 30L4 33L3 33L3 34L1 34L1 35L3 35L3 34L7 34L7 35L5 35L5 36L2 36L2 37L1 37L1 39L2 39L2 38L3 38L3 41L4 41L4 42L5 42L5 41L6 41L6 42L7 42L7 43L8 43L8 42L9 42L9 41L6 41L6 40L9 40L9 39L8 39L8 38L10 38L10 43L11 43L11 42L13 42L13 43L12 43L12 46L13 46L13 48L15 48L15 47L14 47L14 46L13 46L13 44L15 44L15 43L14 43L14 42L18 42L18 41L20 41L20 42L19 42L19 43L18 43L18 44L17 44L17 43L16 43L16 44L17 44L17 46L16 46L16 47L17 47L17 48L16 48L16 51L17 51L17 49L18 49L18 48L19 48L19 51L22 51L22 52L23 52L23 51L22 51L22 50L23 50L23 48L24 48L24 46L22 46L22 50L20 50L20 48L21 48L21 47L20 47L20 46L21 46L21 44L23 44L23 45L24 45L24 44L25 44L25 43L26 43L26 42L27 42L27 43L28 43L28 44L29 44L29 45L31 45L31 46L30 46L30 47L29 47L29 51L31 51L31 52L33 52L33 51L34 51L34 49L36 49L36 50L37 50L37 49L36 49L36 48L34 48L34 49L32 49L32 50L31 50L31 48L30 48L30 47L31 47L31 46L32 46L32 45L31 45L31 44L29 44L29 42L30 42L30 43L31 43L31 42L32 42L32 41L33 41L33 38L34 38L34 37L35 37L35 38L37 38L37 35L36 35L36 34L38 34L38 38L39 38L39 42L37 42L37 40L35 40L35 41L34 41L34 42L35 42L35 43L33 43L33 46L34 46L34 47L36 47L36 45L37 45L37 46L38 46L38 45L39 45L39 44L38 44L38 43L39 43L39 42L42 42L42 43L43 43L43 42L44 42L44 43L45 43L45 44L47 44L47 43L49 43L49 44L50 44L50 45L51 45L51 44L50 44L50 43L49 43L49 41L50 41L50 40L49 40L49 41L48 41L48 42L47 42L47 38L48 38L48 39L49 39L49 38L50 38L50 36L48 36L48 35L47 35L47 34L46 34L46 36L45 36L45 33L46 33L46 32L47 32L47 31L46 31L46 30L47 30L47 29L45 29L45 30L44 30L44 31L43 31L43 30L42 30L42 29L44 29L44 28L40 28L40 26L39 26L39 23L40 23L40 24L41 24L41 25L43 25L43 26L41 26L41 27L44 27L44 25L43 25L43 24L42 24L42 23L43 23L43 22L42 22L42 21L43 21L43 20L41 20L41 19L42 19L42 17L43 17L43 16L42 16L42 17L40 17L40 16L41 16L41 15L42 15L42 14L41 14L41 15L40 15L40 16L37 16L37 15L39 15L39 14L37 14L37 15L36 15L36 16L37 16L37 17L39 17L39 18L41 18L41 19L40 19L40 20L39 20L39 21L38 21L38 19L37 19L37 21L36 21L36 20L35 20L35 19L36 19L36 18L35 18L35 19L34 19L34 21L36 21L36 22L39 22L39 23L38 23L38 26L37 26L37 23L35 23L35 24L33 24L33 23L32 23L32 24L33 24L33 25L32 25L32 26L30 26L30 27L34 27L34 26L35 26L35 27L36 27L36 26L37 26L37 27L39 27L39 29L41 29L41 31L40 31L40 30L38 30L38 31L37 31L37 32L36 32L36 29L35 29L35 28L34 28L34 29L32 29L32 28L30 28L30 29L29 29L29 31L27 31L27 32L26 32L26 29L23 29L23 28L24 28L24 26L23 26L23 27L22 27L22 26L21 26L21 25L22 25L22 24L23 24L23 25L24 25L24 24L28 24L28 22L29 22L29 21L28 21L28 20L29 20L29 19L28 19L28 17L29 17L29 18L30 18L30 17L29 17L29 15L28 15L28 17L27 17L27 14L26 14L26 13L28 13L28 12L27 12L27 11L29 11L29 12L30 12L30 11L31 11L31 13L30 13L30 14L31 14L31 16L32 16L32 15L35 15L35 14L36 14L36 13L37 13L37 11L38 11L38 12L40 12L40 11L41 11L41 13L42 13L42 11L41 11L41 9L40 9L40 10L38 10L38 9L37 9L37 11L36 11L36 10L35 10L35 11L36 11L36 12L34 12L34 10L33 10L33 8L32 8L32 6L33 6L33 5L32 5L32 6L31 6L31 3L30 3L30 6L29 6L29 7L30 7L30 6L31 6L31 8L32 8L32 9L30 9L30 8L29 8L29 9L30 9L30 11L29 11L29 10L26 10L26 12L25 12L25 11L24 11L24 12L25 12L25 14L26 14L26 15L24 15L24 14L23 14L23 15L22 15L22 16L21 16L21 17L20 17L20 16L18 16L18 15L17 15L17 14L18 14L18 13L19 13L19 14L20 14L20 15L21 15L21 13L20 13L20 12L23 12L23 10L21 10L21 9L22 9L22 8L23 8L23 9L24 9L24 4L25 4L25 3L24 3L24 4L22 4L22 5L23 5L23 7L22 7L22 6L21 6L21 5L19 5L19 8L20 8L20 10L19 10L19 9L18 9L18 2L17 2L17 4L13 4L13 3L14 3L14 1ZM19 2L19 4L20 4L20 3L22 3L22 2ZM42 2L42 3L43 3L43 2ZM16 5L16 7L15 7L15 6L14 6L14 7L15 7L15 8L16 8L16 7L17 7L17 5ZM25 5L25 8L28 8L28 5ZM20 6L20 8L21 8L21 6ZM26 6L26 7L27 7L27 6ZM39 6L39 8L41 8L41 7L40 7L40 6ZM10 9L10 10L9 10L9 11L10 11L10 10L11 10L11 9ZM18 10L18 11L19 11L19 12L20 12L20 11L21 11L21 10L20 10L20 11L19 11L19 10ZM31 10L31 11L33 11L33 10ZM47 10L47 12L45 12L45 13L44 13L44 14L43 14L43 15L44 15L44 14L45 14L45 16L46 16L46 15L47 15L47 13L48 13L48 14L50 14L50 13L48 13L48 12L49 12L49 11L48 11L48 10ZM17 12L17 13L16 13L16 14L15 14L15 13L14 13L14 14L15 14L15 15L14 15L14 17L15 17L15 18L14 18L14 19L12 19L12 18L11 18L11 20L12 20L12 21L10 21L10 22L13 22L13 23L11 23L11 24L13 24L13 23L14 23L14 24L15 24L15 25L12 25L12 27L11 27L11 28L12 28L12 27L13 27L13 26L15 26L15 27L14 27L14 29L13 29L13 31L10 31L10 30L9 30L9 31L10 31L10 34L9 34L9 35L8 35L8 36L5 36L5 38L4 38L4 37L3 37L3 38L4 38L4 39L5 39L5 40L4 40L4 41L5 41L5 40L6 40L6 39L7 39L7 38L6 38L6 37L8 37L8 36L9 36L9 37L10 37L10 38L11 38L11 39L12 39L12 41L14 41L14 40L13 40L13 38L12 38L12 37L14 37L14 39L15 39L15 41L16 41L16 40L17 40L17 39L18 39L18 40L20 40L20 41L21 41L21 42L20 42L20 44L21 44L21 42L22 42L22 43L23 43L23 42L24 42L24 43L25 43L25 42L24 42L24 40L23 40L23 38L22 38L22 39L19 39L19 37L20 37L20 38L21 38L21 36L19 36L19 37L18 37L18 38L16 38L16 37L17 37L17 36L18 36L18 35L20 35L20 34L21 34L21 33L20 33L20 34L18 34L18 33L16 33L16 31L15 31L15 30L17 30L17 29L18 29L18 28L17 28L17 27L19 27L19 29L20 29L20 30L18 30L18 31L20 31L20 32L22 32L22 34L23 34L23 35L22 35L22 37L24 37L24 38L25 38L25 40L26 40L26 38L25 38L25 37L27 37L27 36L26 36L26 35L28 35L28 36L29 36L29 33L30 33L30 32L33 32L33 33L34 33L34 34L30 34L30 36L31 36L31 37L32 37L32 36L31 36L31 35L33 35L33 36L35 36L35 37L36 37L36 35L35 35L35 33L36 33L36 32L35 32L35 33L34 33L34 31L35 31L35 30L32 30L32 29L30 29L30 30L32 30L32 31L29 31L29 32L28 32L28 33L27 33L27 34L26 34L26 32L25 32L25 33L23 33L23 32L22 32L22 31L24 31L24 30L22 30L22 31L20 31L20 30L21 30L21 29L20 29L20 28L21 28L21 27L20 27L20 24L19 24L19 23L20 23L20 22L22 22L22 21L23 21L23 24L24 24L24 23L27 23L27 21L25 21L25 19L27 19L27 20L28 20L28 19L27 19L27 18L26 18L26 17L24 17L24 18L23 18L23 17L22 17L22 19L21 19L21 18L20 18L20 17L19 17L19 18L18 18L18 16L17 16L17 15L16 15L16 14L17 14L17 13L18 13L18 12ZM32 12L32 14L33 14L33 12ZM4 13L4 14L5 14L5 13ZM6 13L6 14L8 14L8 15L9 15L9 13ZM45 13L45 14L46 14L46 13ZM4 15L4 16L5 16L5 15ZM52 15L52 16L53 16L53 15ZM0 16L0 18L2 18L2 16ZM11 16L11 17L13 17L13 16ZM15 16L15 17L17 17L17 16ZM33 16L33 18L34 18L34 16ZM48 16L48 18L49 18L49 16ZM6 18L6 19L7 19L7 20L8 20L8 19L7 19L7 18ZM16 18L16 20L15 20L15 19L14 19L14 20L15 20L15 21L13 21L13 22L14 22L14 23L15 23L15 21L16 21L16 23L17 23L17 26L16 26L16 27L17 27L17 26L18 26L18 22L20 22L20 18L19 18L19 21L18 21L18 20L17 20L17 19L18 19L18 18ZM24 18L24 19L25 19L25 18ZM31 18L31 22L32 22L32 18ZM16 20L16 21L17 21L17 22L18 22L18 21L17 21L17 20ZM21 20L21 21L22 21L22 20ZM40 21L40 22L41 22L41 21ZM29 23L29 24L30 24L30 25L31 25L31 24L30 24L30 23ZM49 24L49 25L50 25L50 24ZM51 24L51 25L52 25L52 24ZM5 25L5 28L8 28L8 25ZM25 25L25 28L28 28L28 25ZM33 25L33 26L34 26L34 25ZM45 25L45 28L48 28L48 25ZM6 26L6 27L7 27L7 26ZM26 26L26 27L27 27L27 26ZM46 26L46 27L47 27L47 26ZM37 28L37 29L38 29L38 28ZM11 29L11 30L12 30L12 29ZM14 29L14 30L15 30L15 29ZM48 30L48 31L49 31L49 30ZM13 31L13 32L14 32L14 33L15 33L15 35L18 35L18 34L16 34L16 33L15 33L15 32L14 32L14 31ZM38 31L38 32L37 32L37 33L38 33L38 34L39 34L39 33L40 33L40 31ZM41 31L41 33L42 33L42 34L43 34L43 33L45 33L45 31L44 31L44 32L43 32L43 31ZM5 32L5 33L7 33L7 32ZM11 32L11 34L12 34L12 35L9 35L9 36L10 36L10 37L11 37L11 36L12 36L12 35L13 35L13 33L12 33L12 32ZM42 32L42 33L43 33L43 32ZM24 34L24 37L25 37L25 34ZM49 34L49 35L50 35L50 34ZM39 35L39 36L40 36L40 35ZM42 35L42 36L41 36L41 38L40 38L40 39L41 39L41 38L43 38L43 39L42 39L42 40L40 40L40 41L42 41L42 40L43 40L43 41L44 41L44 42L45 42L45 43L46 43L46 39L45 39L45 38L43 38L43 37L42 37L42 36L43 36L43 35ZM14 36L14 37L16 37L16 36ZM44 36L44 37L45 37L45 36ZM46 36L46 38L47 38L47 36ZM48 37L48 38L49 38L49 37ZM5 38L5 39L6 39L6 38ZM15 38L15 39L16 39L16 38ZM27 38L27 39L28 39L28 40L30 40L30 42L31 42L31 41L32 41L32 39L31 39L31 38L30 38L30 39L28 39L28 38ZM43 39L43 40L45 40L45 39ZM21 40L21 41L23 41L23 40ZM27 41L27 42L29 42L29 41ZM35 41L35 42L36 42L36 43L37 43L37 42L36 42L36 41ZM2 42L2 43L3 43L3 42ZM40 43L40 44L41 44L41 45L40 45L40 47L41 47L41 48L42 48L42 49L41 49L41 50L42 50L42 51L44 51L44 52L45 52L45 49L43 49L43 48L42 48L42 47L41 47L41 45L42 45L42 44L41 44L41 43ZM35 44L35 45L36 45L36 44ZM18 45L18 47L19 47L19 48L20 48L20 47L19 47L19 46L20 46L20 45ZM25 45L25 48L28 48L28 45ZM43 45L43 46L44 46L44 45ZM45 45L45 48L48 48L48 45ZM26 46L26 47L27 47L27 46ZM46 46L46 47L47 47L47 46ZM38 47L38 51L35 51L35 52L38 52L38 51L39 51L39 47ZM10 49L10 50L11 50L11 49ZM14 49L14 51L15 51L15 49ZM42 49L42 50L43 50L43 49ZM24 51L24 52L25 52L25 51ZM48 51L48 52L49 52L49 51ZM0 0L0 7L7 7L7 0ZM1 1L1 6L6 6L6 1ZM2 2L2 5L5 5L5 2ZM46 0L46 7L53 7L53 0ZM47 1L47 6L52 6L52 1ZM48 2L48 5L51 5L51 2ZM0 46L0 53L7 53L7 46ZM1 47L1 52L6 52L6 47ZM2 48L2 51L5 51L5 48Z" fill="#000000"/></g></g></svg>
