<?xml version="1.0" encoding="UTF-8"?>
<svg xmlns="http://www.w3.org/2000/svg" version="1.1" width="100" height="100" viewBox="0 0 100 100"><rect x="0" y="0" width="100" height="100" fill="#ffffff"/><g transform="scale(1.887)"><g transform="translate(0,0)"><path fill-rule="evenodd" d="M8 0L8 1L9 1L9 2L8 2L8 5L10 5L10 4L11 4L11 6L10 6L10 8L12 8L12 9L11 9L11 10L12 10L12 9L14 9L14 10L13 10L13 12L12 12L12 11L11 11L11 12L10 12L10 11L9 11L9 10L6 10L6 9L7 9L7 8L6 8L6 9L4 9L4 8L0 8L0 10L1 10L1 12L0 12L0 13L1 13L1 12L3 12L3 13L4 13L4 14L3 14L3 15L2 15L2 14L1 14L1 15L0 15L0 18L1 18L1 20L0 20L0 21L2 21L2 20L3 20L3 19L4 19L4 17L10 17L10 16L8 16L8 14L9 14L9 15L11 15L11 16L13 16L13 15L14 15L14 14L15 14L15 13L16 13L16 14L17 14L17 15L18 15L18 16L17 16L17 17L16 17L16 16L14 16L14 17L13 17L13 19L11 19L11 20L13 20L13 21L12 21L12 22L13 22L13 23L11 23L11 22L10 22L10 23L9 23L9 24L8 24L8 22L9 22L9 21L10 21L10 19L9 19L9 20L8 20L8 21L7 21L7 20L6 20L6 19L7 19L7 18L6 18L6 19L5 19L5 21L7 21L7 22L6 22L6 23L4 23L4 22L1 22L1 23L0 23L0 25L2 25L2 27L3 27L3 28L0 28L0 30L1 30L1 31L2 31L2 32L1 32L1 33L3 33L3 32L4 32L4 30L2 30L2 29L3 29L3 28L4 28L4 29L5 29L5 33L4 33L4 34L3 34L3 35L2 35L2 37L1 37L1 36L0 36L0 37L1 37L1 38L0 38L0 43L1 43L1 44L3 44L3 45L4 45L4 44L3 44L3 43L9 43L9 42L10 42L10 44L8 44L8 46L10 46L10 47L9 47L9 49L8 49L8 53L11 53L11 52L12 52L12 51L13 51L13 52L14 52L14 53L16 53L16 52L14 52L14 51L13 51L13 50L16 50L16 49L19 49L19 50L21 50L21 51L22 51L22 53L23 53L23 52L24 52L24 50L22 50L22 49L23 49L23 48L24 48L24 49L26 49L26 50L25 50L25 53L26 53L26 51L27 51L27 53L28 53L28 52L29 52L29 53L30 53L30 52L31 52L31 53L33 53L33 51L36 51L36 50L37 50L37 51L38 51L38 50L37 50L37 48L35 48L35 47L33 47L33 46L35 46L35 45L36 45L36 46L37 46L37 47L39 47L39 48L38 48L38 49L39 49L39 50L40 50L40 51L41 51L41 52L40 52L40 53L42 53L42 52L43 52L43 53L46 53L46 52L48 52L48 50L49 50L49 53L50 53L50 52L51 52L51 53L52 53L52 52L53 52L53 50L52 50L52 49L50 49L50 48L49 48L49 46L50 46L50 44L51 44L51 43L50 43L50 42L49 42L49 41L48 41L48 40L50 40L50 41L52 41L52 42L53 42L53 41L52 41L52 39L53 39L53 36L52 36L52 37L51 37L51 34L50 34L50 33L53 33L53 32L50 32L50 31L52 31L52 30L53 30L53 29L51 29L51 30L50 30L50 29L49 29L49 26L50 26L50 28L53 28L53 27L52 27L52 26L53 26L53 25L50 25L50 24L49 24L49 23L46 23L46 22L50 22L50 21L52 21L52 22L51 22L51 24L52 24L52 22L53 22L53 17L52 17L52 13L49 13L49 11L53 11L53 8L52 8L52 10L50 10L50 9L51 9L51 8L48 8L48 9L47 9L47 10L46 10L46 8L45 8L45 6L44 6L44 7L43 7L43 3L44 3L44 4L45 4L45 3L44 3L44 1L43 1L43 0L42 0L42 1L41 1L41 0L40 0L40 1L38 1L38 0L36 0L36 1L37 1L37 2L36 2L36 3L37 3L37 4L35 4L35 2L34 2L34 1L35 1L35 0L34 0L34 1L33 1L33 0L32 0L32 2L33 2L33 4L32 4L32 3L31 3L31 4L30 4L30 2L31 2L31 1L30 1L30 0L28 0L28 1L27 1L27 3L28 3L28 1L30 1L30 2L29 2L29 4L26 4L26 1L25 1L25 0L24 0L24 1L25 1L25 4L24 4L24 2L22 2L22 1L23 1L23 0L22 0L22 1L20 1L20 2L21 2L21 3L23 3L23 4L24 4L24 5L21 5L21 4L19 4L19 3L18 3L18 4L19 4L19 6L18 6L18 5L16 5L16 4L15 4L15 5L16 5L16 7L15 7L15 6L14 6L14 7L13 7L13 4L14 4L14 3L17 3L17 2L15 2L15 0L14 0L14 1L13 1L13 0L11 0L11 1L12 1L12 3L13 3L13 4L11 4L11 2L10 2L10 0ZM17 0L17 1L18 1L18 0ZM40 1L40 2L37 2L37 3L38 3L38 4L39 4L39 5L38 5L38 6L37 6L37 5L36 5L36 6L35 6L35 4L33 4L33 5L31 5L31 7L30 7L30 5L29 5L29 8L30 8L30 9L31 9L31 10L30 10L30 12L27 12L27 10L28 10L28 11L29 11L29 9L26 9L26 11L25 11L25 10L24 10L24 11L23 11L23 9L24 9L24 8L23 8L23 7L24 7L24 6L23 6L23 7L22 7L22 6L21 6L21 5L20 5L20 6L19 6L19 7L18 7L18 6L17 6L17 7L16 7L16 9L15 9L15 11L14 11L14 12L15 12L15 11L19 11L19 12L17 12L17 13L18 13L18 15L19 15L19 12L20 12L20 16L19 16L19 18L20 18L20 19L23 19L23 20L24 20L24 21L26 21L26 22L29 22L29 21L27 21L27 19L28 19L28 20L30 20L30 21L31 21L31 22L30 22L30 24L29 24L29 25L30 25L30 26L31 26L31 27L32 27L32 28L31 28L31 29L30 29L30 31L29 31L29 30L28 30L28 31L27 31L27 30L26 30L26 31L27 31L27 32L26 32L26 33L27 33L27 34L28 34L28 35L25 35L25 36L24 36L24 35L23 35L23 33L24 33L24 32L23 32L23 31L25 31L25 30L23 30L23 28L24 28L24 25L23 25L23 24L24 24L24 23L25 23L25 22L24 22L24 23L23 23L23 22L22 22L22 21L20 21L20 20L19 20L19 19L16 19L16 20L17 20L17 21L18 21L18 22L16 22L16 21L15 21L15 22L14 22L14 21L13 21L13 22L14 22L14 23L18 23L18 24L19 24L19 25L18 25L18 27L17 27L17 26L14 26L14 25L12 25L12 24L11 24L11 23L10 23L10 24L11 24L11 25L12 25L12 26L10 26L10 29L8 29L8 30L10 30L10 29L11 29L11 32L10 32L10 31L9 31L9 32L10 32L10 33L9 33L9 34L12 34L12 37L14 37L14 35L13 35L13 32L12 32L12 27L13 27L13 31L16 31L16 32L14 32L14 34L15 34L15 33L16 33L16 35L17 35L17 36L15 36L15 37L16 37L16 38L17 38L17 36L18 36L18 39L15 39L15 40L14 40L14 38L13 38L13 39L12 39L12 38L10 38L10 37L9 37L9 36L8 36L8 34L7 34L7 33L5 33L5 34L4 34L4 35L6 35L6 36L4 36L4 37L6 37L6 38L3 38L3 37L2 37L2 38L1 38L1 39L2 39L2 40L1 40L1 42L2 42L2 43L3 43L3 42L5 42L5 41L6 41L6 42L7 42L7 41L6 41L6 40L8 40L8 42L9 42L9 40L8 40L8 39L6 39L6 38L10 38L10 39L12 39L12 40L11 40L11 41L10 41L10 42L11 42L11 41L12 41L12 42L13 42L13 44L12 44L12 45L11 45L11 44L10 44L10 46L11 46L11 47L10 47L10 49L9 49L9 50L10 50L10 49L12 49L12 48L11 48L11 47L13 47L13 49L14 49L14 48L15 48L15 47L19 47L19 48L20 48L20 49L21 49L21 47L22 47L22 48L23 48L23 47L24 47L24 46L23 46L23 45L24 45L24 44L23 44L23 42L24 42L24 41L23 41L23 40L25 40L25 41L26 41L26 43L25 43L25 44L26 44L26 43L27 43L27 44L28 44L28 42L27 42L27 40L25 40L25 39L24 39L24 38L25 38L25 37L26 37L26 39L28 39L28 41L29 41L29 39L33 39L33 40L32 40L32 41L34 41L34 43L33 43L33 42L31 42L31 43L29 43L29 45L30 45L30 44L32 44L32 43L33 43L33 44L34 44L34 45L35 45L35 42L36 42L36 40L35 40L35 39L34 39L34 36L33 36L33 35L34 35L34 34L35 34L35 37L37 37L37 38L36 38L36 39L37 39L37 38L41 38L41 40L42 40L42 38L43 38L43 35L44 35L44 38L46 38L46 39L45 39L45 41L46 41L46 42L48 42L48 43L45 43L45 44L49 44L49 42L48 42L48 41L47 41L47 40L46 40L46 39L47 39L47 38L46 38L46 37L47 37L47 33L45 33L45 34L44 34L44 33L43 33L43 35L42 35L42 33L41 33L41 32L43 32L43 31L44 31L44 28L43 28L43 29L42 29L42 28L41 28L41 27L42 27L42 26L43 26L43 27L44 27L44 26L43 26L43 25L44 25L44 24L45 24L45 22L46 22L46 20L47 20L47 21L48 21L48 20L49 20L49 21L50 21L50 20L52 20L52 19L50 19L50 18L52 18L52 17L49 17L49 19L48 19L48 20L47 20L47 19L46 19L46 18L48 18L48 17L46 17L46 16L47 16L47 14L48 14L48 15L49 15L49 14L48 14L48 13L46 13L46 12L45 12L45 10L42 10L42 12L43 12L43 13L41 13L41 12L40 12L40 11L41 11L41 10L40 10L40 8L41 8L41 9L42 9L42 8L43 8L43 9L44 9L44 8L43 8L43 7L42 7L42 6L41 6L41 7L40 7L40 6L39 6L39 5L42 5L42 4L40 4L40 3L41 3L41 1ZM13 2L13 3L14 3L14 2ZM42 2L42 3L43 3L43 2ZM9 3L9 4L10 4L10 3ZM25 5L25 8L28 8L28 5ZM33 5L33 6L32 6L32 7L31 7L31 9L32 9L32 10L31 10L31 12L30 12L30 14L29 14L29 13L27 13L27 12L25 12L25 11L24 11L24 13L25 13L25 15L26 15L26 16L27 16L27 15L26 15L26 14L28 14L28 16L29 16L29 17L28 17L28 18L29 18L29 17L30 17L30 18L31 18L31 20L32 20L32 21L33 21L33 20L34 20L34 18L35 18L35 19L37 19L37 20L38 20L38 22L37 22L37 23L36 23L36 21L35 21L35 22L34 22L34 23L33 23L33 22L31 22L31 23L33 23L33 24L34 24L34 25L33 25L33 27L35 27L35 33L39 33L39 36L38 36L38 37L39 37L39 36L40 36L40 37L41 37L41 36L42 36L42 35L41 35L41 36L40 36L40 34L41 34L41 33L39 33L39 32L40 32L40 31L39 31L39 30L41 30L41 31L42 31L42 29L40 29L40 27L41 27L41 25L42 25L42 23L43 23L43 24L44 24L44 22L45 22L45 21L44 21L44 20L46 20L46 19L45 19L45 18L46 18L46 17L45 17L45 18L44 18L44 15L45 15L45 16L46 16L46 13L45 13L45 14L44 14L44 15L41 15L41 13L40 13L40 12L39 12L39 13L38 13L38 14L40 14L40 16L39 16L39 17L38 17L38 18L39 18L39 19L37 19L37 18L35 18L35 17L36 17L36 12L37 12L37 11L36 11L36 12L35 12L35 10L37 10L37 9L39 9L39 6L38 6L38 7L37 7L37 6L36 6L36 7L35 7L35 6L34 6L34 5ZM8 6L8 7L9 7L9 6ZM11 6L11 7L12 7L12 8L13 8L13 7L12 7L12 6ZM20 6L20 7L19 7L19 10L20 10L20 11L22 11L22 10L21 10L21 9L23 9L23 8L21 8L21 6ZM26 6L26 7L27 7L27 6ZM33 6L33 8L32 8L32 9L33 9L33 10L34 10L34 9L37 9L37 8L35 8L35 7L34 7L34 6ZM14 7L14 8L15 8L15 7ZM17 7L17 8L18 8L18 7ZM8 8L8 9L9 9L9 8ZM20 8L20 9L21 9L21 8ZM3 9L3 11L4 11L4 9ZM48 9L48 10L47 10L47 11L49 11L49 9ZM5 10L5 12L7 12L7 11L6 11L6 10ZM39 10L39 11L40 11L40 10ZM32 11L32 13L33 13L33 14L30 14L30 15L31 15L31 16L35 16L35 13L34 13L34 11ZM43 11L43 12L44 12L44 11ZM11 12L11 13L12 13L12 12ZM21 12L21 14L22 14L22 16L20 16L20 17L22 17L22 18L24 18L24 17L25 17L25 16L24 16L24 17L22 17L22 16L23 16L23 13L22 13L22 12ZM6 13L6 14L7 14L7 13ZM11 14L11 15L12 15L12 14ZM33 14L33 15L34 15L34 14ZM1 15L1 16L2 16L2 15ZM3 15L3 17L4 17L4 16L5 16L5 15ZM6 15L6 16L7 16L7 15ZM37 15L37 16L38 16L38 15ZM14 17L14 19L13 19L13 20L15 20L15 17ZM17 17L17 18L18 18L18 17ZM31 17L31 18L32 18L32 19L33 19L33 18L34 18L34 17L33 17L33 18L32 18L32 17ZM39 17L39 18L40 18L40 25L41 25L41 23L42 23L42 20L43 20L43 19L41 19L41 17ZM42 17L42 18L43 18L43 17ZM25 19L25 20L26 20L26 19ZM49 19L49 20L50 20L50 19ZM43 21L43 22L44 22L44 21ZM19 22L19 24L20 24L20 25L21 25L21 29L20 29L20 26L19 26L19 28L16 28L16 29L15 29L15 28L14 28L14 29L15 29L15 30L16 30L16 31L17 31L17 32L18 32L18 33L17 33L17 34L18 34L18 33L19 33L19 32L21 32L21 35L22 35L22 36L23 36L23 35L22 35L22 33L23 33L23 32L22 32L22 31L21 31L21 29L22 29L22 28L23 28L23 25L21 25L21 24L20 24L20 22ZM21 22L21 23L22 23L22 22ZM1 23L1 24L2 24L2 25L4 25L4 24L3 24L3 23ZM6 23L6 24L7 24L7 23ZM26 23L26 24L28 24L28 23ZM37 23L37 24L36 24L36 25L37 25L37 26L35 26L35 25L34 25L34 26L35 26L35 27L38 27L38 28L36 28L36 30L37 30L37 31L36 31L36 32L37 32L37 31L38 31L38 28L39 28L39 25L38 25L38 24L39 24L39 23ZM16 24L16 25L17 25L17 24ZM5 25L5 28L8 28L8 25ZM25 25L25 28L28 28L28 25ZM45 25L45 28L48 28L48 25ZM3 26L3 27L4 27L4 26ZM6 26L6 27L7 27L7 26ZM26 26L26 27L27 27L27 26ZM46 26L46 27L47 27L47 26ZM32 28L32 29L33 29L33 28ZM6 29L6 30L7 30L7 29ZM45 29L45 32L48 32L48 38L49 38L49 36L50 36L50 34L49 34L49 33L50 33L50 32L49 32L49 31L50 31L50 30L49 30L49 29ZM19 30L19 31L20 31L20 30ZM31 30L31 31L32 31L32 32L34 32L34 30L33 30L33 31L32 31L32 30ZM6 31L6 32L7 32L7 31ZM27 32L27 33L29 33L29 34L30 34L30 35L29 35L29 36L28 36L28 37L27 37L27 38L28 38L28 37L29 37L29 38L32 38L32 37L33 37L33 36L32 36L32 35L33 35L33 34L34 34L34 33L32 33L32 34L31 34L31 32ZM6 34L6 35L7 35L7 34ZM19 34L19 35L18 35L18 36L20 36L20 34ZM37 34L37 35L36 35L36 36L37 36L37 35L38 35L38 34ZM10 35L10 36L11 36L11 35ZM30 35L30 37L32 37L32 36L31 36L31 35ZM45 35L45 36L46 36L46 35ZM6 36L6 37L8 37L8 36ZM19 37L19 38L21 38L21 39L23 39L23 38L24 38L24 37L23 37L23 38L21 38L21 37ZM2 38L2 39L3 39L3 38ZM51 38L51 39L50 39L50 40L51 40L51 39L52 39L52 38ZM4 39L4 40L3 40L3 41L2 41L2 42L3 42L3 41L4 41L4 40L6 40L6 39ZM18 39L18 41L17 41L17 42L18 42L18 46L20 46L20 47L21 47L21 45L19 45L19 44L21 44L21 43L20 43L20 42L18 42L18 41L19 41L19 40L20 40L20 41L21 41L21 42L23 42L23 41L22 41L22 40L20 40L20 39ZM38 39L38 40L39 40L39 39ZM43 39L43 40L44 40L44 39ZM12 40L12 41L13 41L13 42L14 42L14 43L15 43L15 44L14 44L14 45L13 45L13 46L15 46L15 44L16 44L16 45L17 45L17 44L16 44L16 42L14 42L14 40ZM30 40L30 41L31 41L31 40ZM34 40L34 41L35 41L35 40ZM37 41L37 42L38 42L38 41ZM39 41L39 42L40 42L40 44L37 44L37 46L39 46L39 47L41 47L41 46L40 46L40 44L41 44L41 45L43 45L43 46L42 46L42 48L40 48L40 49L42 49L42 50L43 50L43 51L45 51L45 52L46 52L46 51L47 51L47 49L46 49L46 50L45 50L45 49L44 49L44 47L43 47L43 46L44 46L44 45L43 45L43 44L44 44L44 42L41 42L41 41ZM52 43L52 44L53 44L53 43ZM6 44L6 45L7 45L7 44ZM22 44L22 45L23 45L23 44ZM25 45L25 48L28 48L28 45ZM31 45L31 46L33 46L33 45ZM45 45L45 48L48 48L48 45ZM51 45L51 47L52 47L52 48L53 48L53 45ZM26 46L26 47L27 47L27 46ZM46 46L46 47L47 47L47 46ZM30 47L30 48L31 48L31 49L29 49L29 51L31 51L31 52L32 52L32 51L33 51L33 50L34 50L34 49L33 49L33 48L32 48L32 47ZM27 49L27 50L28 50L28 49ZM35 49L35 50L36 50L36 49ZM43 49L43 50L44 50L44 49ZM11 50L11 51L12 51L12 50ZM17 50L17 51L18 51L18 53L19 53L19 52L20 52L20 53L21 53L21 52L20 52L20 51L18 51L18 50ZM51 50L51 52L52 52L52 50ZM34 52L34 53L36 53L36 52ZM37 52L37 53L38 53L38 52ZM0 0L0 7L7 7L7 0ZM1 1L1 6L6 6L6 1ZM2 2L2 5L5 5L5 2ZM46 0L46 7L53 7L53 0ZM47 1L47 6L52 6L52 1ZM48 2L48 5L51 5L51 2ZM0 46L0 53L7 53L7 46ZM1 47L1 52L6 52L6 47ZM2 48L2 51L5 51L5 48Z" fill="#000000"/></g></g></svg>
