<?xml version="1.0" encoding="UTF-8"?>
<svg xmlns="http://www.w3.org/2000/svg" version="1.1" width="100" height="100" viewBox="0 0 100 100"><rect x="0" y="0" width="100" height="100" fill="#ffffff"/><g transform="scale(1.887)"><g transform="translate(0,0)"><path fill-rule="evenodd" d="M13 0L13 1L11 1L11 2L10 2L10 1L8 1L8 2L10 2L10 5L11 5L11 3L12 3L12 2L13 2L13 3L14 3L14 4L15 4L15 5L13 5L13 4L12 4L12 8L10 8L10 9L9 9L9 8L6 8L6 9L5 9L5 8L0 8L0 10L1 10L1 9L3 9L3 10L4 10L4 11L3 11L3 12L2 12L2 11L0 11L0 13L1 13L1 15L0 15L0 16L2 16L2 17L3 17L3 19L4 19L4 18L5 18L5 22L4 22L4 20L3 20L3 21L1 21L1 23L0 23L0 25L1 25L1 26L0 26L0 27L1 27L1 29L0 29L0 30L1 30L1 31L0 31L0 32L2 32L2 33L0 33L0 34L1 34L1 35L0 35L0 43L1 43L1 44L3 44L3 45L4 45L4 44L3 44L3 43L7 43L7 44L6 44L6 45L7 45L7 44L8 44L8 47L9 47L9 48L8 48L8 53L10 53L10 52L11 52L11 53L12 53L12 51L14 51L14 50L16 50L16 49L15 49L15 46L16 46L16 45L17 45L17 47L18 47L18 45L19 45L19 46L21 46L21 45L22 45L22 43L21 43L21 42L20 42L20 43L19 43L19 41L21 41L21 40L22 40L22 41L23 41L23 39L25 39L25 42L23 42L23 43L26 43L26 38L25 38L25 37L27 37L27 36L28 36L28 37L29 37L29 36L30 36L30 37L32 37L32 38L27 38L27 41L28 41L28 39L29 39L29 40L30 40L30 41L29 41L29 44L28 44L28 43L27 43L27 44L24 44L24 45L23 45L23 47L24 47L24 49L20 49L20 47L19 47L19 49L18 49L18 48L17 48L17 49L18 49L18 50L17 50L17 51L18 51L18 52L17 52L17 53L18 53L18 52L19 52L19 53L21 53L21 52L20 52L20 51L21 51L21 50L23 50L23 51L22 51L22 52L23 52L23 53L29 53L29 52L31 52L31 53L32 53L32 52L31 52L31 51L32 51L32 48L31 48L31 47L32 47L32 42L33 42L33 43L34 43L34 42L35 42L35 43L37 43L37 44L38 44L38 42L37 42L37 41L38 41L38 39L39 39L39 38L38 38L38 37L37 37L37 36L38 36L38 35L37 35L37 34L38 34L38 33L37 33L37 32L38 32L38 31L39 31L39 32L40 32L40 31L39 31L39 30L41 30L41 32L43 32L43 33L42 33L42 34L41 34L41 33L40 33L40 34L41 34L41 35L39 35L39 37L40 37L40 36L42 36L42 37L41 37L41 41L40 41L40 40L39 40L39 42L42 42L42 43L41 43L41 44L40 44L40 43L39 43L39 45L40 45L40 46L39 46L39 48L38 48L38 46L37 46L37 45L36 45L36 44L35 44L35 45L34 45L34 44L33 44L33 45L34 45L34 46L33 46L33 47L35 47L35 49L34 49L34 48L33 48L33 49L34 49L34 51L36 51L36 52L37 52L37 53L40 53L40 52L42 52L42 53L43 53L43 52L46 52L46 53L50 53L50 52L49 52L49 51L48 51L48 50L50 50L50 49L49 49L49 47L51 47L51 48L53 48L53 47L51 47L51 46L53 46L53 43L51 43L51 46L50 46L50 45L49 45L49 44L50 44L50 41L49 41L49 39L51 39L51 40L52 40L52 39L51 39L51 38L52 38L52 37L53 37L53 36L52 36L52 37L51 37L51 35L52 35L52 34L51 34L51 35L49 35L49 34L50 34L50 32L52 32L52 31L53 31L53 30L50 30L50 29L49 29L49 27L51 27L51 28L52 28L52 26L53 26L53 25L52 25L52 24L53 24L53 23L52 23L52 22L50 22L50 20L51 20L51 21L52 21L52 20L53 20L53 17L51 17L51 19L49 19L49 18L50 18L50 17L49 17L49 15L50 15L50 16L52 16L52 15L53 15L53 13L52 13L52 15L51 15L51 14L50 14L50 13L49 13L49 12L50 12L50 8L49 8L49 10L47 10L47 9L48 9L48 8L47 8L47 9L46 9L46 8L45 8L45 9L46 9L46 11L45 11L45 10L44 10L44 7L45 7L45 6L44 6L44 7L43 7L43 3L44 3L44 4L45 4L45 3L44 3L44 1L43 1L43 0L41 0L41 1L42 1L42 2L43 2L43 3L41 3L41 2L39 2L39 1L40 1L40 0L39 0L39 1L38 1L38 0L37 0L37 1L36 1L36 0L31 0L31 1L30 1L30 2L29 2L29 1L28 1L28 0L27 0L27 1L28 1L28 2L27 2L27 3L26 3L26 4L25 4L25 2L26 2L26 0L24 0L24 1L23 1L23 2L21 2L21 0L18 0L18 1L17 1L17 2L19 2L19 3L21 3L21 5L23 5L23 6L22 6L22 8L21 8L21 9L23 9L23 12L24 12L24 13L23 13L23 14L25 14L25 15L22 15L22 14L21 14L21 13L22 13L22 11L21 11L21 13L20 13L20 12L18 12L18 11L19 11L19 8L20 8L20 7L21 7L21 6L20 6L20 7L19 7L19 5L20 5L20 4L19 4L19 5L18 5L18 3L17 3L17 4L16 4L16 2L14 2L14 0ZM15 0L15 1L16 1L16 0ZM19 1L19 2L20 2L20 1ZM32 1L32 2L31 2L31 4L32 4L32 6L31 6L31 5L30 5L30 3L27 3L27 4L29 4L29 7L30 7L30 6L31 6L31 7L32 7L32 8L31 8L31 9L30 9L30 8L29 8L29 9L25 9L25 10L24 10L24 12L25 12L25 13L26 13L26 15L25 15L25 16L24 16L24 17L26 17L26 18L25 18L25 19L24 19L24 18L23 18L23 16L22 16L22 15L21 15L21 14L18 14L18 12L17 12L17 13L16 13L16 11L15 11L15 10L16 10L16 9L18 9L18 8L17 8L17 7L18 7L18 5L17 5L17 7L16 7L16 5L15 5L15 7L16 7L16 9L13 9L13 10L12 10L12 11L13 11L13 12L12 12L12 13L11 13L11 11L10 11L10 10L11 10L11 9L10 9L10 10L8 10L8 9L6 9L6 10L5 10L5 11L6 11L6 12L5 12L5 13L6 13L6 14L4 14L4 15L3 15L3 14L2 14L2 16L4 16L4 17L5 17L5 18L7 18L7 19L6 19L6 20L7 20L7 21L6 21L6 22L7 22L7 23L4 23L4 22L3 22L3 23L1 23L1 24L3 24L3 25L2 25L2 28L4 28L4 24L7 24L7 23L9 23L9 24L10 24L10 25L9 25L9 27L10 27L10 28L9 28L9 29L10 29L10 31L9 31L9 33L8 33L8 30L7 30L7 29L6 29L6 30L7 30L7 31L5 31L5 32L7 32L7 33L2 33L2 35L3 35L3 36L1 36L1 37L3 37L3 38L2 38L2 39L3 39L3 40L2 40L2 41L1 41L1 42L2 42L2 43L3 43L3 41L4 41L4 42L7 42L7 41L8 41L8 43L11 43L11 42L9 42L9 41L12 41L12 43L14 43L14 42L16 42L16 41L18 41L18 40L17 40L17 39L18 39L18 38L19 38L19 39L20 39L20 40L21 40L21 39L23 39L23 38L24 38L24 37L25 37L25 36L26 36L26 35L27 35L27 34L28 34L28 35L29 35L29 34L30 34L30 35L31 35L31 36L33 36L33 37L34 37L34 36L36 36L36 35L35 35L35 34L34 34L34 36L33 36L33 34L32 34L32 35L31 35L31 34L30 34L30 33L31 33L31 32L30 32L30 30L29 30L29 29L31 29L31 30L32 30L32 31L34 31L34 32L32 32L32 33L34 33L34 32L35 32L35 30L36 30L36 29L38 29L38 30L37 30L37 31L36 31L36 32L37 32L37 31L38 31L38 30L39 30L39 29L38 29L38 28L40 28L40 27L41 27L41 26L44 26L44 24L48 24L48 23L44 23L44 22L46 22L46 21L47 21L47 22L49 22L49 24L50 24L50 25L49 25L49 26L52 26L52 25L51 25L51 24L52 24L52 23L50 23L50 22L49 22L49 19L46 19L46 18L49 18L49 17L46 17L46 18L45 18L45 16L48 16L48 15L43 15L43 16L41 16L41 17L42 17L42 18L40 18L40 19L38 19L38 17L37 17L37 16L36 16L36 17L35 17L35 14L36 14L36 13L37 13L37 15L38 15L38 16L39 16L39 17L40 17L40 15L42 15L42 14L41 14L41 13L42 13L42 12L40 12L40 11L43 11L43 10L42 10L42 9L43 9L43 8L41 8L41 9L40 9L40 6L41 6L41 7L42 7L42 5L41 5L41 3L40 3L40 4L39 4L39 2L38 2L38 1L37 1L37 2L38 2L38 3L37 3L37 7L36 7L36 6L35 6L35 7L34 7L34 6L33 6L33 5L36 5L36 4L35 4L35 3L36 3L36 1L34 1L34 2L33 2L33 1ZM32 2L32 4L34 4L34 3L33 3L33 2ZM8 3L8 4L9 4L9 3ZM38 4L38 5L39 5L39 4ZM8 5L8 7L9 7L9 5ZM25 5L25 8L28 8L28 5ZM10 6L10 7L11 7L11 6ZM13 6L13 8L14 8L14 6ZM23 6L23 9L24 9L24 6ZM26 6L26 7L27 7L27 6ZM32 6L32 7L33 7L33 6ZM38 6L38 7L37 7L37 8L36 8L36 7L35 7L35 8L34 8L34 9L35 9L35 10L34 10L34 11L32 11L32 10L30 10L30 9L29 9L29 11L28 11L28 10L25 10L25 11L26 11L26 12L27 12L27 13L28 13L28 14L27 14L27 16L29 16L29 18L30 18L30 19L29 19L29 21L28 21L28 22L27 22L27 23L28 23L28 22L29 22L29 24L26 24L26 20L27 20L27 19L25 19L25 21L23 21L23 20L24 20L24 19L22 19L22 20L21 20L21 21L20 21L20 20L19 20L19 19L21 19L21 18L20 18L20 15L19 15L19 17L18 17L18 16L17 16L17 17L18 17L18 18L17 18L17 19L18 19L18 20L17 20L17 21L16 21L16 22L12 22L12 23L14 23L14 24L13 24L13 25L16 25L16 26L15 26L15 27L14 27L14 26L12 26L12 27L11 27L11 26L10 26L10 27L11 27L11 28L10 28L10 29L11 29L11 31L12 31L12 32L11 32L11 33L12 33L12 34L11 34L11 35L12 35L12 34L13 34L13 37L12 37L12 36L10 36L10 34L9 34L9 36L8 36L8 35L7 35L7 34L8 34L8 33L7 33L7 34L3 34L3 35L5 35L5 36L4 36L4 38L6 38L6 39L4 39L4 40L5 40L5 41L7 41L7 40L6 40L6 39L8 39L8 38L6 38L6 37L9 37L9 40L8 40L8 41L9 41L9 40L10 40L10 37L12 37L12 38L11 38L11 40L12 40L12 39L14 39L14 40L13 40L13 41L16 41L16 39L17 39L17 38L18 38L18 37L19 37L19 38L20 38L20 37L19 37L19 36L18 36L18 35L21 35L21 37L22 37L22 38L23 38L23 37L22 37L22 35L21 35L21 34L19 34L19 33L18 33L18 32L17 32L17 33L18 33L18 34L17 34L17 37L16 37L16 35L14 35L14 33L13 33L13 32L14 32L14 31L13 31L13 30L15 30L15 29L12 29L12 27L14 27L14 28L15 28L15 27L16 27L16 29L17 29L17 28L19 28L19 29L18 29L18 30L16 30L16 31L18 31L18 30L20 30L20 31L19 31L19 32L20 32L20 33L22 33L22 32L23 32L23 31L21 31L21 30L23 30L23 29L25 29L25 30L24 30L24 31L26 31L26 29L29 29L29 28L31 28L31 29L32 29L32 28L33 28L33 29L34 29L34 28L33 28L33 27L32 27L32 26L34 26L34 27L35 27L35 29L36 29L36 28L38 28L38 27L39 27L39 26L41 26L41 25L40 25L40 24L39 24L39 25L37 25L37 24L38 24L38 23L37 23L37 22L36 22L36 21L35 21L35 22L33 22L33 23L32 23L32 22L31 22L31 20L32 20L32 21L33 21L33 20L32 20L32 18L31 18L31 17L32 17L32 16L31 16L31 15L32 15L32 14L31 14L31 13L32 13L32 12L34 12L34 13L33 13L33 15L34 15L34 14L35 14L35 13L36 13L36 11L37 11L37 13L38 13L38 14L39 14L39 13L40 13L40 12L38 12L38 11L39 11L39 10L40 10L40 9L39 9L39 8L38 8L38 7L39 7L39 6ZM35 8L35 9L36 9L36 8ZM37 8L37 10L38 10L38 8ZM51 8L51 10L52 10L52 11L53 11L53 10L52 10L52 8ZM6 10L6 11L7 11L7 12L6 12L6 13L7 13L7 14L6 14L6 15L5 15L5 17L7 17L7 18L8 18L8 17L10 17L10 18L9 18L9 19L7 19L7 20L10 20L10 21L9 21L9 23L10 23L10 24L11 24L11 23L10 23L10 21L11 21L11 20L12 20L12 21L14 21L14 17L13 17L13 16L14 16L14 15L13 15L13 14L16 14L16 13L15 13L15 12L13 12L13 14L12 14L12 15L13 15L13 16L11 16L11 17L10 17L10 16L8 16L8 15L7 15L7 14L8 14L8 13L9 13L9 15L11 15L11 13L10 13L10 11L9 11L9 12L8 12L8 11L7 11L7 10ZM13 10L13 11L14 11L14 10ZM17 10L17 11L18 11L18 10ZM27 11L27 12L28 12L28 13L29 13L29 12L28 12L28 11ZM31 11L31 12L32 12L32 11ZM34 11L34 12L35 12L35 11ZM44 11L44 12L45 12L45 13L43 13L43 14L45 14L45 13L46 13L46 14L47 14L47 13L48 13L48 12L47 12L47 11L46 11L46 12L45 12L45 11ZM3 12L3 13L4 13L4 12ZM46 12L46 13L47 13L47 12ZM17 14L17 15L18 15L18 14ZM29 14L29 15L31 15L31 14ZM6 15L6 16L7 16L7 17L8 17L8 16L7 16L7 15ZM33 16L33 17L34 17L34 18L35 18L35 19L36 19L36 20L37 20L37 21L38 21L38 22L39 22L39 23L40 23L40 22L41 22L41 24L44 24L44 23L43 23L43 22L41 22L41 20L42 20L42 21L46 21L46 20L44 20L44 19L45 19L45 18L42 18L42 19L41 19L41 20L37 20L37 17L36 17L36 18L35 18L35 17L34 17L34 16ZM11 17L11 18L13 18L13 17ZM15 17L15 18L16 18L16 17ZM27 17L27 18L28 18L28 17ZM1 18L1 19L0 19L0 20L2 20L2 18ZM10 19L10 20L11 20L11 19ZM12 19L12 20L13 20L13 19ZM15 19L15 20L16 20L16 19ZM51 19L51 20L52 20L52 19ZM18 20L18 21L19 21L19 22L20 22L20 21L19 21L19 20ZM21 21L21 22L22 22L22 23L20 23L20 24L19 24L19 25L20 25L20 28L21 28L21 29L22 29L22 28L24 28L24 27L23 27L23 26L24 26L24 25L22 25L22 26L21 26L21 25L20 25L20 24L22 24L22 23L23 23L23 24L24 24L24 23L23 23L23 21ZM39 21L39 22L40 22L40 21ZM16 22L16 23L15 23L15 24L16 24L16 25L18 25L18 24L17 24L17 23L18 23L18 22ZM3 23L3 24L4 24L4 23ZM31 23L31 24L29 24L29 26L30 26L30 27L31 27L31 28L32 28L32 27L31 27L31 26L32 26L32 25L34 25L34 26L35 26L35 23L33 23L33 24L32 24L32 23ZM36 23L36 24L37 24L37 23ZM31 24L31 25L32 25L32 24ZM5 25L5 28L8 28L8 25ZM25 25L25 28L28 28L28 25ZM36 25L36 26L37 26L37 25ZM45 25L45 28L48 28L48 25ZM6 26L6 27L7 27L7 26ZM26 26L26 27L27 27L27 26ZM46 26L46 27L47 27L47 26ZM21 27L21 28L22 28L22 27ZM42 28L42 29L43 29L43 30L42 30L42 31L44 31L44 33L48 33L48 34L47 34L47 35L48 35L48 34L49 34L49 32L46 32L46 31L47 31L47 30L46 30L46 29L45 29L45 30L44 30L44 29L43 29L43 28ZM2 29L2 32L3 32L3 29ZM4 29L4 30L5 30L5 29ZM27 30L27 31L28 31L28 32L27 32L27 33L28 33L28 32L29 32L29 33L30 33L30 32L29 32L29 30ZM45 30L45 31L46 31L46 30ZM48 30L48 31L50 31L50 30ZM20 31L20 32L21 32L21 31ZM24 32L24 33L26 33L26 32ZM15 33L15 34L16 34L16 33ZM36 33L36 34L37 34L37 33ZM25 34L25 35L26 35L26 34ZM42 34L42 35L43 35L43 36L44 36L44 37L42 37L42 38L43 38L43 39L46 39L46 40L44 40L44 41L42 41L42 42L43 42L43 43L44 43L44 44L43 44L43 45L44 45L44 44L47 44L47 42L48 42L48 43L49 43L49 41L47 41L47 39L49 39L49 37L50 37L50 38L51 38L51 37L50 37L50 36L49 36L49 37L48 37L48 36L44 36L44 34ZM6 35L6 36L5 36L5 37L6 37L6 36L7 36L7 35ZM14 36L14 37L15 37L15 36ZM44 37L44 38L45 38L45 37ZM15 38L15 39L16 39L16 38ZM32 38L32 39L33 39L33 40L31 40L31 41L30 41L30 42L32 42L32 41L34 41L34 40L35 40L35 41L37 41L37 40L36 40L36 39L35 39L35 38ZM37 38L37 39L38 39L38 38ZM46 38L46 39L47 39L47 38ZM44 41L44 42L45 42L45 43L46 43L46 42L45 42L45 41ZM51 41L51 42L52 42L52 41ZM15 43L15 44L14 44L14 45L10 45L10 44L9 44L9 45L10 45L10 46L9 46L9 47L10 47L10 48L9 48L9 50L10 50L10 48L11 48L11 49L12 49L12 50L11 50L11 51L12 51L12 50L13 50L13 49L14 49L14 48L13 48L13 46L15 46L15 45L16 45L16 43ZM18 43L18 44L19 44L19 43ZM20 43L20 44L21 44L21 43ZM25 45L25 48L28 48L28 45ZM35 45L35 46L36 46L36 45ZM45 45L45 48L48 48L48 45ZM10 46L10 47L11 47L11 48L12 48L12 46ZM26 46L26 47L27 47L27 46ZM29 46L29 47L30 47L30 46ZM40 46L40 48L39 48L39 49L42 49L42 51L45 51L45 50L46 50L46 52L47 52L47 50L48 50L48 49L44 49L44 48L42 48L42 46ZM43 46L43 47L44 47L44 46ZM46 46L46 47L47 47L47 46ZM29 48L29 49L28 49L28 50L26 50L26 52L29 52L29 51L30 51L30 50L29 50L29 49L30 49L30 48ZM36 48L36 49L35 49L35 50L36 50L36 49L37 49L37 51L38 51L38 52L39 52L39 51L41 51L41 50L38 50L38 49L37 49L37 48ZM19 49L19 50L20 50L20 49ZM24 49L24 50L25 50L25 49ZM43 49L43 50L44 50L44 49ZM51 50L51 51L52 51L52 52L53 52L53 51L52 51L52 50ZM9 51L9 52L10 52L10 51ZM15 51L15 52L16 52L16 51ZM23 51L23 52L25 52L25 51ZM13 52L13 53L14 53L14 52ZM0 0L0 7L7 7L7 0ZM1 1L1 6L6 6L6 1ZM2 2L2 5L5 5L5 2ZM46 0L46 7L53 7L53 0ZM47 1L47 6L52 6L52 1ZM48 2L48 5L51 5L51 2ZM0 46L0 53L7 53L7 46ZM1 47L1 52L6 52L6 47ZM2 48L2 51L5 51L5 48Z" fill="#000000"/></g></g></svg>
