<?xml version="1.0" encoding="UTF-8"?>
<svg xmlns="http://www.w3.org/2000/svg" version="1.1" width="100" height="100" viewBox="0 0 100 100"><rect x="0" y="0" width="100" height="100" fill="#ffffff"/><g transform="scale(1.754)"><g transform="translate(0,0)"><path fill-rule="evenodd" d="M8 0L8 4L10 4L10 5L8 5L8 7L9 7L9 9L8 9L8 10L5 10L5 9L7 9L7 8L4 8L4 9L2 9L2 8L0 8L0 12L1 12L1 11L3 11L3 12L4 12L4 13L3 13L3 14L0 14L0 15L1 15L1 17L0 17L0 20L1 20L1 21L0 21L0 23L1 23L1 24L0 24L0 28L1 28L1 26L4 26L4 29L3 29L3 30L4 30L4 31L0 31L0 32L2 32L2 33L3 33L3 32L6 32L6 33L7 33L7 34L3 34L3 35L2 35L2 34L1 34L1 35L0 35L0 36L3 36L3 37L1 37L1 38L2 38L2 40L1 40L1 42L0 42L0 44L1 44L1 46L0 46L0 48L5 48L5 47L7 47L7 48L6 48L6 49L7 49L7 48L8 48L8 50L9 50L9 47L12 47L12 48L10 48L10 49L11 49L11 50L12 50L12 52L11 52L11 53L9 53L9 52L10 52L10 51L8 51L8 53L9 53L9 54L12 54L12 52L14 52L14 51L15 51L15 52L17 52L17 53L15 53L15 55L16 55L16 54L18 54L18 53L19 53L19 55L20 55L20 54L21 54L21 52L20 52L20 51L23 51L23 50L20 50L20 49L23 49L23 48L22 48L22 47L24 47L24 46L25 46L25 47L26 47L26 49L24 49L24 50L26 50L26 51L25 51L25 52L24 52L24 53L23 53L23 54L22 54L22 55L21 55L21 56L18 56L18 55L17 55L17 56L18 56L18 57L21 57L21 56L22 56L22 57L23 57L23 55L24 55L24 56L25 56L25 57L28 57L28 54L27 54L27 56L26 56L26 53L29 53L29 54L30 54L30 55L31 55L31 57L32 57L32 54L31 54L31 52L32 52L32 53L33 53L33 54L34 54L34 56L33 56L33 57L36 57L36 56L35 56L35 53L33 53L33 52L32 52L32 50L34 50L34 52L35 52L35 49L36 49L36 50L37 50L37 49L38 49L38 50L39 50L39 51L41 51L41 49L39 49L39 48L38 48L38 47L40 47L40 48L41 48L41 47L43 47L43 48L42 48L42 50L43 50L43 52L41 52L41 53L39 53L39 54L38 54L38 51L36 51L36 53L37 53L37 54L38 54L38 55L37 55L37 57L41 57L41 56L40 56L40 55L41 55L41 53L42 53L42 54L44 54L44 53L43 53L43 52L45 52L45 53L47 53L47 48L48 48L48 55L47 55L47 54L45 54L45 55L44 55L44 57L46 57L46 56L47 56L47 57L52 57L52 55L51 55L51 56L50 56L50 55L49 55L49 53L50 53L50 54L53 54L53 55L54 55L54 54L55 54L55 53L56 53L56 54L57 54L57 51L56 51L56 50L57 50L57 44L56 44L56 45L55 45L55 43L57 43L57 42L55 42L55 41L56 41L56 40L57 40L57 39L56 39L56 38L57 38L57 36L56 36L56 37L55 37L55 35L57 35L57 32L56 32L56 34L55 34L55 33L52 33L52 32L54 32L54 31L57 31L57 30L56 30L56 29L57 29L57 28L56 28L56 29L54 29L54 28L55 28L55 27L56 27L56 26L57 26L57 24L55 24L55 22L57 22L57 18L56 18L56 21L55 21L55 17L54 17L54 15L55 15L55 16L56 16L56 17L57 17L57 12L56 12L56 15L55 15L55 11L56 11L56 9L57 9L57 8L53 8L53 9L52 9L52 8L51 8L51 9L50 9L50 10L49 10L49 11L51 11L51 10L52 10L52 12L51 12L51 13L48 13L48 12L47 12L47 11L48 11L48 8L47 8L47 5L48 5L48 0L46 0L46 1L47 1L47 2L46 2L46 3L47 3L47 5L46 5L46 4L45 4L45 3L44 3L44 2L45 2L45 1L43 1L43 0L42 0L42 2L43 2L43 3L42 3L42 4L43 4L43 5L41 5L41 2L40 2L40 1L39 1L39 0L37 0L37 1L35 1L35 0L34 0L34 1L33 1L33 0L31 0L31 1L30 1L30 0L29 0L29 2L31 2L31 3L32 3L32 4L28 4L28 1L27 1L27 0L26 0L26 2L25 2L25 4L24 4L24 5L23 5L23 4L22 4L22 5L21 5L21 6L20 6L20 5L19 5L19 4L18 4L18 3L20 3L20 1L21 1L21 3L23 3L23 2L24 2L24 1L25 1L25 0L24 0L24 1L23 1L23 2L22 2L22 1L21 1L21 0L20 0L20 1L19 1L19 0L18 0L18 3L17 3L17 2L16 2L16 4L17 4L17 6L16 6L16 5L15 5L15 1L17 1L17 0L14 0L14 1L13 1L13 0L12 0L12 1L9 1L9 0ZM12 1L12 3L10 3L10 2L9 2L9 3L10 3L10 4L11 4L11 7L10 7L10 6L9 6L9 7L10 7L10 9L9 9L9 10L8 10L8 13L10 13L10 12L11 12L11 11L10 11L10 12L9 12L9 10L12 10L12 12L13 12L13 13L15 13L15 14L14 14L14 15L15 15L15 16L14 16L14 17L16 17L16 18L17 18L17 19L18 19L18 22L16 22L16 23L14 23L14 21L13 21L13 19L14 19L14 20L15 20L15 21L17 21L17 20L16 20L16 19L15 19L15 18L13 18L13 17L12 17L12 15L13 15L13 14L12 14L12 13L11 13L11 14L9 14L9 15L8 15L8 14L7 14L7 13L6 13L6 12L7 12L7 11L6 11L6 12L5 12L5 11L4 11L4 12L5 12L5 13L4 13L4 14L7 14L7 15L5 15L5 16L4 16L4 17L1 17L1 18L2 18L2 19L1 19L1 20L2 20L2 22L4 22L4 23L2 23L2 24L3 24L3 25L5 25L5 24L9 24L9 23L5 23L5 22L7 22L7 21L8 21L8 22L10 22L10 23L11 23L11 21L13 21L13 24L15 24L15 25L14 25L14 26L13 26L13 25L12 25L12 24L11 24L11 25L12 25L12 26L10 26L10 28L11 28L11 27L14 27L14 26L15 26L15 25L16 25L16 24L17 24L17 23L19 23L19 25L17 25L17 27L18 27L18 26L19 26L19 27L20 27L20 30L21 30L21 31L20 31L20 32L19 32L19 33L21 33L21 35L20 35L20 34L18 34L18 33L17 33L17 32L18 32L18 31L19 31L19 30L18 30L18 29L19 29L19 28L18 28L18 29L17 29L17 32L16 32L16 31L15 31L15 30L14 30L14 29L16 29L16 27L15 27L15 28L13 28L13 29L11 29L11 30L14 30L14 31L13 31L13 32L12 32L12 34L14 34L14 33L15 33L15 32L16 32L16 33L17 33L17 35L18 35L18 36L16 36L16 35L15 35L15 36L13 36L13 35L11 35L11 33L10 33L10 32L9 32L9 33L8 33L8 35L10 35L10 37L12 37L12 38L9 38L9 37L6 37L6 36L7 36L7 35L6 35L6 36L5 36L5 35L4 35L4 36L5 36L5 39L3 39L3 40L2 40L2 42L1 42L1 43L2 43L2 45L3 45L3 47L5 47L5 46L7 46L7 45L8 45L8 46L10 46L10 45L11 45L11 46L12 46L12 45L11 45L11 44L10 44L10 43L8 43L8 42L7 42L7 41L9 41L9 42L10 42L10 41L12 41L12 42L11 42L11 43L12 43L12 42L13 42L13 41L12 41L12 40L14 40L14 39L16 39L16 38L17 38L17 39L18 39L18 40L19 40L19 41L17 41L17 40L15 40L15 41L14 41L14 42L15 42L15 43L13 43L13 44L14 44L14 45L13 45L13 46L14 46L14 47L15 47L15 48L16 48L16 47L20 47L20 48L19 48L19 49L20 49L20 48L21 48L21 47L22 47L22 46L24 46L24 45L25 45L25 44L26 44L26 45L28 45L28 46L26 46L26 47L27 47L27 48L28 48L28 47L31 47L31 49L32 49L32 48L33 48L33 49L35 49L35 48L37 48L37 47L38 47L38 46L39 46L39 45L42 45L42 46L43 46L43 45L45 45L45 46L44 46L44 48L43 48L43 49L45 49L45 50L44 50L44 51L46 51L46 49L45 49L45 48L46 48L46 47L47 47L47 45L45 45L45 44L46 44L46 43L47 43L47 42L48 42L48 45L49 45L49 47L53 47L53 48L54 48L54 47L56 47L56 46L54 46L54 47L53 47L53 45L54 45L54 44L53 44L53 45L51 45L51 46L50 46L50 44L52 44L52 43L51 43L51 41L52 41L52 42L53 42L53 41L55 41L55 40L56 40L56 39L55 39L55 38L52 38L52 37L53 37L53 36L52 36L52 35L54 35L54 34L52 34L52 35L51 35L51 33L50 33L50 31L49 31L49 32L48 32L48 31L47 31L47 33L48 33L48 35L47 35L47 36L46 36L46 35L45 35L45 34L46 34L46 33L45 33L45 34L44 34L44 35L43 35L43 34L42 34L42 35L40 35L40 34L41 34L41 33L42 33L42 32L43 32L43 33L44 33L44 32L45 32L45 31L46 31L46 27L47 27L47 28L48 28L48 26L51 26L51 25L48 25L48 24L49 24L49 23L48 23L48 21L47 21L47 20L50 20L50 21L49 21L49 22L51 22L51 23L50 23L50 24L52 24L52 25L53 25L53 26L54 26L54 24L53 24L53 23L54 23L54 20L53 20L53 21L52 21L52 18L53 18L53 19L54 19L54 17L51 17L51 18L50 18L50 16L51 16L51 15L52 15L52 16L53 16L53 15L54 15L54 14L53 14L53 15L52 15L52 13L53 13L53 12L52 12L52 13L51 13L51 14L49 14L49 15L48 15L48 13L46 13L46 11L47 11L47 8L46 8L46 6L45 6L45 7L44 7L44 5L45 5L45 4L44 4L44 5L43 5L43 7L42 7L42 6L41 6L41 5L40 5L40 2L38 2L38 1L37 1L37 2L35 2L35 3L37 3L37 2L38 2L38 4L39 4L39 5L40 5L40 6L39 6L39 7L38 7L38 5L37 5L37 4L34 4L34 5L33 5L33 4L32 4L32 5L31 5L31 8L32 8L32 5L33 5L33 9L32 9L32 11L31 11L31 10L30 10L30 11L29 11L29 13L30 13L30 14L31 14L31 15L29 15L29 19L28 19L28 17L27 17L27 18L26 18L26 16L28 16L28 13L27 13L27 14L26 14L26 13L25 13L25 11L26 11L26 8L25 8L25 7L26 7L26 6L25 6L25 7L24 7L24 6L23 6L23 5L22 5L22 6L21 6L21 8L20 8L20 9L19 9L19 7L20 7L20 6L19 6L19 7L18 7L18 6L17 6L17 8L15 8L15 7L16 7L16 6L15 6L15 7L14 7L14 5L13 5L13 4L14 4L14 3L13 3L13 1ZM31 1L31 2L32 2L32 3L34 3L34 2L32 2L32 1ZM26 2L26 3L27 3L27 2ZM27 5L27 8L30 8L30 5ZM35 5L35 6L34 6L34 9L33 9L33 11L34 11L34 12L33 12L33 13L37 13L37 12L38 12L38 11L35 11L35 9L36 9L36 10L40 10L40 11L39 11L39 12L40 12L40 15L39 15L39 13L38 13L38 15L36 15L36 17L35 17L35 15L34 15L34 17L33 17L33 15L32 15L32 17L33 17L33 19L34 19L34 20L35 20L35 21L34 21L34 24L35 24L35 23L36 23L36 22L35 22L35 21L36 21L36 20L37 20L37 19L38 19L38 17L37 17L37 16L38 16L38 15L39 15L39 16L40 16L40 19L39 19L39 21L37 21L37 24L38 24L38 26L37 26L37 25L36 25L36 26L37 26L37 27L36 27L36 29L35 29L35 27L32 27L32 28L31 28L31 25L32 25L32 24L29 24L29 23L30 23L30 22L31 22L31 23L32 23L32 21L31 21L31 20L29 20L29 22L28 22L28 19L27 19L27 21L26 21L26 19L25 19L25 18L24 18L24 16L23 16L23 18L22 18L22 16L21 16L21 18L20 18L20 19L21 19L21 18L22 18L22 20L20 20L20 21L19 21L19 23L20 23L20 22L21 22L21 21L22 21L22 20L24 20L24 21L23 21L23 22L22 22L22 23L21 23L21 24L22 24L22 25L23 25L23 26L20 26L20 25L19 25L19 26L20 26L20 27L22 27L22 28L23 28L23 29L24 29L24 30L22 30L22 29L21 29L21 30L22 30L22 31L21 31L21 32L22 32L22 31L24 31L24 30L25 30L25 31L26 31L26 32L27 32L27 31L28 31L28 32L29 32L29 33L31 33L31 32L32 32L32 34L30 34L30 35L28 35L28 36L27 36L27 35L26 35L26 36L22 36L22 35L24 35L24 33L25 33L25 32L23 32L23 33L22 33L22 35L21 35L21 36L20 36L20 35L19 35L19 37L18 37L18 38L19 38L19 37L21 37L21 38L20 38L20 39L19 39L19 40L20 40L20 42L19 42L19 44L18 44L18 45L17 45L17 43L18 43L18 42L17 42L17 41L16 41L16 42L17 42L17 43L16 43L16 44L15 44L15 45L14 45L14 46L16 46L16 45L17 45L17 46L19 46L19 44L20 44L20 45L24 45L24 43L25 43L25 42L28 42L28 45L29 45L29 46L31 46L31 47L32 47L32 46L33 46L33 47L34 47L34 48L35 48L35 46L33 46L33 45L35 45L35 42L36 42L36 41L38 41L38 39L39 39L39 42L40 42L40 43L39 43L39 44L40 44L40 43L44 43L44 44L45 44L45 43L46 43L46 42L45 42L45 40L44 40L44 37L45 37L45 38L46 38L46 40L47 40L47 41L49 41L49 43L50 43L50 41L51 41L51 40L53 40L53 39L51 39L51 40L50 40L50 38L51 38L51 37L52 37L52 36L51 36L51 35L50 35L50 33L49 33L49 35L48 35L48 37L49 37L49 35L50 35L50 38L47 38L47 37L45 37L45 36L44 36L44 37L43 37L43 38L41 38L41 36L38 36L38 35L39 35L39 34L38 34L38 35L37 35L37 36L36 36L36 37L35 37L35 35L36 35L36 33L41 33L41 30L40 30L40 32L38 32L38 31L39 31L39 29L41 29L41 28L40 28L40 27L41 27L41 25L39 25L39 24L38 24L38 22L39 22L39 21L40 21L40 24L41 24L41 23L44 23L44 21L43 21L43 20L45 20L45 23L46 23L46 24L44 24L44 25L43 25L43 27L44 27L44 25L46 25L46 26L45 26L45 27L46 27L46 26L47 26L47 25L46 25L46 24L48 24L48 23L47 23L47 22L46 22L46 20L47 20L47 19L48 19L48 18L47 18L47 19L46 19L46 20L45 20L45 19L44 19L44 18L45 18L45 17L44 17L44 14L45 14L45 12L44 12L44 10L45 10L45 11L46 11L46 9L44 9L44 7L43 7L43 8L41 8L41 10L40 10L40 9L39 9L39 8L40 8L40 7L41 7L41 6L40 6L40 7L39 7L39 8L38 8L38 7L37 7L37 5ZM12 6L12 7L11 7L11 8L12 8L12 10L13 10L13 11L14 11L14 12L15 12L15 13L16 13L16 14L19 14L19 12L20 12L20 11L19 11L19 12L18 12L18 13L16 13L16 12L17 12L17 11L18 11L18 10L16 10L16 9L14 9L14 10L13 10L13 6ZM22 6L22 8L24 8L24 11L23 11L23 12L22 12L22 11L21 11L21 13L23 13L23 14L22 14L22 15L23 15L23 14L24 14L24 15L25 15L25 13L24 13L24 11L25 11L25 8L24 8L24 7L23 7L23 6ZM28 6L28 7L29 7L29 6ZM35 6L35 8L37 8L37 9L38 9L38 8L37 8L37 7L36 7L36 6ZM48 6L48 7L49 7L49 6ZM20 9L20 10L23 10L23 9ZM27 9L27 12L28 12L28 9ZM54 9L54 10L53 10L53 11L54 11L54 10L55 10L55 9ZM15 10L15 12L16 12L16 10ZM42 10L42 11L40 11L40 12L41 12L41 15L40 15L40 16L41 16L41 17L43 17L43 14L42 14L42 13L43 13L43 10ZM31 12L31 13L32 13L32 12ZM11 14L11 15L9 15L9 16L11 16L11 15L12 15L12 14ZM20 14L20 15L16 15L16 16L18 16L18 17L17 17L17 18L19 18L19 16L20 16L20 15L21 15L21 14ZM2 15L2 16L3 16L3 15ZM7 15L7 16L5 16L5 17L7 17L7 18L6 18L6 19L8 19L8 17L7 17L7 16L8 16L8 15ZM46 15L46 16L47 16L47 17L49 17L49 16L50 16L50 15L49 15L49 16L47 16L47 15ZM30 17L30 19L32 19L32 18L31 18L31 17ZM3 18L3 19L2 19L2 20L5 20L5 19L4 19L4 18ZM9 18L9 19L10 19L10 21L11 21L11 20L12 20L12 19L13 19L13 18L12 18L12 19L10 19L10 18ZM35 18L35 19L37 19L37 18ZM24 19L24 20L25 20L25 19ZM41 19L41 20L40 20L40 21L42 21L42 22L43 22L43 21L42 21L42 20L43 20L43 19ZM6 20L6 21L7 21L7 20ZM8 20L8 21L9 21L9 20ZM24 21L24 22L25 22L25 21ZM27 22L27 24L28 24L28 22ZM52 22L52 23L53 23L53 22ZM4 23L4 24L5 24L5 23ZM23 23L23 24L24 24L24 25L26 25L26 24L24 24L24 23ZM6 25L6 26L7 26L7 25ZM27 25L27 26L29 26L29 25ZM33 25L33 26L35 26L35 25ZM23 26L23 28L25 28L25 30L26 30L26 27L24 27L24 26ZM38 26L38 28L37 28L37 29L36 29L36 32L37 32L37 29L39 29L39 26ZM2 27L2 28L3 28L3 27ZM5 27L5 30L8 30L8 27ZM27 27L27 30L30 30L30 27ZM49 27L49 30L52 30L52 27ZM53 27L53 28L54 28L54 27ZM6 28L6 29L7 29L7 28ZM28 28L28 29L29 29L29 28ZM33 28L33 29L34 29L34 28ZM44 28L44 30L43 30L43 31L44 31L44 30L45 30L45 28ZM50 28L50 29L51 29L51 28ZM0 29L0 30L2 30L2 29ZM9 29L9 31L10 31L10 29ZM47 29L47 30L48 30L48 29ZM53 29L53 31L54 31L54 29ZM32 30L32 32L33 32L33 31L35 31L35 30ZM6 31L6 32L8 32L8 31ZM51 31L51 32L52 32L52 31ZM27 33L27 34L28 34L28 33ZM33 33L33 34L32 34L32 35L30 35L30 36L32 36L32 35L33 35L33 36L34 36L34 35L33 35L33 34L34 34L34 33ZM15 36L15 37L16 37L16 36ZM26 36L26 37L25 37L25 38L24 38L24 37L23 37L23 39L22 39L22 38L21 38L21 42L20 42L20 44L21 44L21 43L22 43L22 44L23 44L23 43L24 43L24 41L25 41L25 40L26 40L26 39L25 39L25 38L26 38L26 37L27 37L27 38L28 38L28 39L27 39L27 41L28 41L28 42L29 42L29 44L30 44L30 43L31 43L31 46L32 46L32 44L34 44L34 42L35 42L35 41L36 41L36 39L38 39L38 38L40 38L40 37L36 37L36 39L35 39L35 37L34 37L34 38L33 38L33 37L32 37L32 40L31 40L31 41L29 41L29 40L30 40L30 38L29 38L29 37L27 37L27 36ZM6 38L6 39L7 39L7 40L5 40L5 41L7 41L7 40L9 40L9 39L7 39L7 38ZM13 38L13 39L14 39L14 38ZM10 39L10 40L12 40L12 39ZM23 39L23 40L22 40L22 41L24 41L24 39ZM28 39L28 40L29 40L29 39ZM34 39L34 40L32 40L32 41L34 41L34 40L35 40L35 39ZM41 39L41 40L40 40L40 42L42 42L42 40L43 40L43 42L44 42L44 43L45 43L45 42L44 42L44 40L43 40L43 39ZM48 39L48 40L49 40L49 41L50 41L50 40L49 40L49 39ZM3 40L3 41L4 41L4 40ZM2 42L2 43L3 43L3 42ZM6 42L6 43L7 43L7 44L6 44L6 45L7 45L7 44L8 44L8 43L7 43L7 42ZM36 43L36 45L38 45L38 44L37 44L37 43ZM3 44L3 45L5 45L5 44ZM1 46L1 47L2 47L2 46ZM12 48L12 49L13 49L13 48ZM17 48L17 49L18 49L18 48ZM55 48L55 50L54 50L54 51L53 51L53 52L54 52L54 51L55 51L55 50L56 50L56 48ZM14 49L14 50L15 50L15 49ZM27 49L27 52L30 52L30 49ZM49 49L49 52L52 52L52 49ZM16 50L16 51L17 51L17 52L18 52L18 51L20 51L20 50ZM28 50L28 51L29 51L29 50ZM50 50L50 51L51 51L51 50ZM19 52L19 53L20 53L20 52ZM25 52L25 53L24 53L24 54L25 54L25 53L26 53L26 52ZM39 54L39 55L38 55L38 56L39 56L39 55L40 55L40 54ZM8 55L8 57L11 57L11 56L12 56L12 57L13 57L13 56L14 56L14 57L16 57L16 56L14 56L14 55L13 55L13 56L12 56L12 55L11 55L11 56L10 56L10 55ZM45 55L45 56L46 56L46 55ZM55 55L55 56L53 56L53 57L55 57L55 56L56 56L56 57L57 57L57 55ZM42 56L42 57L43 57L43 56ZM0 0L0 7L7 7L7 0ZM1 1L1 6L6 6L6 1ZM2 2L2 5L5 5L5 2ZM50 0L50 7L57 7L57 0ZM51 1L51 6L56 6L56 1ZM52 2L52 5L55 5L55 2ZM0 50L0 57L7 57L7 50ZM1 51L1 56L6 56L6 51ZM2 52L2 55L5 55L5 52Z" fill="#000000"/></g></g></svg>
