<?xml version="1.0" encoding="UTF-8"?>
<svg xmlns="http://www.w3.org/2000/svg" version="1.1" width="100" height="100" viewBox="0 0 100 100"><rect x="0" y="0" width="100" height="100" fill="#ffffff"/><g transform="scale(1.887)"><g transform="translate(0,0)"><path fill-rule="evenodd" d="M8 0L8 1L10 1L10 2L11 2L11 1L12 1L12 0L11 0L11 1L10 1L10 0ZM13 0L13 2L12 2L12 3L11 3L11 4L12 4L12 3L13 3L13 2L14 2L14 4L13 4L13 5L14 5L14 7L15 7L15 6L16 6L16 7L17 7L17 6L18 6L18 7L19 7L19 10L20 10L20 8L21 8L21 11L22 11L22 12L19 12L19 11L17 11L17 9L18 9L18 8L16 8L16 11L15 11L15 10L13 10L13 8L12 8L12 11L11 11L11 12L8 12L8 11L7 11L7 10L9 10L9 9L11 9L11 8L10 8L10 7L11 7L11 6L12 6L12 7L13 7L13 6L12 6L12 5L11 5L11 6L10 6L10 7L9 7L9 6L8 6L8 7L9 7L9 8L8 8L8 9L7 9L7 8L6 8L6 9L7 9L7 10L5 10L5 11L4 11L4 12L3 12L3 11L1 11L1 12L2 12L2 14L1 14L1 13L0 13L0 15L1 15L1 16L0 16L0 17L2 17L2 18L1 18L1 19L0 19L0 23L1 23L1 21L4 21L4 22L5 22L5 21L7 21L7 22L6 22L6 23L2 23L2 24L4 24L4 26L3 26L3 27L2 27L2 26L1 26L1 24L0 24L0 26L1 26L1 28L2 28L2 30L1 30L1 29L0 29L0 31L2 31L2 33L1 33L1 34L0 34L0 35L1 35L1 36L0 36L0 38L1 38L1 37L2 37L2 38L4 38L4 39L3 39L3 41L4 41L4 42L3 42L3 43L2 43L2 42L0 42L0 43L1 43L1 44L3 44L3 45L4 45L4 44L3 44L3 43L7 43L7 42L9 42L9 41L11 41L11 39L12 39L12 40L13 40L13 42L12 42L12 43L11 43L11 42L10 42L10 43L8 43L8 44L6 44L6 45L8 45L8 46L9 46L9 45L13 45L13 43L15 43L15 45L14 45L14 46L13 46L13 47L12 47L12 46L11 46L11 47L12 47L12 48L13 48L13 50L10 50L10 49L11 49L11 48L10 48L10 47L9 47L9 49L8 49L8 53L11 53L11 52L12 52L12 53L13 53L13 51L14 51L14 49L16 49L16 48L17 48L17 49L18 49L18 48L19 48L19 51L18 51L18 50L16 50L16 51L15 51L15 52L14 52L14 53L17 53L17 52L16 52L16 51L18 51L18 53L20 53L20 49L21 49L21 48L19 48L19 47L18 47L18 44L21 44L21 43L20 43L20 41L21 41L21 42L23 42L23 44L22 44L22 45L23 45L23 44L24 44L24 47L23 47L23 48L22 48L22 49L23 49L23 50L21 50L21 51L22 51L22 52L21 52L21 53L22 53L22 52L23 52L23 51L24 51L24 49L26 49L26 50L25 50L25 53L26 53L26 51L27 51L27 53L28 53L28 52L29 52L29 53L30 53L30 52L31 52L31 53L34 53L34 52L32 52L32 51L29 51L29 50L27 50L27 49L29 49L29 48L30 48L30 49L32 49L32 50L33 50L33 51L36 51L36 47L33 47L33 46L31 46L31 48L30 48L30 47L29 47L29 44L27 44L27 43L26 43L26 42L25 42L25 41L27 41L27 42L31 42L31 44L33 44L33 45L34 45L34 44L33 44L33 43L32 43L32 41L30 41L30 40L32 40L32 37L35 37L35 39L36 39L36 40L33 40L33 41L35 41L35 46L37 46L37 45L38 45L38 46L39 46L39 47L40 47L40 48L41 48L41 47L40 47L40 46L39 46L39 45L38 45L38 44L39 44L39 42L38 42L38 41L39 41L39 40L38 40L38 39L36 39L36 38L37 38L37 37L38 37L38 38L39 38L39 39L41 39L41 40L43 40L43 41L41 41L41 42L42 42L42 43L43 43L43 45L41 45L41 44L40 44L40 45L41 45L41 46L44 46L44 49L42 49L42 50L41 50L41 49L40 49L40 50L38 50L38 49L37 49L37 50L38 50L38 51L37 51L37 52L38 52L38 53L40 53L40 52L38 52L38 51L42 51L42 53L43 53L43 52L44 52L44 53L47 53L47 52L49 52L49 53L52 53L52 52L53 52L53 50L52 50L52 49L49 49L49 48L50 48L50 45L51 45L51 47L52 47L52 46L53 46L53 45L51 45L51 44L48 44L48 42L47 42L47 41L48 41L48 40L49 40L49 38L50 38L50 39L51 39L51 40L50 40L50 41L52 41L52 42L53 42L53 41L52 41L52 39L53 39L53 38L51 38L51 37L50 37L50 36L52 36L52 37L53 37L53 34L52 34L52 35L51 35L51 34L50 34L50 33L49 33L49 32L50 32L50 31L53 31L53 29L52 29L52 27L53 27L53 25L52 25L52 23L51 23L51 25L50 25L50 23L49 23L49 24L47 24L47 23L46 23L46 22L48 22L48 21L49 21L49 22L50 22L50 21L51 21L51 20L52 20L52 21L53 21L53 18L50 18L50 19L51 19L51 20L50 20L50 21L49 21L49 17L48 17L48 18L47 18L47 16L46 16L46 19L45 19L45 18L44 18L44 17L45 17L45 16L44 16L44 15L48 15L48 16L49 16L49 15L48 15L48 13L49 13L49 14L50 14L50 17L52 17L52 14L53 14L53 13L49 13L49 12L48 12L48 11L47 11L47 9L46 9L46 8L45 8L45 6L44 6L44 7L43 7L43 3L44 3L44 4L45 4L45 3L44 3L44 1L43 1L43 0L42 0L42 1L41 1L41 3L40 3L40 4L41 4L41 5L39 5L39 4L37 4L37 2L36 2L36 0L30 0L30 1L32 1L32 2L33 2L33 3L32 3L32 4L31 4L31 3L30 3L30 2L29 2L29 1L28 1L28 0L27 0L27 2L29 2L29 3L30 3L30 7L31 7L31 9L32 9L32 8L33 8L33 9L34 9L34 7L35 7L35 6L36 6L36 8L39 8L39 9L38 9L38 10L37 10L37 9L35 9L35 10L31 10L31 11L33 11L33 12L35 12L35 13L34 13L34 14L33 14L33 13L32 13L32 12L30 12L30 11L28 11L28 10L27 10L27 11L26 11L26 10L25 10L25 9L29 9L29 10L30 10L30 9L29 9L29 4L25 4L25 3L24 3L24 2L23 2L23 3L21 3L21 4L18 4L18 3L19 3L19 2L18 2L18 3L17 3L17 2L16 2L16 0L15 0L15 1L14 1L14 0ZM17 0L17 1L18 1L18 0ZM19 0L19 1L20 1L20 2L22 2L22 1L20 1L20 0ZM23 0L23 1L26 1L26 0ZM37 0L37 1L38 1L38 2L40 2L40 1L38 1L38 0ZM33 1L33 2L35 2L35 3L36 3L36 2L35 2L35 1ZM8 2L8 5L10 5L10 3L9 3L9 2ZM15 2L15 3L16 3L16 4L15 4L15 5L16 5L16 6L17 6L17 5L18 5L18 6L19 6L19 7L20 7L20 6L21 6L21 8L22 8L22 11L23 11L23 12L22 12L22 14L23 14L23 15L22 15L22 16L23 16L23 17L24 17L24 18L21 18L21 19L24 19L24 21L26 21L26 22L27 22L27 23L24 23L24 22L23 22L23 20L21 20L21 22L20 22L20 21L17 21L17 18L19 18L19 17L20 17L20 16L21 16L21 13L20 13L20 16L19 16L19 14L18 14L18 13L16 13L16 12L17 12L17 11L16 11L16 12L15 12L15 11L14 11L14 12L15 12L15 14L14 14L14 16L13 16L13 14L12 14L12 13L10 13L10 14L11 14L11 15L10 15L10 16L9 16L9 18L10 18L10 17L12 17L12 18L11 18L11 19L13 19L13 20L11 20L11 21L10 21L10 22L11 22L11 23L12 23L12 22L11 22L11 21L13 21L13 22L14 22L14 23L18 23L18 24L16 24L16 25L17 25L17 26L14 26L14 25L13 25L13 26L11 26L11 25L12 25L12 24L10 24L10 23L9 23L9 19L8 19L8 18L7 18L7 17L6 17L6 16L7 16L7 15L9 15L9 13L8 13L8 12L7 12L7 11L5 11L5 13L6 13L6 14L7 14L7 15L6 15L6 16L4 16L4 17L5 17L5 18L2 18L2 19L1 19L1 20L2 20L2 19L3 19L3 20L4 20L4 21L5 21L5 20L4 20L4 19L5 19L5 18L7 18L7 19L6 19L6 20L7 20L7 19L8 19L8 23L6 23L6 24L8 24L8 23L9 23L9 27L10 27L10 28L9 28L9 31L8 31L8 32L9 32L9 31L10 31L10 33L8 33L8 34L7 34L7 33L6 33L6 32L7 32L7 31L6 31L6 32L5 32L5 33L4 33L4 31L5 31L5 30L3 30L3 33L2 33L2 34L1 34L1 35L2 35L2 34L3 34L3 33L4 33L4 34L5 34L5 35L4 35L4 36L3 36L3 37L4 37L4 36L5 36L5 38L7 38L7 39L6 39L6 40L4 40L4 41L6 41L6 42L7 42L7 41L6 41L6 40L8 40L8 38L12 38L12 39L13 39L13 40L14 40L14 42L15 42L15 41L16 41L16 42L17 42L17 41L18 41L18 42L19 42L19 41L18 41L18 39L20 39L20 40L21 40L21 38L18 38L18 37L17 37L17 36L16 36L16 35L19 35L19 37L21 37L21 36L22 36L22 37L24 37L24 35L25 35L25 34L27 34L27 38L25 38L25 39L24 39L24 38L23 38L23 39L22 39L22 41L23 41L23 42L24 42L24 41L23 41L23 40L25 40L25 39L26 39L26 40L27 40L27 39L30 39L30 38L31 38L31 37L32 37L32 36L33 36L33 35L38 35L38 36L39 36L39 37L40 37L40 38L41 38L41 39L42 39L42 38L44 38L44 39L45 39L45 37L46 37L46 41L47 41L47 39L48 39L48 38L47 38L47 37L48 37L48 36L50 36L50 34L49 34L49 33L48 33L48 32L49 32L49 31L50 31L50 30L51 30L51 27L52 27L52 26L51 26L51 27L50 27L50 25L49 25L49 29L48 29L48 31L47 31L47 29L46 29L46 31L47 31L47 33L48 33L48 36L47 36L47 35L46 35L46 33L45 33L45 32L44 32L44 31L45 31L45 30L43 30L43 29L42 29L42 27L44 27L44 24L45 24L45 22L46 22L46 20L47 20L47 21L48 21L48 20L47 20L47 19L46 19L46 20L45 20L45 21L44 21L44 20L43 20L43 19L42 19L42 18L41 18L41 17L39 17L39 16L40 16L40 14L39 14L39 13L38 13L38 12L40 12L40 11L41 11L41 10L42 10L42 8L43 8L43 9L44 9L44 11L42 11L42 12L41 12L41 15L44 15L44 14L46 14L46 12L45 12L45 10L46 10L46 9L45 9L45 8L43 8L43 7L42 7L42 6L41 6L41 8L40 8L40 11L37 11L37 10L35 10L35 12L36 12L36 11L37 11L37 14L36 14L36 15L33 15L33 14L32 14L32 13L29 13L29 12L25 12L25 10L24 10L24 11L23 11L23 9L24 9L24 8L22 8L22 6L21 6L21 5L22 5L22 4L21 4L21 5L18 5L18 4L17 4L17 3L16 3L16 2ZM42 2L42 3L43 3L43 2ZM16 4L16 5L17 5L17 4ZM23 4L23 5L24 5L24 4ZM32 4L32 6L31 6L31 7L32 7L32 6L33 6L33 7L34 7L34 5L35 5L35 4L34 4L34 5L33 5L33 4ZM36 4L36 6L37 6L37 7L38 7L38 6L39 6L39 7L40 7L40 6L39 6L39 5L37 5L37 4ZM25 5L25 8L28 8L28 5ZM23 6L23 7L24 7L24 6ZM26 6L26 7L27 7L27 6ZM0 8L0 9L2 9L2 10L4 10L4 8ZM14 8L14 9L15 9L15 8ZM48 8L48 9L49 9L49 10L50 10L50 11L51 11L51 12L53 12L53 10L52 10L52 9L53 9L53 8L52 8L52 9L51 9L51 8ZM50 9L50 10L51 10L51 9ZM12 11L12 12L13 12L13 11ZM6 12L6 13L7 13L7 12ZM23 12L23 13L25 13L25 14L24 14L24 15L23 15L23 16L24 16L24 17L28 17L28 16L29 16L29 17L30 17L30 18L31 18L31 19L32 19L32 17L33 17L33 20L34 20L34 22L32 22L32 21L30 21L30 20L28 20L28 19L27 19L27 21L28 21L28 22L31 22L31 24L30 24L30 23L27 23L27 24L24 24L24 26L23 26L23 25L22 25L22 22L21 22L21 25L20 25L20 24L19 24L19 26L20 26L20 27L21 27L21 29L20 29L20 28L18 28L18 30L17 30L17 27L18 27L18 26L17 26L17 27L16 27L16 28L15 28L15 30L16 30L16 31L13 31L13 28L12 28L12 27L11 27L11 26L10 26L10 27L11 27L11 28L12 28L12 29L10 29L10 30L12 30L12 31L11 31L11 32L13 32L13 33L11 33L11 34L12 34L12 35L10 35L10 34L8 34L8 35L7 35L7 34L6 34L6 35L7 35L7 36L6 36L6 37L8 37L8 36L12 36L12 35L13 35L13 34L14 34L14 36L15 36L15 37L14 37L14 40L16 40L16 38L17 38L17 39L18 39L18 38L17 38L17 37L16 37L16 36L15 36L15 35L16 35L16 33L17 33L17 32L16 32L16 31L19 31L19 32L18 32L18 34L19 34L19 35L20 35L20 34L21 34L21 35L22 35L22 36L23 36L23 35L24 35L24 34L23 34L23 35L22 35L22 34L21 34L21 33L20 33L20 34L19 34L19 32L21 32L21 29L23 29L23 28L22 28L22 27L24 27L24 29L25 29L25 31L26 31L26 32L27 32L27 31L29 31L29 30L30 30L30 31L31 31L31 27L30 27L30 25L32 25L32 24L33 24L33 25L34 25L34 26L33 26L33 27L36 27L36 28L37 28L37 29L36 29L36 30L35 30L35 29L34 29L34 28L33 28L33 29L32 29L32 30L33 30L33 31L32 31L32 32L28 32L28 33L31 33L31 34L32 34L32 35L33 35L33 34L36 34L36 32L39 32L39 33L40 33L40 34L38 34L38 33L37 33L37 34L38 34L38 35L39 35L39 36L42 36L42 35L43 35L43 37L44 37L44 36L45 36L45 35L43 35L43 32L42 32L42 35L40 35L40 34L41 34L41 32L39 32L39 31L40 31L40 29L39 29L39 28L40 28L40 27L42 27L42 26L43 26L43 25L40 25L40 24L42 24L42 23L40 23L40 22L39 22L39 21L41 21L41 19L40 19L40 18L39 18L39 17L38 17L38 14L37 14L37 16L36 16L36 17L37 17L37 18L34 18L34 17L33 17L33 16L31 16L31 15L26 15L26 14L29 14L29 13L25 13L25 12ZM42 12L42 13L44 13L44 12ZM3 13L3 14L2 14L2 15L5 15L5 14L4 14L4 13ZM16 14L16 15L17 15L17 16L18 16L18 15L17 15L17 14ZM25 15L25 16L26 16L26 15ZM14 16L14 17L16 17L16 18L17 18L17 17L16 17L16 16ZM43 16L43 17L44 17L44 16ZM13 18L13 19L14 19L14 20L15 20L15 19L14 19L14 18ZM38 18L38 19L37 19L37 20L36 20L36 21L35 21L35 22L34 22L34 23L37 23L37 25L38 25L38 26L36 26L36 25L35 25L35 26L36 26L36 27L38 27L38 28L39 28L39 27L38 27L38 26L40 26L40 25L39 25L39 23L38 23L38 19L39 19L39 20L40 20L40 19L39 19L39 18ZM18 19L18 20L20 20L20 19ZM25 19L25 20L26 20L26 19ZM34 19L34 20L35 20L35 19ZM16 21L16 22L17 22L17 21ZM36 21L36 22L37 22L37 21ZM43 21L43 23L44 23L44 21ZM19 22L19 23L20 23L20 22ZM29 24L29 25L30 25L30 24ZM5 25L5 28L8 28L8 25ZM25 25L25 28L28 28L28 25ZM45 25L45 28L48 28L48 25ZM6 26L6 27L7 27L7 26ZM26 26L26 27L27 27L27 26ZM46 26L46 27L47 27L47 26ZM3 27L3 28L4 28L4 27ZM6 29L6 30L7 30L7 29ZM19 29L19 31L20 31L20 29ZM26 29L26 31L27 31L27 29ZM37 29L37 31L39 31L39 29ZM34 30L34 31L33 31L33 32L32 32L32 33L33 33L33 32L34 32L34 33L35 33L35 32L36 32L36 31L35 31L35 30ZM42 30L42 31L43 31L43 30ZM14 32L14 34L15 34L15 32ZM51 32L51 33L53 33L53 32ZM44 33L44 34L45 34L45 33ZM28 34L28 37L29 37L29 36L30 36L30 37L31 37L31 36L30 36L30 35L29 35L29 34ZM25 36L25 37L26 37L26 36ZM35 36L35 37L37 37L37 36ZM12 37L12 38L13 38L13 37ZM15 37L15 38L16 38L16 37ZM33 38L33 39L34 39L34 38ZM1 40L1 41L2 41L2 40ZM28 40L28 41L29 41L29 40ZM37 40L37 41L36 41L36 42L37 42L37 43L36 43L36 45L37 45L37 43L38 43L38 42L37 42L37 41L38 41L38 40ZM43 42L43 43L45 43L45 42ZM49 42L49 43L51 43L51 42ZM10 43L10 44L11 44L11 43ZM17 43L17 44L16 44L16 46L14 46L14 47L13 47L13 48L15 48L15 47L17 47L17 44L18 44L18 43ZM25 43L25 44L26 44L26 43ZM46 43L46 44L47 44L47 43ZM52 43L52 44L53 44L53 43ZM8 44L8 45L9 45L9 44ZM19 45L19 46L20 46L20 47L22 47L22 46L21 46L21 45ZM25 45L25 48L28 48L28 45ZM45 45L45 48L48 48L48 45ZM26 46L26 47L27 47L27 46ZM46 46L46 47L47 47L47 46ZM32 47L32 49L33 49L33 47ZM34 48L34 49L35 49L35 48ZM46 49L46 50L44 50L44 51L46 51L46 52L47 52L47 51L46 51L46 50L47 50L47 49ZM48 49L48 50L49 50L49 49ZM50 50L50 52L52 52L52 50ZM9 51L9 52L10 52L10 51ZM35 52L35 53L36 53L36 52ZM0 0L0 7L7 7L7 0ZM1 1L1 6L6 6L6 1ZM2 2L2 5L5 5L5 2ZM46 0L46 7L53 7L53 0ZM47 1L47 6L52 6L52 1ZM48 2L48 5L51 5L51 2ZM0 46L0 53L7 53L7 46ZM1 47L1 52L6 52L6 47ZM2 48L2 51L5 51L5 48Z" fill="#000000"/></g></g></svg>
