<?xml version="1.0" encoding="UTF-8"?>
<svg xmlns="http://www.w3.org/2000/svg" version="1.1" width="100" height="100" viewBox="0 0 100 100"><rect x="0" y="0" width="100" height="100" fill="#ffffff"/><g transform="scale(1.754)"><g transform="translate(0,0)"><path fill-rule="evenodd" d="M8 0L8 4L9 4L9 5L8 5L8 7L9 7L9 9L8 9L8 10L9 10L9 11L8 11L8 12L11 12L11 11L10 11L10 10L12 10L12 13L10 13L10 16L8 16L8 17L7 17L7 16L5 16L5 15L3 15L3 14L2 14L2 16L1 16L1 17L2 17L2 16L3 16L3 17L4 17L4 18L3 18L3 20L2 20L2 22L3 22L3 23L4 23L4 24L5 24L5 25L4 25L4 31L3 31L3 32L2 32L2 33L1 33L1 34L0 34L0 38L1 38L1 36L2 36L2 39L0 39L0 40L1 40L1 41L2 41L2 40L3 40L3 41L5 41L5 43L7 43L7 44L5 44L5 47L3 47L3 46L4 46L4 44L3 44L3 46L2 46L2 44L1 44L1 43L3 43L3 42L1 42L1 43L0 43L0 44L1 44L1 45L0 45L0 48L5 48L5 47L7 47L7 46L8 46L8 50L9 50L9 51L8 51L8 53L9 53L9 55L8 55L8 57L12 57L12 56L14 56L14 57L16 57L16 56L15 56L15 55L16 55L16 54L18 54L18 53L19 53L19 55L20 55L20 54L22 54L22 55L21 55L21 56L20 56L20 57L22 57L22 56L23 56L23 55L24 55L24 56L25 56L25 57L28 57L28 54L27 54L27 56L26 56L26 53L30 53L30 56L29 56L29 57L31 57L31 56L32 56L32 57L33 57L33 55L32 55L32 54L31 54L31 52L32 52L32 53L33 53L33 54L34 54L34 56L35 56L35 57L36 57L36 56L35 56L35 53L33 53L33 52L32 52L32 50L34 50L34 52L35 52L35 49L33 49L33 48L32 48L32 49L31 49L31 48L29 48L29 47L32 47L32 46L33 46L33 47L34 47L34 48L35 48L35 46L37 46L37 45L38 45L38 44L37 44L37 45L35 45L35 42L36 42L36 41L38 41L38 39L39 39L39 42L40 42L40 44L39 44L39 45L41 45L41 46L40 46L40 48L41 48L41 47L43 47L43 48L42 48L42 50L43 50L43 52L41 52L41 53L39 53L39 52L38 52L38 51L36 51L36 53L37 53L37 52L38 52L38 54L40 54L40 55L39 55L39 56L38 56L38 55L37 55L37 57L41 57L41 56L40 56L40 55L43 55L43 54L44 54L44 53L43 53L43 52L45 52L45 51L44 51L44 50L45 50L45 49L46 49L46 52L47 52L47 48L48 48L48 53L50 53L50 54L55 54L55 52L56 52L56 54L57 54L57 44L56 44L56 40L57 40L57 39L56 39L56 38L57 38L57 36L56 36L56 37L55 37L55 35L57 35L57 34L56 34L56 33L57 33L57 32L56 32L56 33L52 33L52 32L55 32L55 31L57 31L57 28L56 28L56 30L55 30L55 29L54 29L54 28L55 28L55 27L56 27L56 26L57 26L57 24L55 24L55 23L54 23L54 22L57 22L57 20L56 20L56 21L55 21L55 19L56 19L56 18L57 18L57 16L56 16L56 15L55 15L55 13L57 13L57 8L53 8L53 9L52 9L52 8L51 8L51 9L50 9L50 10L49 10L49 11L51 11L51 10L52 10L52 12L51 12L51 13L48 13L48 12L47 12L47 11L48 11L48 9L49 9L49 8L47 8L47 5L48 5L48 0L46 0L46 1L43 1L43 0L42 0L42 2L43 2L43 4L41 4L41 2L40 2L40 1L39 1L39 0L37 0L37 1L35 1L35 0L34 0L34 1L33 1L33 0L31 0L31 1L30 1L30 0L29 0L29 2L31 2L31 3L32 3L32 4L28 4L28 1L26 1L26 0L24 0L24 1L23 1L23 2L22 2L22 1L21 1L21 0L20 0L20 1L19 1L19 0L18 0L18 3L17 3L17 2L16 2L16 4L18 4L18 5L17 5L17 6L16 6L16 5L15 5L15 0L14 0L14 1L13 1L13 3L12 3L12 1L11 1L11 0ZM20 1L20 3L18 3L18 4L19 4L19 5L20 5L20 6L19 6L19 7L20 7L20 6L21 6L21 8L22 8L22 9L21 9L21 10L18 10L18 9L20 9L20 8L18 8L18 6L17 6L17 10L16 10L16 8L15 8L15 7L16 7L16 6L15 6L15 7L14 7L14 5L13 5L13 7L12 7L12 6L11 6L11 5L12 5L12 4L11 4L11 5L9 5L9 7L10 7L10 6L11 6L11 7L12 7L12 8L10 8L10 9L9 9L9 10L10 10L10 9L12 9L12 8L14 8L14 10L16 10L16 11L15 11L15 12L14 12L14 11L13 11L13 13L15 13L15 14L13 14L13 15L12 15L12 14L11 14L11 15L12 15L12 16L11 16L11 17L10 17L10 18L11 18L11 19L10 19L10 22L8 22L8 21L9 21L9 19L8 19L8 18L7 18L7 17L6 17L6 18L5 18L5 19L4 19L4 20L5 20L5 21L6 21L6 22L7 22L7 23L5 23L5 24L9 24L9 25L5 25L5 26L9 26L9 32L8 32L8 33L5 33L5 34L4 34L4 35L5 35L5 36L7 36L7 37L6 37L6 38L7 38L7 39L5 39L5 37L4 37L4 38L3 38L3 39L4 39L4 40L7 40L7 39L8 39L8 38L7 38L7 37L8 37L8 35L9 35L9 34L12 34L12 33L11 33L11 32L13 32L13 34L14 34L14 36L16 36L16 37L15 37L15 39L16 39L16 38L17 38L17 40L16 40L16 41L15 41L15 40L14 40L14 37L13 37L13 36L12 36L12 35L11 35L11 37L9 37L9 40L8 40L8 41L6 41L6 42L9 42L9 41L11 41L11 42L10 42L10 43L9 43L9 47L11 47L11 48L10 48L10 50L12 50L12 51L11 51L11 52L12 52L12 53L14 53L14 54L12 54L12 55L11 55L11 53L10 53L10 52L9 52L9 53L10 53L10 55L9 55L9 56L12 56L12 55L14 55L14 54L15 54L15 53L17 53L17 52L18 52L18 51L20 51L20 52L19 52L19 53L20 53L20 52L22 52L22 53L24 53L24 54L25 54L25 53L26 53L26 52L25 52L25 51L26 51L26 50L24 50L24 49L26 49L26 47L27 47L27 48L28 48L28 47L29 47L29 45L30 45L30 46L31 46L31 45L32 45L32 44L34 44L34 43L33 43L33 42L32 42L32 39L33 39L33 41L34 41L34 42L35 42L35 41L36 41L36 39L38 39L38 38L40 38L40 37L36 37L36 36L37 36L37 35L38 35L38 36L41 36L41 35L40 35L40 34L41 34L41 33L42 33L42 32L43 32L43 33L44 33L44 32L45 32L45 31L46 31L46 26L47 26L47 28L48 28L48 26L51 26L51 25L46 25L46 26L45 26L45 25L44 25L44 24L45 24L45 23L46 23L46 22L47 22L47 20L48 20L48 21L49 21L49 22L48 22L48 23L47 23L47 24L49 24L49 22L51 22L51 23L50 23L50 24L52 24L52 25L53 25L53 26L54 26L54 25L55 25L55 26L56 26L56 25L55 25L55 24L54 24L54 23L52 23L52 22L53 22L53 21L54 21L54 20L53 20L53 21L52 21L52 18L53 18L53 19L54 19L54 17L56 17L56 16L55 16L55 15L52 15L52 13L53 13L53 12L55 12L55 11L56 11L56 9L54 9L54 10L53 10L53 12L52 12L52 13L51 13L51 14L49 14L49 15L48 15L48 13L46 13L46 10L47 10L47 8L46 8L46 5L47 5L47 3L45 3L45 2L44 2L44 3L45 3L45 4L44 4L44 5L42 5L42 6L41 6L41 5L40 5L40 2L38 2L38 1L37 1L37 2L35 2L35 3L37 3L37 4L34 4L34 5L33 5L33 4L32 4L32 5L31 5L31 7L32 7L32 9L31 9L31 10L32 10L32 11L29 11L29 12L32 12L32 13L29 13L29 14L30 14L30 15L29 15L29 18L28 18L28 17L27 17L27 19L26 19L26 20L25 20L25 19L24 19L24 20L22 20L22 21L21 21L21 22L20 22L20 23L19 23L19 21L20 21L20 20L21 20L21 19L22 19L22 18L23 18L23 16L24 16L24 18L26 18L26 16L27 16L27 15L28 15L28 13L27 13L27 14L26 14L26 13L24 13L24 12L25 12L25 11L26 11L26 6L25 6L25 7L24 7L24 6L23 6L23 5L24 5L24 4L25 4L25 3L26 3L26 4L27 4L27 2L25 2L25 1L24 1L24 2L23 2L23 3L21 3L21 1ZM31 1L31 2L32 2L32 3L34 3L34 2L32 2L32 1ZM46 1L46 2L47 2L47 1ZM9 2L9 3L10 3L10 2ZM37 2L37 3L38 3L38 2ZM13 3L13 4L14 4L14 3ZM22 4L22 5L21 5L21 6L22 6L22 8L24 8L24 9L25 9L25 8L24 8L24 7L23 7L23 6L22 6L22 5L23 5L23 4ZM37 4L37 5L35 5L35 6L34 6L34 9L32 9L32 10L33 10L33 11L34 11L34 12L33 12L33 13L37 13L37 12L38 12L38 11L35 11L35 9L36 9L36 10L40 10L40 12L41 12L41 11L42 11L42 10L43 10L43 11L44 11L44 12L43 12L43 13L42 13L42 14L43 14L43 17L41 17L41 16L40 16L40 15L41 15L41 13L38 13L38 15L36 15L36 17L35 17L35 15L34 15L34 17L33 17L33 15L32 15L32 17L33 17L33 19L34 19L34 20L35 20L35 21L34 21L34 23L33 23L33 24L32 24L32 25L34 25L34 26L33 26L33 28L32 28L32 29L31 29L31 26L27 26L27 25L29 25L29 23L32 23L32 21L31 21L31 22L28 22L28 21L27 21L27 22L26 22L26 23L25 23L25 22L24 22L24 21L25 21L25 20L24 20L24 21L23 21L23 22L21 22L21 23L24 23L24 25L25 25L25 26L24 26L24 27L26 27L26 30L25 30L25 28L23 28L23 26L21 26L21 25L20 25L20 24L19 24L19 25L20 25L20 26L21 26L21 27L22 27L22 28L23 28L23 29L24 29L24 30L22 30L22 29L21 29L21 28L20 28L20 27L19 27L19 26L18 26L18 27L17 27L17 25L18 25L18 23L17 23L17 24L16 24L16 25L15 25L15 23L16 23L16 22L17 22L17 21L18 21L18 19L15 19L15 20L14 20L14 19L12 19L12 20L11 20L11 21L12 21L12 22L10 22L10 23L9 23L9 24L10 24L10 25L12 25L12 26L13 26L13 27L12 27L12 28L11 28L11 29L10 29L10 31L11 31L11 30L12 30L12 31L14 31L14 33L15 33L15 35L16 35L16 36L18 36L18 35L17 35L17 33L18 33L18 34L20 34L20 35L19 35L19 37L18 37L18 38L19 38L19 37L21 37L21 38L20 38L20 39L19 39L19 40L17 40L17 41L16 41L16 42L17 42L17 43L16 43L16 44L15 44L15 43L14 43L14 40L13 40L13 39L12 39L12 40L11 40L11 39L10 39L10 40L11 40L11 41L12 41L12 42L11 42L11 43L10 43L10 44L11 44L11 45L10 45L10 46L11 46L11 47L12 47L12 48L13 48L13 49L12 49L12 50L14 50L14 51L13 51L13 52L14 52L14 53L15 53L15 52L17 52L17 51L16 51L16 50L20 50L20 51L21 51L21 50L20 50L20 49L23 49L23 48L22 48L22 47L24 47L24 46L25 46L25 47L26 47L26 46L28 46L28 45L29 45L29 43L32 43L32 42L31 42L31 39L32 39L32 37L33 37L33 38L34 38L34 37L35 37L35 39L34 39L34 41L35 41L35 39L36 39L36 37L35 37L35 34L36 34L36 33L35 33L35 31L36 31L36 29L37 29L37 33L41 33L41 30L40 30L40 29L37 29L37 28L38 28L38 26L39 26L39 28L40 28L40 27L41 27L41 25L39 25L39 24L38 24L38 21L37 21L37 24L38 24L38 26L37 26L37 25L36 25L36 26L37 26L37 28L35 28L35 23L36 23L36 22L35 22L35 21L36 21L36 20L38 20L38 17L37 17L37 16L38 16L38 15L39 15L39 16L40 16L40 19L39 19L39 21L40 21L40 24L41 24L41 23L44 23L44 21L43 21L43 20L45 20L45 22L46 22L46 20L47 20L47 19L48 19L48 18L47 18L47 17L49 17L49 19L50 19L50 17L52 17L52 15L51 15L51 16L50 16L50 15L49 15L49 16L47 16L47 15L46 15L46 20L45 20L45 19L44 19L44 18L45 18L45 17L44 17L44 14L45 14L45 11L44 11L44 10L46 10L46 9L44 9L44 7L45 7L45 5L46 5L46 4L45 4L45 5L44 5L44 7L43 7L43 6L42 6L42 7L43 7L43 8L41 8L41 10L40 10L40 9L39 9L39 8L40 8L40 7L41 7L41 6L40 6L40 5L38 5L38 4ZM27 5L27 8L30 8L30 5ZM32 5L32 7L33 7L33 5ZM37 5L37 7L36 7L36 6L35 6L35 8L37 8L37 9L38 9L38 8L39 8L39 7L40 7L40 6L39 6L39 7L38 7L38 5ZM28 6L28 7L29 7L29 6ZM48 6L48 7L49 7L49 6ZM37 7L37 8L38 8L38 7ZM0 8L0 14L1 14L1 11L2 11L2 12L4 12L4 14L5 14L5 13L7 13L7 12L6 12L6 11L7 11L7 10L6 10L6 9L7 9L7 8L4 8L4 9L3 9L3 10L2 10L2 8ZM27 9L27 12L28 12L28 9ZM29 9L29 10L30 10L30 9ZM3 10L3 11L4 11L4 12L5 12L5 11L6 11L6 10ZM17 10L17 11L16 11L16 12L15 12L15 13L16 13L16 14L19 14L19 12L20 12L20 11L19 11L19 12L18 12L18 13L16 13L16 12L17 12L17 11L18 11L18 10ZM23 10L23 11L24 11L24 10ZM54 10L54 11L55 11L55 10ZM21 11L21 13L23 13L23 12L22 12L22 11ZM8 13L8 14L9 14L9 13ZM43 13L43 14L44 14L44 13ZM6 14L6 15L7 15L7 14ZM20 14L20 15L16 15L16 16L15 16L15 15L13 15L13 18L15 18L15 17L16 17L16 16L18 16L18 17L17 17L17 18L19 18L19 16L20 16L20 15L21 15L21 14ZM22 14L22 15L23 15L23 14ZM24 14L24 15L25 15L25 14ZM4 16L4 17L5 17L5 16ZM14 16L14 17L15 17L15 16ZM21 16L21 18L20 18L20 19L21 19L21 18L22 18L22 16ZM53 16L53 17L54 17L54 16ZM11 17L11 18L12 18L12 17ZM30 17L30 19L32 19L32 18L31 18L31 17ZM0 18L0 20L1 20L1 19L2 19L2 18ZM6 18L6 19L5 19L5 20L6 20L6 21L7 21L7 20L8 20L8 19L7 19L7 18ZM35 18L35 19L37 19L37 18ZM6 19L6 20L7 20L7 19ZM27 19L27 20L28 20L28 19ZM41 19L41 20L40 20L40 21L42 21L42 22L43 22L43 21L42 21L42 20L43 20L43 19ZM12 20L12 21L13 21L13 22L12 22L12 25L14 25L14 21L13 21L13 20ZM15 20L15 21L17 21L17 20ZM49 20L49 21L50 21L50 20ZM3 21L3 22L4 22L4 21ZM0 22L0 24L1 24L1 22ZM27 22L27 24L28 24L28 22ZM10 23L10 24L11 24L11 23ZM2 24L2 25L1 25L1 26L3 26L3 24ZM43 25L43 28L44 28L44 29L43 29L43 31L44 31L44 30L45 30L45 28L44 28L44 25ZM10 26L10 27L11 27L11 26ZM14 26L14 27L13 27L13 28L15 28L15 29L16 29L16 27L15 27L15 26ZM2 27L2 29L1 29L1 28L0 28L0 31L2 31L2 29L3 29L3 27ZM5 27L5 30L8 30L8 27ZM27 27L27 30L30 30L30 27ZM49 27L49 30L52 30L52 27ZM53 27L53 28L54 28L54 27ZM6 28L6 29L7 29L7 28ZM18 28L18 29L17 29L17 32L16 32L16 31L15 31L15 32L16 32L16 33L17 33L17 32L18 32L18 31L20 31L20 32L19 32L19 33L21 33L21 35L20 35L20 36L21 36L21 35L22 35L22 36L25 36L25 37L26 37L26 38L24 38L24 37L23 37L23 39L22 39L22 38L21 38L21 40L20 40L20 41L19 41L19 42L18 42L18 41L17 41L17 42L18 42L18 43L17 43L17 45L16 45L16 46L14 46L14 44L13 44L13 42L12 42L12 44L13 44L13 48L14 48L14 50L15 50L15 48L16 48L16 47L20 47L20 48L19 48L19 49L20 49L20 48L21 48L21 47L22 47L22 46L24 46L24 45L25 45L25 44L26 44L26 45L28 45L28 42L30 42L30 41L26 41L26 42L25 42L25 41L24 41L24 40L27 40L27 38L29 38L29 40L30 40L30 38L29 38L29 36L32 36L32 35L33 35L33 36L34 36L34 35L33 35L33 34L34 34L34 33L33 33L33 34L32 34L32 32L33 32L33 31L35 31L35 30L33 30L33 29L34 29L34 28L33 28L33 29L32 29L32 32L31 32L31 34L32 34L32 35L30 35L30 33L29 33L29 32L30 32L30 31L29 31L29 32L28 32L28 31L27 31L27 32L26 32L26 31L25 31L25 30L24 30L24 31L22 31L22 30L20 30L20 29L19 29L19 28ZM28 28L28 29L29 29L29 28ZM50 28L50 29L51 29L51 28ZM18 29L18 30L19 30L19 29ZM47 29L47 30L48 30L48 29ZM39 30L39 31L38 31L38 32L40 32L40 30ZM53 30L53 31L54 31L54 30ZM5 31L5 32L7 32L7 31ZM21 31L21 32L22 32L22 31ZM47 31L47 33L48 33L48 35L47 35L47 37L44 37L44 36L46 36L46 35L45 35L45 34L46 34L46 33L45 33L45 34L44 34L44 35L43 35L43 34L42 34L42 37L41 37L41 38L42 38L42 39L41 39L41 40L40 40L40 42L42 42L42 40L43 40L43 42L44 42L44 43L45 43L45 44L46 44L46 43L45 43L45 42L48 42L48 45L49 45L49 47L51 47L51 48L52 48L52 47L51 47L51 46L52 46L52 45L54 45L54 44L52 44L52 43L51 43L51 41L52 41L52 42L53 42L53 41L54 41L54 40L56 40L56 39L55 39L55 38L52 38L52 39L51 39L51 38L50 38L50 39L49 39L49 37L50 37L50 35L51 35L51 37L53 37L53 36L52 36L52 35L54 35L54 34L52 34L52 35L51 35L51 33L50 33L50 31L49 31L49 32L48 32L48 31ZM51 31L51 32L52 32L52 31ZM3 32L3 33L4 33L4 32ZM9 32L9 33L10 33L10 32ZM23 32L23 33L22 33L22 35L24 35L24 33L25 33L25 32ZM27 33L27 34L28 34L28 33ZM49 33L49 35L50 35L50 33ZM2 34L2 36L3 36L3 34ZM5 34L5 35L7 35L7 34ZM38 34L38 35L39 35L39 34ZM26 35L26 37L27 37L27 35ZM28 35L28 36L29 36L29 35ZM48 36L48 37L49 37L49 36ZM11 37L11 38L12 38L12 37ZM42 37L42 38L43 38L43 40L44 40L44 42L45 42L45 41L46 41L46 40L47 40L47 39L48 39L48 41L49 41L49 43L50 43L50 41L51 41L51 39L50 39L50 41L49 41L49 39L48 39L48 38L45 38L45 39L46 39L46 40L44 40L44 37ZM23 39L23 40L22 40L22 41L23 41L23 40L24 40L24 39ZM52 39L52 40L53 40L53 39ZM20 41L20 43L19 43L19 44L18 44L18 45L17 45L17 46L19 46L19 44L20 44L20 43L21 43L21 45L24 45L24 44L22 44L22 43L21 43L21 41ZM23 42L23 43L24 43L24 42ZM26 43L26 44L27 44L27 43ZM41 43L41 45L42 45L42 46L44 46L44 48L43 48L43 49L45 49L45 48L46 48L46 47L47 47L47 45L45 45L45 46L44 46L44 45L43 45L43 43ZM30 44L30 45L31 45L31 44ZM50 44L50 46L51 46L51 44ZM55 44L55 46L54 46L54 47L53 47L53 49L56 49L56 48L54 48L54 47L56 47L56 44ZM6 45L6 46L7 46L7 45ZM11 45L11 46L12 46L12 45ZM33 45L33 46L35 46L35 45ZM1 46L1 47L2 47L2 46ZM38 46L38 47L37 47L37 49L36 49L36 50L37 50L37 49L38 49L38 50L39 50L39 51L41 51L41 49L39 49L39 48L38 48L38 47L39 47L39 46ZM6 48L6 49L7 49L7 48ZM17 48L17 49L18 49L18 48ZM27 49L27 52L30 52L30 49ZM49 49L49 52L52 52L52 49ZM22 50L22 51L23 51L23 50ZM28 50L28 51L29 51L29 50ZM50 50L50 51L51 51L51 50ZM54 50L54 51L53 51L53 52L54 52L54 51L56 51L56 50ZM24 52L24 53L25 53L25 52ZM41 53L41 54L43 54L43 53ZM46 53L46 54L45 54L45 55L44 55L44 57L46 57L46 56L47 56L47 57L52 57L52 55L51 55L51 56L50 56L50 55L49 55L49 54L47 54L47 53ZM17 55L17 57L18 57L18 55ZM45 55L45 56L46 56L46 55ZM47 55L47 56L49 56L49 55ZM55 55L55 56L53 56L53 57L55 57L55 56L56 56L56 57L57 57L57 55ZM42 56L42 57L43 57L43 56ZM0 0L0 7L7 7L7 0ZM1 1L1 6L6 6L6 1ZM2 2L2 5L5 5L5 2ZM50 0L50 7L57 7L57 0ZM51 1L51 6L56 6L56 1ZM52 2L52 5L55 5L55 2ZM0 50L0 57L7 57L7 50ZM1 51L1 56L6 56L6 51ZM2 52L2 55L5 55L5 52Z" fill="#000000"/></g></g></svg>
