<?xml version="1.0" encoding="UTF-8"?>
<svg xmlns="http://www.w3.org/2000/svg" version="1.1" width="100" height="100" viewBox="0 0 100 100"><rect x="0" y="0" width="100" height="100" fill="#ffffff"/><g transform="scale(1.887)"><g transform="translate(0,0)"><path fill-rule="evenodd" d="M8 0L8 1L9 1L9 0ZM13 0L13 1L12 1L12 2L13 2L13 1L14 1L14 3L15 3L15 2L16 2L16 3L17 3L17 4L16 4L16 7L15 7L15 4L14 4L14 7L15 7L15 8L14 8L14 9L15 9L15 8L16 8L16 11L15 11L15 10L13 10L13 11L12 11L12 10L11 10L11 6L12 6L12 7L13 7L13 6L12 6L12 5L13 5L13 3L11 3L11 2L10 2L10 3L9 3L9 2L8 2L8 5L9 5L9 6L8 6L8 7L9 7L9 6L10 6L10 10L9 10L9 8L8 8L8 11L10 11L10 12L9 12L9 14L5 14L5 13L7 13L7 12L5 12L5 10L4 10L4 8L0 8L0 10L1 10L1 11L0 11L0 13L1 13L1 14L2 14L2 13L4 13L4 14L3 14L3 15L2 15L2 16L1 16L1 15L0 15L0 18L1 18L1 19L0 19L0 22L1 22L1 21L2 21L2 23L4 23L4 24L1 24L1 25L0 25L0 26L1 26L1 27L2 27L2 28L0 28L0 31L1 31L1 30L2 30L2 32L1 32L1 33L0 33L0 34L2 34L2 35L3 35L3 36L5 36L5 39L4 39L4 40L3 40L3 38L4 38L4 37L3 37L3 38L2 38L2 37L1 37L1 39L2 39L2 42L1 42L1 40L0 40L0 43L1 43L1 44L3 44L3 45L4 45L4 44L3 44L3 43L7 43L7 44L6 44L6 45L7 45L7 44L9 44L9 45L8 45L8 46L9 46L9 45L10 45L10 50L9 50L9 49L8 49L8 53L13 53L13 52L12 52L12 50L13 50L13 51L14 51L14 52L16 52L16 53L17 53L17 52L16 52L16 51L18 51L18 53L20 53L20 51L22 51L22 52L21 52L21 53L22 53L22 52L23 52L23 51L24 51L24 50L26 50L26 49L32 49L32 50L33 50L33 51L35 51L35 53L40 53L40 52L43 52L43 53L47 53L47 52L49 52L49 53L52 53L52 52L53 52L53 50L52 50L52 49L49 49L49 48L50 48L50 45L51 45L51 44L47 44L47 43L48 43L48 42L49 42L49 43L51 43L51 42L49 42L49 41L48 41L48 42L47 42L47 43L43 43L43 42L46 42L46 37L45 37L45 38L43 38L43 39L42 39L42 38L41 38L41 37L44 37L44 36L45 36L45 35L43 35L43 33L44 33L44 34L46 34L46 36L48 36L48 37L47 37L47 38L48 38L48 39L47 39L47 40L49 40L49 38L50 38L50 39L51 39L51 40L50 40L50 41L52 41L52 42L53 42L53 41L52 41L52 39L53 39L53 38L51 38L51 36L52 36L52 37L53 37L53 35L52 35L52 34L50 34L50 33L49 33L49 34L50 34L50 37L49 37L49 36L48 36L48 32L47 32L47 31L48 31L48 29L49 29L49 25L50 25L50 27L51 27L51 28L50 28L50 29L51 29L51 30L50 30L50 31L49 31L49 32L50 32L50 31L52 31L52 32L51 32L51 33L53 33L53 30L52 30L52 27L53 27L53 25L52 25L52 23L51 23L51 25L50 25L50 23L49 23L49 24L47 24L47 22L48 22L48 21L49 21L49 22L50 22L50 21L49 21L49 20L52 20L52 21L51 21L51 22L53 22L53 18L51 18L51 19L49 19L49 17L48 17L48 18L47 18L47 16L46 16L46 19L45 19L45 18L44 18L44 17L45 17L45 16L44 16L44 17L43 17L43 15L42 15L42 14L39 14L39 12L38 12L38 13L37 13L37 12L36 12L36 11L35 11L35 10L37 10L37 9L35 9L35 10L32 10L32 9L30 9L30 8L29 8L29 5L30 5L30 7L31 7L31 5L33 5L33 6L32 6L32 7L33 7L33 9L34 9L34 7L35 7L35 6L36 6L36 8L38 8L38 11L40 11L40 10L39 10L39 9L41 9L41 8L39 8L39 6L40 6L40 7L41 7L41 5L40 5L40 2L39 2L39 1L38 1L38 2L39 2L39 4L38 4L38 3L36 3L36 0L33 0L33 1L32 1L32 0L31 0L31 3L30 3L30 2L28 2L28 1L26 1L26 0L24 0L24 1L25 1L25 3L26 3L26 4L24 4L24 5L23 5L23 4L22 4L22 3L24 3L24 2L22 2L22 1L19 1L19 0L17 0L17 1L19 1L19 2L16 2L16 0L15 0L15 1L14 1L14 0ZM40 0L40 1L41 1L41 2L43 2L43 3L41 3L41 4L42 4L42 7L43 7L43 8L42 8L42 10L41 10L41 12L42 12L42 13L43 13L43 12L42 12L42 11L44 11L44 9L43 9L43 8L45 8L45 9L46 9L46 10L45 10L45 11L46 11L46 13L47 13L47 12L48 12L48 11L47 11L47 9L46 9L46 8L45 8L45 6L44 6L44 7L43 7L43 3L44 3L44 4L45 4L45 3L44 3L44 1L43 1L43 0ZM33 1L33 5L34 5L34 2L35 2L35 1ZM19 2L19 5L18 5L18 4L17 4L17 7L16 7L16 8L18 8L18 6L19 6L19 7L20 7L20 6L21 6L21 7L22 7L22 6L21 6L21 3L22 3L22 2ZM26 2L26 3L27 3L27 4L30 4L30 5L31 5L31 4L32 4L32 3L31 3L31 4L30 4L30 3L27 3L27 2ZM10 3L10 6L11 6L11 5L12 5L12 4L11 4L11 3ZM36 4L36 6L37 6L37 7L38 7L38 6L39 6L39 5L37 5L37 4ZM19 5L19 6L20 6L20 5ZM25 5L25 8L28 8L28 5ZM23 6L23 7L24 7L24 6ZM26 6L26 7L27 7L27 6ZM33 6L33 7L34 7L34 6ZM6 8L6 9L7 9L7 8ZM12 8L12 9L13 9L13 8ZM19 8L19 10L17 10L17 11L16 11L16 14L15 14L15 12L14 12L14 13L13 13L13 12L10 12L10 14L11 14L11 15L10 15L10 17L9 17L9 16L8 16L8 15L3 15L3 16L2 16L2 18L3 18L3 19L4 19L4 21L3 21L3 20L2 20L2 19L1 19L1 20L2 20L2 21L3 21L3 22L4 22L4 21L6 21L6 22L5 22L5 24L8 24L8 23L9 23L9 24L10 24L10 25L9 25L9 28L13 28L13 29L12 29L12 30L11 30L11 29L8 29L8 30L7 30L7 29L3 29L3 28L4 28L4 26L2 26L2 25L1 25L1 26L2 26L2 27L3 27L3 28L2 28L2 29L3 29L3 31L4 31L4 30L7 30L7 31L6 31L6 32L4 32L4 33L3 33L3 32L2 32L2 34L4 34L4 33L6 33L6 34L5 34L5 36L7 36L7 37L6 37L6 38L7 38L7 39L5 39L5 41L3 41L3 42L2 42L2 43L3 43L3 42L7 42L7 43L9 43L9 44L11 44L11 42L12 42L12 44L13 44L13 42L12 42L12 41L11 41L11 42L10 42L10 41L9 41L9 40L11 40L11 37L12 37L12 36L13 36L13 37L15 37L15 38L16 38L16 40L14 40L14 38L13 38L13 40L14 40L14 43L15 43L15 41L16 41L16 42L17 42L17 39L19 39L19 37L21 37L21 38L20 38L20 42L19 42L19 40L18 40L18 42L19 42L19 43L20 43L20 42L21 42L21 44L22 44L22 45L21 45L21 46L22 46L22 48L23 48L23 49L21 49L21 50L24 50L24 46L22 46L22 45L24 45L24 44L22 44L22 43L23 43L23 42L24 42L24 41L23 41L23 42L21 42L21 38L23 38L23 37L24 37L24 39L23 39L23 40L25 40L25 42L26 42L26 43L25 43L25 44L26 44L26 43L27 43L27 41L29 41L29 44L30 44L30 45L32 45L32 46L33 46L33 47L32 47L32 49L33 49L33 47L34 47L34 44L37 44L37 43L35 43L35 42L38 42L38 43L39 43L39 45L38 45L38 46L36 46L36 45L35 45L35 47L36 47L36 51L38 51L38 52L39 52L39 51L38 51L38 50L37 50L37 48L39 48L39 50L40 50L40 49L41 49L41 50L42 50L42 49L44 49L44 46L42 46L42 45L41 45L41 43L42 43L42 44L43 44L43 43L42 43L42 42L41 42L41 41L43 41L43 40L44 40L44 39L43 39L43 40L41 40L41 39L38 39L38 40L37 40L37 41L33 41L33 40L36 40L36 39L37 39L37 37L39 37L39 38L40 38L40 37L41 37L41 35L42 35L42 36L43 36L43 35L42 35L42 32L44 32L44 33L45 33L45 30L43 30L43 28L41 28L41 27L38 27L38 28L37 28L37 26L36 26L36 25L35 25L35 26L36 26L36 29L35 29L35 27L33 27L33 26L34 26L34 25L33 25L33 24L32 24L32 25L31 25L31 22L33 22L33 23L34 23L34 22L35 22L35 21L31 21L31 19L29 19L29 18L28 18L28 17L29 17L29 15L30 15L30 14L31 14L31 15L32 15L32 16L33 16L33 17L32 17L32 19L33 19L33 17L34 17L34 18L37 18L37 19L36 19L36 23L37 23L37 25L38 25L38 26L40 26L40 25L43 25L43 26L42 26L42 27L44 27L44 24L45 24L45 23L46 23L46 20L47 20L47 21L48 21L48 20L47 20L47 19L46 19L46 20L43 20L43 19L42 19L42 18L41 18L41 17L39 17L39 18L40 18L40 19L39 19L39 20L38 20L38 22L37 22L37 19L38 19L38 16L40 16L40 15L39 15L39 14L38 14L38 16L37 16L37 13L35 13L35 14L36 14L36 15L34 15L34 11L33 11L33 12L32 12L32 13L29 13L29 11L30 11L30 12L31 12L31 10L29 10L29 9L26 9L26 11L25 11L25 13L24 13L24 12L22 12L22 11L24 11L24 10L23 10L23 9L24 9L24 8ZM48 8L48 9L49 9L49 12L50 12L50 13L49 13L49 14L50 14L50 17L52 17L52 13L51 13L51 12L53 12L53 10L52 10L52 9L53 9L53 8L52 8L52 9L51 9L51 8ZM1 9L1 10L3 10L3 11L4 11L4 10L3 10L3 9ZM20 9L20 10L19 10L19 11L17 11L17 13L18 13L18 14L19 14L19 16L18 16L18 15L17 15L17 14L16 14L16 15L17 15L17 16L18 16L18 17L16 17L16 16L14 16L14 14L12 14L12 15L11 15L11 17L12 17L12 19L11 19L11 18L9 18L9 17L8 17L8 19L9 19L9 20L10 20L10 21L8 21L8 20L6 20L6 19L7 19L7 18L5 18L5 16L3 16L3 18L4 18L4 19L5 19L5 20L6 20L6 21L8 21L8 22L6 22L6 23L8 23L8 22L10 22L10 21L12 21L12 25L14 25L14 26L17 26L17 27L16 27L16 28L15 28L15 29L16 29L16 28L17 28L17 30L16 30L16 31L13 31L13 30L12 30L12 31L10 31L10 30L8 30L8 31L7 31L7 32L6 32L6 33L8 33L8 31L10 31L10 32L9 32L9 33L13 33L13 34L14 34L14 36L15 36L15 37L16 37L16 38L18 38L18 37L16 37L16 36L19 36L19 35L18 35L18 34L21 34L21 35L22 35L22 36L25 36L25 37L26 37L26 38L27 38L27 34L25 34L25 33L19 33L19 32L22 32L22 31L21 31L21 30L22 30L22 29L23 29L23 28L22 28L22 27L24 27L24 31L23 31L23 32L25 32L25 31L26 31L26 32L28 32L28 33L30 33L30 35L29 35L29 36L28 36L28 37L29 37L29 40L32 40L32 39L30 39L30 38L31 38L31 37L33 37L33 36L32 36L32 35L33 35L33 34L36 34L36 32L38 32L38 34L39 34L39 35L40 35L40 34L41 34L41 32L39 32L39 30L38 30L38 31L37 31L37 29L36 29L36 30L35 30L35 29L33 29L33 27L32 27L32 28L31 28L31 27L29 27L29 24L30 24L30 23L29 23L29 22L31 22L31 21L30 21L30 20L28 20L28 19L27 19L27 21L29 21L29 22L26 22L26 21L25 21L25 20L26 20L26 19L25 19L25 18L24 18L24 17L25 17L25 16L24 16L24 17L22 17L22 16L23 16L23 15L24 15L24 14L22 14L22 12L19 12L19 11L22 11L22 10L21 10L21 9ZM50 9L50 11L51 11L51 9ZM6 10L6 11L7 11L7 10ZM10 10L10 11L11 11L11 10ZM1 11L1 13L2 13L2 11ZM27 11L27 12L26 12L26 13L25 13L25 14L27 14L27 16L26 16L26 17L28 17L28 15L29 15L29 14L27 14L27 13L28 13L28 11ZM20 13L20 17L21 17L21 16L22 16L22 14L21 14L21 13ZM32 13L32 14L33 14L33 13ZM44 13L44 15L48 15L48 16L49 16L49 15L48 15L48 14L45 14L45 13ZM12 15L12 17L13 17L13 18L14 18L14 19L12 19L12 20L13 20L13 22L14 22L14 23L17 23L17 24L16 24L16 25L18 25L18 27L17 27L17 28L18 28L18 29L19 29L19 30L18 30L18 31L20 31L20 29L21 29L21 27L20 27L20 29L19 29L19 28L18 28L18 27L19 27L19 25L20 25L20 26L23 26L23 25L24 25L24 24L28 24L28 23L25 23L25 22L23 22L23 21L24 21L24 18L21 18L21 19L23 19L23 20L21 20L21 21L20 21L20 20L19 20L19 19L20 19L20 18L19 18L19 17L18 17L18 18L19 18L19 19L18 19L18 20L19 20L19 21L18 21L18 23L17 23L17 22L16 22L16 21L15 21L15 20L17 20L17 18L16 18L16 17L14 17L14 16L13 16L13 15ZM6 16L6 17L7 17L7 16ZM30 16L30 18L31 18L31 16ZM36 16L36 17L37 17L37 16ZM14 19L14 20L15 20L15 19ZM34 19L34 20L35 20L35 19ZM40 19L40 20L41 20L41 22L43 22L43 20L42 20L42 19ZM19 21L19 23L20 23L20 21ZM21 21L21 22L22 22L22 21ZM39 21L39 25L40 25L40 24L42 24L42 23L40 23L40 21ZM44 21L44 23L45 23L45 21ZM10 23L10 24L11 24L11 23ZM21 23L21 25L23 25L23 24L22 24L22 23ZM18 24L18 25L19 25L19 24ZM5 25L5 28L8 28L8 25ZM10 25L10 27L11 27L11 25ZM25 25L25 28L28 28L28 25ZM30 25L30 26L31 26L31 25ZM45 25L45 28L48 28L48 25ZM6 26L6 27L7 27L7 26ZM26 26L26 27L27 27L27 26ZM46 26L46 27L47 27L47 26ZM51 26L51 27L52 27L52 26ZM39 28L39 29L40 29L40 30L41 30L41 29L40 29L40 28ZM25 29L25 30L26 30L26 31L27 31L27 29ZM30 29L30 30L29 30L29 32L30 32L30 33L31 33L31 32L32 32L32 33L33 33L33 32L34 32L34 33L35 33L35 32L36 32L36 31L35 31L35 30L33 30L33 29L32 29L32 31L30 31L30 30L31 30L31 29ZM46 29L46 31L47 31L47 29ZM42 30L42 31L43 31L43 30ZM12 31L12 32L13 32L13 31ZM16 31L16 32L17 32L17 31ZM32 31L32 32L33 32L33 31ZM14 32L14 34L15 34L15 32ZM16 33L16 35L15 35L15 36L16 36L16 35L17 35L17 34L18 34L18 33ZM39 33L39 34L40 34L40 33ZM46 33L46 34L47 34L47 33ZM6 34L6 35L7 35L7 34ZM9 34L9 37L10 37L10 36L12 36L12 34ZM22 34L22 35L25 35L25 34ZM31 34L31 35L30 35L30 36L29 36L29 37L30 37L30 36L31 36L31 35L32 35L32 34ZM0 35L0 36L1 36L1 35ZM34 35L34 38L33 38L33 39L36 39L36 38L35 38L35 37L37 37L37 36L35 36L35 35ZM7 37L7 38L8 38L8 37ZM7 39L7 40L6 40L6 41L7 41L7 42L9 42L9 41L7 41L7 40L8 40L8 39ZM25 39L25 40L26 40L26 39ZM27 39L27 40L28 40L28 39ZM38 40L38 42L39 42L39 40ZM31 41L31 44L34 44L34 43L32 43L32 41ZM17 43L17 44L16 44L16 46L15 46L15 47L17 47L17 48L14 48L14 45L15 45L15 44L14 44L14 45L13 45L13 48L14 48L14 49L13 49L13 50L17 50L17 48L18 48L18 51L20 51L20 50L19 50L19 49L20 49L20 48L21 48L21 47L20 47L20 46L19 46L19 44L18 44L18 43ZM52 43L52 44L53 44L53 43ZM17 44L17 46L18 46L18 48L19 48L19 46L18 46L18 44ZM11 45L11 46L12 46L12 45ZM25 45L25 48L28 48L28 45ZM40 45L40 46L41 46L41 47L40 47L40 48L41 48L41 47L42 47L42 46L41 46L41 45ZM45 45L45 48L48 48L48 45ZM52 45L52 46L51 46L51 47L52 47L52 48L53 48L53 45ZM26 46L26 47L27 47L27 46ZM30 46L30 48L31 48L31 46ZM38 46L38 47L39 47L39 46ZM46 46L46 47L47 47L47 46ZM11 47L11 49L12 49L12 47ZM34 48L34 49L35 49L35 48ZM46 49L46 50L45 50L45 51L46 51L46 52L47 52L47 51L46 51L46 50L47 50L47 49ZM48 49L48 50L49 50L49 49ZM27 50L27 51L29 51L29 52L28 52L28 53L34 53L34 52L31 52L31 50L30 50L30 51L29 51L29 50ZM50 50L50 52L52 52L52 50ZM10 51L10 52L11 52L11 51ZM25 51L25 53L26 53L26 51ZM0 0L0 7L7 7L7 0ZM1 1L1 6L6 6L6 1ZM2 2L2 5L5 5L5 2ZM46 0L46 7L53 7L53 0ZM47 1L47 6L52 6L52 1ZM48 2L48 5L51 5L51 2ZM0 46L0 53L7 53L7 46ZM1 47L1 52L6 52L6 47ZM2 48L2 51L5 51L5 48Z" fill="#000000"/></g></g></svg>
