<?xml version="1.0" encoding="UTF-8"?>
<svg xmlns="http://www.w3.org/2000/svg" version="1.1" width="100" height="100" viewBox="0 0 100 100"><rect x="0" y="0" width="100" height="100" fill="#ffffff"/><g transform="scale(1.887)"><g transform="translate(0,0)"><path fill-rule="evenodd" d="M8 0L8 1L9 1L9 2L8 2L8 5L11 5L11 6L10 6L10 7L11 7L11 8L10 8L10 9L9 9L9 8L8 8L8 9L7 9L7 8L6 8L6 9L7 9L7 10L5 10L5 9L4 9L4 8L0 8L0 9L1 9L1 10L0 10L0 12L4 12L4 13L3 13L3 15L7 15L7 14L4 14L4 13L5 13L5 11L7 11L7 10L8 10L8 9L9 9L9 11L8 11L8 12L6 12L6 13L8 13L8 14L9 14L9 16L6 16L6 17L9 17L9 18L4 18L4 17L5 17L5 16L3 16L3 20L4 20L4 22L3 22L3 23L2 23L2 22L1 22L1 21L0 21L0 23L1 23L1 25L0 25L0 26L1 26L1 27L0 27L0 29L1 29L1 28L2 28L2 26L3 26L3 25L4 25L4 27L3 27L3 28L4 28L4 30L5 30L5 31L4 31L4 32L5 32L5 35L7 35L7 34L8 34L8 33L10 33L10 32L5 32L5 31L7 31L7 30L9 30L9 29L10 29L10 31L12 31L12 32L11 32L11 33L13 33L13 34L14 34L14 36L15 36L15 37L14 37L14 40L11 40L11 39L10 39L10 38L9 38L9 36L10 36L10 34L9 34L9 35L8 35L8 37L7 37L7 36L2 36L2 35L3 35L3 34L4 34L4 33L2 33L2 32L1 32L1 30L0 30L0 36L2 36L2 37L5 37L5 38L4 38L4 40L3 40L3 41L2 41L2 42L1 42L1 41L0 41L0 43L1 43L1 44L3 44L3 45L4 45L4 44L3 44L3 43L7 43L7 44L6 44L6 45L8 45L8 46L9 46L9 49L8 49L8 53L10 53L10 51L11 51L11 53L12 53L12 51L15 51L15 52L16 52L16 53L17 53L17 52L16 52L16 51L18 51L18 53L19 53L19 52L20 52L20 53L21 53L21 52L20 52L20 49L21 49L21 48L19 48L19 47L18 47L18 44L21 44L21 43L20 43L20 41L21 41L21 42L23 42L23 44L22 44L22 45L23 45L23 44L24 44L24 47L23 47L23 48L22 48L22 49L23 49L23 50L21 50L21 51L22 51L22 53L23 53L23 51L24 51L24 49L26 49L26 50L25 50L25 53L26 53L26 51L27 51L27 53L28 53L28 52L29 52L29 53L30 53L30 52L31 52L31 53L34 53L34 52L32 52L32 51L29 51L29 50L27 50L27 49L29 49L29 48L30 48L30 49L32 49L32 50L33 50L33 51L35 51L35 52L36 52L36 53L37 53L37 52L38 52L38 53L40 53L40 52L38 52L38 51L42 51L42 53L43 53L43 52L44 52L44 53L47 53L47 52L49 52L49 53L52 53L52 52L53 52L53 50L52 50L52 49L49 49L49 48L50 48L50 45L51 45L51 47L52 47L52 46L53 46L53 45L51 45L51 44L48 44L48 42L47 42L47 41L48 41L48 40L49 40L49 38L50 38L50 39L51 39L51 40L50 40L50 41L52 41L52 42L53 42L53 41L52 41L52 39L53 39L53 38L51 38L51 37L50 37L50 36L52 36L52 37L53 37L53 34L52 34L52 35L51 35L51 34L50 34L50 33L49 33L49 32L50 32L50 31L53 31L53 29L52 29L52 27L53 27L53 25L52 25L52 23L51 23L51 25L50 25L50 23L49 23L49 24L47 24L47 23L46 23L46 22L48 22L48 21L49 21L49 22L50 22L50 21L51 21L51 20L52 20L52 21L53 21L53 18L50 18L50 19L51 19L51 20L50 20L50 21L49 21L49 17L48 17L48 18L47 18L47 16L46 16L46 19L45 19L45 18L44 18L44 17L45 17L45 16L44 16L44 15L48 15L48 16L49 16L49 15L48 15L48 13L49 13L49 14L50 14L50 17L52 17L52 14L53 14L53 13L49 13L49 12L48 12L48 11L47 11L47 9L46 9L46 8L45 8L45 6L44 6L44 7L43 7L43 3L44 3L44 4L45 4L45 3L44 3L44 1L43 1L43 0L42 0L42 1L41 1L41 0L38 0L38 1L39 1L39 3L41 3L41 5L40 5L40 4L37 4L37 2L36 2L36 0L30 0L30 1L32 1L32 2L33 2L33 3L32 3L32 4L31 4L31 3L30 3L30 2L29 2L29 1L28 1L28 0L27 0L27 2L29 2L29 3L30 3L30 7L31 7L31 9L32 9L32 8L33 8L33 9L34 9L34 7L35 7L35 6L36 6L36 8L37 8L37 9L35 9L35 10L31 10L31 11L33 11L33 12L35 12L35 13L34 13L34 14L33 14L33 13L32 13L32 12L30 12L30 11L28 11L28 10L27 10L27 11L26 11L26 10L25 10L25 9L29 9L29 10L30 10L30 9L29 9L29 4L25 4L25 3L24 3L24 2L23 2L23 3L21 3L21 4L18 4L18 3L19 3L19 2L18 2L18 3L17 3L17 2L16 2L16 0L15 0L15 1L14 1L14 0L11 0L11 1L10 1L10 0ZM17 0L17 1L18 1L18 0ZM19 0L19 1L20 1L20 2L22 2L22 1L20 1L20 0ZM23 0L23 1L26 1L26 0ZM11 1L11 2L10 2L10 3L11 3L11 2L12 2L12 3L13 3L13 4L12 4L12 6L11 6L11 7L12 7L12 8L13 8L13 10L15 10L15 11L14 11L14 12L15 12L15 14L14 14L14 16L13 16L13 15L12 15L12 14L13 14L13 13L12 13L12 11L11 11L11 12L10 12L10 13L9 13L9 12L8 12L8 13L9 13L9 14L10 14L10 16L9 16L9 17L10 17L10 19L6 19L6 20L7 20L7 21L6 21L6 22L4 22L4 23L3 23L3 24L2 24L2 25L3 25L3 24L4 24L4 23L5 23L5 24L7 24L7 23L8 23L8 22L7 22L7 21L8 21L8 20L10 20L10 21L11 21L11 20L12 20L12 21L13 21L13 22L12 22L12 23L11 23L11 24L9 24L9 27L10 27L10 29L12 29L12 31L16 31L16 32L17 32L17 33L16 33L16 35L15 35L15 36L16 36L16 37L15 37L15 38L16 38L16 40L14 40L14 44L13 44L13 42L12 42L12 44L13 44L13 45L14 45L14 46L15 46L15 45L14 45L14 44L15 44L15 41L16 41L16 42L17 42L17 41L18 41L18 42L19 42L19 41L18 41L18 39L20 39L20 40L21 40L21 39L20 39L20 38L21 38L21 37L20 37L20 36L22 36L22 37L24 37L24 35L25 35L25 34L27 34L27 38L25 38L25 39L24 39L24 38L23 38L23 39L22 39L22 41L23 41L23 42L24 42L24 41L23 41L23 40L25 40L25 39L26 39L26 40L27 40L27 39L30 39L30 38L31 38L31 37L32 37L32 40L30 40L30 41L32 41L32 43L33 43L33 44L31 44L31 42L27 42L27 41L25 41L25 42L26 42L26 43L25 43L25 44L26 44L26 43L27 43L27 44L29 44L29 47L30 47L30 48L31 48L31 46L33 46L33 47L32 47L32 49L33 49L33 47L35 47L35 48L34 48L34 49L35 49L35 48L36 48L36 51L37 51L37 50L40 50L40 49L41 49L41 50L42 50L42 49L44 49L44 46L41 46L41 45L43 45L43 43L45 43L45 42L43 42L43 43L42 43L42 42L41 42L41 41L43 41L43 40L41 40L41 39L42 39L42 38L44 38L44 39L45 39L45 37L46 37L46 41L47 41L47 39L48 39L48 38L47 38L47 37L48 37L48 36L50 36L50 34L49 34L49 33L48 33L48 32L49 32L49 31L50 31L50 30L51 30L51 27L52 27L52 26L51 26L51 27L50 27L50 25L49 25L49 29L48 29L48 31L47 31L47 29L46 29L46 31L47 31L47 33L48 33L48 36L47 36L47 35L46 35L46 33L45 33L45 32L44 32L44 31L45 31L45 30L43 30L43 29L42 29L42 27L44 27L44 24L45 24L45 22L46 22L46 20L47 20L47 21L48 21L48 20L47 20L47 19L46 19L46 20L45 20L45 21L44 21L44 20L43 20L43 19L42 19L42 18L41 18L41 17L39 17L39 16L40 16L40 14L38 14L38 17L39 17L39 18L37 18L37 17L36 17L36 16L37 16L37 14L36 14L36 15L33 15L33 14L32 14L32 13L29 13L29 12L25 12L25 10L24 10L24 11L23 11L23 9L24 9L24 8L22 8L22 6L21 6L21 5L22 5L22 4L21 4L21 5L20 5L20 6L19 6L19 5L18 5L18 4L17 4L17 3L16 3L16 2L15 2L15 3L16 3L16 4L15 4L15 5L16 5L16 6L15 6L15 7L14 7L14 5L13 5L13 4L14 4L14 2L13 2L13 1ZM33 1L33 2L35 2L35 3L36 3L36 2L35 2L35 1ZM40 1L40 2L41 2L41 1ZM42 2L42 3L43 3L43 2ZM16 4L16 5L17 5L17 6L16 6L16 7L17 7L17 6L18 6L18 7L19 7L19 10L20 10L20 8L21 8L21 11L22 11L22 12L19 12L19 11L17 11L17 9L18 9L18 8L16 8L16 11L15 11L15 12L16 12L16 13L17 13L17 14L15 14L15 15L17 15L17 16L18 16L18 15L17 15L17 14L19 14L19 16L20 16L20 17L19 17L19 18L17 18L17 17L16 17L16 16L14 16L14 17L16 17L16 18L17 18L17 21L16 21L16 22L19 22L19 23L20 23L20 22L21 22L21 25L20 25L20 24L19 24L19 26L20 26L20 27L21 27L21 29L20 29L20 28L19 28L19 27L18 27L18 26L17 26L17 25L16 25L16 24L18 24L18 23L14 23L14 22L13 22L13 23L12 23L12 24L11 24L11 26L10 26L10 27L11 27L11 26L12 26L12 28L13 28L13 25L14 25L14 26L17 26L17 27L16 27L16 28L15 28L15 30L16 30L16 31L19 31L19 32L18 32L18 34L19 34L19 35L16 35L16 36L17 36L17 37L16 37L16 38L17 38L17 39L18 39L18 38L19 38L19 35L20 35L20 34L21 34L21 35L22 35L22 36L23 36L23 35L24 35L24 34L23 34L23 35L22 35L22 34L21 34L21 33L20 33L20 34L19 34L19 32L21 32L21 29L23 29L23 28L22 28L22 27L24 27L24 29L25 29L25 31L26 31L26 32L27 32L27 31L29 31L29 30L30 30L30 31L31 31L31 27L30 27L30 25L32 25L32 24L33 24L33 25L34 25L34 26L33 26L33 27L35 27L35 29L34 29L34 28L33 28L33 29L32 29L32 30L33 30L33 31L32 31L32 32L28 32L28 33L31 33L31 34L32 34L32 35L33 35L33 36L32 36L32 37L35 37L35 40L33 40L33 41L35 41L35 42L36 42L36 43L35 43L35 46L38 46L38 45L36 45L36 43L37 43L37 44L39 44L39 43L38 43L38 42L37 42L37 41L36 41L36 37L37 37L37 38L39 38L39 39L41 39L41 38L40 38L40 37L38 37L38 36L36 36L36 35L33 35L33 34L36 34L36 32L37 32L37 34L38 34L38 35L39 35L39 36L42 36L42 35L43 35L43 37L44 37L44 36L45 36L45 35L43 35L43 32L42 32L42 35L40 35L40 34L41 34L41 32L39 32L39 31L40 31L40 29L39 29L39 28L40 28L40 27L42 27L42 26L43 26L43 25L40 25L40 24L42 24L42 23L40 23L40 22L39 22L39 21L41 21L41 19L40 19L40 18L39 18L39 19L38 19L38 23L39 23L39 25L38 25L38 24L37 24L37 23L34 23L34 22L37 22L37 20L36 20L36 19L37 19L37 18L34 18L34 17L33 17L33 16L31 16L31 15L26 15L26 14L29 14L29 13L25 13L25 12L23 12L23 11L22 11L22 8L21 8L21 6L20 6L20 7L19 7L19 6L18 6L18 5L17 5L17 4ZM23 4L23 5L24 5L24 4ZM32 4L32 6L31 6L31 7L32 7L32 6L33 6L33 7L34 7L34 5L35 5L35 4L34 4L34 5L33 5L33 4ZM36 4L36 6L37 6L37 7L38 7L38 6L39 6L39 8L38 8L38 9L37 9L37 10L35 10L35 12L36 12L36 11L37 11L37 12L40 12L40 11L41 11L41 10L42 10L42 8L43 8L43 9L44 9L44 11L42 11L42 12L41 12L41 15L44 15L44 14L46 14L46 12L45 12L45 10L46 10L46 9L45 9L45 8L43 8L43 7L42 7L42 6L41 6L41 8L40 8L40 6L39 6L39 5L37 5L37 4ZM25 5L25 8L28 8L28 5ZM8 6L8 7L9 7L9 6ZM12 6L12 7L13 7L13 6ZM23 6L23 7L24 7L24 6ZM26 6L26 7L27 7L27 6ZM14 8L14 9L15 9L15 8ZM39 8L39 9L38 9L38 10L37 10L37 11L40 11L40 8ZM48 8L48 9L49 9L49 10L50 10L50 11L51 11L51 12L53 12L53 10L52 10L52 9L53 9L53 8L52 8L52 9L51 9L51 8ZM2 9L2 10L3 10L3 9ZM10 9L10 10L12 10L12 9ZM50 9L50 10L51 10L51 9ZM16 11L16 12L17 12L17 13L19 13L19 12L17 12L17 11ZM22 12L22 14L23 14L23 15L22 15L22 16L23 16L23 17L24 17L24 18L21 18L21 19L24 19L24 21L26 21L26 22L27 22L27 23L25 23L25 22L23 22L23 20L20 20L20 19L18 19L18 20L19 20L19 22L20 22L20 21L21 21L21 22L22 22L22 25L23 25L23 23L24 23L24 24L27 24L27 23L30 23L30 24L29 24L29 25L30 25L30 24L31 24L31 22L28 22L28 21L27 21L27 19L28 19L28 20L30 20L30 21L32 21L32 22L34 22L34 20L35 20L35 21L36 21L36 20L35 20L35 19L34 19L34 20L33 20L33 17L32 17L32 19L31 19L31 18L30 18L30 17L29 17L29 16L28 16L28 17L24 17L24 16L23 16L23 15L24 15L24 14L25 14L25 13L23 13L23 12ZM42 12L42 13L44 13L44 12ZM0 13L0 16L1 16L1 17L2 17L2 14L1 14L1 13ZM10 13L10 14L12 14L12 13ZM20 13L20 16L21 16L21 13ZM11 15L11 16L10 16L10 17L11 17L11 19L12 19L12 20L13 20L13 19L14 19L14 20L15 20L15 19L14 19L14 18L13 18L13 19L12 19L12 17L11 17L11 16L12 16L12 15ZM25 15L25 16L26 16L26 15ZM43 16L43 17L44 17L44 16ZM0 19L0 20L1 20L1 19ZM25 19L25 20L26 20L26 19ZM39 19L39 20L40 20L40 19ZM43 21L43 23L44 23L44 21ZM6 22L6 23L7 23L7 22ZM9 22L9 23L10 23L10 22ZM12 24L12 25L13 25L13 24ZM5 25L5 28L8 28L8 25ZM25 25L25 28L28 28L28 25ZM35 25L35 26L36 26L36 27L37 27L37 26L36 26L36 25ZM39 25L39 26L38 26L38 28L39 28L39 26L40 26L40 25ZM45 25L45 28L48 28L48 25ZM6 26L6 27L7 27L7 26ZM26 26L26 27L27 27L27 26ZM46 26L46 27L47 27L47 26ZM17 27L17 28L18 28L18 27ZM2 29L2 31L3 31L3 29ZM6 29L6 30L7 30L7 29ZM17 29L17 30L19 30L19 31L20 31L20 29ZM26 29L26 31L27 31L27 29ZM37 29L37 30L39 30L39 29ZM34 30L34 31L33 31L33 32L32 32L32 33L33 33L33 32L34 32L34 33L35 33L35 32L36 32L36 30ZM42 30L42 31L43 31L43 30ZM14 32L14 34L15 34L15 32ZM38 32L38 34L40 34L40 33L39 33L39 32ZM51 32L51 33L53 33L53 32ZM6 33L6 34L7 34L7 33ZM44 33L44 34L45 34L45 33ZM11 34L11 36L12 36L12 34ZM28 34L28 37L29 37L29 36L30 36L30 37L31 37L31 36L30 36L30 35L29 35L29 34ZM25 36L25 37L26 37L26 36ZM0 37L0 38L1 38L1 37ZM6 37L6 38L7 38L7 37ZM11 37L11 38L12 38L12 37ZM17 37L17 38L18 38L18 37ZM33 38L33 39L34 39L34 38ZM1 39L1 40L2 40L2 39ZM5 39L5 42L7 42L7 41L6 41L6 40L7 40L7 39ZM37 39L37 40L38 40L38 41L39 41L39 40L38 40L38 39ZM8 40L8 41L9 41L9 42L8 42L8 45L9 45L9 46L10 46L10 47L12 47L12 48L11 48L11 49L10 49L10 50L9 50L9 51L10 51L10 50L11 50L11 49L12 49L12 50L14 50L14 49L15 49L15 51L16 51L16 50L18 50L18 51L19 51L19 48L18 48L18 49L17 49L17 48L16 48L16 49L15 49L15 48L13 48L13 47L12 47L12 46L10 46L10 45L11 45L11 44L9 44L9 43L11 43L11 41L9 41L9 40ZM28 40L28 41L29 41L29 40ZM3 41L3 42L2 42L2 43L3 43L3 42L4 42L4 41ZM49 42L49 43L51 43L51 42ZM17 43L17 44L18 44L18 43ZM46 43L46 44L47 44L47 43ZM52 43L52 44L53 44L53 43ZM33 44L33 45L34 45L34 44ZM40 44L40 45L41 45L41 44ZM19 45L19 46L20 46L20 47L22 47L22 46L21 46L21 45ZM25 45L25 48L28 48L28 45ZM45 45L45 48L48 48L48 45ZM26 46L26 47L27 47L27 46ZM39 46L39 47L40 47L40 48L41 48L41 47L40 47L40 46ZM46 46L46 47L47 47L47 46ZM36 47L36 48L37 48L37 49L39 49L39 48L37 48L37 47ZM12 48L12 49L13 49L13 48ZM46 49L46 50L44 50L44 51L46 51L46 52L47 52L47 51L46 51L46 50L47 50L47 49ZM48 49L48 50L49 50L49 49ZM50 50L50 52L52 52L52 50ZM0 0L0 7L7 7L7 0ZM1 1L1 6L6 6L6 1ZM2 2L2 5L5 5L5 2ZM46 0L46 7L53 7L53 0ZM47 1L47 6L52 6L52 1ZM48 2L48 5L51 5L51 2ZM0 46L0 53L7 53L7 46ZM1 47L1 52L6 52L6 47ZM2 48L2 51L5 51L5 48Z" fill="#000000"/></g></g></svg>
