<?xml version="1.0" encoding="UTF-8"?>
<svg xmlns="http://www.w3.org/2000/svg" version="1.1" width="100" height="100" viewBox="0 0 100 100"><rect x="0" y="0" width="100" height="100" fill="#ffffff"/><g transform="scale(1.754)"><g transform="translate(0,0)"><path fill-rule="evenodd" d="M8 0L8 4L9 4L9 5L8 5L8 7L9 7L9 6L10 6L10 7L11 7L11 8L10 8L10 9L7 9L7 8L4 8L4 11L1 11L1 12L0 12L0 13L1 13L1 12L3 12L3 14L0 14L0 16L1 16L1 15L2 15L2 16L3 16L3 17L4 17L4 19L3 19L3 18L2 18L2 17L1 17L1 18L0 18L0 19L3 19L3 20L1 20L1 21L0 21L0 22L1 22L1 21L2 21L2 22L3 22L3 21L4 21L4 22L5 22L5 23L7 23L7 24L6 24L6 25L7 25L7 26L3 26L3 24L4 24L4 23L3 23L3 24L2 24L2 23L1 23L1 25L0 25L0 27L1 27L1 28L0 28L0 30L1 30L1 31L0 31L0 32L1 32L1 33L0 33L0 36L1 36L1 38L2 38L2 37L4 37L4 38L3 38L3 39L2 39L2 40L1 40L1 41L0 41L0 45L1 45L1 46L0 46L0 48L5 48L5 47L7 47L7 48L6 48L6 49L8 49L8 50L9 50L9 51L8 51L8 53L9 53L9 52L12 52L12 51L10 51L10 50L13 50L13 52L15 52L15 53L16 53L16 52L17 52L17 53L18 53L18 54L16 54L16 55L14 55L14 53L12 53L12 54L13 54L13 55L14 55L14 56L10 56L10 55L11 55L11 53L10 53L10 55L8 55L8 57L15 57L15 56L17 56L17 55L18 55L18 57L21 57L21 54L22 54L22 55L25 55L25 57L28 57L28 55L29 55L29 56L30 56L30 57L34 57L34 56L35 56L35 57L39 57L39 56L40 56L40 57L41 57L41 54L43 54L43 56L44 56L44 57L45 57L45 55L46 55L46 57L47 57L47 55L48 55L48 57L49 57L49 56L50 56L50 57L52 57L52 55L48 55L48 54L49 54L49 53L50 53L50 54L53 54L53 55L54 55L54 56L53 56L53 57L55 57L55 56L56 56L56 57L57 57L57 55L54 55L54 54L55 54L55 48L56 48L56 50L57 50L57 47L56 47L56 46L55 46L55 45L57 45L57 43L55 43L55 41L56 41L56 42L57 42L57 41L56 41L56 40L57 40L57 39L56 39L56 38L57 38L57 34L55 34L55 32L56 32L56 33L57 33L57 31L56 31L56 30L55 30L55 29L54 29L54 28L55 28L55 27L57 27L57 24L53 24L53 23L54 23L54 22L57 22L57 20L56 20L56 21L55 21L55 19L57 19L57 18L56 18L56 17L57 17L57 16L56 16L56 17L55 17L55 16L54 16L54 17L53 17L53 15L54 15L54 14L55 14L55 15L57 15L57 14L56 14L56 13L57 13L57 10L56 10L56 9L57 9L57 8L53 8L53 10L52 10L52 12L51 12L51 13L52 13L52 15L51 15L51 16L50 16L50 15L49 15L49 14L50 14L50 13L49 13L49 12L47 12L47 11L46 11L46 13L47 13L47 14L46 14L46 16L47 16L47 15L49 15L49 16L50 16L50 18L49 18L49 19L50 19L50 18L52 18L52 21L51 21L51 22L49 22L49 24L50 24L50 23L51 23L51 22L52 22L52 24L51 24L51 25L52 25L52 24L53 24L53 25L54 25L54 26L50 26L50 25L48 25L48 24L47 24L47 23L48 23L48 22L47 22L47 23L46 23L46 21L50 21L50 20L47 20L47 19L48 19L48 17L45 17L45 15L44 15L44 14L45 14L45 12L44 12L44 10L45 10L45 9L46 9L46 8L47 8L47 10L48 10L48 11L50 11L50 10L51 10L51 9L52 9L52 8L51 8L51 9L50 9L50 10L49 10L49 9L48 9L48 7L49 7L49 6L48 6L48 7L47 7L47 5L48 5L48 0L45 0L45 1L42 1L42 2L43 2L43 5L44 5L44 9L43 9L43 8L41 8L41 6L40 6L40 5L41 5L41 3L39 3L39 4L38 4L38 2L40 2L40 1L39 1L39 0L38 0L38 1L37 1L37 0L36 0L36 1L35 1L35 0L33 0L33 1L30 1L30 2L31 2L31 3L30 3L30 4L26 4L26 1L27 1L27 2L28 2L28 3L29 3L29 2L28 2L28 0L25 0L25 4L26 4L26 5L25 5L25 6L24 6L24 4L23 4L23 6L22 6L22 7L23 7L23 10L21 10L21 9L20 9L20 8L19 8L19 9L20 9L20 10L18 10L18 11L17 11L17 10L16 10L16 8L14 8L14 9L13 9L13 5L14 5L14 7L15 7L15 5L16 5L16 7L17 7L17 8L18 8L18 7L19 7L19 5L20 5L20 7L21 7L21 5L22 5L22 3L21 3L21 4L20 4L20 1L21 1L21 2L22 2L22 1L24 1L24 0L19 0L19 1L16 1L16 0L13 0L13 1L14 1L14 3L13 3L13 4L12 4L12 5L11 5L11 3L12 3L12 2L11 2L11 3L10 3L10 2L9 2L9 0ZM10 0L10 1L12 1L12 0ZM33 1L33 3L34 3L34 1ZM46 1L46 2L47 2L47 1ZM15 2L15 3L16 3L16 2ZM23 2L23 3L24 3L24 2ZM17 3L17 4L18 4L18 5L19 5L19 4L18 4L18 3ZM35 3L35 5L34 5L34 6L33 6L33 7L32 7L32 6L31 6L31 9L32 9L32 8L34 8L34 6L35 6L35 8L37 8L37 9L39 9L39 10L38 10L38 12L37 12L37 10L35 10L35 11L36 11L36 12L37 12L37 13L36 13L36 15L35 15L35 14L34 14L34 15L33 15L33 14L32 14L32 15L31 15L31 13L30 13L30 12L31 12L31 11L30 11L30 10L29 10L29 9L27 9L27 11L26 11L26 9L25 9L25 8L26 8L26 6L25 6L25 7L24 7L24 6L23 6L23 7L24 7L24 9L25 9L25 11L24 11L24 10L23 10L23 12L21 12L21 10L20 10L20 14L18 14L18 13L19 13L19 12L18 12L18 13L17 13L17 15L20 15L20 16L18 16L18 17L17 17L17 16L16 16L16 15L15 15L15 14L14 14L14 13L13 13L13 11L14 11L14 12L15 12L15 13L16 13L16 10L13 10L13 9L12 9L12 8L11 8L11 9L10 9L10 10L9 10L9 12L10 12L10 15L9 15L9 16L8 16L8 15L6 15L6 14L8 14L8 10L7 10L7 9L6 9L6 10L5 10L5 12L4 12L4 13L5 13L5 15L3 15L3 16L4 16L4 17L5 17L5 16L7 16L7 17L6 17L6 18L5 18L5 19L6 19L6 20L4 20L4 21L6 21L6 22L9 22L9 23L10 23L10 25L11 25L11 26L9 26L9 28L10 28L10 29L11 29L11 28L10 28L10 27L12 27L12 28L13 28L13 29L12 29L12 32L11 32L11 30L9 30L9 31L10 31L10 32L8 32L8 31L6 31L6 32L5 32L5 31L4 31L4 33L6 33L6 34L3 34L3 36L5 36L5 38L7 38L7 39L6 39L6 40L5 40L5 39L4 39L4 40L5 40L5 42L4 42L4 43L6 43L6 44L8 44L8 43L6 43L6 42L7 42L7 41L8 41L8 42L9 42L9 43L10 43L10 41L8 41L8 40L7 40L7 39L8 39L8 37L9 37L9 36L11 36L11 35L13 35L13 36L12 36L12 37L10 37L10 39L9 39L9 40L10 40L10 39L11 39L11 41L12 41L12 42L11 42L11 43L12 43L12 42L13 42L13 41L15 41L15 40L16 40L16 42L15 42L15 43L18 43L18 41L17 41L17 40L20 40L20 41L19 41L19 43L20 43L20 44L18 44L18 45L17 45L17 46L16 46L16 47L14 47L14 45L15 45L15 44L14 44L14 45L13 45L13 44L11 44L11 45L5 45L5 46L3 46L3 45L2 45L2 46L1 46L1 47L2 47L2 46L3 46L3 47L5 47L5 46L8 46L8 48L10 48L10 49L11 49L11 48L12 48L12 49L13 49L13 50L14 50L14 51L15 51L15 48L16 48L16 47L19 47L19 46L20 46L20 45L22 45L22 46L21 46L21 47L20 47L20 48L19 48L19 49L18 49L18 48L17 48L17 49L18 49L18 50L16 50L16 51L18 51L18 52L21 52L21 53L19 53L19 54L18 54L18 55L20 55L20 54L21 54L21 53L22 53L22 54L24 54L24 53L26 53L26 56L27 56L27 54L28 54L28 53L26 53L26 51L24 51L24 50L23 50L23 49L24 49L24 48L25 48L25 50L26 50L26 48L28 48L28 46L29 46L29 47L30 47L30 48L31 48L31 46L29 46L29 44L28 44L28 42L29 42L29 43L30 43L30 44L31 44L31 45L32 45L32 47L34 47L34 46L35 46L35 47L37 47L37 46L38 46L38 48L39 48L39 49L37 49L37 48L35 48L35 49L33 49L33 50L32 50L32 49L31 49L31 50L32 50L32 51L31 51L31 53L32 53L32 54L31 54L31 55L33 55L33 56L34 56L34 55L35 55L35 56L37 56L37 53L38 53L38 52L39 52L39 51L40 51L40 52L43 52L43 50L44 50L44 51L45 51L45 53L44 53L44 55L45 55L45 53L46 53L46 55L47 55L47 54L48 54L48 50L47 50L47 52L46 52L46 51L45 51L45 50L46 50L46 49L45 49L45 46L44 46L44 49L43 49L43 50L42 50L42 51L40 51L40 50L41 50L41 49L42 49L42 48L43 48L43 45L44 45L44 44L43 44L43 42L44 42L44 43L45 43L45 45L46 45L46 42L48 42L48 45L47 45L47 46L46 46L46 47L47 47L47 49L48 49L48 48L50 48L50 47L49 47L49 45L50 45L50 44L49 44L49 43L51 43L51 45L52 45L52 43L51 43L51 41L50 41L50 40L52 40L52 41L54 41L54 40L56 40L56 39L54 39L54 36L52 36L52 35L54 35L54 33L53 33L53 32L52 32L52 31L50 31L50 32L49 32L49 33L48 33L48 34L49 34L49 35L48 35L48 36L46 36L46 35L47 35L47 32L46 32L46 26L47 26L47 28L48 28L48 26L47 26L47 24L46 24L46 23L45 23L45 21L46 21L46 19L47 19L47 18L46 18L46 19L45 19L45 18L44 18L44 19L43 19L43 13L44 13L44 12L43 12L43 11L40 11L40 10L41 10L41 8L40 8L40 6L39 6L39 7L38 7L38 4L36 4L36 3ZM46 3L46 4L44 4L44 5L45 5L45 8L46 8L46 5L47 5L47 3ZM14 4L14 5L15 5L15 4ZM32 4L32 5L33 5L33 4ZM39 4L39 5L40 5L40 4ZM27 5L27 8L30 8L30 5ZM35 5L35 6L36 6L36 7L37 7L37 5ZM11 6L11 7L12 7L12 6ZM17 6L17 7L18 7L18 6ZM28 6L28 7L29 7L29 6ZM42 6L42 7L43 7L43 6ZM0 8L0 10L3 10L3 9L2 9L2 8ZM39 8L39 9L40 9L40 8ZM33 9L33 10L32 10L32 13L34 13L34 12L33 12L33 11L34 11L34 9ZM54 9L54 10L53 10L53 12L52 12L52 13L56 13L56 12L54 12L54 10L55 10L55 11L56 11L56 10L55 10L55 9ZM6 10L6 11L7 11L7 10ZM10 10L10 12L11 12L11 10ZM12 10L12 11L13 11L13 10ZM28 10L28 15L27 15L27 13L26 13L26 16L24 16L24 17L21 17L21 16L23 16L23 15L24 15L24 14L25 14L25 12L23 12L23 13L24 13L24 14L22 14L22 15L21 15L21 14L20 14L20 15L21 15L21 16L20 16L20 18L19 18L19 17L18 17L18 18L19 18L19 19L18 19L18 20L19 20L19 21L22 21L22 24L24 24L24 25L26 25L26 27L25 27L25 28L26 28L26 30L22 30L22 32L23 32L23 33L22 33L22 35L21 35L21 32L20 32L20 31L16 31L16 32L19 32L19 33L17 33L17 34L19 34L19 36L20 36L20 37L18 37L18 35L16 35L16 33L15 33L15 31L14 31L14 30L13 30L13 31L14 31L14 32L12 32L12 33L15 33L15 34L14 34L14 35L16 35L16 36L17 36L17 37L15 37L15 36L14 36L14 37L12 37L12 38L11 38L11 39L12 39L12 41L13 41L13 40L14 40L14 38L15 38L15 39L16 39L16 38L19 38L19 39L20 39L20 38L22 38L22 39L21 39L21 40L22 40L22 41L23 41L23 38L24 38L24 39L25 39L25 37L24 37L24 36L23 36L23 35L25 35L25 34L26 34L26 37L27 37L27 35L28 35L28 36L29 36L29 38L30 38L30 37L31 37L31 40L29 40L29 39L26 39L26 40L28 40L28 41L26 41L26 42L28 42L28 41L30 41L30 42L31 42L31 43L32 43L32 45L35 45L35 44L37 44L37 45L38 45L38 44L37 44L37 43L36 43L36 41L35 41L35 38L34 38L34 41L33 41L33 40L32 40L32 32L33 32L33 31L32 31L32 30L33 30L33 28L32 28L32 29L31 29L31 26L30 26L30 25L31 25L31 24L32 24L32 25L33 25L33 26L34 26L34 25L35 25L35 26L39 26L39 24L38 24L38 23L40 23L40 25L42 25L42 26L40 26L40 27L39 27L39 28L40 28L40 29L41 29L41 27L44 27L44 30L43 30L43 29L42 29L42 30L43 30L43 31L44 31L44 32L45 32L45 31L44 31L44 30L45 30L45 27L44 27L44 24L45 24L45 26L46 26L46 24L45 24L45 23L44 23L44 21L45 21L45 20L44 20L44 21L43 21L43 20L38 20L38 18L39 18L39 17L40 17L40 19L41 19L41 17L42 17L42 16L41 16L41 17L40 17L40 15L41 15L41 14L42 14L42 13L41 13L41 12L40 12L40 11L39 11L39 13L37 13L37 14L38 14L38 15L37 15L37 20L38 20L38 21L37 21L37 22L38 22L38 23L36 23L36 25L35 25L35 23L34 23L34 22L35 22L35 18L36 18L36 17L35 17L35 18L34 18L34 17L33 17L33 19L32 19L32 17L30 17L30 16L28 16L28 15L30 15L30 13L29 13L29 10ZM6 12L6 13L7 13L7 12ZM11 13L11 15L10 15L10 16L11 16L11 18L10 18L10 17L9 17L9 18L6 18L6 19L7 19L7 20L6 20L6 21L7 21L7 20L8 20L8 21L10 21L10 23L12 23L12 24L13 24L13 26L14 26L14 27L13 27L13 28L14 28L14 29L15 29L15 30L16 30L16 29L17 29L17 30L19 30L19 28L20 28L20 29L23 29L23 28L22 28L22 27L21 27L21 28L20 28L20 26L21 26L21 22L20 22L20 23L19 23L19 24L18 24L18 26L17 26L17 25L16 25L16 26L17 26L17 27L15 27L15 26L14 26L14 25L15 25L15 24L17 24L17 22L16 22L16 23L14 23L14 24L13 24L13 22L15 22L15 21L16 21L16 20L17 20L17 19L16 19L16 18L15 18L15 17L16 17L16 16L14 16L14 18L13 18L13 15L14 15L14 14L13 14L13 13ZM39 13L39 15L38 15L38 16L39 16L39 15L40 15L40 14L41 14L41 13ZM48 13L48 14L49 14L49 13ZM11 15L11 16L12 16L12 15ZM34 15L34 16L35 16L35 15ZM26 16L26 17L24 17L24 18L25 18L25 19L23 19L23 20L25 20L25 21L24 21L24 22L23 22L23 23L24 23L24 24L26 24L26 21L28 21L28 20L26 20L26 17L28 17L28 18L27 18L27 19L28 19L28 18L30 18L30 19L29 19L29 21L30 21L30 22L29 22L29 23L28 23L28 25L30 25L30 24L31 24L31 22L32 22L32 24L34 24L34 23L33 23L33 22L34 22L34 21L30 21L30 20L31 20L31 18L30 18L30 17L28 17L28 16ZM51 16L51 17L52 17L52 16ZM11 18L11 20L10 20L10 19L8 19L8 20L10 20L10 21L11 21L11 22L13 22L13 21L15 21L15 20L16 20L16 19L15 19L15 20L14 20L14 19L12 19L12 18ZM21 18L21 19L20 19L20 20L21 20L21 19L22 19L22 18ZM33 19L33 20L34 20L34 19ZM11 20L11 21L12 21L12 20ZM38 21L38 22L40 22L40 21ZM41 21L41 22L42 22L42 23L41 23L41 24L43 24L43 21ZM24 22L24 23L25 23L25 22ZM7 24L7 25L8 25L8 24ZM19 24L19 25L20 25L20 24ZM37 24L37 25L38 25L38 24ZM1 25L1 27L2 27L2 28L1 28L1 30L2 30L2 31L3 31L3 30L4 30L4 29L3 29L3 27L2 27L2 25ZM22 25L22 26L23 26L23 27L24 27L24 26L23 26L23 25ZM55 25L55 26L56 26L56 25ZM18 26L18 27L17 27L17 29L18 29L18 28L19 28L19 26ZM5 27L5 30L8 30L8 27ZM27 27L27 30L30 30L30 27ZM34 27L34 29L38 29L38 27L36 27L36 28L35 28L35 27ZM49 27L49 30L52 30L52 27ZM53 27L53 28L54 28L54 27ZM6 28L6 29L7 29L7 28ZM28 28L28 29L29 29L29 28ZM50 28L50 29L51 29L51 28ZM56 28L56 29L57 29L57 28ZM2 29L2 30L3 30L3 29ZM47 29L47 31L48 31L48 29ZM37 30L37 31L38 31L38 30ZM40 30L40 31L39 31L39 32L41 32L41 30ZM53 30L53 31L54 31L54 32L55 32L55 30ZM23 31L23 32L26 32L26 34L27 34L27 33L29 33L29 34L28 34L28 35L30 35L30 34L31 34L31 33L29 33L29 32L31 32L31 31L29 31L29 32L28 32L28 31L27 31L27 32L26 32L26 31ZM34 31L34 32L35 32L35 31ZM6 32L6 33L7 33L7 34L6 34L6 35L5 35L5 36L6 36L6 37L8 37L8 36L9 36L9 35L11 35L11 33L8 33L8 32ZM36 32L36 34L39 34L39 35L41 35L41 34L42 34L42 33L43 33L43 36L42 36L42 37L39 37L39 36L38 36L38 35L37 35L37 36L36 36L36 37L38 37L38 38L37 38L37 40L38 40L38 43L39 43L39 46L40 46L40 49L41 49L41 46L40 46L40 43L42 43L42 42L43 42L43 41L42 41L42 39L41 39L41 38L42 38L42 37L43 37L43 38L44 38L44 37L43 37L43 36L45 36L45 35L44 35L44 34L45 34L45 33L43 33L43 32L42 32L42 33L37 33L37 32ZM50 32L50 33L51 33L51 34L50 34L50 35L49 35L49 36L50 36L50 38L49 38L49 37L47 37L47 38L46 38L46 37L45 37L45 39L44 39L44 42L46 42L46 40L48 40L48 41L49 41L49 42L50 42L50 41L49 41L49 39L50 39L50 38L51 38L51 36L50 36L50 35L52 35L52 34L53 34L53 33L52 33L52 32ZM1 33L1 35L2 35L2 33ZM24 33L24 34L25 34L25 33ZM34 33L34 36L33 36L33 37L34 37L34 36L35 36L35 33ZM6 35L6 36L8 36L8 35ZM20 35L20 36L21 36L21 37L23 37L23 36L21 36L21 35ZM55 35L55 36L56 36L56 35ZM52 37L52 40L53 40L53 37ZM39 38L39 39L38 39L38 40L41 40L41 39L40 39L40 38ZM48 38L48 39L49 39L49 38ZM45 39L45 40L46 40L46 39ZM6 40L6 41L7 41L7 40ZM31 40L31 42L32 42L32 43L35 43L35 41L34 41L34 42L32 42L32 40ZM1 41L1 43L2 43L2 44L3 44L3 41ZM24 41L24 42L25 42L25 41ZM39 41L39 43L40 43L40 42L42 42L42 41ZM21 42L21 43L22 43L22 44L23 44L23 46L22 46L22 47L21 47L21 50L20 50L20 51L21 51L21 52L23 52L23 53L24 53L24 52L23 52L23 50L22 50L22 49L23 49L23 47L24 47L24 45L25 45L25 44L23 44L23 42ZM27 44L27 45L26 45L26 46L27 46L27 45L28 45L28 44ZM53 44L53 49L54 49L54 48L55 48L55 47L54 47L54 44ZM12 45L12 46L13 46L13 45ZM18 45L18 46L19 46L19 45ZM47 46L47 47L48 47L48 46ZM13 47L13 48L14 48L14 47ZM51 47L51 48L52 48L52 47ZM27 49L27 52L30 52L30 49ZM49 49L49 52L52 52L52 49ZM21 50L21 51L22 51L22 50ZM28 50L28 51L29 51L29 50ZM33 50L33 51L32 51L32 52L33 52L33 53L36 53L36 52L35 52L35 50ZM37 50L37 52L38 52L38 50ZM50 50L50 51L51 51L51 50ZM53 50L53 51L54 51L54 50ZM56 51L56 54L57 54L57 51ZM39 53L39 54L38 54L38 56L39 56L39 55L40 55L40 53ZM29 54L29 55L30 55L30 54ZM33 54L33 55L34 55L34 54ZM22 56L22 57L24 57L24 56ZM0 0L0 7L7 7L7 0ZM1 1L1 6L6 6L6 1ZM2 2L2 5L5 5L5 2ZM50 0L50 7L57 7L57 0ZM51 1L51 6L56 6L56 1ZM52 2L52 5L55 5L55 2ZM0 50L0 57L7 57L7 50ZM1 51L1 56L6 56L6 51ZM2 52L2 55L5 55L5 52Z" fill="#000000"/></g></g></svg>
