<?xml version="1.0" encoding="UTF-8"?>
<svg xmlns="http://www.w3.org/2000/svg" version="1.1" width="100" height="100" viewBox="0 0 100 100"><rect x="0" y="0" width="100" height="100" fill="#ffffff"/><g transform="scale(1.887)"><g transform="translate(0,0)"><path fill-rule="evenodd" d="M8 0L8 1L10 1L10 2L9 2L9 4L10 4L10 5L9 5L9 6L8 6L8 8L10 8L10 10L9 10L9 9L8 9L8 10L6 10L6 11L4 11L4 10L5 10L5 8L3 8L3 9L4 9L4 10L1 10L1 9L2 9L2 8L0 8L0 11L2 11L2 12L0 12L0 13L1 13L1 14L2 14L2 15L1 15L1 17L0 17L0 18L1 18L1 19L0 19L0 20L1 20L1 22L3 22L3 21L2 21L2 20L3 20L3 19L4 19L4 20L5 20L5 21L7 21L7 22L5 22L5 23L7 23L7 24L4 24L4 23L2 23L2 24L1 24L1 23L0 23L0 25L1 25L1 26L2 26L2 27L3 27L3 29L1 29L1 27L0 27L0 29L1 29L1 30L0 30L0 31L1 31L1 32L0 32L0 34L1 34L1 35L0 35L0 37L1 37L1 36L2 36L2 34L3 34L3 35L4 35L4 34L5 34L5 35L7 35L7 36L3 36L3 37L2 37L2 39L3 39L3 38L4 38L4 39L5 39L5 40L6 40L6 41L9 41L9 42L10 42L10 43L8 43L8 42L4 42L4 40L3 40L3 41L2 41L2 40L1 40L1 38L0 38L0 43L1 43L1 44L3 44L3 45L4 45L4 44L3 44L3 43L7 43L7 44L6 44L6 45L7 45L7 44L8 44L8 46L9 46L9 44L10 44L10 46L14 46L14 48L13 48L13 47L12 47L12 48L11 48L11 47L10 47L10 48L8 48L8 50L9 50L9 49L10 49L10 51L11 51L11 53L12 53L12 51L11 51L11 49L14 49L14 51L13 51L13 53L14 53L14 51L15 51L15 52L17 52L17 51L18 51L18 52L20 52L20 53L23 53L23 52L24 52L24 53L26 53L26 52L27 52L27 50L28 50L28 51L29 51L29 53L38 53L38 52L39 52L39 53L45 53L45 52L46 52L46 49L49 49L49 48L50 48L50 50L47 50L47 52L48 52L48 53L50 53L50 51L51 51L51 52L52 52L52 51L53 51L53 50L52 50L52 49L53 49L53 46L52 46L52 49L51 49L51 48L50 48L50 47L49 47L49 46L51 46L51 45L52 45L52 44L53 44L53 41L52 41L52 44L51 44L51 42L50 42L50 41L51 41L51 39L52 39L52 40L53 40L53 37L51 37L51 35L52 35L52 34L53 34L53 32L52 32L52 33L51 33L51 32L50 32L50 33L49 33L49 34L48 34L48 32L49 32L49 31L50 31L50 30L49 30L49 26L50 26L50 29L51 29L51 31L53 31L53 29L52 29L52 28L51 28L51 26L53 26L53 24L52 24L52 23L51 23L51 24L50 24L50 23L49 23L49 22L52 22L52 21L53 21L53 19L52 19L52 18L53 18L53 17L52 17L52 18L51 18L51 19L52 19L52 21L51 21L51 20L50 20L50 21L48 21L48 23L49 23L49 24L47 24L47 23L45 23L45 24L43 24L43 23L44 23L44 22L43 22L43 21L44 21L44 20L45 20L45 22L46 22L46 21L47 21L47 20L46 20L46 19L44 19L44 20L43 20L43 17L44 17L44 16L45 16L45 18L46 18L46 17L47 17L47 18L48 18L48 20L49 20L49 19L50 19L50 17L51 17L51 16L50 16L50 15L51 15L51 14L52 14L52 13L53 13L53 12L52 12L52 13L51 13L51 12L50 12L50 11L51 11L51 10L52 10L52 11L53 11L53 10L52 10L52 9L53 9L53 8L52 8L52 9L49 9L49 10L48 10L48 9L47 9L47 8L46 8L46 11L45 11L45 12L43 12L43 10L44 10L44 9L45 9L45 6L44 6L44 9L41 9L41 8L43 8L43 3L44 3L44 4L45 4L45 3L44 3L44 1L43 1L43 0L41 0L41 1L42 1L42 2L41 2L41 4L42 4L42 7L41 7L41 5L40 5L40 1L39 1L39 0L38 0L38 2L39 2L39 3L37 3L37 5L36 5L36 4L35 4L35 5L36 5L36 7L37 7L37 5L39 5L39 6L38 6L38 8L36 8L36 9L35 9L35 10L34 10L34 8L33 8L33 6L34 6L34 7L35 7L35 6L34 6L34 4L33 4L33 3L31 3L31 2L34 2L34 3L35 3L35 2L37 2L37 0L35 0L35 2L34 2L34 1L32 1L32 0L31 0L31 2L30 2L30 1L29 1L29 3L26 3L26 2L25 2L25 1L27 1L27 2L28 2L28 1L27 1L27 0L23 0L23 2L22 2L22 1L21 1L21 0L19 0L19 1L17 1L17 0L16 0L16 1L17 1L17 2L16 2L16 3L15 3L15 1L14 1L14 0L13 0L13 1L14 1L14 3L13 3L13 2L12 2L12 0ZM10 2L10 3L11 3L11 4L12 4L12 5L11 5L11 7L12 7L12 9L13 9L13 10L12 10L12 12L13 12L13 13L11 13L11 10L10 10L10 11L9 11L9 12L8 12L8 11L6 11L6 12L7 12L7 13L6 13L6 14L7 14L7 15L6 15L6 16L7 16L7 15L8 15L8 17L5 17L5 16L4 16L4 19L5 19L5 20L9 20L9 19L10 19L10 20L12 20L12 22L11 22L11 21L10 21L10 22L11 22L11 24L10 24L10 23L9 23L9 24L10 24L10 25L11 25L11 26L10 26L10 28L11 28L11 29L14 29L14 30L15 30L15 31L16 31L16 33L15 33L15 32L14 32L14 31L13 31L13 30L10 30L10 29L9 29L9 31L8 31L8 30L7 30L7 29L6 29L6 30L5 30L5 29L3 29L3 30L4 30L4 31L3 31L3 32L4 32L4 31L5 31L5 32L8 32L8 33L9 33L9 34L7 34L7 33L6 33L6 34L7 34L7 35L8 35L8 36L7 36L7 37L6 37L6 38L7 38L7 39L6 39L6 40L9 40L9 41L10 41L10 42L11 42L11 43L14 43L14 42L18 42L18 41L20 41L20 42L19 42L19 43L18 43L18 44L17 44L17 43L16 43L16 44L17 44L17 46L16 46L16 47L17 47L17 48L16 48L16 51L17 51L17 49L18 49L18 48L19 48L19 51L22 51L22 52L23 52L23 51L22 51L22 50L23 50L23 48L24 48L24 46L22 46L22 50L20 50L20 48L21 48L21 47L20 47L20 46L21 46L21 44L23 44L23 45L24 45L24 44L25 44L25 43L26 43L26 42L27 42L27 44L28 44L28 42L27 42L27 41L29 41L29 43L30 43L30 42L32 42L32 41L33 41L33 38L34 38L34 37L35 37L35 38L37 38L37 35L36 35L36 34L38 34L38 38L39 38L39 42L37 42L37 40L35 40L35 41L34 41L34 42L35 42L35 43L33 43L33 46L34 46L34 47L36 47L36 45L37 45L37 46L38 46L38 45L39 45L39 44L38 44L38 43L39 43L39 42L42 42L42 43L43 43L43 42L44 42L44 43L45 43L45 44L47 44L47 43L49 43L49 44L50 44L50 45L51 45L51 44L50 44L50 43L49 43L49 41L50 41L50 40L49 40L49 41L48 41L48 40L47 40L47 38L48 38L48 39L49 39L49 38L50 38L50 36L48 36L48 35L47 35L47 34L46 34L46 36L45 36L45 33L46 33L46 32L47 32L47 31L46 31L46 30L47 30L47 29L45 29L45 30L44 30L44 31L43 31L43 30L42 30L42 29L44 29L44 28L40 28L40 26L39 26L39 23L40 23L40 24L41 24L41 25L43 25L43 26L41 26L41 27L44 27L44 25L43 25L43 24L42 24L42 23L43 23L43 22L42 22L42 21L43 21L43 20L41 20L41 19L42 19L42 17L43 17L43 16L42 16L42 17L40 17L40 16L41 16L41 15L42 15L42 14L41 14L41 15L40 15L40 16L37 16L37 15L39 15L39 14L37 14L37 15L36 15L36 16L37 16L37 17L39 17L39 18L41 18L41 19L40 19L40 20L39 20L39 21L38 21L38 19L37 19L37 21L36 21L36 20L35 20L35 19L36 19L36 18L35 18L35 19L34 19L34 21L36 21L36 22L39 22L39 23L38 23L38 26L37 26L37 23L35 23L35 24L33 24L33 23L32 23L32 24L33 24L33 25L32 25L32 26L31 26L31 25L29 25L29 27L34 27L34 26L35 26L35 27L36 27L36 26L37 26L37 27L39 27L39 29L41 29L41 31L40 31L40 30L38 30L38 31L37 31L37 32L36 32L36 29L35 29L35 28L34 28L34 29L32 29L32 28L30 28L30 29L29 29L29 31L27 31L27 32L26 32L26 29L23 29L23 28L24 28L24 26L23 26L23 27L22 27L22 26L21 26L21 25L22 25L22 24L23 24L23 25L24 25L24 24L28 24L28 22L29 22L29 21L28 21L28 20L29 20L29 19L28 19L28 17L30 17L30 19L31 19L31 22L32 22L32 18L31 18L31 16L32 16L32 15L35 15L35 14L36 14L36 13L37 13L37 11L38 11L38 12L40 12L40 11L41 11L41 13L42 13L42 11L41 11L41 9L40 9L40 10L38 10L38 9L37 9L37 11L36 11L36 10L35 10L35 11L36 11L36 12L34 12L34 10L33 10L33 8L32 8L32 6L33 6L33 5L32 5L32 6L31 6L31 3L30 3L30 6L29 6L29 7L30 7L30 6L31 6L31 8L32 8L32 9L30 9L30 8L29 8L29 9L30 9L30 10L26 10L26 12L25 12L25 11L24 11L24 12L25 12L25 14L26 14L26 15L24 15L24 14L23 14L23 15L22 15L22 16L21 16L21 17L20 17L20 16L18 16L18 15L17 15L17 14L18 14L18 13L19 13L19 14L20 14L20 15L21 15L21 13L20 13L20 12L23 12L23 10L21 10L21 9L22 9L22 8L23 8L23 9L24 9L24 4L25 4L25 3L24 3L24 4L22 4L22 5L23 5L23 7L22 7L22 6L21 6L21 5L19 5L19 8L20 8L20 10L19 10L19 9L18 9L18 2L17 2L17 4L13 4L13 3L12 3L12 2ZM19 2L19 4L20 4L20 3L22 3L22 2ZM42 2L42 3L43 3L43 2ZM12 5L12 7L13 7L13 6L14 6L14 7L15 7L15 8L13 8L13 9L15 9L15 10L13 10L13 11L15 11L15 13L14 13L14 14L13 14L13 15L14 15L14 17L15 17L15 18L14 18L14 19L13 19L13 17L12 17L12 19L13 19L13 21L15 21L15 23L14 23L14 22L12 22L12 23L14 23L14 24L15 24L15 25L13 25L13 24L11 24L11 25L12 25L12 27L13 27L13 26L15 26L15 27L14 27L14 29L15 29L15 30L17 30L17 29L18 29L18 28L17 28L17 27L19 27L19 29L20 29L20 30L18 30L18 31L20 31L20 32L22 32L22 34L23 34L23 35L22 35L22 37L24 37L24 38L25 38L25 40L26 40L26 38L25 38L25 37L27 37L27 39L28 39L28 40L29 40L29 41L32 41L32 39L31 39L31 38L30 38L30 39L28 39L28 37L27 37L27 36L29 36L29 33L31 33L31 32L33 32L33 33L34 33L34 34L30 34L30 36L31 36L31 37L32 37L32 36L31 36L31 35L33 35L33 36L35 36L35 37L36 37L36 35L35 35L35 33L36 33L36 32L35 32L35 33L34 33L34 31L35 31L35 30L32 30L32 29L30 29L30 30L32 30L32 31L29 31L29 32L28 32L28 33L27 33L27 34L26 34L26 32L25 32L25 33L23 33L23 32L22 32L22 31L24 31L24 30L22 30L22 31L20 31L20 30L21 30L21 29L20 29L20 28L21 28L21 27L20 27L20 24L19 24L19 23L20 23L20 22L22 22L22 21L23 21L23 24L24 24L24 23L27 23L27 21L25 21L25 19L27 19L27 20L28 20L28 19L27 19L27 18L26 18L26 17L24 17L24 18L23 18L23 17L22 17L22 19L21 19L21 18L20 18L20 17L19 17L19 18L18 18L18 16L17 16L17 15L16 15L16 14L17 14L17 13L18 13L18 12L17 12L17 11L16 11L16 10L17 10L17 9L15 9L15 8L16 8L16 7L17 7L17 5L16 5L16 7L15 7L15 6L14 6L14 5ZM25 5L25 8L28 8L28 5ZM9 6L9 7L10 7L10 6ZM20 6L20 8L21 8L21 6ZM26 6L26 7L27 7L27 6ZM39 6L39 8L41 8L41 7L40 7L40 6ZM6 8L6 9L7 9L7 8ZM18 10L18 11L19 11L19 12L20 12L20 11L21 11L21 10L20 10L20 11L19 11L19 10ZM30 10L30 12L29 12L29 11L27 11L27 12L28 12L28 13L29 13L29 15L28 15L28 14L27 14L27 13L26 13L26 14L27 14L27 16L31 16L31 14L30 14L30 13L31 13L31 11L33 11L33 10ZM47 10L47 12L45 12L45 13L44 13L44 14L43 14L43 15L44 15L44 14L45 14L45 16L46 16L46 15L47 15L47 13L48 13L48 14L50 14L50 13L48 13L48 12L49 12L49 11L48 11L48 10ZM3 12L3 13L2 13L2 14L4 14L4 15L5 15L5 14L4 14L4 13L5 13L5 12ZM9 12L9 14L8 14L8 15L10 15L10 16L11 16L11 15L12 15L12 14L10 14L10 12ZM16 12L16 13L15 13L15 14L14 14L14 15L15 15L15 14L16 14L16 13L17 13L17 12ZM32 12L32 14L33 14L33 12ZM45 13L45 14L46 14L46 13ZM2 15L2 16L3 16L3 15ZM52 15L52 16L53 16L53 15ZM15 16L15 17L17 17L17 16ZM33 16L33 18L34 18L34 16ZM48 16L48 18L49 18L49 16ZM1 17L1 18L2 18L2 19L1 19L1 20L2 20L2 19L3 19L3 17ZM8 17L8 18L10 18L10 19L11 19L11 18L10 18L10 17ZM5 18L5 19L7 19L7 18ZM16 18L16 20L15 20L15 19L14 19L14 20L15 20L15 21L16 21L16 23L17 23L17 26L16 26L16 27L17 27L17 26L18 26L18 22L20 22L20 18L19 18L19 21L18 21L18 20L17 20L17 19L18 19L18 18ZM24 18L24 19L25 19L25 18ZM16 20L16 21L17 21L17 22L18 22L18 21L17 21L17 20ZM21 20L21 21L22 21L22 20ZM8 21L8 22L7 22L7 23L8 23L8 22L9 22L9 21ZM40 21L40 22L41 22L41 21ZM29 23L29 24L30 24L30 23ZM3 24L3 25L2 25L2 26L3 26L3 27L4 27L4 26L3 26L3 25L4 25L4 24ZM49 24L49 25L50 25L50 24ZM51 24L51 25L52 25L52 24ZM5 25L5 28L8 28L8 25ZM25 25L25 28L28 28L28 25ZM33 25L33 26L34 26L34 25ZM45 25L45 28L48 28L48 25ZM6 26L6 27L7 27L7 26ZM26 26L26 27L27 27L27 26ZM46 26L46 27L47 27L47 26ZM37 28L37 29L38 29L38 28ZM6 30L6 31L7 31L7 30ZM48 30L48 31L49 31L49 30ZM10 31L10 32L9 32L9 33L10 33L10 32L12 32L12 34L13 34L13 37L14 37L14 39L15 39L15 41L16 41L16 40L17 40L17 39L18 39L18 40L20 40L20 41L21 41L21 42L20 42L20 44L21 44L21 42L22 42L22 43L23 43L23 42L24 42L24 43L25 43L25 42L24 42L24 40L23 40L23 38L22 38L22 39L19 39L19 37L20 37L20 38L21 38L21 36L19 36L19 37L18 37L18 38L16 38L16 37L17 37L17 36L18 36L18 35L20 35L20 34L21 34L21 33L20 33L20 34L18 34L18 33L16 33L16 34L18 34L18 35L15 35L15 33L14 33L14 32L13 32L13 31ZM38 31L38 32L37 32L37 33L38 33L38 34L39 34L39 33L40 33L40 31ZM41 31L41 33L42 33L42 34L43 34L43 33L45 33L45 31L44 31L44 32L43 32L43 31ZM42 32L42 33L43 33L43 32ZM1 33L1 34L2 34L2 33ZM9 34L9 38L8 38L8 37L7 37L7 38L8 38L8 39L9 39L9 40L10 40L10 41L11 41L11 42L12 42L12 41L14 41L14 40L13 40L13 39L12 39L12 41L11 41L11 40L10 40L10 39L11 39L11 38L10 38L10 37L11 37L11 36L10 36L10 34ZM24 34L24 37L25 37L25 34ZM27 34L27 35L26 35L26 36L27 36L27 35L28 35L28 34ZM49 34L49 35L50 35L50 34ZM39 35L39 36L40 36L40 35ZM42 35L42 36L41 36L41 38L40 38L40 39L41 39L41 38L43 38L43 39L42 39L42 40L40 40L40 41L42 41L42 40L43 40L43 41L44 41L44 42L45 42L45 43L46 43L46 39L45 39L45 38L43 38L43 37L42 37L42 36L43 36L43 35ZM14 36L14 37L16 37L16 36ZM44 36L44 37L45 37L45 36ZM46 36L46 38L47 38L47 36ZM4 37L4 38L5 38L5 37ZM48 37L48 38L49 38L49 37ZM15 38L15 39L16 39L16 38ZM43 39L43 40L45 40L45 39ZM21 40L21 41L23 41L23 40ZM1 41L1 42L2 42L2 43L3 43L3 42L2 42L2 41ZM35 41L35 42L36 42L36 43L37 43L37 42L36 42L36 41ZM47 41L47 42L48 42L48 41ZM40 43L40 44L41 44L41 45L40 45L40 47L41 47L41 48L42 48L42 49L41 49L41 50L42 50L42 51L44 51L44 52L45 52L45 49L43 49L43 48L42 48L42 47L41 47L41 45L42 45L42 44L41 44L41 43ZM13 44L13 45L14 45L14 44ZM29 44L29 45L31 45L31 46L30 46L30 47L29 47L29 49L28 49L28 50L29 50L29 51L31 51L31 52L33 52L33 51L34 51L34 49L36 49L36 50L37 50L37 49L36 49L36 48L34 48L34 49L32 49L32 50L31 50L31 48L30 48L30 47L31 47L31 46L32 46L32 45L31 45L31 44ZM35 44L35 45L36 45L36 44ZM18 45L18 47L19 47L19 48L20 48L20 47L19 47L19 46L20 46L20 45ZM25 45L25 48L28 48L28 45ZM43 45L43 46L44 46L44 45ZM45 45L45 48L48 48L48 45ZM26 46L26 47L27 47L27 46ZM46 46L46 47L47 47L47 46ZM38 47L38 51L35 51L35 52L38 52L38 51L39 51L39 47ZM42 49L42 50L43 50L43 49ZM8 51L8 53L10 53L10 52L9 52L9 51ZM24 51L24 52L25 52L25 51ZM48 51L48 52L49 52L49 51ZM0 0L0 7L7 7L7 0ZM1 1L1 6L6 6L6 1ZM2 2L2 5L5 5L5 2ZM46 0L46 7L53 7L53 0ZM47 1L47 6L52 6L52 1ZM48 2L48 5L51 5L51 2ZM0 46L0 53L7 53L7 46ZM1 47L1 52L6 52L6 47ZM2 48L2 51L5 51L5 48Z" fill="#000000"/></g></g></svg>
