<?xml version="1.0" encoding="UTF-8"?>
<svg xmlns="http://www.w3.org/2000/svg" version="1.1" width="100" height="100" viewBox="0 0 100 100"><rect x="0" y="0" width="100" height="100" fill="#ffffff"/><g transform="scale(1.887)"><g transform="translate(0,0)"><path fill-rule="evenodd" d="M8 0L8 2L9 2L9 1L10 1L10 0ZM11 0L11 1L12 1L12 2L10 2L10 5L9 5L9 4L8 4L8 9L9 9L9 6L10 6L10 10L11 10L11 12L12 12L12 10L13 10L13 9L14 9L14 11L15 11L15 13L16 13L16 14L14 14L14 13L13 13L13 14L11 14L11 15L10 15L10 14L8 14L8 15L7 15L7 14L6 14L6 13L7 13L7 12L6 12L6 11L7 11L7 10L4 10L4 9L3 9L3 8L0 8L0 9L1 9L1 10L0 10L0 11L1 11L1 12L2 12L2 11L1 11L1 10L3 10L3 11L5 11L5 12L3 12L3 14L4 14L4 16L6 16L6 17L5 17L5 20L3 20L3 19L1 19L1 20L0 20L0 21L1 21L1 22L4 22L4 21L7 21L7 20L8 20L8 19L7 19L7 18L6 18L6 17L9 17L9 21L8 21L8 22L6 22L6 23L1 23L1 24L0 24L0 26L1 26L1 24L4 24L4 29L3 29L3 33L1 33L1 34L0 34L0 37L1 37L1 40L0 40L0 41L1 41L1 42L0 42L0 43L1 43L1 44L3 44L3 45L4 45L4 44L3 44L3 43L8 43L8 44L9 44L9 43L10 43L10 47L11 47L11 48L10 48L10 50L8 50L8 53L10 53L10 51L11 51L11 53L12 53L12 51L13 51L13 48L14 48L14 49L15 49L15 50L14 50L14 52L16 52L16 53L17 53L17 52L16 52L16 47L17 47L17 48L18 48L18 49L17 49L17 50L18 50L18 51L19 51L19 53L22 53L22 52L24 52L24 53L25 53L25 52L26 52L26 50L24 50L24 49L29 49L29 50L28 50L28 53L31 53L31 52L30 52L30 51L31 51L31 50L30 50L30 49L32 49L32 53L34 53L34 51L35 51L35 50L36 50L36 52L35 52L35 53L37 53L37 51L39 51L39 53L40 53L40 51L41 51L41 53L43 53L43 52L44 52L44 53L45 53L45 52L46 52L46 53L47 53L47 52L48 52L48 53L49 53L49 52L52 52L52 53L53 53L53 50L52 50L52 49L53 49L53 48L52 48L52 49L51 49L51 48L50 48L50 45L52 45L52 46L53 46L53 45L52 45L52 44L53 44L53 42L52 42L52 44L50 44L50 43L51 43L51 42L50 42L50 41L51 41L51 40L50 40L50 37L51 37L51 39L53 39L53 37L51 37L51 35L52 35L52 36L53 36L53 34L52 34L52 33L53 33L53 32L52 32L52 33L51 33L51 34L50 34L50 33L47 33L47 32L48 32L48 30L47 30L47 29L51 29L51 31L50 31L50 30L49 30L49 32L51 32L51 31L53 31L53 30L52 30L52 29L53 29L53 27L52 27L52 28L49 28L49 24L50 24L50 25L51 25L51 26L53 26L53 19L52 19L52 18L51 18L51 19L50 19L50 17L51 17L51 15L50 15L50 13L51 13L51 14L52 14L52 13L53 13L53 11L52 11L52 13L51 13L51 12L50 12L50 11L51 11L51 10L53 10L53 8L51 8L51 10L50 10L50 9L49 9L49 8L45 8L45 9L43 9L43 10L42 10L42 7L43 7L43 8L44 8L44 7L45 7L45 6L44 6L44 7L43 7L43 3L44 3L44 4L45 4L45 3L44 3L44 1L43 1L43 0L41 0L41 1L42 1L42 2L43 2L43 3L40 3L40 1L39 1L39 0L38 0L38 1L37 1L37 0L35 0L35 2L34 2L34 1L33 1L33 2L32 2L32 3L31 3L31 1L32 1L32 0L31 0L31 1L29 1L29 2L30 2L30 3L29 3L29 4L28 4L28 3L27 3L27 2L28 2L28 1L27 1L27 0L23 0L23 2L22 2L22 1L21 1L21 0L19 0L19 1L21 1L21 2L20 2L20 3L21 3L21 4L20 4L20 5L21 5L21 6L20 6L20 7L19 7L19 6L18 6L18 5L19 5L19 4L18 4L18 5L17 5L17 4L16 4L16 3L19 3L19 2L18 2L18 1L17 1L17 0L16 0L16 1L17 1L17 2L16 2L16 3L15 3L15 4L16 4L16 5L17 5L17 6L16 6L16 7L15 7L15 6L14 6L14 3L13 3L13 2L14 2L14 0ZM24 1L24 2L23 2L23 3L22 3L22 2L21 2L21 3L22 3L22 4L23 4L23 5L22 5L22 6L21 6L21 7L20 7L20 8L21 8L21 9L22 9L22 10L21 10L21 11L20 11L20 12L18 12L18 13L17 13L17 11L18 11L18 9L17 9L17 8L19 8L19 7L18 7L18 6L17 6L17 7L16 7L16 8L14 8L14 9L16 9L16 10L17 10L17 11L16 11L16 13L17 13L17 14L16 14L16 16L15 16L15 15L13 15L13 16L10 16L10 15L9 15L9 17L12 17L12 18L11 18L11 19L10 19L10 20L11 20L11 19L12 19L12 18L13 18L13 20L14 20L14 21L13 21L13 22L12 22L12 23L13 23L13 24L12 24L12 25L11 25L11 24L10 24L10 21L9 21L9 30L10 30L10 31L9 31L9 33L8 33L8 31L5 31L5 30L8 30L8 29L4 29L4 31L5 31L5 32L7 32L7 33L4 33L4 34L5 34L5 35L6 35L6 36L8 36L8 34L10 34L10 36L9 36L9 37L11 37L11 38L12 38L12 37L13 37L13 36L12 36L12 34L13 34L13 35L14 35L14 34L15 34L15 35L16 35L16 36L14 36L14 38L13 38L13 42L12 42L12 43L11 43L11 46L12 46L12 43L14 43L14 44L13 44L13 45L14 45L14 44L15 44L15 42L16 42L16 41L15 41L15 40L14 40L14 39L16 39L16 40L17 40L17 41L18 41L18 42L19 42L19 43L20 43L20 44L18 44L18 45L16 45L16 46L17 46L17 47L18 47L18 46L19 46L19 45L20 45L20 44L24 44L24 41L25 41L25 44L29 44L29 41L28 41L28 40L29 40L29 38L30 38L30 37L31 37L31 36L32 36L32 37L33 37L33 38L34 38L34 37L35 37L35 39L34 39L34 41L35 41L35 43L31 43L31 42L32 42L32 41L33 41L33 40L31 40L31 39L32 39L32 38L31 38L31 39L30 39L30 40L31 40L31 42L30 42L30 48L29 48L29 49L30 49L30 48L31 48L31 47L32 47L32 46L34 46L34 45L35 45L35 47L34 47L34 49L33 49L33 51L34 51L34 49L36 49L36 48L37 48L37 47L38 47L38 49L37 49L37 50L38 50L38 49L39 49L39 47L38 47L38 46L39 46L39 45L38 45L38 44L39 44L39 42L40 42L40 41L41 41L41 40L42 40L42 41L43 41L43 42L42 42L42 44L47 44L47 43L48 43L48 44L49 44L49 42L48 42L48 41L49 41L49 37L50 37L50 36L49 36L49 35L48 35L48 36L47 36L47 38L46 38L46 36L45 36L45 34L44 34L44 33L46 33L46 34L47 34L47 33L46 33L46 32L47 32L47 31L46 31L46 29L45 29L45 30L44 30L44 33L43 33L43 27L44 27L44 26L43 26L43 24L45 24L45 23L46 23L46 24L47 24L47 23L48 23L48 22L49 22L49 21L50 21L50 24L51 24L51 25L52 25L52 24L51 24L51 23L52 23L52 22L51 22L51 21L52 21L52 19L51 19L51 20L49 20L49 19L48 19L48 17L50 17L50 16L49 16L49 15L48 15L48 14L47 14L47 13L48 13L48 12L47 12L47 11L48 11L48 10L47 10L47 9L45 9L45 10L44 10L44 11L42 11L42 12L41 12L41 11L40 11L40 10L39 10L39 8L41 8L41 7L42 7L42 6L41 6L41 5L42 5L42 4L41 4L41 5L40 5L40 6L39 6L39 5L38 5L38 4L39 4L39 3L38 3L38 2L39 2L39 1L38 1L38 2L37 2L37 1L36 1L36 3L35 3L35 4L36 4L36 6L35 6L35 7L34 7L34 6L33 6L33 5L32 5L32 4L34 4L34 2L33 2L33 3L32 3L32 4L30 4L30 5L29 5L29 7L30 7L30 8L31 8L31 7L32 7L32 8L34 8L34 9L35 9L35 8L36 8L36 6L37 6L37 7L38 7L38 9L36 9L36 10L33 10L33 11L32 11L32 9L31 9L31 11L30 11L30 10L29 10L29 9L28 9L28 10L27 10L27 9L26 9L26 10L25 10L25 9L24 9L24 10L25 10L25 11L26 11L26 12L25 12L25 13L24 13L24 14L25 14L25 13L26 13L26 14L28 14L28 15L27 15L27 16L26 16L26 15L25 15L25 16L24 16L24 15L23 15L23 17L22 17L22 16L21 16L21 15L20 15L20 16L21 16L21 17L20 17L20 18L19 18L19 19L18 19L18 17L19 17L19 15L18 15L18 14L19 14L19 13L20 13L20 12L22 12L22 10L23 10L23 9L22 9L22 8L24 8L24 6L23 6L23 5L24 5L24 4L23 4L23 3L24 3L24 2L25 2L25 1ZM11 3L11 5L10 5L10 6L11 6L11 10L12 10L12 9L13 9L13 8L12 8L12 6L11 6L11 5L12 5L12 4L13 4L13 3ZM26 3L26 4L27 4L27 3ZM36 3L36 4L38 4L38 3ZM25 5L25 8L28 8L28 5ZM30 5L30 7L31 7L31 6L32 6L32 7L33 7L33 6L32 6L32 5ZM13 6L13 7L14 7L14 6ZM22 6L22 7L23 7L23 6ZM26 6L26 7L27 7L27 6ZM38 6L38 7L39 7L39 6ZM40 6L40 7L41 7L41 6ZM5 8L5 9L7 9L7 8ZM8 10L8 11L9 11L9 13L10 13L10 11L9 11L9 10ZM28 10L28 11L27 11L27 12L28 12L28 13L29 13L29 14L30 14L30 15L29 15L29 16L28 16L28 17L29 17L29 18L28 18L28 19L27 19L27 18L26 18L26 16L25 16L25 20L24 20L24 17L23 17L23 18L22 18L22 19L21 19L21 18L20 18L20 19L19 19L19 20L18 20L18 19L17 19L17 20L16 20L16 17L18 17L18 16L16 16L16 17L15 17L15 16L13 16L13 17L15 17L15 18L14 18L14 20L16 20L16 21L14 21L14 22L15 22L15 23L14 23L14 24L15 24L15 26L14 26L14 27L15 27L15 28L13 28L13 26L12 26L12 27L11 27L11 26L10 26L10 29L11 29L11 31L12 31L12 32L11 32L11 33L10 33L10 34L11 34L11 33L12 33L12 32L13 32L13 34L14 34L14 33L16 33L16 31L15 31L15 30L16 30L16 26L17 26L17 24L18 24L18 25L20 25L20 26L18 26L18 28L17 28L17 30L18 30L18 32L17 32L17 34L16 34L16 35L17 35L17 34L18 34L18 36L19 36L19 38L18 38L18 39L19 39L19 42L20 42L20 43L21 43L21 42L22 42L22 43L23 43L23 42L22 42L22 41L24 41L24 40L25 40L25 41L26 41L26 40L27 40L27 39L28 39L28 37L29 37L29 36L30 36L30 35L31 35L31 33L30 33L30 34L29 34L29 36L28 36L28 37L27 37L27 36L26 36L26 35L28 35L28 33L29 33L29 32L30 32L30 31L29 31L29 30L30 30L30 27L29 27L29 25L30 25L30 26L31 26L31 25L32 25L32 27L31 27L31 30L32 30L32 31L33 31L33 32L32 32L32 35L33 35L33 36L34 36L34 34L33 34L33 33L34 33L34 31L35 31L35 30L36 30L36 31L37 31L37 33L36 33L36 36L35 36L35 37L36 37L36 39L35 39L35 40L36 40L36 39L37 39L37 40L38 40L38 41L36 41L36 44L38 44L38 43L37 43L37 42L39 42L39 40L38 40L38 38L39 38L39 37L38 37L38 35L37 35L37 33L38 33L38 30L40 30L40 31L39 31L39 33L40 33L40 35L39 35L39 36L41 36L41 38L40 38L40 40L41 40L41 39L42 39L42 35L41 35L41 33L40 33L40 31L41 31L41 32L42 32L42 31L41 31L41 30L42 30L42 29L41 29L41 28L42 28L42 25L41 25L41 24L42 24L42 23L41 23L41 22L40 22L40 23L39 23L39 21L38 21L38 23L37 23L37 20L38 20L38 19L39 19L39 20L40 20L40 19L41 19L41 21L42 21L42 19L43 19L43 21L44 21L44 22L46 22L46 23L47 23L47 22L48 22L48 20L46 20L46 19L45 19L45 20L44 20L44 19L43 19L43 18L42 18L42 15L43 15L43 16L44 16L44 15L43 15L43 14L42 14L42 13L44 13L44 14L46 14L46 13L45 13L45 12L46 12L46 11L45 11L45 12L42 12L42 13L41 13L41 12L38 12L38 10L36 10L36 12L37 12L37 13L39 13L39 14L38 14L38 15L37 15L37 14L36 14L36 15L35 15L35 17L37 17L37 18L36 18L36 19L35 19L35 18L33 18L33 16L34 16L34 15L33 15L33 14L32 14L32 13L33 13L33 12L32 12L32 13L31 13L31 12L30 12L30 11L29 11L29 10ZM49 10L49 11L50 11L50 10ZM23 11L23 12L24 12L24 11ZM28 11L28 12L29 12L29 11ZM5 12L5 13L4 13L4 14L5 14L5 13L6 13L6 12ZM0 14L0 15L1 15L1 14ZM31 14L31 15L30 15L30 16L31 16L31 17L30 17L30 18L31 18L31 19L30 19L30 20L29 20L29 19L28 19L28 20L27 20L27 21L26 21L26 20L25 20L25 21L24 21L24 20L23 20L23 21L24 21L24 22L25 22L25 24L29 24L29 22L27 22L27 21L28 21L28 20L29 20L29 21L30 21L30 22L31 22L31 23L30 23L30 25L31 25L31 23L32 23L32 24L33 24L33 25L34 25L34 26L33 26L33 27L32 27L32 28L33 28L33 27L34 27L34 28L35 28L35 27L34 27L34 26L36 26L36 25L37 25L37 27L36 27L36 28L37 28L37 27L38 27L38 28L39 28L39 29L40 29L40 30L41 30L41 29L40 29L40 28L41 28L41 27L40 27L40 26L39 26L39 27L38 27L38 25L39 25L39 23L38 23L38 25L37 25L37 24L35 24L35 19L34 19L34 24L33 24L33 23L32 23L32 22L33 22L33 19L32 19L32 18L31 18L31 17L32 17L32 16L33 16L33 15L32 15L32 14ZM6 15L6 16L7 16L7 15ZM38 15L38 17L39 17L39 18L40 18L40 17L41 17L41 16L39 16L39 15ZM47 15L47 17L46 17L46 16L45 16L45 18L47 18L47 17L48 17L48 15ZM1 16L1 17L3 17L3 18L4 18L4 17L3 17L3 16ZM52 16L52 17L53 17L53 16ZM41 18L41 19L42 19L42 18ZM6 19L6 20L7 20L7 19ZM20 19L20 20L19 20L19 23L18 23L18 22L17 22L17 23L16 23L16 24L17 24L17 23L18 23L18 24L20 24L20 25L22 25L22 22L21 22L21 21L22 21L22 20L21 20L21 19ZM31 19L31 20L30 20L30 21L31 21L31 20L32 20L32 19ZM36 19L36 20L37 20L37 19ZM2 20L2 21L3 21L3 20ZM25 21L25 22L26 22L26 23L27 23L27 22L26 22L26 21ZM6 23L6 24L8 24L8 23ZM23 23L23 25L24 25L24 23ZM5 25L5 28L8 28L8 25ZM25 25L25 28L28 28L28 25ZM45 25L45 28L48 28L48 25ZM2 26L2 27L0 27L0 31L1 31L1 32L2 32L2 30L1 30L1 28L2 28L2 27L3 27L3 26ZM6 26L6 27L7 27L7 26ZM21 26L21 27L20 27L20 28L18 28L18 29L19 29L19 30L20 30L20 32L18 32L18 33L19 33L19 36L21 36L21 37L20 37L20 38L19 38L19 39L20 39L20 40L21 40L21 41L20 41L20 42L21 42L21 41L22 41L22 40L24 40L24 39L25 39L25 36L24 36L24 35L26 35L26 34L25 34L25 32L24 32L24 31L26 31L26 32L27 32L27 33L28 33L28 32L29 32L29 31L26 31L26 29L25 29L25 30L24 30L24 31L22 31L22 26ZM26 26L26 27L27 27L27 26ZM46 26L46 27L47 27L47 26ZM23 27L23 28L24 28L24 27ZM12 29L12 31L13 31L13 29ZM14 29L14 30L15 30L15 29ZM20 29L20 30L21 30L21 29ZM28 29L28 30L29 30L29 29ZM32 29L32 30L34 30L34 29ZM36 29L36 30L37 30L37 29ZM14 31L14 32L15 32L15 31ZM21 31L21 32L20 32L20 33L21 33L21 32L22 32L22 33L23 33L23 34L22 34L22 35L24 35L24 32L22 32L22 31ZM2 34L2 35L1 35L1 37L2 37L2 35L3 35L3 34ZM6 34L6 35L7 35L7 34ZM43 34L43 35L44 35L44 34ZM3 36L3 37L4 37L4 36ZM11 36L11 37L12 37L12 36ZM16 36L16 37L15 37L15 38L16 38L16 39L17 39L17 38L16 38L16 37L17 37L17 36ZM22 36L22 37L24 37L24 36ZM36 36L36 37L37 37L37 38L38 38L38 37L37 37L37 36ZM44 36L44 37L43 37L43 39L44 39L44 42L43 42L43 43L44 43L44 42L45 42L45 43L46 43L46 42L47 42L47 41L48 41L48 39L44 39L44 38L45 38L45 36ZM6 37L6 38L2 38L2 40L1 40L1 41L2 41L2 43L3 43L3 40L4 40L4 41L5 41L5 40L8 40L8 39L10 39L10 38L7 38L7 37ZM6 38L6 39L7 39L7 38ZM20 38L20 39L21 39L21 40L22 40L22 39L24 39L24 38L22 38L22 39L21 39L21 38ZM4 39L4 40L5 40L5 39ZM9 40L9 41L11 41L11 40ZM52 40L52 41L53 41L53 40ZM6 41L6 42L7 42L7 41ZM27 41L27 42L26 42L26 43L28 43L28 41ZM16 43L16 44L17 44L17 43ZM40 43L40 44L41 44L41 43ZM6 44L6 45L7 45L7 44ZM31 44L31 45L32 45L32 44ZM8 45L8 46L9 46L9 45ZM22 45L22 46L23 46L23 47L24 47L24 46L23 46L23 45ZM25 45L25 48L28 48L28 45ZM42 45L42 46L43 46L43 47L42 47L42 49L41 49L41 51L42 51L42 52L43 52L43 51L44 51L44 50L43 50L43 47L44 47L44 45ZM45 45L45 48L48 48L48 45ZM13 46L13 47L12 47L12 48L11 48L11 49L12 49L12 48L13 48L13 47L15 47L15 46ZM26 46L26 47L27 47L27 46ZM36 46L36 47L37 47L37 46ZM46 46L46 47L47 47L47 46ZM8 47L8 48L9 48L9 47ZM20 47L20 48L19 48L19 49L18 49L18 50L19 50L19 51L20 51L20 52L21 52L21 51L22 51L22 50L23 50L23 51L24 51L24 50L23 50L23 48L22 48L22 50L21 50L21 49L20 49L20 48L21 48L21 47ZM40 47L40 48L41 48L41 47ZM49 48L49 49L50 49L50 51L51 51L51 49L50 49L50 48ZM19 49L19 50L20 50L20 51L21 51L21 50L20 50L20 49ZM46 49L46 51L48 51L48 49ZM11 50L11 51L12 51L12 50ZM0 0L0 7L7 7L7 0ZM1 1L1 6L6 6L6 1ZM2 2L2 5L5 5L5 2ZM46 0L46 7L53 7L53 0ZM47 1L47 6L52 6L52 1ZM48 2L48 5L51 5L51 2ZM0 46L0 53L7 53L7 46ZM1 47L1 52L6 52L6 47ZM2 48L2 51L5 51L5 48Z" fill="#000000"/></g></g></svg>
