<?xml version="1.0" encoding="UTF-8"?>
<svg xmlns="http://www.w3.org/2000/svg" version="1.1" width="100" height="100" viewBox="0 0 100 100"><rect x="0" y="0" width="100" height="100" fill="#ffffff"/><g transform="scale(1.887)"><g transform="translate(0,0)"><path fill-rule="evenodd" d="M8 0L8 4L9 4L9 1L10 1L10 0ZM11 0L11 2L12 2L12 0ZM14 0L14 2L13 2L13 3L14 3L14 5L15 5L15 6L14 6L14 8L17 8L17 9L11 9L11 10L13 10L13 11L11 11L11 12L9 12L9 11L10 11L10 10L9 10L9 9L8 9L8 11L7 11L7 10L3 10L3 9L2 9L2 8L0 8L0 16L1 16L1 15L3 15L3 16L4 16L4 17L5 17L5 16L6 16L6 17L7 17L7 18L1 18L1 21L0 21L0 22L1 22L1 23L0 23L0 26L2 26L2 28L4 28L4 30L5 30L5 31L3 31L3 30L0 30L0 32L1 32L1 33L0 33L0 35L1 35L1 34L2 34L2 35L3 35L3 36L4 36L4 38L5 38L5 39L7 39L7 38L6 38L6 37L7 37L7 36L8 36L8 37L9 37L9 39L10 39L10 40L11 40L11 38L10 38L10 35L9 35L9 34L11 34L11 35L12 35L12 36L11 36L11 37L13 37L13 39L14 39L14 40L17 40L17 39L18 39L18 37L20 37L20 38L22 38L22 39L23 39L23 40L22 40L22 41L21 41L21 40L20 40L20 39L19 39L19 40L18 40L18 41L13 41L13 40L12 40L12 43L11 43L11 41L9 41L9 40L8 40L8 41L7 41L7 40L5 40L5 41L3 41L3 40L1 40L1 39L0 39L0 43L1 43L1 44L3 44L3 45L4 45L4 44L3 44L3 43L7 43L7 44L6 44L6 45L8 45L8 46L9 46L9 47L8 47L8 49L10 49L10 50L9 50L9 51L8 51L8 53L10 53L10 51L11 51L11 53L12 53L12 50L13 50L13 51L14 51L14 52L15 52L15 53L18 53L18 51L17 51L17 50L16 50L16 51L14 51L14 50L15 50L15 49L16 49L16 48L17 48L17 49L18 49L18 50L19 50L19 51L21 51L21 50L22 50L22 51L23 51L23 52L22 52L22 53L25 53L25 52L26 52L26 51L27 51L27 49L29 49L29 50L28 50L28 52L27 52L27 53L28 53L28 52L29 52L29 53L31 53L31 52L29 52L29 51L30 51L30 50L31 50L31 51L32 51L32 53L34 53L34 52L35 52L35 53L40 53L40 52L41 52L41 53L42 53L42 51L43 51L43 53L49 53L49 52L50 52L50 53L52 53L52 52L50 52L50 51L49 51L49 49L50 49L50 50L51 50L51 51L53 51L53 50L52 50L52 47L53 47L53 44L52 44L52 43L53 43L53 42L52 42L52 43L51 43L51 41L52 41L52 40L53 40L53 38L52 38L52 39L51 39L51 37L53 37L53 34L52 34L52 32L53 32L53 31L52 31L52 28L53 28L53 25L51 25L51 24L50 24L50 25L49 25L49 24L48 24L48 23L47 23L47 22L48 22L48 21L44 21L44 22L43 22L43 28L44 28L44 29L42 29L42 27L41 27L41 25L40 25L40 27L39 27L39 28L38 28L38 26L37 26L37 28L36 28L36 27L35 27L35 26L36 26L36 25L39 25L39 24L38 24L38 23L39 23L39 22L40 22L40 24L41 24L41 22L40 22L40 19L42 19L42 17L41 17L41 16L38 16L38 15L42 15L42 14L43 14L43 20L42 20L42 21L43 21L43 20L44 20L44 19L45 19L45 16L44 16L44 15L45 15L45 14L44 14L44 13L46 13L46 17L50 17L50 20L51 20L51 19L52 19L52 18L53 18L53 17L52 17L52 16L53 16L53 15L51 15L51 14L53 14L53 13L52 13L52 12L53 12L53 11L52 11L52 12L50 12L50 11L49 11L49 12L47 12L47 11L46 11L46 12L44 12L44 11L45 11L45 10L47 10L47 9L48 9L48 8L47 8L47 9L45 9L45 8L44 8L44 7L45 7L45 6L44 6L44 7L43 7L43 3L44 3L44 4L45 4L45 3L44 3L44 1L43 1L43 0L42 0L42 2L43 2L43 3L42 3L42 5L41 5L41 3L40 3L40 1L39 1L39 0L38 0L38 1L36 1L36 0L34 0L34 1L36 1L36 2L34 2L34 3L31 3L31 4L30 4L30 3L28 3L28 2L33 2L33 1L31 1L31 0L30 0L30 1L27 1L27 0L26 0L26 1L24 1L24 2L27 2L27 3L26 3L26 4L22 4L22 0L19 0L19 1L17 1L17 2L16 2L16 1L15 1L15 0ZM19 1L19 4L18 4L18 3L17 3L17 4L18 4L18 5L19 5L19 7L18 7L18 6L17 6L17 8L19 8L19 9L17 9L17 10L16 10L16 11L15 11L15 10L14 10L14 11L13 11L13 13L10 13L10 14L9 14L9 13L5 13L5 12L7 12L7 11L3 11L3 15L4 15L4 16L5 16L5 15L6 15L6 16L7 16L7 17L8 17L8 18L7 18L7 19L6 19L6 20L7 20L7 21L6 21L6 22L4 22L4 23L6 23L6 24L10 24L10 23L12 23L12 24L11 24L11 25L17 25L17 26L16 26L16 27L15 27L15 26L14 26L14 27L13 27L13 28L14 28L14 29L13 29L13 30L11 30L11 28L12 28L12 27L11 27L11 26L10 26L10 25L9 25L9 28L10 28L10 30L9 30L9 31L5 31L5 32L3 32L3 31L1 31L1 32L3 32L3 33L2 33L2 34L3 34L3 35L4 35L4 36L7 36L7 35L8 35L8 36L9 36L9 35L8 35L8 34L9 34L9 31L10 31L10 33L11 33L11 34L12 34L12 35L16 35L16 34L17 34L17 36L15 36L15 39L17 39L17 38L16 38L16 37L17 37L17 36L18 36L18 35L20 35L20 36L21 36L21 37L23 37L23 38L26 38L26 40L23 40L23 41L22 41L22 42L21 42L21 43L20 43L20 42L16 42L16 43L15 43L15 44L14 44L14 43L12 43L12 44L11 44L11 43L10 43L10 44L11 44L11 46L10 46L10 45L9 45L9 46L10 46L10 47L12 47L12 46L13 46L13 45L12 45L12 44L14 44L14 47L13 47L13 48L12 48L12 49L13 49L13 50L14 50L14 49L13 49L13 48L14 48L14 47L15 47L15 48L16 48L16 47L15 47L15 46L17 46L17 47L18 47L18 46L19 46L19 47L20 47L20 48L22 48L22 50L23 50L23 51L26 51L26 50L23 50L23 49L24 49L24 48L23 48L23 47L21 47L21 45L22 45L22 46L24 46L24 44L21 44L21 43L22 43L22 42L23 42L23 43L25 43L25 42L26 42L26 44L27 44L27 43L28 43L28 42L29 42L29 41L30 41L30 42L31 42L31 41L30 41L30 40L31 40L31 39L32 39L32 41L33 41L33 42L32 42L32 44L31 44L31 43L29 43L29 44L31 44L31 45L32 45L32 44L33 44L33 43L34 43L34 41L33 41L33 40L34 40L34 37L33 37L33 34L34 34L34 33L31 33L31 32L33 32L33 31L34 31L34 30L35 30L35 32L36 32L36 31L37 31L37 29L38 29L38 28L37 28L37 29L35 29L35 28L34 28L34 22L35 22L35 24L36 24L36 23L38 23L38 21L37 21L37 19L38 19L38 20L39 20L39 19L38 19L38 18L40 18L40 17L37 17L37 16L36 16L36 17L35 17L35 16L34 16L34 15L33 15L33 14L32 14L32 12L33 12L33 11L35 11L35 12L36 12L36 13L34 13L34 14L35 14L35 15L38 15L38 14L39 14L39 13L40 13L40 12L39 12L39 11L40 11L40 10L42 10L42 9L43 9L43 10L44 10L44 8L43 8L43 7L42 7L42 6L41 6L41 5L40 5L40 3L39 3L39 2L38 2L38 3L37 3L37 2L36 2L36 3L34 3L34 4L32 4L32 5L29 5L29 9L28 9L28 13L29 13L29 14L28 14L28 17L27 17L27 16L26 16L26 17L25 17L25 15L27 15L27 14L26 14L26 13L25 13L25 12L26 12L26 11L24 11L24 10L23 10L23 9L24 9L24 8L22 8L22 10L21 10L21 11L20 11L20 10L19 10L19 9L21 9L21 7L22 7L22 6L23 6L23 7L24 7L24 6L23 6L23 5L22 5L22 4L21 4L21 1ZM27 3L27 4L28 4L28 3ZM10 4L10 5L11 5L11 4ZM12 4L12 7L13 7L13 4ZM15 4L15 5L16 5L16 4ZM20 4L20 7L19 7L19 8L20 8L20 7L21 7L21 6L22 6L22 5L21 5L21 4ZM35 4L35 5L32 5L32 7L31 7L31 6L30 6L30 7L31 7L31 8L30 8L30 9L29 9L29 10L30 10L30 9L31 9L31 12L30 12L30 13L31 13L31 12L32 12L32 10L34 10L34 9L35 9L35 10L37 10L37 9L41 9L41 8L38 8L38 7L39 7L39 6L40 6L40 7L41 7L41 6L40 6L40 5L39 5L39 4L38 4L38 7L37 7L37 4ZM8 5L8 7L9 7L9 8L10 8L10 7L11 7L11 6L10 6L10 7L9 7L9 5ZM25 5L25 8L28 8L28 5ZM15 6L15 7L16 7L16 6ZM26 6L26 7L27 7L27 6ZM33 6L33 7L32 7L32 8L34 8L34 6ZM35 6L35 9L36 9L36 6ZM4 8L4 9L7 9L7 8ZM49 8L49 9L50 9L50 10L51 10L51 9L53 9L53 8ZM1 9L1 11L2 11L2 9ZM22 10L22 11L21 11L21 12L23 12L23 14L22 14L22 13L21 13L21 14L22 14L22 15L21 15L21 16L20 16L20 15L18 15L18 14L19 14L19 13L17 13L17 12L15 12L15 13L14 13L14 14L15 14L15 15L16 15L16 16L14 16L14 15L13 15L13 16L12 16L12 14L11 14L11 15L10 15L10 16L9 16L9 14L8 14L8 15L7 15L7 14L6 14L6 15L7 15L7 16L9 16L9 18L8 18L8 19L9 19L9 20L8 20L8 21L7 21L7 22L6 22L6 23L9 23L9 22L12 22L12 23L14 23L14 24L15 24L15 23L16 23L16 24L18 24L18 26L19 26L19 28L20 28L20 26L22 26L22 27L21 27L21 29L22 29L22 32L23 32L23 28L24 28L24 29L25 29L25 31L24 31L24 33L25 33L25 34L27 34L27 35L24 35L24 34L22 34L22 33L21 33L21 32L20 32L20 31L21 31L21 30L20 30L20 31L19 31L19 29L18 29L18 31L16 31L16 32L14 32L14 31L13 31L13 32L12 32L12 31L11 31L11 30L10 30L10 31L11 31L11 32L12 32L12 34L13 34L13 33L14 33L14 34L15 34L15 33L16 33L16 32L17 32L17 33L18 33L18 34L19 34L19 33L18 33L18 32L20 32L20 33L21 33L21 34L20 34L20 35L21 35L21 36L25 36L25 37L26 37L26 38L27 38L27 39L28 39L28 41L27 41L27 40L26 40L26 42L28 42L28 41L29 41L29 39L31 39L31 37L32 37L32 35L31 35L31 36L30 36L30 38L27 38L27 37L29 37L29 35L28 35L28 33L27 33L27 32L28 32L28 31L32 31L32 30L34 30L34 29L31 29L31 28L29 28L29 23L32 23L32 25L31 25L31 24L30 24L30 26L31 26L31 27L32 27L32 28L33 28L33 27L32 27L32 25L33 25L33 23L32 23L32 22L34 22L34 20L35 20L35 19L34 19L34 18L35 18L35 17L33 17L33 16L32 16L32 17L31 17L31 18L28 18L28 20L27 20L27 19L24 19L24 21L23 21L23 20L22 20L22 21L20 21L20 22L19 22L19 21L18 21L18 19L17 19L17 18L19 18L19 20L20 20L20 19L21 19L21 18L20 18L20 17L23 17L23 18L22 18L22 19L23 19L23 18L25 18L25 17L24 17L24 16L22 16L22 15L25 15L25 13L24 13L24 11L23 11L23 10ZM38 10L38 11L37 11L37 13L36 13L36 14L38 14L38 13L39 13L39 12L38 12L38 11L39 11L39 10ZM18 11L18 12L20 12L20 11ZM41 11L41 13L42 13L42 12L43 12L43 13L44 13L44 12L43 12L43 11ZM1 13L1 14L2 14L2 13ZM15 13L15 14L17 14L17 13ZM47 13L47 15L48 15L48 16L50 16L50 15L49 15L49 14L50 14L50 13L49 13L49 14L48 14L48 13ZM4 14L4 15L5 15L5 14ZM31 14L31 15L32 15L32 14ZM17 15L17 16L16 16L16 17L15 17L15 18L14 18L14 17L13 17L13 18L12 18L12 17L10 17L10 18L9 18L9 19L10 19L10 21L14 21L14 20L15 20L15 21L16 21L16 20L15 20L15 19L16 19L16 18L17 18L17 16L18 16L18 15ZM19 16L19 17L20 17L20 16ZM26 17L26 18L27 18L27 17ZM36 17L36 18L37 18L37 17ZM51 17L51 18L52 18L52 17ZM10 18L10 19L11 19L11 20L12 20L12 19L11 19L11 18ZM13 18L13 19L14 19L14 18ZM32 18L32 19L29 19L29 20L28 20L28 21L30 21L30 20L31 20L31 22L32 22L32 20L34 20L34 19L33 19L33 18ZM3 19L3 20L4 20L4 21L5 21L5 19ZM46 19L46 20L49 20L49 19ZM25 20L25 22L23 22L23 21L22 21L22 22L21 22L21 23L20 23L20 25L19 25L19 26L20 26L20 25L21 25L21 23L22 23L22 22L23 22L23 23L25 23L25 22L26 22L26 24L28 24L28 23L27 23L27 22L26 22L26 20ZM2 21L2 23L3 23L3 21ZM8 21L8 22L9 22L9 21ZM35 21L35 22L37 22L37 21ZM50 21L50 23L53 23L53 22L52 22L52 21ZM18 22L18 24L19 24L19 22ZM45 22L45 23L44 23L44 24L46 24L46 22ZM1 24L1 25L2 25L2 26L3 26L3 27L4 27L4 26L3 26L3 25L2 25L2 24ZM5 25L5 28L8 28L8 25ZM23 25L23 27L24 27L24 25ZM25 25L25 28L28 28L28 25ZM45 25L45 28L48 28L48 25ZM6 26L6 27L7 27L7 26ZM26 26L26 27L27 27L27 26ZM46 26L46 27L47 27L47 26ZM10 27L10 28L11 28L11 27ZM17 27L17 28L15 28L15 29L14 29L14 30L16 30L16 29L17 29L17 28L18 28L18 27ZM49 27L49 28L50 28L50 29L49 29L49 31L48 31L48 30L47 30L47 31L45 31L45 29L44 29L44 30L42 30L42 29L41 29L41 28L39 28L39 29L41 29L41 30L42 30L42 31L41 31L41 32L40 32L40 33L41 33L41 36L40 36L40 34L38 34L38 33L36 33L36 34L35 34L35 35L38 35L38 36L37 36L37 38L36 38L36 37L35 37L35 39L36 39L36 40L35 40L35 43L37 43L37 42L38 42L38 41L39 41L39 43L38 43L38 45L35 45L35 48L34 48L34 47L33 47L33 46L34 46L34 45L33 45L33 46L32 46L32 47L29 47L29 49L30 49L30 48L31 48L31 49L32 49L32 48L33 48L33 49L35 49L35 51L37 51L37 50L36 50L36 49L39 49L39 51L38 51L38 52L40 52L40 49L42 49L42 50L41 50L41 51L42 51L42 50L43 50L43 51L45 51L45 50L44 50L44 49L43 49L43 47L44 47L44 45L43 45L43 46L41 46L41 45L42 45L42 44L43 44L43 43L44 43L44 44L46 44L46 43L48 43L48 44L50 44L50 45L49 45L49 46L50 46L50 45L51 45L51 47L49 47L49 48L51 48L51 47L52 47L52 44L50 44L50 43L48 43L48 40L51 40L51 39L47 39L47 38L50 38L50 36L49 36L49 35L51 35L51 36L52 36L52 34L50 34L50 32L49 32L49 31L50 31L50 29L51 29L51 27ZM0 28L0 29L1 29L1 28ZM5 29L5 30L8 30L8 29ZM28 29L28 30L26 30L26 31L25 31L25 33L26 33L26 32L27 32L27 31L28 31L28 30L31 30L31 29ZM38 31L38 32L39 32L39 31ZM6 32L6 33L7 33L7 32ZM29 32L29 33L30 33L30 32ZM44 32L44 33L42 33L42 35L43 35L43 34L44 34L44 37L41 37L41 38L40 38L40 36L38 36L38 38L37 38L37 41L36 41L36 42L37 42L37 41L38 41L38 38L40 38L40 40L41 40L41 41L40 41L40 43L39 43L39 44L41 44L41 43L42 43L42 41L43 41L43 42L44 42L44 41L45 41L45 43L46 43L46 40L47 40L47 39L43 39L43 38L44 38L44 37L45 37L45 38L46 38L46 34L47 34L47 35L48 35L48 33L46 33L46 32ZM44 33L44 34L45 34L45 33ZM4 34L4 35L5 35L5 34ZM6 34L6 35L7 35L7 34ZM21 34L21 35L22 35L22 34ZM1 36L1 37L0 37L0 38L3 38L3 37L2 37L2 36ZM48 36L48 37L49 37L49 36ZM41 39L41 40L43 40L43 41L44 41L44 40L43 40L43 39ZM19 40L19 41L20 41L20 40ZM1 41L1 42L2 42L2 43L3 43L3 41ZM5 41L5 42L7 42L7 41ZM8 41L8 43L9 43L9 41ZM49 41L49 42L50 42L50 41ZM18 43L18 44L15 44L15 45L17 45L17 46L18 46L18 45L19 45L19 44L20 44L20 43ZM25 45L25 48L28 48L28 45ZM38 45L38 46L40 46L40 47L39 47L39 49L40 49L40 48L42 48L42 47L41 47L41 46L40 46L40 45ZM45 45L45 48L48 48L48 45ZM26 46L26 47L27 47L27 46ZM46 46L46 47L47 47L47 46ZM36 47L36 48L35 48L35 49L36 49L36 48L37 48L37 47ZM10 48L10 49L11 49L11 48ZM18 48L18 49L19 49L19 48ZM20 49L20 50L21 50L21 49ZM46 49L46 50L47 50L47 52L49 52L49 51L48 51L48 49ZM32 50L32 51L33 51L33 52L34 52L34 50ZM19 52L19 53L21 53L21 52ZM0 0L0 7L7 7L7 0ZM1 1L1 6L6 6L6 1ZM2 2L2 5L5 5L5 2ZM46 0L46 7L53 7L53 0ZM47 1L47 6L52 6L52 1ZM48 2L48 5L51 5L51 2ZM0 46L0 53L7 53L7 46ZM1 47L1 52L6 52L6 47ZM2 48L2 51L5 51L5 48Z" fill="#000000"/></g></g></svg>
