<?xml version="1.0" encoding="UTF-8"?>
<svg xmlns="http://www.w3.org/2000/svg" version="1.1" width="100" height="100" viewBox="0 0 100 100"><rect x="0" y="0" width="100" height="100" fill="#ffffff"/><g transform="scale(1.754)"><g transform="translate(0,0)"><path fill-rule="evenodd" d="M8 0L8 4L10 4L10 5L11 5L11 6L10 6L10 7L9 7L9 5L8 5L8 7L9 7L9 8L10 8L10 10L9 10L9 11L7 11L7 10L8 10L8 9L7 9L7 8L4 8L4 9L7 9L7 10L6 10L6 11L5 11L5 10L4 10L4 14L3 14L3 12L0 12L0 17L1 17L1 18L2 18L2 19L1 19L1 20L2 20L2 21L0 21L0 22L2 22L2 21L3 21L3 23L4 23L4 24L2 24L2 25L0 25L0 26L4 26L4 27L2 27L2 28L1 28L1 27L0 27L0 29L2 29L2 28L3 28L3 29L4 29L4 30L3 30L3 31L2 31L2 30L0 30L0 32L1 32L1 31L2 31L2 32L3 32L3 33L4 33L4 34L3 34L3 36L4 36L4 37L7 37L7 38L6 38L6 39L4 39L4 38L3 38L3 39L4 39L4 40L6 40L6 41L8 41L8 40L9 40L9 42L10 42L10 43L11 43L11 44L10 44L10 45L11 45L11 44L13 44L13 43L14 43L14 44L15 44L15 45L14 45L14 46L13 46L13 45L12 45L12 46L13 46L13 47L11 47L11 49L10 49L10 50L11 50L11 49L12 49L12 50L13 50L13 48L14 48L14 46L16 46L16 45L18 45L18 46L19 46L19 47L16 47L16 48L15 48L15 49L14 49L14 50L15 50L15 52L14 52L14 51L13 51L13 53L16 53L16 52L17 52L17 53L18 53L18 52L19 52L19 53L21 53L21 54L20 54L20 55L19 55L19 56L17 56L17 54L16 54L16 55L15 55L15 56L14 56L14 57L15 57L15 56L17 56L17 57L20 57L20 56L21 56L21 57L22 57L22 56L24 56L24 57L28 57L28 55L29 55L29 56L31 56L31 55L30 55L30 54L32 54L32 53L31 53L31 51L32 51L32 52L33 52L33 54L34 54L34 53L36 53L36 52L35 52L35 49L36 49L36 50L37 50L37 53L40 53L40 57L42 57L42 55L44 55L44 53L45 53L45 54L46 54L46 56L47 56L47 57L50 57L50 55L51 55L51 57L52 57L52 55L51 55L51 54L55 54L55 49L56 49L56 50L57 50L57 41L56 41L56 40L57 40L57 39L56 39L56 38L57 38L57 34L55 34L55 33L54 33L54 35L52 35L52 34L53 34L53 33L52 33L52 32L53 32L53 31L54 31L54 30L55 30L55 29L54 29L54 28L55 28L55 27L56 27L56 31L55 31L55 32L56 32L56 33L57 33L57 27L56 27L56 25L57 25L57 24L55 24L55 25L54 25L54 26L52 26L52 24L54 24L54 23L53 23L53 22L57 22L57 20L56 20L56 17L57 17L57 16L56 16L56 17L55 17L55 16L54 16L54 15L57 15L57 12L56 12L56 14L55 14L55 13L54 13L54 15L53 15L53 13L52 13L52 12L55 12L55 11L56 11L56 9L57 9L57 8L53 8L53 10L52 10L52 12L50 12L50 10L49 10L49 9L48 9L48 7L49 7L49 6L48 6L48 7L47 7L47 5L48 5L48 0L45 0L45 1L42 1L42 2L43 2L43 4L42 4L42 3L38 3L38 2L40 2L40 1L39 1L39 0L38 0L38 2L37 2L37 0L35 0L35 1L34 1L34 3L33 3L33 1L32 1L32 2L31 2L31 3L30 3L30 2L28 2L28 0L25 0L25 3L26 3L26 1L27 1L27 2L28 2L28 3L30 3L30 4L25 4L25 5L26 5L26 7L25 7L25 6L24 6L24 9L25 9L25 8L26 8L26 11L27 11L27 9L33 9L33 5L34 5L34 10L38 10L38 11L36 11L36 13L35 13L35 11L32 11L32 10L31 10L31 11L32 11L32 14L31 14L31 13L30 13L30 14L29 14L29 11L30 11L30 10L28 10L28 15L27 15L27 13L26 13L26 16L24 16L24 17L21 17L21 16L23 16L23 15L24 15L24 14L25 14L25 12L23 12L23 10L20 10L20 11L19 11L19 9L20 9L20 8L19 8L19 5L20 5L20 7L21 7L21 8L22 8L22 9L23 9L23 6L22 6L22 5L24 5L24 2L23 2L23 3L22 3L22 4L20 4L20 1L21 1L21 2L22 2L22 1L24 1L24 0L19 0L19 1L16 1L16 0L13 0L13 1L14 1L14 7L13 7L13 6L12 6L12 4L13 4L13 3L12 3L12 2L10 2L10 1L9 1L9 0ZM29 0L29 1L31 1L31 0ZM46 1L46 2L47 2L47 1ZM15 2L15 3L16 3L16 2ZM10 3L10 4L11 4L11 3ZM17 3L17 4L18 4L18 5L19 5L19 4L18 4L18 3ZM34 3L34 5L37 5L37 4L38 4L38 6L37 6L37 7L36 7L36 6L35 6L35 7L36 7L36 8L37 8L37 7L38 7L38 8L39 8L39 9L38 9L38 10L39 10L39 9L43 9L43 11L42 11L42 10L41 10L41 11L40 11L40 12L41 12L41 13L39 13L39 11L38 11L38 12L37 12L37 13L36 13L36 15L35 15L35 14L34 14L34 15L33 15L33 14L32 14L32 16L34 16L34 19L33 19L33 18L32 18L32 17L31 17L31 15L28 15L28 16L26 16L26 17L24 17L24 18L25 18L25 19L23 19L23 20L26 20L26 19L27 19L27 21L28 21L28 22L26 22L26 21L25 21L25 22L24 22L24 21L22 21L22 22L21 22L21 21L19 21L19 20L18 20L18 19L19 19L19 18L20 18L20 16L21 16L21 15L22 15L22 14L24 14L24 13L23 13L23 12L22 12L22 11L20 11L20 14L18 14L18 13L19 13L19 12L18 12L18 13L17 13L17 15L20 15L20 16L18 16L18 17L17 17L17 16L16 16L16 15L15 15L15 14L14 14L14 13L12 13L12 14L11 14L11 13L10 13L10 12L13 12L13 11L14 11L14 12L15 12L15 13L16 13L16 11L15 11L15 10L13 10L13 9L14 9L14 8L16 8L16 9L17 9L17 11L18 11L18 9L19 9L19 8L18 8L18 6L17 6L17 7L16 7L16 5L15 5L15 7L14 7L14 8L13 8L13 7L12 7L12 6L11 6L11 7L10 7L10 8L11 8L11 7L12 7L12 11L11 11L11 10L10 10L10 11L9 11L9 13L10 13L10 14L11 14L11 16L13 16L13 18L12 18L12 17L10 17L10 15L9 15L9 14L8 14L8 13L6 13L6 14L7 14L7 15L6 15L6 16L5 16L5 15L4 15L4 16L5 16L5 17L3 17L3 18L4 18L4 21L5 21L5 23L6 23L6 24L5 24L5 25L6 25L6 26L10 26L10 27L11 27L11 26L12 26L12 27L14 27L14 28L13 28L13 29L12 29L12 28L9 28L9 30L10 30L10 31L11 31L11 29L12 29L12 30L13 30L13 31L12 31L12 33L13 33L13 34L11 34L11 33L9 33L9 34L7 34L7 33L8 33L8 31L4 31L4 33L6 33L6 34L7 34L7 35L6 35L6 36L7 36L7 37L8 37L8 39L9 39L9 40L10 40L10 42L11 42L11 43L13 43L13 42L15 42L15 44L16 44L16 42L17 42L17 43L18 43L18 42L17 42L17 39L18 39L18 41L19 41L19 43L20 43L20 46L21 46L21 47L20 47L20 48L19 48L19 49L18 49L18 48L17 48L17 49L18 49L18 50L16 50L16 51L19 51L19 52L21 52L21 51L22 51L22 52L23 52L23 54L24 54L24 56L25 56L25 55L27 55L27 54L28 54L28 53L27 53L27 54L26 54L26 53L25 53L25 54L24 54L24 52L25 52L25 51L24 51L24 50L23 50L23 49L24 49L24 48L25 48L25 50L26 50L26 48L28 48L28 46L31 46L31 45L33 45L33 46L32 46L32 48L31 48L31 49L33 49L33 50L32 50L32 51L33 51L33 52L34 52L34 51L33 51L33 50L34 50L34 49L33 49L33 47L34 47L34 46L35 46L35 48L37 48L37 50L38 50L38 52L39 52L39 51L40 51L40 52L41 52L41 54L43 54L43 50L44 50L44 51L45 51L45 53L48 53L48 55L47 55L47 56L49 56L49 55L50 55L50 53L48 53L48 50L47 50L47 52L46 52L46 51L45 51L45 50L46 50L46 49L45 49L45 45L46 45L46 43L47 43L47 42L48 42L48 44L49 44L49 45L47 45L47 46L46 46L46 47L47 47L47 49L48 49L48 48L49 48L49 45L50 45L50 44L49 44L49 43L51 43L51 44L52 44L52 45L54 45L54 44L52 44L52 43L51 43L51 41L50 41L50 39L51 39L51 40L52 40L52 41L54 41L54 40L56 40L56 39L55 39L55 38L53 38L53 37L54 37L54 36L52 36L52 35L51 35L51 33L48 33L48 35L47 35L47 32L46 32L46 27L47 27L47 28L48 28L48 26L47 26L47 24L48 24L48 25L49 25L49 26L50 26L50 25L51 25L51 23L52 23L52 22L53 22L53 20L52 20L52 21L51 21L51 19L50 19L50 18L51 18L51 17L53 17L53 16L52 16L52 13L50 13L50 16L51 16L51 17L50 17L50 18L46 18L46 19L45 19L45 18L44 18L44 19L43 19L43 14L44 14L44 15L45 15L45 17L47 17L47 16L48 16L48 17L49 17L49 15L47 15L47 16L46 16L46 14L47 14L47 13L46 13L46 10L47 10L47 12L49 12L49 11L48 11L48 10L47 10L47 8L46 8L46 6L45 6L45 7L44 7L44 5L47 5L47 3L46 3L46 4L44 4L44 5L43 5L43 7L42 7L42 6L41 6L41 5L42 5L42 4L41 4L41 5L40 5L40 4L38 4L38 3L37 3L37 4L36 4L36 3ZM32 4L32 5L33 5L33 4ZM27 5L27 8L30 8L30 5ZM39 5L39 6L38 6L38 7L39 7L39 6L40 6L40 8L41 8L41 6L40 6L40 5ZM21 6L21 7L22 7L22 6ZM28 6L28 7L29 7L29 6ZM31 6L31 7L32 7L32 6ZM0 8L0 9L1 9L1 10L2 10L2 11L3 11L3 9L2 9L2 8ZM44 8L44 9L46 9L46 8ZM51 8L51 9L52 9L52 8ZM54 9L54 10L53 10L53 11L54 11L54 10L55 10L55 9ZM24 10L24 11L25 11L25 10ZM6 11L6 12L7 12L7 11ZM33 12L33 13L34 13L34 12ZM44 12L44 14L45 14L45 12ZM1 13L1 15L3 15L3 14L2 14L2 13ZM21 13L21 14L20 14L20 15L21 15L21 14L22 14L22 13ZM37 13L37 14L38 14L38 15L36 15L36 17L35 17L35 18L37 18L37 16L38 16L38 19L37 19L37 20L38 20L38 21L37 21L37 23L35 23L35 22L34 22L34 21L33 21L33 19L32 19L32 18L31 18L31 17L30 17L30 16L28 16L28 17L26 17L26 18L28 18L28 19L30 19L30 18L31 18L31 20L30 20L30 21L29 21L29 22L28 22L28 23L27 23L27 24L26 24L26 23L25 23L25 24L24 24L24 23L23 23L23 22L22 22L22 24L21 24L21 22L20 22L20 23L19 23L19 24L18 24L18 25L17 25L17 22L19 22L19 21L17 21L17 22L16 22L16 23L15 23L15 24L14 24L14 23L13 23L13 24L12 24L12 22L15 22L15 21L16 21L16 20L17 20L17 19L16 19L16 18L13 18L13 19L14 19L14 20L15 20L15 21L11 21L11 19L12 19L12 18L9 18L9 17L8 17L8 16L9 16L9 15L7 15L7 16L6 16L6 17L7 17L7 18L5 18L5 21L7 21L7 22L6 22L6 23L7 23L7 24L6 24L6 25L8 25L8 23L9 23L9 24L10 24L10 25L11 25L11 24L12 24L12 25L13 25L13 24L14 24L14 25L15 25L15 24L16 24L16 26L17 26L17 27L16 27L16 28L15 28L15 29L13 29L13 30L14 30L14 31L13 31L13 33L15 33L15 34L14 34L14 35L12 35L12 37L13 37L13 36L14 36L14 39L13 39L13 38L11 38L11 37L10 37L10 36L9 36L9 35L11 35L11 34L9 34L9 35L7 35L7 36L9 36L9 38L11 38L11 39L10 39L10 40L11 40L11 42L12 42L12 41L15 41L15 42L16 42L16 40L15 40L15 39L16 39L16 38L17 38L17 37L18 37L18 35L16 35L16 33L15 33L15 30L16 30L16 29L17 29L17 30L19 30L19 28L20 28L20 29L24 29L24 30L22 30L22 32L23 32L23 33L22 33L22 35L21 35L21 32L20 32L20 31L16 31L16 32L19 32L19 33L17 33L17 34L19 34L19 36L20 36L20 37L19 37L19 39L20 39L20 38L21 38L21 36L22 36L22 39L21 39L21 40L22 40L22 41L20 41L20 40L19 40L19 41L20 41L20 42L21 42L21 43L22 43L22 44L23 44L23 41L24 41L24 42L25 42L25 41L24 41L24 40L25 40L25 39L26 39L26 41L28 41L28 42L29 42L29 43L27 43L27 42L26 42L26 44L27 44L27 45L26 45L26 46L28 46L28 44L29 44L29 45L31 45L31 44L32 44L32 42L34 42L34 43L33 43L33 45L35 45L35 44L37 44L37 45L38 45L38 44L37 44L37 43L35 43L35 42L34 42L34 41L35 41L35 40L36 40L36 42L37 42L37 41L39 41L39 42L40 42L40 44L41 44L41 42L43 42L43 43L44 43L44 42L45 42L45 43L46 43L46 40L48 40L48 41L49 41L49 42L50 42L50 41L49 41L49 39L48 39L48 38L46 38L46 36L47 36L47 35L46 35L46 36L45 36L45 35L44 35L44 34L45 34L45 33L43 33L43 32L42 32L42 33L39 33L39 32L41 32L41 29L39 29L39 32L38 32L38 30L37 30L37 32L38 32L38 33L37 33L37 35L38 35L38 33L39 33L39 35L41 35L41 34L42 34L42 33L43 33L43 36L42 36L42 37L37 37L37 36L36 36L36 37L37 37L37 39L35 39L35 37L34 37L34 40L33 40L33 39L32 39L32 34L33 34L33 35L34 35L34 36L35 36L35 35L34 35L34 34L35 34L35 33L36 33L36 31L34 31L34 32L35 32L35 33L33 33L33 32L32 32L32 33L31 33L31 31L32 31L32 30L33 30L33 28L32 28L32 30L31 30L31 27L32 27L32 26L34 26L34 29L35 29L35 25L32 25L32 24L33 24L33 23L34 23L34 24L38 24L38 26L40 26L40 27L39 27L39 28L40 28L40 27L42 27L42 26L43 26L43 27L44 27L44 28L45 28L45 27L46 27L46 24L47 24L47 23L48 23L48 22L47 22L47 21L50 21L50 20L47 20L47 19L46 19L46 20L47 20L47 21L45 21L45 20L44 20L44 21L43 21L43 24L41 24L41 21L42 21L42 20L38 20L38 19L39 19L39 17L40 17L40 19L41 19L41 17L42 17L42 16L41 16L41 17L40 17L40 15L41 15L41 14L42 14L42 13L41 13L41 14L40 14L40 15L39 15L39 13ZM48 13L48 14L49 14L49 13ZM12 14L12 15L14 15L14 17L16 17L16 16L15 16L15 15L14 15L14 14ZM34 15L34 16L35 16L35 15ZM38 15L38 16L39 16L39 15ZM18 17L18 18L19 18L19 17ZM28 17L28 18L30 18L30 17ZM21 18L21 19L20 19L20 20L21 20L21 19L22 19L22 18ZM53 18L53 19L54 19L54 18ZM2 19L2 20L3 20L3 19ZM6 19L6 20L7 20L7 19ZM8 19L8 20L9 20L9 19ZM15 19L15 20L16 20L16 19ZM34 19L34 20L35 20L35 19ZM55 20L55 21L56 21L56 20ZM8 21L8 22L7 22L7 23L8 23L8 22L11 22L11 21ZM30 21L30 22L29 22L29 23L28 23L28 25L29 25L29 26L30 26L30 25L29 25L29 24L32 24L32 23L33 23L33 21ZM39 21L39 22L38 22L38 24L39 24L39 22L40 22L40 21ZM44 21L44 24L43 24L43 25L44 25L44 24L46 24L46 23L47 23L47 22L45 22L45 21ZM31 22L31 23L32 23L32 22ZM49 22L49 23L51 23L51 22ZM10 23L10 24L11 24L11 23ZM22 24L22 26L20 26L20 25L19 25L19 26L18 26L18 27L17 27L17 29L18 29L18 28L19 28L19 26L20 26L20 28L21 28L21 27L22 27L22 28L24 28L24 29L25 29L25 30L24 30L24 31L23 31L23 32L26 32L26 33L30 33L30 35L29 35L29 34L28 34L28 35L27 35L27 34L25 34L25 33L24 33L24 34L25 34L25 35L22 35L22 36L23 36L23 37L24 37L24 38L25 38L25 37L26 37L26 38L27 38L27 40L28 40L28 41L29 41L29 42L31 42L31 41L32 41L32 40L31 40L31 37L30 37L30 38L29 38L29 36L30 36L30 35L31 35L31 33L30 33L30 32L28 32L28 31L27 31L27 32L26 32L26 31L25 31L25 30L26 30L26 28L25 28L25 27L26 27L26 24L25 24L25 25L24 25L24 24ZM40 24L40 26L41 26L41 24ZM31 25L31 26L32 26L32 25ZM36 25L36 26L37 26L37 25ZM14 26L14 27L15 27L15 26ZM23 26L23 27L24 27L24 26ZM44 26L44 27L45 27L45 26ZM5 27L5 30L8 30L8 27ZM27 27L27 30L30 30L30 27ZM36 27L36 29L38 29L38 27ZM49 27L49 30L52 30L52 27ZM53 27L53 28L54 28L54 27ZM6 28L6 29L7 29L7 28ZM28 28L28 29L29 29L29 28ZM50 28L50 29L51 29L51 28ZM42 29L42 30L43 30L43 31L44 31L44 32L45 32L45 31L44 31L44 30L45 30L45 29ZM47 29L47 31L48 31L48 29ZM50 31L50 32L52 32L52 31ZM6 32L6 33L7 33L7 32ZM0 33L0 34L2 34L2 33ZM4 34L4 35L5 35L5 34ZM15 35L15 37L17 37L17 36L16 36L16 35ZM20 35L20 36L21 36L21 35ZM26 35L26 36L27 36L27 35ZM28 35L28 36L29 36L29 35ZM55 35L55 36L56 36L56 35ZM1 36L1 37L2 37L2 36ZM24 36L24 37L25 37L25 36ZM43 36L43 37L42 37L42 38L43 38L43 39L41 39L41 40L40 40L40 38L38 38L38 40L40 40L40 42L41 42L41 40L43 40L43 39L45 39L45 40L46 40L46 39L45 39L45 36ZM48 36L48 37L49 37L49 36ZM50 36L50 38L52 38L52 40L54 40L54 39L53 39L53 38L52 38L52 36ZM43 37L43 38L44 38L44 37ZM0 38L0 42L2 42L2 43L0 43L0 44L1 44L1 45L3 45L3 44L4 44L4 43L3 43L3 41L2 41L2 38ZM6 39L6 40L7 40L7 39ZM22 39L22 40L24 40L24 39ZM28 39L28 40L29 40L29 41L31 41L31 40L29 40L29 39ZM4 41L4 42L5 42L5 44L6 44L6 45L7 45L7 46L5 46L5 47L3 47L3 46L2 46L2 47L1 47L1 46L0 46L0 48L5 48L5 47L7 47L7 46L9 46L9 47L10 47L10 46L9 46L9 43L7 43L7 42L5 42L5 41ZM43 41L43 42L44 42L44 41ZM55 42L55 43L56 43L56 42ZM6 43L6 44L7 44L7 43ZM18 44L18 45L19 45L19 44ZM43 44L43 45L45 45L45 44ZM55 44L55 45L56 45L56 44ZM21 45L21 46L22 46L22 47L21 47L21 50L20 50L20 51L21 51L21 50L22 50L22 51L23 51L23 50L22 50L22 49L23 49L23 47L24 47L24 45L23 45L23 46L22 46L22 45ZM39 45L39 46L40 46L40 49L41 49L41 50L40 50L40 51L42 51L42 50L43 50L43 49L44 49L44 47L43 47L43 48L42 48L42 49L41 49L41 46L40 46L40 45ZM37 46L37 48L38 48L38 50L39 50L39 48L38 48L38 46ZM47 46L47 47L48 47L48 46ZM53 46L53 49L55 49L55 47L56 47L56 46ZM29 47L29 48L30 48L30 47ZM50 47L50 48L52 48L52 47ZM6 48L6 49L7 49L7 48ZM8 48L8 50L9 50L9 48ZM27 49L27 52L30 52L30 49ZM49 49L49 52L52 52L52 49ZM28 50L28 51L29 51L29 50ZM50 50L50 51L51 51L51 50ZM53 50L53 51L54 51L54 50ZM8 51L8 53L9 53L9 55L8 55L8 57L12 57L12 56L11 56L11 54L10 54L10 53L11 53L11 51L10 51L10 52L9 52L9 51ZM56 51L56 54L57 54L57 51ZM21 54L21 56L22 56L22 54ZM38 54L38 55L36 55L36 57L39 57L39 56L38 56L38 55L39 55L39 54ZM32 55L32 57L33 57L33 55ZM34 55L34 57L35 57L35 55ZM55 55L55 56L54 56L54 57L55 57L55 56L56 56L56 57L57 57L57 55ZM43 56L43 57L44 57L44 56ZM0 0L0 7L7 7L7 0ZM1 1L1 6L6 6L6 1ZM2 2L2 5L5 5L5 2ZM50 0L50 7L57 7L57 0ZM51 1L51 6L56 6L56 1ZM52 2L52 5L55 5L55 2ZM0 50L0 57L7 57L7 50ZM1 51L1 56L6 56L6 51ZM2 52L2 55L5 55L5 52Z" fill="#000000"/></g></g></svg>
