<?xml version="1.0" encoding="UTF-8"?>
<svg xmlns="http://www.w3.org/2000/svg" version="1.1" width="100" height="100" viewBox="0 0 100 100"><rect x="0" y="0" width="100" height="100" fill="#ffffff"/><g transform="scale(1.887)"><g transform="translate(0,0)"><path fill-rule="evenodd" d="M8 0L8 4L9 4L9 5L8 5L8 7L9 7L9 6L10 6L10 7L11 7L11 6L10 6L10 4L14 4L14 3L17 3L17 2L18 2L18 3L21 3L21 5L20 5L20 4L19 4L19 5L18 5L18 4L17 4L17 5L16 5L16 8L17 8L17 5L18 5L18 7L19 7L19 8L18 8L18 9L13 9L13 10L11 10L11 9L12 9L12 8L10 8L10 9L9 9L9 10L8 10L8 9L7 9L7 8L4 8L4 9L2 9L2 8L0 8L0 9L2 9L2 10L0 10L0 11L1 11L1 12L0 12L0 15L1 15L1 16L0 16L0 19L1 19L1 20L3 20L3 21L0 21L0 23L1 23L1 22L3 22L3 21L4 21L4 23L5 23L5 21L4 21L4 19L5 19L5 16L6 16L6 17L8 17L8 18L6 18L6 19L8 19L8 20L6 20L6 21L8 21L8 22L6 22L6 23L7 23L7 24L3 24L3 25L2 25L2 24L1 24L1 25L0 25L0 26L2 26L2 28L0 28L0 29L2 29L2 30L0 30L0 32L2 32L2 31L3 31L3 33L2 33L2 34L3 34L3 35L4 35L4 37L3 37L3 38L2 38L2 41L1 41L1 40L0 40L0 41L1 41L1 42L0 42L0 43L1 43L1 44L3 44L3 45L4 45L4 44L3 44L3 43L7 43L7 42L3 42L3 40L4 40L4 39L5 39L5 40L6 40L6 41L8 41L8 40L9 40L9 39L7 39L7 38L6 38L6 37L7 37L7 36L5 36L5 35L4 35L4 34L6 34L6 35L9 35L9 34L8 34L8 33L9 33L9 32L8 32L8 33L7 33L7 32L6 32L6 33L4 33L4 32L5 32L5 31L7 31L7 30L8 30L8 29L9 29L9 31L10 31L10 34L13 34L13 33L14 33L14 34L15 34L15 33L16 33L16 32L17 32L17 33L18 33L18 34L16 34L16 35L11 35L11 36L9 36L9 38L11 38L11 37L12 37L12 36L13 36L13 37L14 37L14 38L13 38L13 39L12 39L12 40L13 40L13 39L14 39L14 40L17 40L17 39L18 39L18 38L20 38L20 39L19 39L19 40L18 40L18 41L13 41L13 42L15 42L15 43L14 43L14 44L13 44L13 43L12 43L12 41L11 41L11 39L10 39L10 42L11 42L11 43L9 43L9 44L6 44L6 45L8 45L8 46L9 46L9 47L8 47L8 49L9 49L9 48L10 48L10 47L11 47L11 49L10 49L10 50L9 50L9 51L8 51L8 53L9 53L9 52L10 52L10 51L11 51L11 53L14 53L14 52L13 52L13 50L15 50L15 49L16 49L16 48L17 48L17 49L18 49L18 50L19 50L19 49L21 49L21 50L20 50L20 51L19 51L19 52L20 52L20 53L21 53L21 51L23 51L23 53L25 53L25 52L26 52L26 51L27 51L27 50L26 50L26 49L29 49L29 50L28 50L28 51L32 51L32 50L35 50L35 49L36 49L36 50L39 50L39 49L40 49L40 52L38 52L38 51L34 51L34 52L32 52L32 53L34 53L34 52L37 52L37 53L40 53L40 52L41 52L41 53L49 53L49 52L47 52L47 50L46 50L46 49L48 49L48 51L50 51L50 50L51 50L51 51L53 51L53 50L52 50L52 48L53 48L53 47L51 47L51 46L53 46L53 44L52 44L52 43L53 43L53 42L52 42L52 43L51 43L51 41L52 41L52 40L53 40L53 38L52 38L52 40L49 40L49 41L48 41L48 43L47 43L47 41L46 41L46 40L47 40L47 39L51 39L51 37L53 37L53 34L52 34L52 32L53 32L53 31L51 31L51 30L52 30L52 28L53 28L53 25L51 25L51 24L50 24L50 26L49 26L49 24L48 24L48 23L46 23L46 22L47 22L47 21L45 21L45 20L44 20L44 19L45 19L45 16L43 16L43 28L41 28L41 25L40 25L40 27L39 27L39 28L38 28L38 26L37 26L37 27L34 27L34 28L36 28L36 30L37 30L37 28L38 28L38 30L40 30L40 31L39 31L39 32L38 32L38 31L36 31L36 32L35 32L35 30L34 30L34 29L33 29L33 28L32 28L32 25L34 25L34 24L35 24L35 26L36 26L36 25L39 25L39 24L38 24L38 23L36 23L36 24L35 24L35 23L34 23L34 24L33 24L33 23L32 23L32 22L33 22L33 21L34 21L34 20L35 20L35 22L39 22L39 21L40 21L40 24L41 24L41 23L42 23L42 22L41 22L41 21L42 21L42 20L41 20L41 21L40 21L40 20L38 20L38 18L39 18L39 19L42 19L42 17L41 17L41 16L38 16L38 15L39 15L39 14L40 14L40 15L42 15L42 14L41 14L41 11L43 11L43 12L42 12L42 13L43 13L43 15L45 15L45 14L44 14L44 13L47 13L47 14L46 14L46 17L50 17L50 18L51 18L51 19L52 19L52 18L53 18L53 17L52 17L52 16L53 16L53 15L51 15L51 13L52 13L52 14L53 14L53 13L52 13L52 12L53 12L53 11L52 11L52 12L50 12L50 10L51 10L51 9L53 9L53 8L49 8L49 9L50 9L50 10L49 10L49 12L48 12L48 13L47 13L47 11L45 11L45 10L47 10L47 9L48 9L48 8L47 8L47 9L45 9L45 8L44 8L44 7L45 7L45 6L44 6L44 7L43 7L43 3L44 3L44 4L45 4L45 3L44 3L44 1L43 1L43 0L41 0L41 1L42 1L42 2L41 2L41 3L40 3L40 0L38 0L38 1L36 1L36 0L34 0L34 1L36 1L36 2L34 2L34 4L33 4L33 0L32 0L32 4L29 4L29 2L31 2L31 1L29 1L29 2L28 2L28 0L26 0L26 4L25 4L25 3L24 3L24 2L25 2L25 0L24 0L24 2L22 2L22 1L21 1L21 2L20 2L20 1L19 1L19 0L18 0L18 1L17 1L17 2L16 2L16 1L15 1L15 0L14 0L14 2L13 2L13 1L11 1L11 0L10 0L10 2L9 2L9 0ZM38 1L38 3L35 3L35 4L34 4L34 5L33 5L33 8L34 8L34 5L35 5L35 4L37 4L37 5L38 5L38 6L37 6L37 7L38 7L38 8L39 8L39 7L40 7L40 10L39 10L39 9L38 9L38 10L35 10L35 9L36 9L36 6L35 6L35 9L34 9L34 10L32 10L32 5L31 5L31 7L30 7L30 5L29 5L29 8L31 8L31 10L29 10L29 12L28 12L28 13L27 13L27 11L28 11L28 10L27 10L27 11L26 11L26 13L25 13L25 12L24 12L24 11L25 11L25 10L26 10L26 9L25 9L25 10L23 10L23 9L24 9L24 8L23 8L23 7L24 7L24 6L23 6L23 7L22 7L22 6L21 6L21 7L20 7L20 6L19 6L19 7L20 7L20 8L19 8L19 9L20 9L20 8L21 8L21 7L22 7L22 8L23 8L23 9L21 9L21 10L20 10L20 11L19 11L19 10L16 10L16 11L15 11L15 10L14 10L14 11L13 11L13 12L12 12L12 11L10 11L10 12L9 12L9 11L6 11L6 12L8 12L8 13L6 13L6 14L7 14L7 15L6 15L6 16L8 16L8 17L9 17L9 16L10 16L10 15L11 15L11 14L13 14L13 15L14 15L14 16L16 16L16 17L15 17L15 18L14 18L14 17L13 17L13 16L12 16L12 18L8 18L8 19L10 19L10 21L9 21L9 20L8 20L8 21L9 21L9 23L8 23L8 24L10 24L10 23L12 23L12 21L14 21L14 20L15 20L15 19L16 19L16 18L17 18L17 19L18 19L18 21L20 21L20 20L19 20L19 19L20 19L20 18L21 18L21 20L22 20L22 21L24 21L24 20L25 20L25 22L21 22L21 23L19 23L19 22L18 22L18 23L17 23L17 24L16 24L16 23L15 23L15 24L14 24L14 23L13 23L13 24L12 24L12 25L11 25L11 27L10 27L10 26L9 26L9 29L11 29L11 30L10 30L10 31L11 31L11 30L12 30L12 28L14 28L14 29L13 29L13 31L12 31L12 32L13 32L13 31L14 31L14 32L16 32L16 31L18 31L18 30L19 30L19 31L20 31L20 32L21 32L21 33L19 33L19 32L18 32L18 33L19 33L19 34L18 34L18 35L17 35L17 36L15 36L15 39L17 39L17 38L18 38L18 37L19 37L19 36L18 36L18 35L20 35L20 34L21 34L21 35L22 35L22 36L20 36L20 38L21 38L21 39L20 39L20 40L19 40L19 41L20 41L20 40L21 40L21 39L22 39L22 40L23 40L23 41L21 41L21 42L20 42L20 43L19 43L19 42L16 42L16 43L15 43L15 44L14 44L14 45L13 45L13 44L12 44L12 43L11 43L11 44L9 44L9 45L10 45L10 46L11 46L11 47L12 47L12 46L14 46L14 47L13 47L13 48L14 48L14 49L15 49L15 48L16 48L16 46L17 46L17 47L18 47L18 46L19 46L19 47L20 47L20 48L21 48L21 49L22 49L22 50L23 50L23 51L26 51L26 50L25 50L25 49L24 49L24 48L22 48L22 47L21 47L21 45L20 45L20 44L21 44L21 43L22 43L22 44L23 44L23 46L24 46L24 44L23 44L23 43L25 43L25 44L31 44L31 46L30 46L30 47L29 47L29 48L31 48L31 50L32 50L32 48L33 48L33 49L35 49L35 48L34 48L34 47L37 47L37 48L36 48L36 49L39 49L39 47L40 47L40 46L38 46L38 47L37 47L37 46L35 46L35 45L36 45L36 44L35 44L35 45L34 45L34 43L33 43L33 42L34 42L34 41L32 41L32 44L31 44L31 43L29 43L29 42L30 42L30 41L29 41L29 40L31 40L31 39L33 39L33 40L34 40L34 39L33 39L33 34L34 34L34 33L32 33L32 32L31 32L31 31L29 31L29 32L31 32L31 34L32 34L32 37L30 37L30 36L31 36L31 35L30 35L30 33L28 33L28 34L29 34L29 35L28 35L28 36L29 36L29 37L25 37L25 38L26 38L26 39L25 39L25 40L23 40L23 39L24 39L24 38L22 38L22 36L23 36L23 37L24 37L24 35L27 35L27 34L23 34L23 33L24 33L24 32L22 32L22 31L20 31L20 30L22 30L22 29L21 29L21 27L22 27L22 26L23 26L23 27L24 27L24 24L27 24L27 23L29 23L29 25L30 25L30 27L29 27L29 29L28 29L28 30L27 30L27 29L26 29L26 32L25 32L25 33L26 33L26 32L28 32L28 30L30 30L30 28L31 28L31 30L32 30L32 31L34 31L34 30L32 30L32 28L31 28L31 25L32 25L32 23L30 23L30 20L31 20L31 22L32 22L32 20L34 20L34 18L32 18L32 19L31 19L31 18L29 18L29 19L28 19L28 17L30 17L30 16L31 16L31 17L32 17L32 16L33 16L33 17L35 17L35 20L36 20L36 19L37 19L37 18L36 18L36 17L38 17L38 16L37 16L37 15L38 15L38 14L35 14L35 16L34 16L34 15L33 15L33 14L34 14L34 13L36 13L36 12L37 12L37 13L38 13L38 12L39 12L39 13L40 13L40 12L39 12L39 11L40 11L40 10L42 10L42 9L43 9L43 10L44 10L44 8L43 8L43 7L42 7L42 5L40 5L40 3L39 3L39 1ZM10 2L10 3L9 3L9 4L10 4L10 3L13 3L13 2ZM27 2L27 4L28 4L28 2ZM42 2L42 3L41 3L41 4L42 4L42 3L43 3L43 2ZM38 4L38 5L39 5L39 6L38 6L38 7L39 7L39 6L40 6L40 7L41 7L41 6L40 6L40 5L39 5L39 4ZM25 5L25 8L28 8L28 5ZM12 6L12 7L13 7L13 6ZM14 6L14 8L15 8L15 6ZM26 6L26 7L27 7L27 6ZM4 9L4 10L2 10L2 15L3 15L3 13L5 13L5 11L4 11L4 10L7 10L7 9ZM22 10L22 11L21 11L21 12L23 12L23 13L24 13L24 14L25 14L25 15L23 15L23 14L22 14L22 13L21 13L21 15L22 15L22 16L23 16L23 18L22 18L22 17L21 17L21 16L20 16L20 15L19 15L19 14L18 14L18 13L19 13L19 11L18 11L18 12L17 12L17 14L16 14L16 13L15 13L15 11L14 11L14 13L13 13L13 14L14 14L14 13L15 13L15 14L16 14L16 16L17 16L17 17L18 17L18 18L19 18L19 17L21 17L21 18L22 18L22 19L23 19L23 18L25 18L25 17L24 17L24 16L25 16L25 15L27 15L27 17L26 17L26 18L27 18L27 17L28 17L28 16L29 16L29 15L30 15L30 13L33 13L33 12L32 12L32 10L31 10L31 12L30 12L30 13L29 13L29 14L28 14L28 15L27 15L27 13L26 13L26 14L25 14L25 13L24 13L24 12L23 12L23 10ZM38 10L38 11L37 11L37 12L38 12L38 11L39 11L39 10ZM3 11L3 12L4 12L4 11ZM34 11L34 12L35 12L35 11ZM44 11L44 12L45 12L45 11ZM8 13L8 15L10 15L10 13ZM49 13L49 14L47 14L47 15L48 15L48 16L50 16L50 15L49 15L49 14L50 14L50 13ZM4 14L4 15L5 15L5 14ZM17 14L17 15L18 15L18 14ZM31 15L31 16L32 16L32 15ZM18 16L18 17L19 17L19 16ZM35 16L35 17L36 17L36 16ZM1 17L1 19L4 19L4 17L3 17L3 18L2 18L2 17ZM39 17L39 18L40 18L40 17ZM51 17L51 18L52 18L52 17ZM12 18L12 19L11 19L11 21L10 21L10 22L11 22L11 21L12 21L12 20L13 20L13 19L14 19L14 18ZM25 19L25 20L26 20L26 23L27 23L27 22L28 22L28 19ZM46 19L46 20L49 20L49 19ZM37 20L37 21L38 21L38 20ZM50 20L50 23L53 23L53 22L51 22L51 20ZM44 21L44 22L45 22L45 21ZM21 23L21 24L20 24L20 25L19 25L19 24L18 24L18 25L13 25L13 27L14 27L14 26L15 26L15 27L16 27L16 26L19 26L19 27L20 27L20 26L21 26L21 25L23 25L23 24L24 24L24 23L23 23L23 24L22 24L22 23ZM44 23L44 24L46 24L46 23ZM3 25L3 26L4 26L4 25ZM5 25L5 28L8 28L8 25ZM25 25L25 28L28 28L28 25ZM45 25L45 28L48 28L48 25ZM6 26L6 27L7 27L7 26ZM26 26L26 27L27 27L27 26ZM46 26L46 27L47 27L47 26ZM3 27L3 28L2 28L2 29L3 29L3 28L4 28L4 27ZM11 27L11 28L12 28L12 27ZM49 27L49 31L48 31L48 30L47 30L47 31L45 31L45 29L44 29L44 28L43 28L43 29L44 29L44 30L42 30L42 29L41 29L41 28L40 28L40 30L41 30L41 32L40 32L40 33L41 33L41 37L39 37L39 38L38 38L38 36L40 36L40 34L38 34L38 32L37 32L37 33L36 33L36 34L35 34L35 37L34 37L34 38L35 38L35 39L36 39L36 40L35 40L35 43L37 43L37 45L40 45L40 44L43 44L43 43L44 43L44 44L47 44L47 43L45 43L45 42L46 42L46 41L42 41L42 43L40 43L40 41L41 41L41 40L43 40L43 39L47 39L47 38L50 38L50 37L51 37L51 36L50 36L50 37L48 37L48 36L49 36L49 35L52 35L52 34L50 34L50 32L49 32L49 31L50 31L50 27ZM18 28L18 29L16 29L16 30L18 30L18 29L19 29L19 28ZM6 29L6 30L7 30L7 29ZM14 29L14 30L15 30L15 29ZM24 29L24 31L25 31L25 29ZM3 30L3 31L4 31L4 30ZM44 32L44 33L42 33L42 35L43 35L43 34L44 34L44 37L43 37L43 36L42 36L42 37L41 37L41 38L40 38L40 40L41 40L41 38L42 38L42 37L43 37L43 38L44 38L44 37L45 37L45 38L46 38L46 34L47 34L47 35L48 35L48 33L46 33L46 32ZM3 33L3 34L4 34L4 33ZM6 33L6 34L7 34L7 33ZM21 33L21 34L22 34L22 35L23 35L23 34L22 34L22 33ZM44 33L44 34L46 34L46 33ZM1 35L1 36L0 36L0 37L1 37L1 36L2 36L2 35ZM36 35L36 37L35 37L35 38L37 38L37 41L36 41L36 42L37 42L37 43L38 43L38 42L37 42L37 41L39 41L39 40L38 40L38 38L37 38L37 36L38 36L38 35ZM16 37L16 38L17 38L17 37ZM3 38L3 39L4 39L4 38ZM5 38L5 39L6 39L6 40L7 40L7 39L6 39L6 38ZM28 38L28 39L31 39L31 38ZM25 40L25 41L26 41L26 42L25 42L25 43L26 43L26 42L27 42L27 43L28 43L28 41L26 41L26 40ZM49 41L49 43L48 43L48 44L50 44L50 45L49 45L49 46L50 46L50 45L52 45L52 44L50 44L50 41ZM2 42L2 43L3 43L3 42ZM22 42L22 43L23 43L23 42ZM18 43L18 44L15 44L15 45L17 45L17 46L18 46L18 45L19 45L19 43ZM39 43L39 44L40 44L40 43ZM11 44L11 46L12 46L12 44ZM32 44L32 46L31 46L31 47L32 47L32 46L34 46L34 45L33 45L33 44ZM25 45L25 48L28 48L28 45ZM43 45L43 46L42 46L42 48L40 48L40 49L42 49L42 50L41 50L41 52L43 52L43 51L45 51L45 49L43 49L43 47L44 47L44 45ZM45 45L45 48L48 48L48 45ZM26 46L26 47L27 47L27 46ZM46 46L46 47L47 47L47 46ZM14 47L14 48L15 48L15 47ZM49 47L49 48L51 48L51 47ZM18 48L18 49L19 49L19 48ZM12 49L12 50L13 50L13 49ZM23 49L23 50L24 50L24 49ZM49 49L49 50L50 50L50 49ZM16 50L16 51L15 51L15 53L16 53L16 52L17 52L17 53L18 53L18 51L17 51L17 50ZM42 50L42 51L43 51L43 50ZM28 52L28 53L29 53L29 52ZM50 52L50 53L52 53L52 52ZM0 0L0 7L7 7L7 0ZM1 1L1 6L6 6L6 1ZM2 2L2 5L5 5L5 2ZM46 0L46 7L53 7L53 0ZM47 1L47 6L52 6L52 1ZM48 2L48 5L51 5L51 2ZM0 46L0 53L7 53L7 46ZM1 47L1 52L6 52L6 47ZM2 48L2 51L5 51L5 48Z" fill="#000000"/></g></g></svg>
