<?xml version="1.0" encoding="UTF-8"?>
<svg xmlns="http://www.w3.org/2000/svg" version="1.1" width="100" height="100" viewBox="0 0 100 100"><rect x="0" y="0" width="100" height="100" fill="#ffffff"/><g transform="scale(1.887)"><g transform="translate(0,0)"><path fill-rule="evenodd" d="M8 0L8 1L9 1L9 2L8 2L8 5L9 5L9 6L8 6L8 7L9 7L9 8L8 8L8 10L9 10L9 11L11 11L11 12L8 12L8 11L7 11L7 10L2 10L2 9L4 9L4 8L0 8L0 9L1 9L1 10L0 10L0 12L2 12L2 13L0 13L0 16L2 16L2 17L4 17L4 21L2 21L2 20L0 20L0 21L2 21L2 23L1 23L1 22L0 22L0 23L1 23L1 24L2 24L2 26L0 26L0 28L1 28L1 27L2 27L2 29L0 29L0 30L1 30L1 31L0 31L0 33L1 33L1 35L3 35L3 36L2 36L2 38L1 38L1 39L0 39L0 40L1 40L1 41L0 41L0 43L1 43L1 44L3 44L3 45L4 45L4 44L3 44L3 43L7 43L7 42L5 42L5 41L7 41L7 40L8 40L8 38L9 38L9 39L10 39L10 37L8 37L8 34L9 34L9 36L11 36L11 35L10 35L10 34L14 34L14 36L15 36L15 37L13 37L13 35L12 35L12 38L14 38L14 40L13 40L13 39L12 39L12 40L10 40L10 41L11 41L11 42L10 42L10 43L8 43L8 44L11 44L11 45L10 45L10 46L11 46L11 49L10 49L10 48L9 48L9 49L8 49L8 53L9 53L9 49L10 49L10 51L11 51L11 49L12 49L12 51L13 51L13 48L14 48L14 52L13 52L13 53L14 53L14 52L15 52L15 53L16 53L16 51L18 51L18 53L21 53L21 50L22 50L22 52L23 52L23 51L24 51L24 50L25 50L25 53L26 53L26 51L28 51L28 53L34 53L34 52L31 52L31 50L33 50L33 51L34 51L34 50L35 50L35 51L36 51L36 47L35 47L35 46L37 46L37 49L38 49L38 50L39 50L39 51L41 51L41 52L44 52L44 53L47 53L47 52L49 52L49 53L52 53L52 52L53 52L53 50L52 50L52 49L49 49L49 48L50 48L50 45L51 45L51 44L48 44L48 42L47 42L47 43L46 43L46 42L45 42L45 41L46 41L46 37L45 37L45 39L44 39L44 38L43 38L43 37L44 37L44 36L45 36L45 35L43 35L43 32L42 32L42 35L40 35L40 34L41 34L41 32L39 32L39 31L37 31L37 30L35 30L35 29L36 29L36 28L35 28L35 29L33 29L33 28L32 28L32 27L29 27L29 24L30 24L30 23L31 23L31 25L30 25L30 26L31 26L31 25L32 25L32 24L35 24L35 25L36 25L36 26L35 26L35 27L36 27L36 26L37 26L37 29L39 29L39 30L41 30L41 31L43 31L43 30L45 30L45 31L44 31L44 32L45 32L45 33L44 33L44 34L46 34L46 35L47 35L47 36L48 36L48 37L47 37L47 38L48 38L48 39L47 39L47 41L49 41L49 38L50 38L50 39L53 39L53 38L51 38L51 35L52 35L52 37L53 37L53 35L52 35L52 34L50 34L50 33L49 33L49 32L50 32L50 31L51 31L51 30L52 30L52 31L53 31L53 29L52 29L52 27L53 27L53 25L52 25L52 23L51 23L51 25L50 25L50 23L49 23L49 24L47 24L47 20L48 20L48 21L49 21L49 22L50 22L50 21L49 21L49 17L48 17L48 18L47 18L47 16L46 16L46 19L45 19L45 18L44 18L44 17L45 17L45 16L44 16L44 17L43 17L43 15L41 15L41 14L43 14L43 12L42 12L42 11L44 11L44 9L43 9L43 8L45 8L45 9L46 9L46 10L45 10L45 11L46 11L46 13L47 13L47 12L48 12L48 13L49 13L49 14L50 14L50 17L52 17L52 14L53 14L53 13L52 13L52 14L51 14L51 13L49 13L49 12L48 12L48 11L47 11L47 9L46 9L46 8L45 8L45 6L44 6L44 7L43 7L43 3L44 3L44 4L45 4L45 3L44 3L44 1L43 1L43 0L41 0L41 2L43 2L43 3L41 3L41 4L40 4L40 5L39 5L39 4L37 4L37 2L40 2L40 0L39 0L39 1L38 1L38 0L37 0L37 2L36 2L36 0L33 0L33 1L32 1L32 0L31 0L31 3L30 3L30 2L28 2L28 1L26 1L26 0L24 0L24 1L23 1L23 2L22 2L22 0L18 0L18 1L21 1L21 2L20 2L20 3L21 3L21 6L20 6L20 5L19 5L19 2L16 2L16 0L15 0L15 1L14 1L14 0L13 0L13 2L14 2L14 3L12 3L12 2L11 2L11 4L9 4L9 2L10 2L10 1L11 1L11 0ZM24 1L24 2L23 2L23 3L22 3L22 2L21 2L21 3L22 3L22 4L23 4L23 5L22 5L22 6L21 6L21 8L19 8L19 7L20 7L20 6L19 6L19 5L18 5L18 4L16 4L16 2L15 2L15 3L14 3L14 5L13 5L13 4L11 4L11 5L13 5L13 9L11 9L11 8L12 8L12 6L11 6L11 8L9 8L9 10L10 10L10 9L11 9L11 10L15 10L15 11L16 11L16 14L18 14L18 13L17 13L17 11L19 11L19 10L21 10L21 8L22 8L22 11L20 11L20 16L19 16L19 15L15 15L15 12L14 12L14 13L11 13L11 14L10 14L10 13L9 13L9 15L8 15L8 16L11 16L11 17L10 17L10 18L9 18L9 19L5 19L5 22L3 22L3 23L2 23L2 24L3 24L3 29L4 29L4 30L2 30L2 31L3 31L3 32L5 32L5 33L6 33L6 34L5 34L5 35L6 35L6 36L7 36L7 35L6 35L6 34L8 34L8 33L11 33L11 31L12 31L12 33L13 33L13 31L16 31L16 32L17 32L17 31L16 31L16 30L17 30L17 28L16 28L16 27L17 27L17 26L18 26L18 27L19 27L19 28L18 28L18 29L19 29L19 30L18 30L18 31L20 31L20 29L21 29L21 30L22 30L22 32L20 32L20 33L21 33L21 34L18 34L18 33L16 33L16 35L15 35L15 36L16 36L16 37L15 37L15 38L16 38L16 40L14 40L14 43L13 43L13 44L14 44L14 45L12 45L12 48L13 48L13 46L15 46L15 44L14 44L14 43L15 43L15 41L16 41L16 42L17 42L17 39L19 39L19 38L22 38L22 39L23 39L23 40L25 40L25 42L26 42L26 43L25 43L25 44L26 44L26 43L27 43L27 41L29 41L29 44L30 44L30 45L32 45L32 46L35 46L35 45L37 45L37 46L40 46L40 47L38 47L38 48L39 48L39 50L40 50L40 49L41 49L41 50L42 50L42 49L44 49L44 51L46 51L46 52L47 52L47 51L46 51L46 50L47 50L47 49L46 49L46 50L45 50L45 49L44 49L44 46L42 46L42 47L41 47L41 46L40 46L40 45L41 45L41 44L42 44L42 45L43 45L43 43L45 43L45 42L44 42L44 40L41 40L41 39L39 39L39 38L42 38L42 39L43 39L43 38L42 38L42 36L43 36L43 35L42 35L42 36L41 36L41 37L40 37L40 36L39 36L39 35L38 35L38 34L40 34L40 33L39 33L39 32L38 32L38 34L37 34L37 32L36 32L36 31L35 31L35 30L33 30L33 29L31 29L31 28L30 28L30 29L29 29L29 30L26 30L26 31L28 31L28 33L27 33L27 32L23 32L23 31L24 31L24 30L23 30L23 29L24 29L24 27L22 27L22 28L23 28L23 29L21 29L21 26L23 26L23 25L24 25L24 24L25 24L25 23L26 23L26 24L28 24L28 23L27 23L27 22L29 22L29 23L30 23L30 21L32 21L32 22L33 22L33 20L32 20L32 19L34 19L34 20L36 20L36 21L37 21L37 22L35 22L35 21L34 21L34 22L35 22L35 23L37 23L37 25L38 25L38 26L40 26L40 25L43 25L43 26L42 26L42 27L44 27L44 24L45 24L45 23L46 23L46 20L47 20L47 19L46 19L46 20L44 20L44 21L41 21L41 22L40 22L40 23L41 23L41 22L42 22L42 24L40 24L40 25L39 25L39 23L38 23L38 22L39 22L39 20L36 20L36 19L35 19L35 18L37 18L37 19L38 19L38 18L40 18L40 19L41 19L41 20L43 20L43 19L42 19L42 18L41 18L41 17L38 17L38 16L40 16L40 15L38 15L38 16L37 16L37 17L36 17L36 16L35 16L35 15L34 15L34 13L35 13L35 14L36 14L36 15L37 15L37 14L38 14L38 13L39 13L39 12L40 12L40 11L41 11L41 10L42 10L42 8L43 8L43 7L42 7L42 4L41 4L41 9L38 9L38 6L37 6L37 4L35 4L35 3L36 3L36 2L35 2L35 1L33 1L33 2L35 2L35 3L33 3L33 4L34 4L34 5L32 5L32 3L31 3L31 4L29 4L29 3L27 3L27 4L29 4L29 8L30 8L30 9L32 9L32 10L35 10L35 11L36 11L36 12L34 12L34 13L33 13L33 11L31 11L31 10L28 10L28 9L26 9L26 11L25 11L25 10L23 10L23 9L24 9L24 8L22 8L22 6L23 6L23 7L24 7L24 6L23 6L23 5L24 5L24 4L26 4L26 3L25 3L25 1ZM14 5L14 7L15 7L15 8L14 8L14 9L15 9L15 8L16 8L16 11L17 11L17 10L19 10L19 9L17 9L17 8L16 8L16 7L17 7L17 6L16 6L16 7L15 7L15 5ZM25 5L25 8L28 8L28 5ZM35 5L35 6L34 6L34 7L33 7L33 6L32 6L32 7L33 7L33 9L34 9L34 7L35 7L35 6L36 6L36 8L37 8L37 6L36 6L36 5ZM9 6L9 7L10 7L10 6ZM18 6L18 7L19 7L19 6ZM26 6L26 7L27 7L27 6ZM30 6L30 7L31 7L31 6ZM39 6L39 8L40 8L40 6ZM6 8L6 9L7 9L7 8ZM48 8L48 9L49 9L49 11L51 11L51 12L53 12L53 10L52 10L52 9L53 9L53 8L52 8L52 9L51 9L51 8ZM35 9L35 10L37 10L37 11L40 11L40 10L37 10L37 9ZM50 9L50 10L51 10L51 9ZM27 10L27 11L28 11L28 12L30 12L30 14L31 14L31 15L29 15L29 14L27 14L27 12L26 12L26 13L25 13L25 14L26 14L26 15L27 15L27 17L28 17L28 15L29 15L29 19L28 19L28 20L27 20L27 21L29 21L29 19L32 19L32 17L33 17L33 18L34 18L34 17L33 17L33 16L32 16L32 13L31 13L31 12L30 12L30 11L28 11L28 10ZM2 11L2 12L3 12L3 13L2 13L2 14L1 14L1 15L2 15L2 16L4 16L4 15L5 15L5 16L7 16L7 15L6 15L6 14L7 14L7 13L8 13L8 12L7 12L7 11ZM22 11L22 12L21 12L21 14L22 14L22 15L24 15L24 12L25 12L25 11ZM5 12L5 13L4 13L4 14L2 14L2 15L4 15L4 14L5 14L5 13L7 13L7 12ZM22 12L22 14L23 14L23 12ZM36 12L36 13L38 13L38 12ZM41 12L41 13L42 13L42 12ZM11 14L11 15L12 15L12 17L11 17L11 20L10 20L10 19L9 19L9 20L6 20L6 21L7 21L7 22L6 22L6 23L7 23L7 24L5 24L5 23L4 23L4 29L5 29L5 30L6 30L6 31L5 31L5 32L6 32L6 33L7 33L7 32L10 32L10 31L11 31L11 30L12 30L12 31L13 31L13 29L11 29L11 28L10 28L10 26L11 26L11 27L12 27L12 28L13 28L13 27L12 27L12 26L13 26L13 25L14 25L14 26L17 26L17 25L16 25L16 24L18 24L18 25L20 25L20 26L21 26L21 25L20 25L20 24L18 24L18 22L19 22L19 23L20 23L20 22L21 22L21 23L23 23L23 22L26 22L26 21L23 21L23 19L25 19L25 20L26 20L26 19L25 19L25 18L24 18L24 17L26 17L26 16L24 16L24 17L21 17L21 16L20 16L20 19L19 19L19 18L17 18L17 17L16 17L16 16L14 16L14 14L13 14L13 15L12 15L12 14ZM44 14L44 15L48 15L48 16L49 16L49 15L48 15L48 14ZM13 16L13 18L12 18L12 19L13 19L13 20L11 20L11 21L10 21L10 22L14 22L14 23L17 23L17 22L16 22L16 21L17 21L17 18L16 18L16 17L14 17L14 16ZM18 16L18 17L19 17L19 16ZM30 16L30 18L31 18L31 16ZM6 17L6 18L8 18L8 17ZM0 18L0 19L1 19L1 18ZM13 18L13 19L14 19L14 20L15 20L15 21L16 21L16 20L15 20L15 19L14 19L14 18ZM21 18L21 19L20 19L20 20L19 20L19 19L18 19L18 20L19 20L19 22L20 22L20 21L21 21L21 22L22 22L22 21L21 21L21 19L23 19L23 18ZM51 18L51 19L50 19L50 20L52 20L52 21L51 21L51 22L52 22L52 21L53 21L53 18ZM8 21L8 24L9 24L9 25L10 25L10 24L9 24L9 21ZM44 21L44 22L43 22L43 23L44 23L44 22L45 22L45 21ZM11 23L11 24L12 24L12 25L13 25L13 23ZM22 24L22 25L23 25L23 24ZM5 25L5 28L8 28L8 25ZM25 25L25 28L28 28L28 25ZM45 25L45 28L48 28L48 25ZM6 26L6 27L7 27L7 26ZM26 26L26 27L27 27L27 26ZM33 26L33 27L34 27L34 26ZM46 26L46 27L47 27L47 26ZM49 26L49 28L50 28L50 26ZM51 26L51 27L52 27L52 26ZM38 27L38 28L39 28L39 27ZM40 27L40 29L41 29L41 30L43 30L43 28L41 28L41 27ZM19 28L19 29L20 29L20 28ZM6 29L6 30L7 30L7 31L6 31L6 32L7 32L7 31L8 31L8 30L11 30L11 29L8 29L8 30L7 30L7 29ZM46 29L46 31L47 31L47 33L48 33L48 36L49 36L49 37L50 37L50 34L49 34L49 33L48 33L48 32L49 32L49 31L50 31L50 30L51 30L51 29L48 29L48 31L47 31L47 29ZM31 30L31 32L32 32L32 30ZM1 32L1 33L2 33L2 34L3 34L3 35L4 35L4 34L3 34L3 33L2 33L2 32ZM14 32L14 34L15 34L15 32ZM22 32L22 33L23 33L23 34L25 34L25 33L23 33L23 32ZM29 32L29 33L30 33L30 35L29 35L29 36L28 36L28 37L29 37L29 38L27 38L27 39L28 39L28 40L32 40L32 41L31 41L31 44L34 44L34 42L33 42L33 41L35 41L35 42L36 42L36 43L35 43L35 44L37 44L37 43L38 43L38 45L39 45L39 42L37 42L37 41L36 41L36 38L34 38L34 37L35 37L35 36L36 36L36 37L37 37L37 38L39 38L39 37L38 37L38 36L37 36L37 35L34 35L34 37L33 37L33 36L32 36L32 37L31 37L31 36L30 36L30 35L33 35L33 34L36 34L36 32L35 32L35 33L34 33L34 32L33 32L33 33L30 33L30 32ZM51 32L51 33L53 33L53 32ZM17 34L17 35L16 35L16 36L19 36L19 35L18 35L18 34ZM21 34L21 35L20 35L20 37L22 37L22 38L23 38L23 39L25 39L25 38L26 38L26 37L25 37L25 35L23 35L23 36L21 36L21 35L22 35L22 34ZM26 34L26 36L27 36L27 34ZM0 36L0 37L1 37L1 36ZM3 36L3 38L2 38L2 39L1 39L1 40L3 40L3 41L2 41L2 43L3 43L3 42L4 42L4 41L5 41L5 40L4 40L4 39L3 39L3 38L4 38L4 37L5 37L5 36ZM23 36L23 38L25 38L25 37L24 37L24 36ZM29 36L29 37L30 37L30 36ZM6 37L6 38L8 38L8 37ZM16 37L16 38L18 38L18 37ZM32 37L32 39L33 39L33 40L35 40L35 39L34 39L34 38L33 38L33 37ZM29 38L29 39L30 39L30 38ZM6 39L6 40L7 40L7 39ZM20 39L20 40L21 40L21 39ZM37 39L37 40L38 40L38 39ZM18 40L18 42L19 42L19 40ZM50 40L50 41L52 41L52 42L53 42L53 41L52 41L52 40ZM8 41L8 42L9 42L9 41ZM20 41L20 43L19 43L19 44L18 44L18 43L17 43L17 44L16 44L16 47L17 47L17 48L15 48L15 50L17 50L17 48L18 48L18 51L19 51L19 49L20 49L20 50L21 50L21 47L23 47L23 48L22 48L22 50L24 50L24 47L23 47L23 46L24 46L24 44L22 44L22 43L23 43L23 42L24 42L24 41L23 41L23 42L22 42L22 41ZM41 41L41 42L42 42L42 43L43 43L43 41ZM11 42L11 44L12 44L12 42ZM32 42L32 43L33 43L33 42ZM50 42L50 43L51 43L51 42ZM20 43L20 44L21 44L21 45L19 45L19 46L18 46L18 44L17 44L17 46L18 46L18 48L19 48L19 46L20 46L20 47L21 47L21 45L22 45L22 46L23 46L23 45L22 45L22 44L21 44L21 43ZM40 43L40 44L41 44L41 43ZM52 43L52 44L53 44L53 43ZM6 44L6 45L7 45L7 44ZM8 45L8 46L9 46L9 45ZM25 45L25 48L28 48L28 45ZM45 45L45 48L48 48L48 45ZM52 45L52 46L51 46L51 47L52 47L52 48L53 48L53 45ZM26 46L26 47L27 47L27 46ZM30 46L30 48L31 48L31 46ZM46 46L46 47L47 47L47 46ZM32 47L32 49L33 49L33 47ZM40 47L40 48L41 48L41 47ZM34 48L34 49L35 49L35 48ZM25 49L25 50L29 50L29 51L30 51L30 50L31 50L31 49ZM48 49L48 50L49 50L49 52L52 52L52 50L49 50L49 49ZM37 51L37 52L35 52L35 53L37 53L37 52L38 52L38 53L40 53L40 52L38 52L38 51ZM10 52L10 53L12 53L12 52ZM0 0L0 7L7 7L7 0ZM1 1L1 6L6 6L6 1ZM2 2L2 5L5 5L5 2ZM46 0L46 7L53 7L53 0ZM47 1L47 6L52 6L52 1ZM48 2L48 5L51 5L51 2ZM0 46L0 53L7 53L7 46ZM1 47L1 52L6 52L6 47ZM2 48L2 51L5 51L5 48Z" fill="#000000"/></g></g></svg>
