<?xml version="1.0" encoding="UTF-8"?>
<svg xmlns="http://www.w3.org/2000/svg" version="1.1" width="100" height="100" viewBox="0 0 100 100"><rect x="0" y="0" width="100" height="100" fill="#ffffff"/><g transform="scale(2.041)"><g transform="translate(0,0)"><path fill-rule="evenodd" d="M10 0L10 1L11 1L11 3L10 3L10 2L9 2L9 1L8 1L8 2L9 2L9 3L8 3L8 4L9 4L9 5L8 5L8 7L9 7L9 5L10 5L10 7L11 7L11 5L12 5L12 9L13 9L13 10L11 10L11 9L10 9L10 8L6 8L6 9L5 9L5 8L0 8L0 9L1 9L1 10L2 10L2 14L1 14L1 15L0 15L0 17L1 17L1 18L0 18L0 20L1 20L1 22L2 22L2 23L1 23L1 24L0 24L0 25L1 25L1 27L0 27L0 29L1 29L1 28L2 28L2 26L4 26L4 27L3 27L3 28L4 28L4 29L7 29L7 28L8 28L8 27L9 27L9 26L11 26L11 29L8 29L8 31L7 31L7 30L6 30L6 31L4 31L4 30L3 30L3 29L2 29L2 30L0 30L0 33L1 33L1 34L0 34L0 37L1 37L1 40L0 40L0 41L3 41L3 40L4 40L4 39L2 39L2 37L1 37L1 34L3 34L3 33L1 33L1 31L2 31L2 32L6 32L6 33L7 33L7 34L6 34L6 35L7 35L7 36L5 36L5 35L2 35L2 36L4 36L4 37L3 37L3 38L4 38L4 37L8 37L8 38L9 38L9 39L11 39L11 40L10 40L10 41L8 41L8 43L10 43L10 42L12 42L12 43L11 43L11 44L12 44L12 48L14 48L14 49L22 49L22 48L23 48L23 49L26 49L26 47L25 47L25 46L26 46L26 45L27 45L27 46L28 46L28 45L29 45L29 47L27 47L27 48L31 48L31 49L34 49L34 48L33 48L33 47L32 47L32 46L31 46L31 45L33 45L33 46L34 46L34 45L35 45L35 44L36 44L36 45L37 45L37 44L38 44L38 46L35 46L35 49L36 49L36 48L38 48L38 46L39 46L39 48L40 48L40 47L42 47L42 48L41 48L41 49L42 49L42 48L43 48L43 49L44 49L44 48L45 48L45 49L46 49L46 48L47 48L47 49L49 49L49 48L48 48L48 47L49 47L49 41L48 41L48 42L46 42L46 43L45 43L45 40L46 40L46 41L47 41L47 40L46 40L46 38L44 38L44 37L45 37L45 36L44 36L44 34L45 34L45 35L46 35L46 36L47 36L47 37L48 37L48 38L47 38L47 39L49 39L49 36L47 36L47 35L48 35L48 33L47 33L47 32L48 32L48 30L49 30L49 28L48 28L48 27L49 27L49 22L48 22L48 21L49 21L49 19L48 19L48 17L49 17L49 16L48 16L48 15L47 15L47 14L46 14L46 15L47 15L47 16L46 16L46 17L47 17L47 18L46 18L46 19L45 19L45 20L44 20L44 22L42 22L42 21L41 21L41 20L43 20L43 19L44 19L44 17L43 17L43 18L41 18L41 20L38 20L38 19L40 19L40 18L39 18L39 17L40 17L40 16L39 16L39 17L36 17L36 16L38 16L38 15L37 15L37 14L35 14L35 12L36 12L36 13L39 13L39 12L38 12L38 11L37 11L37 10L36 10L36 9L35 9L35 8L34 8L34 7L35 7L35 6L36 6L36 7L37 7L37 5L36 5L36 4L38 4L38 2L39 2L39 4L40 4L40 3L41 3L41 0L40 0L40 1L37 1L37 0L36 0L36 1L35 1L35 0L33 0L33 2L32 2L32 1L31 1L31 2L29 2L29 6L28 6L28 7L29 7L29 8L30 8L30 9L29 9L29 10L33 10L33 11L32 11L32 12L31 12L31 11L29 11L29 12L28 12L28 13L25 13L25 14L23 14L23 15L22 15L22 14L21 14L21 15L22 15L22 16L23 16L23 15L25 15L25 14L28 14L28 13L29 13L29 16L31 16L31 17L29 17L29 18L31 18L31 19L29 19L29 20L26 20L26 19L25 19L25 18L24 18L24 17L23 17L23 19L22 19L22 18L21 18L21 17L20 17L20 18L17 18L17 17L19 17L19 16L20 16L20 13L19 13L19 12L20 12L20 11L19 11L19 10L21 10L21 9L24 9L24 10L22 10L22 11L21 11L21 12L23 12L23 11L25 11L25 12L26 12L26 10L27 10L27 5L28 5L28 4L25 4L25 3L26 3L26 2L27 2L27 3L28 3L28 2L27 2L27 1L28 1L28 0L24 0L24 1L23 1L23 3L22 3L22 2L21 2L21 3L22 3L22 4L20 4L20 2L19 2L19 1L20 1L20 0L18 0L18 1L17 1L17 2L18 2L18 4L20 4L20 5L17 5L17 6L16 6L16 5L15 5L15 4L14 4L14 1L15 1L15 2L16 2L16 0L13 0L13 2L12 2L12 1L11 1L11 0ZM21 0L21 1L22 1L22 0ZM29 0L29 1L30 1L30 0ZM25 1L25 2L26 2L26 1ZM33 2L33 3L30 3L30 4L33 4L33 3L36 3L36 2ZM9 3L9 4L10 4L10 5L11 5L11 4L10 4L10 3ZM16 3L16 4L17 4L17 3ZM12 4L12 5L14 5L14 6L13 6L13 9L14 9L14 10L13 10L13 11L15 11L15 12L14 12L14 13L13 13L13 12L12 12L12 11L11 11L11 10L10 10L10 9L9 9L9 10L7 10L7 9L6 9L6 10L7 10L7 11L5 11L5 12L7 12L7 13L6 13L6 14L5 14L5 13L4 13L4 12L3 12L3 13L4 13L4 14L3 14L3 15L5 15L5 16L8 16L8 15L9 15L9 16L10 16L10 15L11 15L11 16L12 16L12 15L13 15L13 14L14 14L14 15L15 15L15 17L14 17L14 16L13 16L13 18L12 18L12 19L11 19L11 17L10 17L10 20L9 20L9 19L8 19L8 20L7 20L7 19L6 19L6 20L5 20L5 19L3 19L3 18L2 18L2 22L3 22L3 20L4 20L4 21L6 21L6 22L9 22L9 21L10 21L10 20L11 20L11 22L12 22L12 23L13 23L13 24L12 24L12 25L11 25L11 23L10 23L10 25L11 25L11 26L12 26L12 30L11 30L11 31L12 31L12 34L11 34L11 33L10 33L10 31L9 31L9 34L7 34L7 35L8 35L8 37L12 37L12 38L11 38L11 39L12 39L12 42L13 42L13 43L15 43L15 44L18 44L18 45L20 45L20 48L22 48L22 47L23 47L23 48L24 48L24 46L22 46L22 43L21 43L21 41L22 41L22 40L21 40L21 35L20 35L20 33L19 33L19 35L18 35L18 36L17 36L17 35L15 35L15 32L18 32L18 31L17 31L17 30L16 30L16 31L15 31L15 29L14 29L14 28L17 28L17 24L18 24L18 25L22 25L22 23L21 23L21 22L24 22L24 21L26 21L26 22L27 22L27 25L28 25L28 26L27 26L27 27L28 27L28 28L29 28L29 27L30 27L30 26L29 26L29 25L30 25L30 24L29 24L29 23L31 23L31 21L30 21L30 20L29 20L29 21L30 21L30 22L28 22L28 21L26 21L26 20L24 20L24 21L20 21L20 24L18 24L18 23L16 23L16 22L15 22L15 21L14 21L14 20L16 20L16 21L17 21L17 22L19 22L19 21L18 21L18 20L17 20L17 19L16 19L16 18L15 18L15 17L17 17L17 15L15 15L15 14L18 14L18 13L17 13L17 10L16 10L16 9L15 9L15 8L17 8L17 7L18 7L18 6L17 6L17 7L16 7L16 6L15 6L15 5L14 5L14 4ZM34 4L34 5L30 5L30 6L29 6L29 7L30 7L30 6L31 6L31 7L32 7L32 8L31 8L31 9L34 9L34 8L33 8L33 7L34 7L34 6L35 6L35 4ZM21 5L21 7L20 7L20 6L19 6L19 7L20 7L20 9L21 9L21 7L22 7L22 5ZM23 5L23 8L26 8L26 5ZM38 5L38 7L39 7L39 5ZM14 6L14 7L15 7L15 6ZM24 6L24 7L25 7L25 6ZM32 6L32 7L33 7L33 6ZM40 6L40 7L41 7L41 6ZM37 8L37 9L39 9L39 8ZM41 8L41 9L42 9L42 8ZM43 8L43 10L42 10L42 11L41 11L41 12L43 12L43 13L40 13L40 14L39 14L39 15L40 15L40 14L42 14L42 15L41 15L41 17L42 17L42 16L45 16L45 15L44 15L44 14L45 14L45 13L46 13L46 12L47 12L47 13L49 13L49 11L46 11L46 12L45 12L45 13L44 13L44 12L43 12L43 10L45 10L45 9L46 9L46 8L45 8L45 9L44 9L44 8ZM47 8L47 9L48 9L48 10L49 10L49 9L48 9L48 8ZM25 9L25 10L26 10L26 9ZM15 10L15 11L16 11L16 10ZM34 10L34 12L35 12L35 10ZM39 10L39 11L40 11L40 10ZM7 11L7 12L8 12L8 11ZM0 12L0 13L1 13L1 12ZM9 12L9 15L10 15L10 14L12 14L12 12ZM15 12L15 13L16 13L16 12ZM30 12L30 13L31 13L31 14L30 14L30 15L31 15L31 16L32 16L32 19L31 19L31 20L32 20L32 23L33 23L33 24L35 24L35 25L36 25L36 26L35 26L35 27L33 27L33 25L31 25L31 26L32 26L32 27L31 27L31 28L32 28L32 29L31 29L31 30L30 30L30 29L29 29L29 30L28 30L28 29L27 29L27 28L26 28L26 27L25 27L25 28L26 28L26 29L24 29L24 30L23 30L23 29L22 29L22 30L23 30L23 31L22 31L22 32L21 32L21 29L20 29L20 28L21 28L21 27L20 27L20 26L19 26L19 27L20 27L20 28L19 28L19 29L20 29L20 32L21 32L21 34L22 34L22 36L24 36L24 35L25 35L25 36L26 36L26 37L25 37L25 38L24 38L24 37L22 37L22 39L23 39L23 40L24 40L24 39L25 39L25 40L27 40L27 41L28 41L28 42L27 42L27 43L29 43L29 41L30 41L30 40L29 40L29 39L30 39L30 38L32 38L32 39L31 39L31 42L32 42L32 43L34 43L34 44L33 44L33 45L34 45L34 44L35 44L35 42L38 42L38 44L40 44L40 43L39 43L39 42L40 42L40 40L39 40L39 38L40 38L40 39L41 39L41 40L42 40L42 39L41 39L41 38L42 38L42 37L39 37L39 38L37 38L37 39L35 39L35 36L36 36L36 37L38 37L38 36L39 36L39 35L38 35L38 36L36 36L36 35L35 35L35 34L37 34L37 33L38 33L38 34L39 34L39 33L38 33L38 32L40 32L40 33L41 33L41 34L40 34L40 36L41 36L41 35L42 35L42 36L43 36L43 35L42 35L42 34L43 34L43 33L45 33L45 34L47 34L47 33L46 33L46 31L47 31L47 29L48 29L48 28L47 28L47 27L48 27L48 25L46 25L46 24L48 24L48 22L47 22L47 20L48 20L48 19L47 19L47 20L46 20L46 21L45 21L45 26L47 26L47 27L46 27L46 28L45 28L45 27L44 27L44 28L43 28L43 27L42 27L42 28L43 28L43 29L44 29L44 28L45 28L45 30L42 30L42 29L41 29L41 28L40 28L40 27L38 27L38 25L36 25L36 24L37 24L37 23L35 23L35 22L37 22L37 21L35 21L35 20L36 20L36 19L35 19L35 18L36 18L36 17L35 17L35 15L34 15L34 13L31 13L31 12ZM7 13L7 14L6 14L6 15L8 15L8 13ZM31 14L31 15L32 15L32 14ZM18 15L18 16L19 16L19 15ZM1 16L1 17L2 17L2 16ZM25 16L25 17L28 17L28 16ZM33 16L33 17L34 17L34 18L35 18L35 17L34 17L34 16ZM47 16L47 17L48 17L48 16ZM4 17L4 18L5 18L5 17ZM6 17L6 18L9 18L9 17ZM13 18L13 19L12 19L12 21L13 21L13 23L14 23L14 21L13 21L13 20L14 20L14 18ZM37 18L37 19L38 19L38 18ZM19 19L19 20L22 20L22 19ZM32 19L32 20L33 20L33 21L34 21L34 22L35 22L35 21L34 21L34 20L33 20L33 19ZM6 20L6 21L7 21L7 20ZM38 21L38 24L39 24L39 25L40 25L40 24L39 24L39 23L40 23L40 22L41 22L41 21L40 21L40 22L39 22L39 21ZM46 22L46 23L47 23L47 22ZM2 23L2 24L3 24L3 25L4 25L4 24L3 24L3 23ZM5 23L5 26L8 26L8 23ZM15 23L15 24L13 24L13 25L12 25L12 26L13 26L13 28L14 28L14 26L15 26L15 27L16 27L16 25L15 25L15 24L16 24L16 23ZM23 23L23 26L26 26L26 23ZM41 23L41 26L44 26L44 23ZM6 24L6 25L7 25L7 24ZM24 24L24 25L25 25L25 24ZM28 24L28 25L29 25L29 24ZM42 24L42 25L43 25L43 24ZM36 26L36 27L35 27L35 29L36 29L36 27L37 27L37 28L38 28L38 29L40 29L40 30L38 30L38 31L37 31L37 30L36 30L36 31L35 31L35 32L36 32L36 31L37 31L37 32L38 32L38 31L41 31L41 33L43 33L43 32L44 32L44 31L42 31L42 30L41 30L41 29L40 29L40 28L38 28L38 27L37 27L37 26ZM6 27L6 28L7 28L7 27ZM22 27L22 28L23 28L23 27ZM32 27L32 28L33 28L33 27ZM26 29L26 30L24 30L24 31L23 31L23 32L22 32L22 34L23 34L23 35L24 35L24 34L25 34L25 35L26 35L26 34L25 34L25 33L26 33L26 32L27 32L27 34L28 34L28 33L29 33L29 34L30 34L30 33L31 33L31 35L30 35L30 36L27 36L27 37L28 37L28 38L29 38L29 37L30 37L30 36L31 36L31 37L32 37L32 36L31 36L31 35L32 35L32 34L34 34L34 32L32 32L32 33L31 33L31 31L32 31L32 30L31 30L31 31L30 31L30 30L29 30L29 31L28 31L28 30L27 30L27 29ZM12 30L12 31L13 31L13 33L14 33L14 30ZM26 30L26 31L25 31L25 32L26 32L26 31L27 31L27 30ZM33 30L33 31L34 31L34 30ZM45 30L45 31L46 31L46 30ZM6 31L6 32L7 32L7 31ZM29 32L29 33L30 33L30 32ZM4 33L4 34L5 34L5 33ZM17 33L17 34L18 34L18 33ZM23 33L23 34L24 34L24 33ZM13 34L13 35L12 35L12 37L13 37L13 39L14 39L14 40L13 40L13 42L15 42L15 43L16 43L16 42L17 42L17 43L18 43L18 44L20 44L20 45L21 45L21 44L20 44L20 42L18 42L18 41L21 41L21 40L20 40L20 35L19 35L19 37L18 37L18 38L17 38L17 39L19 39L19 40L18 40L18 41L16 41L16 42L15 42L15 39L14 39L14 37L17 37L17 36L13 36L13 35L14 35L14 34ZM9 35L9 36L11 36L11 35ZM33 36L33 37L34 37L34 36ZM5 38L5 39L7 39L7 40L6 40L6 41L7 41L7 40L8 40L8 39L7 39L7 38ZM23 38L23 39L24 39L24 38ZM25 38L25 39L26 39L26 38ZM44 39L44 40L45 40L45 39ZM32 40L32 41L33 41L33 42L35 42L35 40L34 40L34 41L33 41L33 40ZM37 40L37 41L39 41L39 40ZM23 41L23 44L26 44L26 41ZM41 41L41 44L44 44L44 41ZM24 42L24 43L25 43L25 42ZM42 42L42 43L43 43L43 42ZM36 43L36 44L37 44L37 43ZM46 43L46 46L45 46L45 45L43 45L43 46L42 46L42 47L46 47L46 46L47 46L47 47L48 47L48 46L47 46L47 43ZM8 44L8 49L10 49L10 48L9 48L9 46L10 46L10 47L11 47L11 46L10 46L10 45L9 45L9 44ZM27 44L27 45L28 45L28 44ZM30 44L30 45L31 45L31 44ZM14 45L14 47L15 47L15 48L17 48L17 45L16 45L16 46L15 46L15 45ZM39 45L39 46L41 46L41 45ZM21 46L21 47L22 47L22 46ZM30 46L30 47L31 47L31 48L32 48L32 47L31 47L31 46ZM18 47L18 48L19 48L19 47ZM0 0L0 7L7 7L7 0ZM1 1L1 6L6 6L6 1ZM2 2L2 5L5 5L5 2ZM42 0L42 7L49 7L49 0ZM43 1L43 6L48 6L48 1ZM44 2L44 5L47 5L47 2ZM0 42L0 49L7 49L7 42ZM1 43L1 48L6 48L6 43ZM2 44L2 47L5 47L5 44Z" fill="#000000"/></g></g></svg>
