<?xml version="1.0" encoding="UTF-8"?>
<svg xmlns="http://www.w3.org/2000/svg" version="1.1" width="100" height="100" viewBox="0 0 100 100"><rect x="0" y="0" width="100" height="100" fill="#ffffff"/><g transform="scale(1.754)"><g transform="translate(0,0)"><path fill-rule="evenodd" d="M8 0L8 1L9 1L9 2L8 2L8 5L10 5L10 8L12 8L12 9L13 9L13 10L14 10L14 11L15 11L15 12L17 12L17 13L12 13L12 15L11 15L11 16L10 16L10 18L11 18L11 19L10 19L10 21L9 21L9 17L8 17L8 16L9 16L9 15L10 15L10 14L9 14L9 15L8 15L8 16L6 16L6 15L7 15L7 14L8 14L8 13L7 13L7 12L9 12L9 13L11 13L11 12L13 12L13 11L12 11L12 10L10 10L10 12L9 12L9 8L8 8L8 11L7 11L7 10L6 10L6 9L7 9L7 8L6 8L6 9L4 9L4 8L0 8L0 9L4 9L4 10L5 10L5 13L3 13L3 12L4 12L4 11L1 11L1 10L0 10L0 12L1 12L1 13L0 13L0 14L1 14L1 15L2 15L2 16L4 16L4 15L3 15L3 14L6 14L6 15L5 15L5 16L6 16L6 17L5 17L5 19L3 19L3 22L2 22L2 21L1 21L1 20L2 20L2 19L1 19L1 20L0 20L0 21L1 21L1 22L2 22L2 23L0 23L0 25L1 25L1 26L0 26L0 28L1 28L1 29L0 29L0 30L1 30L1 31L0 31L0 33L1 33L1 34L0 34L0 35L1 35L1 37L2 37L2 38L4 38L4 39L3 39L3 40L2 40L2 39L1 39L1 38L0 38L0 39L1 39L1 40L0 40L0 42L2 42L2 43L4 43L4 44L3 44L3 45L2 45L2 47L1 47L1 45L0 45L0 48L5 48L5 47L7 47L7 46L5 46L5 45L4 45L4 44L5 44L5 42L6 42L6 43L8 43L8 44L9 44L9 43L10 43L10 47L8 47L8 48L6 48L6 49L8 49L8 50L9 50L9 51L10 51L10 52L9 52L9 53L8 53L8 57L11 57L11 55L10 55L10 54L9 54L9 53L10 53L10 52L11 52L11 51L12 51L12 52L13 52L13 54L12 54L12 56L13 56L13 57L15 57L15 56L13 56L13 54L15 54L15 53L16 53L16 54L17 54L17 55L19 55L19 56L20 56L20 55L21 55L21 56L22 56L22 57L23 57L23 56L24 56L24 55L25 55L25 57L30 57L30 55L31 55L31 57L32 57L32 56L33 56L33 57L39 57L39 56L38 56L38 55L39 55L39 53L42 53L42 54L43 54L43 56L45 56L45 57L46 57L46 55L44 55L44 54L46 54L46 53L45 53L45 51L41 51L41 49L43 49L43 50L44 50L44 48L45 48L45 45L44 45L44 44L46 44L46 43L44 43L44 42L46 42L46 41L45 41L45 39L44 39L44 38L43 38L43 37L45 37L45 38L46 38L46 39L47 39L47 38L49 38L49 37L50 37L50 39L51 39L51 40L49 40L49 41L48 41L48 40L47 40L47 41L48 41L48 44L47 44L47 45L46 45L46 51L47 51L47 54L48 54L48 55L47 55L47 57L48 57L48 55L49 55L49 57L53 57L53 55L55 55L55 56L56 56L56 55L55 55L55 54L54 54L54 52L53 52L53 51L56 51L56 52L55 52L55 53L57 53L57 51L56 51L56 50L57 50L57 49L55 49L55 50L53 50L53 47L51 47L51 48L48 48L48 44L50 44L50 43L49 43L49 42L51 42L51 45L52 45L52 46L55 46L55 45L53 45L53 44L55 44L55 43L56 43L56 42L57 42L57 41L56 41L56 42L55 42L55 43L53 43L53 44L52 44L52 41L53 41L53 42L54 42L54 41L53 41L53 40L55 40L55 39L54 39L54 38L53 38L53 40L52 40L52 38L51 38L51 37L50 37L50 36L53 36L53 32L54 32L54 37L55 37L55 36L57 36L57 35L56 35L56 34L57 34L57 33L55 33L55 32L56 32L56 30L57 30L57 28L56 28L56 27L55 27L55 26L54 26L54 25L55 25L55 24L56 24L56 23L57 23L57 22L56 22L56 23L55 23L55 20L57 20L57 19L56 19L56 18L57 18L57 16L55 16L55 15L54 15L54 14L53 14L53 13L52 13L52 14L51 14L51 12L54 12L54 11L57 11L57 10L56 10L56 9L57 9L57 8L56 8L56 9L55 9L55 8L52 8L52 9L53 9L53 11L52 11L52 10L51 10L51 9L50 9L50 8L48 8L48 7L49 7L49 6L48 6L48 7L47 7L47 5L48 5L48 0L46 0L46 1L45 1L45 0L43 0L43 1L44 1L44 3L42 3L42 1L41 1L41 3L42 3L42 4L40 4L40 0L39 0L39 1L38 1L38 0L35 0L35 1L34 1L34 0L29 0L29 2L28 2L28 0L25 0L25 1L24 1L24 0L22 0L22 1L21 1L21 4L20 4L20 3L19 3L19 2L18 2L18 3L17 3L17 1L13 1L13 2L15 2L15 5L17 5L17 6L16 6L16 7L15 7L15 6L14 6L14 8L15 8L15 10L14 10L14 9L13 9L13 8L12 8L12 7L13 7L13 5L14 5L14 4L13 4L13 5L12 5L12 4L11 4L11 3L10 3L10 2L11 2L11 0ZM22 1L22 3L23 3L23 4L21 4L21 5L20 5L20 4L19 4L19 3L18 3L18 4L17 4L17 3L16 3L16 4L17 4L17 5L18 5L18 6L17 6L17 7L18 7L18 8L16 8L16 11L17 11L17 12L18 12L18 15L16 15L16 14L14 14L14 15L15 15L15 16L16 16L16 17L14 17L14 18L16 18L16 17L17 17L17 18L21 18L21 20L20 20L20 21L21 21L21 20L22 20L22 21L23 21L23 22L22 22L22 23L23 23L23 24L21 24L21 26L20 26L20 23L21 23L21 22L19 22L19 21L18 21L18 19L16 19L16 20L17 20L17 21L16 21L16 23L15 23L15 21L14 21L14 20L15 20L15 19L12 19L12 20L13 20L13 21L10 21L10 22L11 22L11 23L12 23L12 24L16 24L16 25L15 25L15 27L14 27L14 25L12 25L12 27L13 27L13 28L17 28L17 27L20 27L20 28L18 28L18 30L19 30L19 31L22 31L22 32L20 32L20 33L19 33L19 34L17 34L17 33L18 33L18 32L17 32L17 31L16 31L16 30L15 30L15 29L14 29L14 31L16 31L16 32L13 32L13 30L12 30L12 31L11 31L11 32L8 32L8 31L3 31L3 30L2 30L2 29L4 29L4 27L3 27L3 26L4 26L4 25L5 25L5 26L8 26L8 25L9 25L9 28L10 28L10 29L9 29L9 30L11 30L11 27L10 27L10 26L11 26L11 25L9 25L9 21L8 21L8 24L7 24L7 23L6 23L6 22L7 22L7 21L6 21L6 22L5 22L5 21L4 21L4 23L3 23L3 24L4 24L4 25L2 25L2 29L1 29L1 30L2 30L2 31L1 31L1 32L2 32L2 33L3 33L3 35L5 35L5 36L7 36L7 35L8 35L8 34L9 34L9 36L8 36L8 37L6 37L6 38L8 38L8 37L9 37L9 40L8 40L8 39L6 39L6 40L5 40L5 39L4 39L4 40L3 40L3 41L2 41L2 40L1 40L1 41L2 41L2 42L3 42L3 41L4 41L4 42L5 42L5 41L6 41L6 42L7 42L7 41L6 41L6 40L8 40L8 42L9 42L9 41L10 41L10 37L11 37L11 39L12 39L12 37L13 37L13 38L14 38L14 39L13 39L13 40L15 40L15 41L14 41L14 42L12 42L12 41L11 41L11 42L12 42L12 43L11 43L11 44L13 44L13 45L15 45L15 46L14 46L14 47L15 47L15 46L17 46L17 50L15 50L15 51L13 51L13 52L15 52L15 51L16 51L16 53L17 53L17 51L18 51L18 53L19 53L19 55L20 55L20 52L21 52L21 51L19 51L19 50L18 50L18 47L19 47L19 48L21 48L21 49L20 49L20 50L21 50L21 49L22 49L22 50L25 50L25 51L26 51L26 50L25 50L25 49L24 49L24 48L25 48L25 47L26 47L26 48L27 48L27 47L26 47L26 46L27 46L27 45L26 45L26 42L27 42L27 43L28 43L28 44L29 44L29 43L31 43L31 44L30 44L30 45L31 45L31 46L29 46L29 45L28 45L28 47L29 47L29 48L33 48L33 50L32 50L32 49L31 49L31 52L32 52L32 53L33 53L33 54L31 54L31 53L26 53L26 52L23 52L23 53L22 53L22 55L23 55L23 54L26 54L26 56L28 56L28 55L29 55L29 54L31 54L31 55L33 55L33 56L35 56L35 54L36 54L36 52L35 52L35 51L34 51L34 47L36 47L36 48L38 48L38 49L39 49L39 50L37 50L37 49L36 49L36 51L38 51L38 52L37 52L37 55L36 55L36 56L37 56L37 55L38 55L38 52L39 52L39 50L40 50L40 49L41 49L41 47L42 47L42 48L44 48L44 46L43 46L43 45L42 45L42 44L44 44L44 43L43 43L43 41L42 41L42 36L44 36L44 35L42 35L42 34L45 34L45 33L44 33L44 32L43 32L43 31L41 31L41 30L43 30L43 29L41 29L41 28L39 28L39 25L38 25L38 26L37 26L37 27L36 27L36 29L35 29L35 30L36 30L36 29L37 29L37 30L38 30L38 31L39 31L39 30L38 30L38 29L40 29L40 31L41 31L41 33L42 33L42 34L40 34L40 33L39 33L39 32L37 32L37 31L36 31L36 32L37 32L37 33L35 33L35 35L36 35L36 36L35 36L35 37L36 37L36 36L37 36L37 34L38 34L38 33L39 33L39 34L40 34L40 37L41 37L41 39L40 39L40 40L39 40L39 38L38 38L38 37L37 37L37 38L36 38L36 39L37 39L37 40L36 40L36 42L35 42L35 41L34 41L34 36L33 36L33 35L34 35L34 32L35 32L35 31L34 31L34 28L35 28L35 27L33 27L33 26L35 26L35 24L36 24L36 25L37 25L37 22L39 22L39 23L38 23L38 24L41 24L41 25L40 25L40 26L41 26L41 27L42 27L42 26L43 26L43 28L44 28L44 31L46 31L46 32L47 32L47 30L48 30L48 28L47 28L47 26L51 26L51 25L49 25L49 24L54 24L54 21L51 21L51 22L50 22L50 23L49 23L49 20L50 20L50 19L51 19L51 20L53 20L53 18L52 18L52 16L51 16L51 15L50 15L50 12L51 12L51 11L48 11L48 10L47 10L47 9L44 9L44 10L45 10L45 11L44 11L44 13L45 13L45 14L42 14L42 13L43 13L43 11L42 11L42 9L40 9L40 11L37 11L37 10L36 10L36 11L37 11L37 12L39 12L39 14L42 14L42 15L45 15L45 17L44 17L44 16L43 16L43 18L44 18L44 19L42 19L42 16L40 16L40 17L37 17L37 14L38 14L38 13L37 13L37 14L36 14L36 12L35 12L35 14L33 14L33 13L32 13L32 12L34 12L34 11L35 11L35 10L34 10L34 9L37 9L37 7L38 7L38 6L37 6L37 5L40 5L40 4L38 4L38 3L39 3L39 2L37 2L37 1L35 1L35 3L36 3L36 4L37 4L37 5L36 5L36 6L35 6L35 4L34 4L34 5L33 5L33 4L31 4L31 5L32 5L32 6L31 6L31 10L30 10L30 9L28 9L28 11L29 11L29 12L31 12L31 13L30 13L30 15L32 15L32 16L31 16L31 17L30 17L30 16L29 16L29 15L27 15L27 16L26 16L26 15L25 15L25 13L24 13L24 14L23 14L23 12L22 12L22 14L23 14L23 15L22 15L22 16L21 16L21 15L20 15L20 16L21 16L21 17L18 17L18 16L19 16L19 14L21 14L21 13L20 13L20 12L21 12L21 11L24 11L24 12L25 12L25 11L26 11L26 12L27 12L27 9L26 9L26 10L24 10L24 3L25 3L25 4L26 4L26 2L23 2L23 1ZM33 1L33 2L34 2L34 1ZM46 1L46 2L45 2L45 3L46 3L46 4L42 4L42 6L41 6L41 8L45 8L45 7L46 7L46 8L47 8L47 7L46 7L46 6L45 6L45 5L47 5L47 3L46 3L46 2L47 2L47 1ZM30 2L30 3L32 3L32 2ZM36 2L36 3L37 3L37 2ZM9 3L9 4L10 4L10 3ZM27 3L27 4L28 4L28 3ZM18 4L18 5L19 5L19 4ZM11 5L11 7L12 7L12 5ZM21 5L21 6L20 6L20 9L21 9L21 10L18 10L18 12L19 12L19 11L21 11L21 10L22 10L22 9L23 9L23 8L22 8L22 7L23 7L23 5ZM25 5L25 8L26 8L26 5ZM27 5L27 8L30 8L30 5ZM8 6L8 7L9 7L9 6ZM18 6L18 7L19 7L19 6ZM21 6L21 7L22 7L22 6ZM28 6L28 7L29 7L29 6ZM32 6L32 10L31 10L31 12L32 12L32 10L33 10L33 8L35 8L35 6L34 6L34 7L33 7L33 6ZM36 6L36 7L37 7L37 6ZM39 6L39 7L40 7L40 6ZM42 6L42 7L43 7L43 6ZM44 6L44 7L45 7L45 6ZM21 8L21 9L22 9L22 8ZM38 8L38 10L39 10L39 8ZM49 9L49 10L50 10L50 9ZM54 9L54 10L55 10L55 9ZM6 11L6 12L7 12L7 11ZM41 11L41 12L40 12L40 13L41 13L41 12L42 12L42 11ZM45 11L45 13L48 13L48 15L47 15L47 14L45 14L45 15L47 15L47 17L48 17L48 19L49 19L49 17L51 17L51 16L50 16L50 15L49 15L49 12L48 12L48 11ZM55 12L55 14L56 14L56 15L57 15L57 13L56 13L56 12ZM1 13L1 14L2 14L2 13ZM6 13L6 14L7 14L7 13ZM27 13L27 14L28 14L28 13ZM31 13L31 14L32 14L32 13ZM12 15L12 16L11 16L11 17L12 17L12 18L13 18L13 15ZM23 15L23 18L25 18L25 21L24 21L24 20L23 20L23 21L24 21L24 22L25 22L25 27L22 27L22 26L21 26L21 29L20 29L20 30L21 30L21 29L22 29L22 30L23 30L23 28L24 28L24 29L26 29L26 30L24 30L24 31L27 31L27 32L25 32L25 33L27 33L27 32L28 32L28 35L27 35L27 34L26 34L26 35L25 35L25 34L24 34L24 32L22 32L22 33L21 33L21 37L20 37L20 36L19 36L19 37L18 37L18 36L17 36L17 34L16 34L16 35L15 35L15 34L14 34L14 35L12 35L12 34L13 34L13 32L12 32L12 34L11 34L11 33L10 33L10 35L12 35L12 36L11 36L11 37L12 37L12 36L14 36L14 35L15 35L15 38L17 38L17 39L16 39L16 41L15 41L15 42L14 42L14 43L13 43L13 44L15 44L15 45L16 45L16 43L15 43L15 42L17 42L17 45L18 45L18 46L19 46L19 47L20 47L20 45L21 45L21 44L22 44L22 45L23 45L23 47L22 47L22 46L21 46L21 47L22 47L22 49L23 49L23 48L24 48L24 45L25 45L25 46L26 46L26 45L25 45L25 44L24 44L24 45L23 45L23 44L22 44L22 42L24 42L24 41L26 41L26 40L27 40L27 42L29 42L29 41L28 41L28 40L31 40L31 41L30 41L30 42L31 42L31 43L34 43L34 41L32 41L32 40L31 40L31 39L30 39L30 38L31 38L31 36L29 36L29 33L31 33L31 32L28 32L28 31L32 31L32 32L34 32L34 31L32 31L32 29L31 29L31 27L32 27L32 26L33 26L33 25L31 25L31 24L30 24L30 23L29 23L29 24L30 24L30 26L29 26L29 25L26 25L26 23L28 23L28 22L30 22L30 21L28 21L28 22L25 22L25 21L26 21L26 20L27 20L27 19L28 19L28 20L29 20L29 19L28 19L28 18L29 18L29 17L27 17L27 19L26 19L26 18L25 18L25 17L24 17L24 16L25 16L25 15ZM35 15L35 17L34 17L34 16L32 16L32 17L33 17L33 20L34 20L34 21L32 21L32 18L30 18L30 19L31 19L31 23L33 23L33 22L35 22L35 20L34 20L34 19L37 19L37 20L36 20L36 21L37 21L37 20L39 20L39 22L41 22L41 21L43 21L43 20L41 20L41 19L39 19L39 18L38 18L38 19L37 19L37 18L36 18L36 15ZM38 15L38 16L39 16L39 15ZM53 16L53 17L54 17L54 18L56 18L56 17L55 17L55 16ZM3 17L3 18L4 18L4 17ZM6 17L6 18L7 18L7 17ZM21 17L21 18L22 18L22 17ZM45 17L45 18L46 18L46 17ZM6 19L6 20L8 20L8 19ZM44 19L44 20L46 20L46 22L45 22L45 21L44 21L44 22L43 22L43 23L44 23L44 24L43 24L43 25L44 25L44 26L45 26L45 27L44 27L44 28L45 28L45 27L46 27L46 26L47 26L47 25L48 25L48 22L47 22L47 21L48 21L48 20L46 20L46 19ZM54 19L54 20L55 20L55 19ZM40 20L40 21L41 21L41 20ZM51 22L51 23L52 23L52 22ZM4 23L4 24L5 24L5 25L7 25L7 24L5 24L5 23ZM16 23L16 24L17 24L17 25L16 25L16 27L17 27L17 25L18 25L18 26L19 26L19 24L18 24L18 23ZM34 23L34 24L35 24L35 23ZM41 23L41 24L42 24L42 23ZM44 24L44 25L45 25L45 26L46 26L46 25L45 25L45 24ZM41 25L41 26L42 26L42 25ZM56 25L56 26L57 26L57 25ZM53 26L53 27L54 27L54 28L53 28L53 29L54 29L54 30L56 30L56 29L54 29L54 28L55 28L55 27L54 27L54 26ZM5 27L5 30L8 30L8 27ZM27 27L27 30L30 30L30 27ZM37 27L37 28L38 28L38 27ZM49 27L49 30L52 30L52 27ZM6 28L6 29L7 29L7 28ZM28 28L28 29L29 29L29 28ZM46 28L46 29L47 29L47 28ZM50 28L50 29L51 29L51 28ZM2 31L2 32L3 32L3 33L4 33L4 32L3 32L3 31ZM49 31L49 32L48 32L48 36L45 36L45 37L46 37L46 38L47 38L47 37L48 37L48 36L50 36L50 35L49 35L49 33L51 33L51 35L52 35L52 33L51 33L51 31ZM52 31L52 32L53 32L53 31ZM6 32L6 33L7 33L7 34L6 34L6 35L7 35L7 34L8 34L8 33L7 33L7 32ZM16 32L16 33L17 33L17 32ZM46 33L46 34L47 34L47 33ZM1 34L1 35L2 35L2 34ZM19 34L19 35L20 35L20 34ZM22 34L22 36L23 36L23 39L21 39L21 38L22 38L22 37L21 37L21 38L20 38L20 37L19 37L19 38L18 38L18 39L19 39L19 40L18 40L18 43L21 43L21 42L19 42L19 41L21 41L21 40L22 40L22 41L23 41L23 39L24 39L24 40L25 40L25 39L26 39L26 37L25 37L25 39L24 39L24 36L25 36L25 35L24 35L24 36L23 36L23 34ZM30 34L30 35L33 35L33 34ZM38 35L38 36L39 36L39 35ZM41 35L41 36L42 36L42 35ZM9 36L9 37L10 37L10 36ZM16 36L16 37L17 37L17 36ZM28 36L28 37L29 37L29 38L27 38L27 40L28 40L28 39L29 39L29 38L30 38L30 37L29 37L29 36ZM32 36L32 37L33 37L33 36ZM56 37L56 38L57 38L57 37ZM43 39L43 40L44 40L44 39ZM56 39L56 40L57 40L57 39ZM4 40L4 41L5 41L5 40ZM38 40L38 41L37 41L37 42L36 42L36 43L35 43L35 44L36 44L36 45L37 45L37 47L39 47L39 49L40 49L40 46L39 46L39 44L40 44L40 45L41 45L41 44L40 44L40 43L38 43L38 44L37 44L37 42L38 42L38 41L39 41L39 42L40 42L40 41L39 41L39 40ZM41 42L41 43L42 43L42 42ZM0 43L0 44L1 44L1 43ZM6 44L6 45L7 45L7 44ZM19 44L19 45L20 45L20 44ZM33 44L33 45L32 45L32 46L31 46L31 47L34 47L34 44ZM3 46L3 47L5 47L5 46ZM12 46L12 47L10 47L10 48L11 48L11 50L14 50L14 49L16 49L16 48L13 48L13 46ZM49 46L49 47L50 47L50 46ZM56 47L56 48L57 48L57 47ZM12 48L12 49L13 49L13 48ZM47 48L47 50L48 50L48 48ZM9 49L9 50L10 50L10 49ZM27 49L27 52L30 52L30 49ZM49 49L49 52L52 52L52 49ZM28 50L28 51L29 51L29 50ZM50 50L50 51L51 51L51 50ZM32 51L32 52L33 52L33 53L35 53L35 52L34 52L34 51ZM43 52L43 53L44 53L44 52ZM49 53L49 55L50 55L50 54L51 54L51 56L52 56L52 54L53 54L53 53L52 53L52 54L51 54L51 53ZM27 54L27 55L28 55L28 54ZM33 54L33 55L34 55L34 54ZM40 55L40 56L41 56L41 55ZM17 56L17 57L18 57L18 56ZM0 0L0 7L7 7L7 0ZM1 1L1 6L6 6L6 1ZM2 2L2 5L5 5L5 2ZM50 0L50 7L57 7L57 0ZM51 1L51 6L56 6L56 1ZM52 2L52 5L55 5L55 2ZM0 50L0 57L7 57L7 50ZM1 51L1 56L6 56L6 51ZM2 52L2 55L5 55L5 52Z" fill="#000000"/></g></g></svg>
