<?xml version="1.0" encoding="UTF-8"?>
<svg xmlns="http://www.w3.org/2000/svg" version="1.1" width="100" height="100" viewBox="0 0 100 100"><rect x="0" y="0" width="100" height="100" fill="#ffffff"/><g transform="scale(1.754)"><g transform="translate(0,0)"><path fill-rule="evenodd" d="M9 0L9 1L8 1L8 3L9 3L9 1L10 1L10 2L11 2L11 1L12 1L12 3L13 3L13 5L12 5L12 7L11 7L11 5L10 5L10 4L8 4L8 8L6 8L6 9L5 9L5 10L4 10L4 12L5 12L5 13L7 13L7 14L6 14L6 15L5 15L5 16L4 16L4 17L3 17L3 18L2 18L2 16L1 16L1 17L0 17L0 18L1 18L1 19L0 19L0 21L2 21L2 23L1 23L1 24L0 24L0 25L1 25L1 24L3 24L3 25L2 25L2 26L1 26L1 27L0 27L0 28L1 28L1 27L2 27L2 26L4 26L4 27L3 27L3 28L2 28L2 29L0 29L0 31L1 31L1 32L2 32L2 33L3 33L3 32L2 32L2 30L3 30L3 31L4 31L4 32L5 32L5 31L7 31L7 32L6 32L6 33L4 33L4 34L3 34L3 35L4 35L4 34L5 34L5 36L6 36L6 37L8 37L8 38L5 38L5 37L4 37L4 38L3 38L3 36L2 36L2 34L1 34L1 33L0 33L0 34L1 34L1 37L0 37L0 38L1 38L1 37L2 37L2 38L3 38L3 39L4 39L4 40L3 40L3 41L2 41L2 39L1 39L1 40L0 40L0 43L2 43L2 42L4 42L4 41L5 41L5 43L4 43L4 45L3 45L3 44L1 44L1 45L0 45L0 48L5 48L5 47L8 47L8 51L9 51L9 52L10 52L10 53L8 53L8 54L10 54L10 55L13 55L13 56L14 56L14 57L17 57L17 56L15 56L15 55L13 55L13 54L12 54L12 53L11 53L11 52L10 52L10 51L11 51L11 50L12 50L12 52L13 52L13 51L15 51L15 52L16 52L16 51L15 51L15 49L16 49L16 48L15 48L15 47L18 47L18 49L20 49L20 51L21 51L21 50L22 50L22 52L23 52L23 50L24 50L24 51L25 51L25 50L24 50L24 49L22 49L22 48L24 48L24 47L25 47L25 49L26 49L26 53L25 53L25 52L24 52L24 53L23 53L23 54L21 54L21 52L20 52L20 53L19 53L19 50L18 50L18 52L17 52L17 53L16 53L16 54L17 54L17 55L22 55L22 56L23 56L23 57L24 57L24 56L26 56L26 55L27 55L27 57L30 57L30 53L31 53L31 51L32 51L32 50L31 50L31 49L33 49L33 46L34 46L34 44L35 44L35 45L36 45L36 44L35 44L35 43L38 43L38 42L39 42L39 43L40 43L40 44L38 44L38 46L35 46L35 48L34 48L34 49L35 49L35 50L33 50L33 51L35 51L35 50L36 50L36 54L35 54L35 53L34 53L34 54L31 54L31 57L32 57L32 56L33 56L33 55L34 55L34 57L37 57L37 56L38 56L38 55L40 55L40 56L39 56L39 57L41 57L41 53L42 53L42 54L44 54L44 55L43 55L43 56L42 56L42 57L43 57L43 56L45 56L45 57L47 57L47 56L48 56L48 57L49 57L49 56L50 56L50 55L51 55L51 57L53 57L53 56L52 56L52 54L53 54L53 55L55 55L55 56L54 56L54 57L56 57L56 56L57 56L57 51L56 51L56 50L53 50L53 48L55 48L55 49L57 49L57 48L55 48L55 47L56 47L56 44L57 44L57 42L56 42L56 40L57 40L57 39L56 39L56 38L54 38L54 39L55 39L55 40L54 40L54 41L53 41L53 42L52 42L52 45L51 45L51 46L49 46L49 47L48 47L48 49L47 49L47 50L46 50L46 48L45 48L45 47L47 47L47 46L46 46L46 44L48 44L48 43L51 43L51 42L50 42L50 41L51 41L51 40L52 40L52 38L53 38L53 37L57 37L57 35L54 35L54 34L53 34L53 33L56 33L56 32L55 32L55 31L56 31L56 29L57 29L57 28L56 28L56 26L57 26L57 22L56 22L56 20L57 20L57 19L54 19L54 18L52 18L52 17L55 17L55 18L56 18L56 17L57 17L57 14L56 14L56 13L57 13L57 9L56 9L56 8L54 8L54 10L53 10L53 8L50 8L50 9L52 9L52 10L51 10L51 11L49 11L49 9L48 9L48 11L47 11L47 10L46 10L46 11L47 11L47 13L45 13L45 12L44 12L44 11L45 11L45 9L47 9L47 5L48 5L48 0L46 0L46 1L47 1L47 2L46 2L46 3L47 3L47 5L46 5L46 4L45 4L45 3L44 3L44 2L42 2L42 1L44 1L44 0L42 0L42 1L41 1L41 0L40 0L40 2L39 2L39 3L41 3L41 2L42 2L42 3L44 3L44 4L40 4L40 5L41 5L41 6L40 6L40 7L39 7L39 5L38 5L38 1L39 1L39 0L38 0L38 1L37 1L37 2L36 2L36 3L35 3L35 2L33 2L33 3L32 3L32 1L33 1L33 0L32 0L32 1L31 1L31 2L30 2L30 3L31 3L31 4L29 4L29 3L27 3L27 4L24 4L24 5L23 5L23 0L22 0L22 5L23 5L23 6L22 6L22 8L21 8L21 6L20 6L20 5L19 5L19 4L20 4L20 2L21 2L21 0L18 0L18 1L17 1L17 2L16 2L16 0L15 0L15 2L13 2L13 1L14 1L14 0L11 0L11 1L10 1L10 0ZM24 0L24 3L25 3L25 0ZM28 0L28 2L29 2L29 1L30 1L30 0ZM18 1L18 2L17 2L17 3L15 3L15 7L16 7L16 6L17 6L17 8L19 8L19 9L16 9L16 8L14 8L14 5L13 5L13 8L11 8L11 7L10 7L10 6L9 6L9 7L10 7L10 8L8 8L8 9L9 9L9 11L8 11L8 10L7 10L7 9L6 9L6 10L7 10L7 11L5 11L5 12L7 12L7 11L8 11L8 13L9 13L9 18L8 18L8 16L7 16L7 15L8 15L8 14L7 14L7 15L6 15L6 16L7 16L7 17L6 17L6 18L4 18L4 19L6 19L6 20L3 20L3 19L2 19L2 21L4 21L4 22L3 22L3 24L4 24L4 25L5 25L5 24L7 24L7 25L6 25L6 26L7 26L7 25L8 25L8 24L7 24L7 23L9 23L9 25L11 25L11 26L12 26L12 27L11 27L11 28L10 28L10 27L9 27L9 31L10 31L10 34L13 34L13 35L12 35L12 36L14 36L14 37L12 37L12 38L11 38L11 37L9 37L9 38L8 38L8 39L9 39L9 38L10 38L10 40L9 40L9 41L8 41L8 40L7 40L7 39L5 39L5 40L7 40L7 41L6 41L6 42L7 42L7 43L6 43L6 44L7 44L7 43L8 43L8 47L9 47L9 44L10 44L10 45L11 45L11 46L12 46L12 48L11 48L11 47L10 47L10 48L9 48L9 49L13 49L13 50L14 50L14 48L13 48L13 47L15 47L15 46L20 46L20 45L21 45L21 43L20 43L20 45L17 45L17 44L19 44L19 43L18 43L18 42L20 42L20 41L17 41L17 42L16 42L16 43L15 43L15 44L14 44L14 46L12 46L12 44L13 44L13 43L14 43L14 42L15 42L15 41L16 41L16 40L20 40L20 38L19 38L19 39L18 39L18 36L17 36L17 35L18 35L18 34L19 34L19 33L18 33L18 31L17 31L17 32L16 32L16 28L17 28L17 27L19 27L19 28L18 28L18 29L17 29L17 30L20 30L20 29L19 29L19 28L21 28L21 30L23 30L23 31L22 31L22 32L21 32L21 31L20 31L20 32L21 32L21 33L20 33L20 35L19 35L19 37L20 37L20 35L21 35L21 33L22 33L22 32L23 32L23 34L22 34L22 35L24 35L24 36L25 36L25 35L24 35L24 32L26 32L26 31L24 31L24 30L26 30L26 28L25 28L25 26L27 26L27 25L26 25L26 24L28 24L28 25L31 25L31 24L32 24L32 22L31 22L31 21L30 21L30 20L33 20L33 21L34 21L34 16L35 16L35 17L36 17L36 18L37 18L37 17L38 17L38 18L39 18L39 17L40 17L40 16L39 16L39 15L40 15L40 14L41 14L41 17L42 17L42 18L41 18L41 20L43 20L43 16L44 16L44 17L46 17L46 19L45 19L45 20L46 20L46 19L47 19L47 21L45 21L45 22L46 22L46 23L45 23L45 24L47 24L47 25L48 25L48 24L49 24L49 25L50 25L50 23L51 23L51 24L52 24L52 23L53 23L53 25L51 25L51 26L53 26L53 25L54 25L54 27L53 27L53 28L54 28L54 31L55 31L55 29L56 29L56 28L54 28L54 27L55 27L55 26L56 26L56 24L55 24L55 23L53 23L53 22L55 22L55 21L53 21L53 20L52 20L52 19L51 19L51 18L49 18L49 17L50 17L50 16L51 16L51 17L52 17L52 16L51 16L51 12L53 12L53 10L52 10L52 11L51 11L51 12L50 12L50 13L49 13L49 11L48 11L48 14L46 14L46 15L45 15L45 13L44 13L44 12L43 12L43 11L44 11L44 10L43 10L43 9L42 9L42 8L43 8L43 7L44 7L44 5L45 5L45 4L44 4L44 5L43 5L43 7L42 7L42 6L41 6L41 7L40 7L40 8L39 8L39 7L38 7L38 5L37 5L37 4L35 4L35 3L34 3L34 6L33 6L33 8L32 8L32 5L33 5L33 4L32 4L32 5L31 5L31 9L30 9L30 10L28 10L28 11L27 11L27 9L25 9L25 8L26 8L26 6L25 6L25 5L24 5L24 6L23 6L23 7L24 7L24 8L23 8L23 9L21 9L21 8L19 8L19 7L20 7L20 6L19 6L19 5L18 5L18 4L19 4L19 2L20 2L20 1ZM17 3L17 4L18 4L18 3ZM17 5L17 6L18 6L18 7L19 7L19 6L18 6L18 5ZM27 5L27 8L30 8L30 5ZM35 5L35 6L34 6L34 10L33 10L33 9L31 9L31 10L32 10L32 11L31 11L31 12L33 12L33 13L31 13L31 14L33 14L33 15L31 15L31 16L32 16L32 17L33 17L33 15L34 15L34 14L36 14L36 17L37 17L37 14L38 14L38 15L39 15L39 14L38 14L38 12L39 12L39 11L40 11L40 9L39 9L39 10L37 10L37 9L38 9L38 7L37 7L37 6L36 6L36 5ZM24 6L24 7L25 7L25 6ZM28 6L28 7L29 7L29 6ZM35 6L35 8L36 8L36 9L37 9L37 8L36 8L36 6ZM45 6L45 8L44 8L44 9L45 9L45 8L46 8L46 6ZM48 6L48 7L49 7L49 6ZM0 8L0 9L1 9L1 11L0 11L0 12L1 12L1 11L3 11L3 9L4 9L4 8L3 8L3 9L2 9L2 8ZM13 8L13 9L12 9L12 10L11 10L11 9L10 9L10 11L9 11L9 13L10 13L10 14L13 14L13 15L14 15L14 16L13 16L13 17L12 17L12 15L10 15L10 16L11 16L11 17L10 17L10 18L12 18L12 19L11 19L11 20L10 20L10 21L11 21L11 22L12 22L12 23L11 23L11 24L12 24L12 26L13 26L13 23L14 23L14 24L15 24L15 25L18 25L18 24L17 24L17 23L19 23L19 24L24 24L24 25L23 25L23 26L22 26L22 27L23 27L23 26L25 26L25 23L26 23L26 22L27 22L27 23L28 23L28 22L27 22L27 20L28 20L28 21L29 21L29 20L28 20L28 18L29 18L29 19L30 19L30 18L29 18L29 16L28 16L28 15L29 15L29 14L30 14L30 12L29 12L29 14L28 14L28 12L26 12L26 13L25 13L25 12L24 12L24 11L26 11L26 10L24 10L24 9L23 9L23 10L21 10L21 9L19 9L19 10L18 10L18 11L17 11L17 12L15 12L15 15L14 15L14 14L13 14L13 13L14 13L14 11L13 11L13 9L14 9L14 10L15 10L15 11L16 11L16 10L15 10L15 9L14 9L14 8ZM19 10L19 11L18 11L18 12L17 12L17 13L16 13L16 15L15 15L15 16L14 16L14 17L15 17L15 19L14 19L14 18L13 18L13 19L14 19L14 20L12 20L12 22L14 22L14 23L15 23L15 24L16 24L16 18L17 18L17 17L18 17L18 18L19 18L19 19L18 19L18 20L17 20L17 21L19 21L19 20L20 20L20 22L19 22L19 23L20 23L20 22L21 22L21 21L23 21L23 22L22 22L22 23L25 23L25 22L26 22L26 21L25 21L25 22L24 22L24 21L23 21L23 19L24 19L24 20L25 20L25 18L26 18L26 20L27 20L27 18L26 18L26 16L27 16L27 13L26 13L26 14L23 14L23 16L22 16L22 15L20 15L20 14L19 14L19 13L18 13L18 12L20 12L20 13L21 13L21 12L20 12L20 11L21 11L21 10ZM23 10L23 11L24 11L24 10ZM34 10L34 11L33 11L33 12L34 12L34 13L35 13L35 12L36 12L36 11L35 11L35 10ZM42 10L42 11L41 11L41 12L40 12L40 13L41 13L41 14L42 14L42 15L44 15L44 13L43 13L43 14L42 14L42 13L41 13L41 12L42 12L42 11L43 11L43 10ZM54 10L54 12L56 12L56 11L55 11L55 10ZM10 11L10 12L11 12L11 11ZM37 11L37 12L38 12L38 11ZM22 12L22 13L24 13L24 12ZM0 13L0 14L1 14L1 15L4 15L4 13L3 13L3 14L2 14L2 13ZM52 13L52 14L53 14L53 16L55 16L55 17L56 17L56 14L55 14L55 13ZM18 14L18 15L17 15L17 16L16 16L16 17L17 17L17 16L18 16L18 17L19 17L19 14ZM54 14L54 15L55 15L55 14ZM25 15L25 16L26 16L26 15ZM21 16L21 17L22 17L22 16ZM23 16L23 18L21 18L21 19L23 19L23 18L25 18L25 17L24 17L24 16ZM47 16L47 17L49 17L49 16ZM6 18L6 19L8 19L8 18ZM31 18L31 19L33 19L33 18ZM47 18L47 19L49 19L49 18ZM38 19L38 20L39 20L39 19ZM6 20L6 21L5 21L5 23L7 23L7 22L9 22L9 21L8 21L8 20ZM35 20L35 21L37 21L37 20ZM50 20L50 22L51 22L51 23L52 23L52 21L51 21L51 20ZM6 21L6 22L7 22L7 21ZM41 21L41 22L40 22L40 23L39 23L39 26L37 26L37 25L38 25L38 22L37 22L37 23L36 23L36 22L34 22L34 23L33 23L33 24L34 24L34 25L33 25L33 26L31 26L31 27L32 27L32 28L31 28L31 29L32 29L32 30L34 30L34 31L36 31L36 32L34 32L34 33L35 33L35 34L33 34L33 31L32 31L32 33L30 33L30 31L29 31L29 33L28 33L28 31L27 31L27 34L29 34L29 35L26 35L26 36L27 36L27 37L28 37L28 36L30 36L30 35L32 35L32 36L31 36L31 37L29 37L29 39L28 39L28 38L26 38L26 37L24 37L24 38L23 38L23 36L22 36L22 37L21 37L21 42L22 42L22 47L24 47L24 46L25 46L25 47L26 47L26 48L29 48L29 47L30 47L30 48L31 48L31 47L32 47L32 46L33 46L33 44L34 44L34 43L35 43L35 42L37 42L37 40L39 40L39 39L40 39L40 41L39 41L39 42L42 42L42 41L44 41L44 40L45 40L45 41L47 41L47 43L48 43L48 39L46 39L46 38L44 38L44 37L43 37L43 35L44 35L44 34L45 34L45 36L46 36L46 37L49 37L49 36L47 36L47 35L50 35L50 36L54 36L54 35L52 35L52 33L51 33L51 32L52 32L52 31L51 31L51 32L50 32L50 31L49 31L49 32L48 32L48 29L47 29L47 32L46 32L46 33L47 33L47 34L45 34L45 31L41 31L41 32L40 32L40 31L39 31L39 30L42 30L42 29L44 29L44 28L45 28L45 29L46 29L46 28L48 28L48 26L46 26L46 25L45 25L45 26L43 26L43 25L40 25L40 24L41 24L41 23L42 23L42 24L43 24L43 23L44 23L44 22L42 22L42 21ZM30 22L30 23L29 23L29 24L30 24L30 23L31 23L31 22ZM48 22L48 23L47 23L47 24L48 24L48 23L49 23L49 22ZM35 24L35 25L34 25L34 26L33 26L33 28L32 28L32 29L33 29L33 28L34 28L34 30L36 30L36 31L37 31L37 32L36 32L36 35L35 35L35 36L36 36L36 38L35 38L35 37L34 37L34 36L32 36L32 38L31 38L31 39L30 39L30 40L28 40L28 39L27 39L27 40L26 40L26 39L25 39L25 38L24 38L24 39L23 39L23 38L22 38L22 41L23 41L23 40L24 40L24 43L25 43L25 42L26 42L26 45L25 45L25 46L26 46L26 47L29 47L29 46L26 46L26 45L27 45L27 43L28 43L28 44L29 44L29 45L30 45L30 46L32 46L32 44L31 44L31 39L32 39L32 38L33 38L33 39L34 39L34 38L35 38L35 40L34 40L34 41L35 41L35 40L37 40L37 38L38 38L38 39L39 39L39 38L40 38L40 39L41 39L41 41L42 41L42 39L44 39L44 38L42 38L42 36L41 36L41 35L40 35L40 32L39 32L39 33L38 33L38 34L37 34L37 32L38 32L38 30L39 30L39 29L37 29L37 28L34 28L34 27L35 27L35 25L37 25L37 24ZM54 24L54 25L55 25L55 24ZM19 25L19 26L20 26L20 27L21 27L21 25ZM16 26L16 27L17 27L17 26ZM36 26L36 27L37 27L37 26ZM40 26L40 27L39 27L39 28L41 28L41 26ZM42 26L42 27L43 27L43 26ZM5 27L5 30L8 30L8 27ZM13 27L13 28L12 28L12 29L10 29L10 31L12 31L12 32L11 32L11 33L12 33L12 32L13 32L13 33L14 33L14 32L15 32L15 30L14 30L14 29L15 29L15 27ZM27 27L27 30L30 30L30 27ZM49 27L49 30L52 30L52 27ZM3 28L3 29L4 29L4 28ZM6 28L6 29L7 29L7 28ZM23 28L23 29L25 29L25 28ZM28 28L28 29L29 29L29 28ZM50 28L50 29L51 29L51 28ZM12 30L12 31L14 31L14 30ZM8 32L8 33L6 33L6 34L7 34L7 35L6 35L6 36L8 36L8 35L9 35L9 36L11 36L11 35L9 35L9 34L8 34L8 33L9 33L9 32ZM41 32L41 33L43 33L43 34L42 34L42 35L43 35L43 34L44 34L44 32ZM47 32L47 33L48 33L48 34L50 34L50 35L51 35L51 33L50 33L50 32L49 32L49 33L48 33L48 32ZM16 33L16 34L18 34L18 33ZM25 33L25 34L26 34L26 33ZM29 33L29 34L30 34L30 33ZM14 34L14 36L15 36L15 39L13 39L13 38L12 38L12 39L13 39L13 41L15 41L15 40L16 40L16 39L17 39L17 36L15 36L15 34ZM32 34L32 35L33 35L33 34ZM38 34L38 35L36 35L36 36L37 36L37 37L38 37L38 35L39 35L39 36L40 36L40 38L41 38L41 36L40 36L40 35L39 35L39 34ZM33 37L33 38L34 38L34 37ZM50 37L50 38L49 38L49 41L50 41L50 39L51 39L51 37ZM24 39L24 40L25 40L25 39ZM11 40L11 41L9 41L9 42L11 42L11 43L10 43L10 44L11 44L11 43L13 43L13 42L11 42L11 41L12 41L12 40ZM32 40L32 41L33 41L33 40ZM1 41L1 42L2 42L2 41ZM26 41L26 42L27 42L27 41ZM28 41L28 42L30 42L30 41ZM54 41L54 42L53 42L53 43L55 43L55 44L56 44L56 43L55 43L55 41ZM32 42L32 43L33 43L33 42ZM45 42L45 44L43 44L43 43L41 43L41 44L40 44L40 47L39 47L39 46L38 46L38 47L36 47L36 48L37 48L37 49L36 49L36 50L37 50L37 55L38 55L38 52L39 52L39 54L40 54L40 53L41 53L41 52L43 52L43 53L44 53L44 54L45 54L45 56L46 56L46 54L45 54L45 53L47 53L47 55L48 55L48 56L49 56L49 55L50 55L50 53L49 53L49 55L48 55L48 50L47 50L47 51L45 51L45 48L44 48L44 46L45 46L45 44L46 44L46 42ZM16 43L16 44L15 44L15 45L16 45L16 44L17 44L17 43ZM29 43L29 44L30 44L30 43ZM41 44L41 45L42 45L42 46L43 46L43 45L42 45L42 44ZM49 44L49 45L50 45L50 44ZM1 45L1 47L2 47L2 46L3 46L3 47L5 47L5 46L7 46L7 45L4 45L4 46L3 46L3 45ZM23 45L23 46L24 46L24 45ZM53 45L53 46L51 46L51 47L49 47L49 48L53 48L53 47L54 47L54 46L55 46L55 45ZM19 47L19 48L20 48L20 47ZM38 47L38 49L37 49L37 50L38 50L38 49L39 49L39 47ZM41 47L41 48L40 48L40 49L41 49L41 50L40 50L40 52L41 52L41 50L42 50L42 51L44 51L44 52L45 52L45 51L44 51L44 50L42 50L42 49L44 49L44 48L42 48L42 47ZM6 48L6 49L7 49L7 48ZM41 48L41 49L42 49L42 48ZM27 49L27 52L30 52L30 49ZM49 49L49 52L52 52L52 49ZM28 50L28 51L29 51L29 50ZM50 50L50 51L51 51L51 50ZM53 51L53 52L54 52L54 51ZM55 51L55 52L56 52L56 51ZM32 52L32 53L33 53L33 52ZM10 53L10 54L11 54L11 53ZM14 53L14 54L15 54L15 53ZM26 53L26 54L27 54L27 55L28 55L28 56L29 56L29 53L28 53L28 54L27 54L27 53ZM51 53L51 54L52 54L52 53ZM54 53L54 54L55 54L55 55L56 55L56 53ZM23 54L23 56L24 56L24 55L25 55L25 54ZM8 55L8 57L9 57L9 55ZM11 56L11 57L12 57L12 56ZM18 56L18 57L19 57L19 56ZM0 0L0 7L7 7L7 0ZM1 1L1 6L6 6L6 1ZM2 2L2 5L5 5L5 2ZM50 0L50 7L57 7L57 0ZM51 1L51 6L56 6L56 1ZM52 2L52 5L55 5L55 2ZM0 50L0 57L7 57L7 50ZM1 51L1 56L6 56L6 51ZM2 52L2 55L5 55L5 52Z" fill="#000000"/></g></g></svg>
