<?xml version="1.0" encoding="UTF-8"?>
<svg xmlns="http://www.w3.org/2000/svg" version="1.1" width="100" height="100" viewBox="0 0 100 100"><rect x="0" y="0" width="100" height="100" fill="#ffffff"/><g transform="scale(1.754)"><g transform="translate(0,0)"><path fill-rule="evenodd" d="M8 0L8 1L9 1L9 2L8 2L8 5L9 5L9 6L8 6L8 7L9 7L9 8L8 8L8 9L7 9L7 8L6 8L6 9L4 9L4 8L0 8L0 13L1 13L1 14L0 14L0 15L1 15L1 14L2 14L2 13L3 13L3 12L2 12L2 10L3 10L3 9L4 9L4 10L6 10L6 11L4 11L4 12L5 12L5 14L3 14L3 17L2 17L2 16L0 16L0 19L1 19L1 18L2 18L2 20L1 20L1 21L0 21L0 24L1 24L1 22L3 22L3 17L5 17L5 20L4 20L4 23L2 23L2 25L1 25L1 26L0 26L0 27L4 27L4 28L1 28L1 29L0 29L0 35L1 35L1 34L2 34L2 32L3 32L3 33L4 33L4 34L3 34L3 35L2 35L2 37L1 37L1 36L0 36L0 37L1 37L1 38L0 38L0 41L1 41L1 42L0 42L0 45L1 45L1 46L0 46L0 48L5 48L5 47L7 47L7 46L9 46L9 49L8 49L8 50L9 50L9 49L10 49L10 50L11 50L11 49L12 49L12 50L13 50L13 48L16 48L16 49L14 49L14 51L15 51L15 52L13 52L13 53L12 53L12 52L9 52L9 53L8 53L8 57L10 57L10 56L11 56L11 57L12 57L12 55L14 55L14 54L15 54L15 53L16 53L16 54L17 54L17 53L16 53L16 51L15 51L15 50L17 50L17 52L19 52L19 51L21 51L21 52L20 52L20 55L19 55L19 54L18 54L18 56L19 56L19 57L20 57L20 55L21 55L21 56L23 56L23 55L21 55L21 54L23 54L23 53L21 53L21 52L22 52L22 51L23 51L23 52L25 52L25 55L26 55L26 56L27 56L27 57L29 57L29 56L31 56L31 57L32 57L32 55L30 55L30 53L31 53L31 54L33 54L33 53L34 53L34 55L33 55L33 57L36 57L36 56L34 56L34 55L37 55L37 57L38 57L38 56L39 56L39 53L41 53L41 54L42 54L42 55L43 55L43 56L42 56L42 57L43 57L43 56L44 56L44 54L45 54L45 51L41 51L41 50L39 50L39 52L38 52L38 51L36 51L36 50L38 50L38 49L35 49L35 47L34 47L34 44L33 44L33 45L32 45L32 46L31 46L31 45L30 45L30 43L32 43L32 42L29 42L29 40L31 40L31 41L33 41L33 42L34 42L34 43L35 43L35 44L36 44L36 45L37 45L37 47L36 47L36 48L37 48L37 47L39 47L39 49L41 49L41 48L42 48L42 49L43 49L43 50L44 50L44 49L45 49L45 48L44 48L44 49L43 49L43 48L42 48L42 47L40 47L40 45L41 45L41 44L40 44L40 43L39 43L39 42L38 42L38 44L37 44L37 41L40 41L40 42L41 42L41 37L40 37L40 35L39 35L39 34L38 34L38 35L37 35L37 36L36 36L36 35L34 35L34 34L35 34L35 32L34 32L34 31L38 31L38 33L39 33L39 31L38 31L38 30L40 30L40 29L43 29L43 30L41 30L41 31L44 31L44 28L45 28L45 27L47 27L47 28L46 28L46 29L47 29L47 28L48 28L48 30L47 30L47 32L46 32L46 31L45 31L45 32L44 32L44 33L45 33L45 34L43 34L43 35L44 35L44 36L42 36L42 35L41 35L41 36L42 36L42 41L45 41L45 42L47 42L47 41L48 41L48 42L51 42L51 45L52 45L52 46L53 46L53 44L55 44L55 45L54 45L54 47L56 47L56 48L54 48L54 49L55 49L55 50L53 50L53 47L51 47L51 48L48 48L48 46L49 46L49 47L50 47L50 46L49 46L49 44L50 44L50 43L49 43L49 44L48 44L48 45L46 45L46 51L47 51L47 53L51 53L51 54L52 54L52 56L51 56L51 57L54 57L54 56L56 56L56 55L55 55L55 54L54 54L54 53L53 53L53 51L56 51L56 52L55 52L55 53L57 53L57 51L56 51L56 50L57 50L57 49L56 49L56 48L57 48L57 45L56 45L56 43L53 43L53 44L52 44L52 40L49 40L49 41L48 41L48 40L47 40L47 41L46 41L46 40L45 40L45 39L44 39L44 38L43 38L43 37L45 37L45 38L46 38L46 39L47 39L47 38L46 38L46 36L47 36L47 35L49 35L49 34L51 34L51 33L52 33L52 35L51 35L51 37L50 37L50 36L49 36L49 38L51 38L51 39L53 39L53 42L54 42L54 40L55 40L55 38L54 38L54 37L55 37L55 36L57 36L57 35L56 35L56 34L57 34L57 33L54 33L54 32L56 32L56 30L57 30L57 28L54 28L54 27L55 27L55 26L56 26L56 27L57 27L57 25L55 25L55 24L56 24L56 23L57 23L57 22L56 22L56 23L55 23L55 24L54 24L54 22L55 22L55 21L54 21L54 20L55 20L55 19L56 19L56 20L57 20L57 16L55 16L55 15L54 15L54 14L53 14L53 13L52 13L52 14L51 14L51 16L50 16L50 14L49 14L49 13L51 13L51 12L55 12L55 13L56 13L56 12L57 12L57 11L56 11L56 12L55 12L55 10L54 10L54 9L55 9L55 8L52 8L52 9L53 9L53 10L54 10L54 11L52 11L52 10L50 10L50 8L48 8L48 7L49 7L49 6L48 6L48 7L47 7L47 5L48 5L48 0L46 0L46 1L45 1L45 0L43 0L43 1L44 1L44 3L42 3L42 1L41 1L41 3L42 3L42 5L41 5L41 4L40 4L40 0L39 0L39 1L38 1L38 0L36 0L36 1L38 1L38 2L39 2L39 3L38 3L38 4L40 4L40 5L37 5L37 4L36 4L36 3L37 3L37 2L36 2L36 3L35 3L35 0L34 0L34 2L33 2L33 0L31 0L31 1L32 1L32 3L31 3L31 4L30 4L30 1L29 1L29 2L28 2L28 1L24 1L24 0L22 0L22 1L21 1L21 4L20 4L20 3L19 3L19 2L18 2L18 3L17 3L17 1L13 1L13 2L12 2L12 3L14 3L14 5L17 5L17 6L16 6L16 7L15 7L15 6L14 6L14 8L15 8L15 9L17 9L17 8L18 8L18 9L19 9L19 10L18 10L18 12L17 12L17 11L16 11L16 10L14 10L14 11L15 11L15 12L16 12L16 13L13 13L13 12L12 12L12 11L13 11L13 10L12 10L12 11L11 11L11 12L9 12L9 11L8 11L8 10L9 10L9 8L13 8L13 6L12 6L12 7L11 7L11 6L10 6L10 5L9 5L9 3L11 3L11 1L12 1L12 0L11 0L11 1L9 1L9 0ZM22 1L22 3L26 3L26 4L25 4L25 7L24 7L24 6L23 6L23 7L24 7L24 8L25 8L25 9L26 9L26 10L25 10L25 11L24 11L24 10L23 10L23 9L22 9L22 8L21 8L21 9L20 9L20 10L21 10L21 11L19 11L19 12L18 12L18 15L16 15L16 14L13 14L13 13L12 13L12 14L11 14L11 15L10 15L10 14L9 14L9 15L8 15L8 14L7 14L7 13L6 13L6 14L5 14L5 15L4 15L4 16L7 16L7 17L6 17L6 18L7 18L7 17L8 17L8 19L9 19L9 17L10 17L10 16L11 16L11 18L12 18L12 17L13 17L13 18L16 18L16 17L17 17L17 18L21 18L21 20L20 20L20 21L21 21L21 20L22 20L22 21L23 21L23 20L24 20L24 22L22 22L22 23L23 23L23 24L22 24L22 25L23 25L23 26L22 26L22 27L24 27L24 25L25 25L25 23L24 23L24 22L26 22L26 23L27 23L27 24L26 24L26 25L29 25L29 26L30 26L30 24L32 24L32 27L31 27L31 28L33 28L33 29L32 29L32 32L33 32L33 33L34 33L34 32L33 32L33 31L34 31L34 28L35 28L35 26L36 26L36 27L37 27L37 26L38 26L38 28L36 28L36 30L38 30L38 29L40 29L40 28L41 28L41 27L42 27L42 26L43 26L43 27L45 27L45 25L46 25L46 26L50 26L50 25L49 25L49 20L50 20L50 19L52 19L52 20L51 20L51 22L50 22L50 24L51 24L51 26L53 26L53 27L54 27L54 26L55 26L55 25L54 25L54 26L53 26L53 24L51 24L51 22L52 22L52 23L53 23L53 22L52 22L52 21L53 21L53 19L55 19L55 16L54 16L54 18L53 18L53 17L52 17L52 16L53 16L53 15L52 15L52 16L51 16L51 17L49 17L49 18L50 18L50 19L48 19L48 18L47 18L47 15L48 15L48 13L45 13L45 11L44 11L44 13L45 13L45 14L42 14L42 13L43 13L43 11L42 11L42 12L41 12L41 9L40 9L40 11L37 11L37 10L39 10L39 9L38 9L38 6L37 6L37 5L36 5L36 6L35 6L35 5L33 5L33 4L31 4L31 5L32 5L32 6L31 6L31 10L33 10L33 8L32 8L32 6L33 6L33 7L34 7L34 9L35 9L35 8L36 8L36 9L37 9L37 10L34 10L34 11L30 11L30 10L29 10L29 9L28 9L28 11L30 11L30 12L29 12L29 15L27 15L27 16L26 16L26 15L25 15L25 13L24 13L24 14L23 14L23 12L22 12L22 11L24 11L24 12L25 12L25 11L26 11L26 12L27 12L27 9L26 9L26 8L25 8L25 7L26 7L26 4L28 4L28 3L27 3L27 2L23 2L23 1ZM46 1L46 2L45 2L45 3L46 3L46 4L43 4L43 5L42 5L42 6L41 6L41 7L40 7L40 6L39 6L39 7L40 7L40 8L42 8L42 9L43 9L43 10L45 10L45 7L46 7L46 8L47 8L47 7L46 7L46 5L47 5L47 3L46 3L46 2L47 2L47 1ZM14 2L14 3L15 3L15 2ZM16 3L16 4L17 4L17 5L18 5L18 6L17 6L17 7L18 7L18 8L20 8L20 6L21 6L21 7L22 7L22 5L24 5L24 4L22 4L22 5L20 5L20 4L19 4L19 3L18 3L18 4L17 4L17 3ZM34 3L34 4L35 4L35 3ZM18 4L18 5L19 5L19 4ZM27 5L27 8L30 8L30 5ZM9 6L9 7L10 7L10 6ZM18 6L18 7L19 7L19 6ZM28 6L28 7L29 7L29 6ZM34 6L34 7L35 7L35 6ZM36 6L36 7L37 7L37 6ZM42 6L42 7L43 7L43 6ZM44 6L44 7L45 7L45 6ZM56 8L56 10L57 10L57 8ZM1 9L1 10L2 10L2 9ZM6 9L6 10L7 10L7 9ZM21 9L21 10L22 10L22 9ZM46 9L46 10L47 10L47 11L48 11L48 12L49 12L49 11L48 11L48 10L47 10L47 9ZM6 11L6 12L7 12L7 11ZM34 11L34 12L32 12L32 14L35 14L35 12L36 12L36 14L37 14L37 15L35 15L35 17L32 17L32 16L31 16L31 15L29 15L29 16L30 16L30 17L31 17L31 18L30 18L30 19L31 19L31 23L33 23L33 24L34 24L34 25L33 25L33 27L34 27L34 25L35 25L35 24L36 24L36 25L38 25L38 26L39 26L39 27L41 27L41 26L42 26L42 25L43 25L43 24L42 24L42 22L43 22L43 23L44 23L44 25L45 25L45 24L47 24L47 25L48 25L48 22L46 22L46 23L45 23L45 21L44 21L44 22L43 22L43 20L42 20L42 19L44 19L44 20L46 20L46 19L47 19L47 18L46 18L46 17L45 17L45 15L47 15L47 14L45 14L45 15L42 15L42 14L39 14L39 12L36 12L36 11ZM50 11L50 12L51 12L51 11ZM1 12L1 13L2 13L2 12ZM8 12L8 13L9 13L9 12ZM20 12L20 13L22 13L22 12ZM30 12L30 14L31 14L31 12ZM40 12L40 13L41 13L41 12ZM27 13L27 14L28 14L28 13ZM37 13L37 14L38 14L38 13ZM6 14L6 15L7 15L7 14ZM12 14L12 15L11 15L11 16L13 16L13 17L16 17L16 16L13 16L13 14ZM19 14L19 16L18 16L18 17L21 17L21 18L22 18L22 17L21 17L21 16L22 16L22 15L23 15L23 18L25 18L25 19L26 19L26 20L25 20L25 21L26 21L26 20L27 20L27 18L26 18L26 17L24 17L24 16L25 16L25 15L23 15L23 14ZM56 14L56 15L57 15L57 14ZM20 15L20 16L21 16L21 15ZM38 15L38 16L37 16L37 17L38 17L38 19L41 19L41 18L42 18L42 16L40 16L40 17L38 17L38 16L39 16L39 15ZM8 16L8 17L9 17L9 16ZM27 16L27 17L28 17L28 16ZM43 16L43 17L44 17L44 19L45 19L45 17L44 17L44 16ZM51 17L51 18L52 18L52 17ZM32 18L32 21L35 21L35 23L37 23L37 24L38 24L38 25L39 25L39 26L41 26L41 25L39 25L39 23L41 23L41 22L42 22L42 21L41 21L41 20L40 20L40 21L41 21L41 22L39 22L39 20L37 20L37 19L35 19L35 18L34 18L34 20L33 20L33 18ZM6 19L6 20L5 20L5 21L6 21L6 22L7 22L7 23L6 23L6 24L5 24L5 23L4 23L4 24L5 24L5 25L2 25L2 26L5 26L5 25L6 25L6 26L7 26L7 25L6 25L6 24L7 24L7 23L8 23L8 25L13 25L13 26L12 26L12 27L10 27L10 30L11 30L11 28L12 28L12 30L14 30L14 31L10 31L10 32L9 32L9 31L4 31L4 30L3 30L3 29L2 29L2 31L3 31L3 32L4 32L4 33L6 33L6 34L8 34L8 35L10 35L10 34L9 34L9 33L11 33L11 34L12 34L12 36L11 36L11 37L14 37L14 36L15 36L15 35L16 35L16 34L17 34L17 36L16 36L16 37L17 37L17 36L18 36L18 37L19 37L19 38L18 38L18 39L19 39L19 40L16 40L16 39L17 39L17 38L13 38L13 39L11 39L11 38L10 38L10 37L9 37L9 40L8 40L8 39L6 39L6 38L7 38L7 37L6 37L6 36L7 36L7 35L5 35L5 34L4 34L4 35L5 35L5 37L6 37L6 38L4 38L4 40L1 40L1 41L4 41L4 42L3 42L3 43L2 43L2 42L1 42L1 43L2 43L2 44L1 44L1 45L2 45L2 44L3 44L3 45L4 45L4 46L3 46L3 47L5 47L5 43L4 43L4 42L7 42L7 43L6 43L6 44L7 44L7 45L6 45L6 46L7 46L7 45L9 45L9 44L10 44L10 43L11 43L11 41L9 41L9 40L12 40L12 41L13 41L13 39L14 39L14 42L12 42L12 43L13 43L13 44L12 44L12 45L13 45L13 44L14 44L14 45L15 45L15 47L16 47L16 45L17 45L17 50L18 50L18 51L19 51L19 50L18 50L18 47L19 47L19 48L21 48L21 49L20 49L20 50L21 50L21 49L22 49L22 50L25 50L25 52L26 52L26 50L25 50L25 49L24 49L24 48L25 48L25 47L26 47L26 48L27 48L27 47L26 47L26 46L27 46L27 45L26 45L26 44L27 44L27 43L28 43L28 44L29 44L29 42L26 42L26 41L28 41L28 40L29 40L29 38L30 38L30 39L32 39L32 40L33 40L33 41L34 41L34 40L35 40L35 37L36 37L36 36L35 36L35 37L32 37L32 36L33 36L33 35L31 35L31 38L30 38L30 37L29 37L29 36L30 36L30 34L32 34L32 33L31 33L31 31L28 31L28 32L27 32L27 31L25 31L25 30L26 30L26 29L25 29L25 30L24 30L24 29L23 29L23 30L22 30L22 29L21 29L21 30L20 30L20 29L19 29L19 28L18 28L18 30L19 30L19 31L22 31L22 32L20 32L20 33L19 33L19 34L17 34L17 33L18 33L18 32L17 32L17 31L16 31L16 30L17 30L17 29L16 29L16 28L17 28L17 27L20 27L20 28L21 28L21 26L20 26L20 25L21 25L21 24L20 24L20 23L21 23L21 22L19 22L19 21L18 21L18 19L16 19L16 20L17 20L17 21L16 21L16 23L15 23L15 24L13 24L13 23L14 23L14 22L15 22L15 21L14 21L14 20L15 20L15 19L10 19L10 21L11 21L11 22L10 22L10 23L9 23L9 20L8 20L8 22L7 22L7 21L6 21L6 20L7 20L7 19ZM11 20L11 21L12 21L12 22L11 22L11 24L12 24L12 22L13 22L13 21L12 21L12 20ZM36 20L36 21L37 21L37 20ZM47 20L47 21L48 21L48 20ZM28 21L28 22L30 22L30 21ZM33 22L33 23L34 23L34 22ZM37 22L37 23L39 23L39 22ZM16 23L16 24L15 24L15 25L16 25L16 26L14 26L14 28L13 28L13 27L12 27L12 28L13 28L13 29L14 29L14 28L16 28L16 26L18 26L18 25L20 25L20 24L18 24L18 23ZM29 23L29 24L30 24L30 23ZM16 24L16 25L18 25L18 24ZM5 27L5 30L8 30L8 27ZM27 27L27 30L30 30L30 27ZM49 27L49 30L52 30L52 27ZM6 28L6 29L7 29L7 28ZM28 28L28 29L29 29L29 28ZM50 28L50 29L51 29L51 28ZM53 28L53 29L54 29L54 30L56 30L56 29L54 29L54 28ZM15 31L15 32L16 32L16 33L17 33L17 32L16 32L16 31ZM52 31L52 32L53 32L53 31ZM6 32L6 33L9 33L9 32ZM12 32L12 33L13 33L13 36L14 36L14 35L15 35L15 33L13 33L13 32ZM22 32L22 33L21 33L21 35L22 35L22 36L21 36L21 37L20 37L20 36L19 36L19 37L20 37L20 38L21 38L21 40L22 40L22 42L21 42L21 41L20 41L20 42L21 42L21 43L18 43L18 42L17 42L17 41L16 41L16 40L15 40L15 42L14 42L14 43L15 43L15 42L16 42L16 43L17 43L17 45L18 45L18 46L19 46L19 47L20 47L20 45L21 45L21 44L22 44L22 45L23 45L23 47L22 47L22 46L21 46L21 47L22 47L22 49L23 49L23 48L24 48L24 44L22 44L22 42L23 42L23 43L25 43L25 42L24 42L24 41L26 41L26 40L25 40L25 39L26 39L26 38L27 38L27 39L28 39L28 37L27 37L27 36L29 36L29 33L30 33L30 32L28 32L28 35L25 35L25 34L24 34L24 32ZM25 32L25 33L26 33L26 34L27 34L27 32ZM40 32L40 34L42 34L42 33L41 33L41 32ZM45 32L45 33L46 33L46 34L47 34L47 33L46 33L46 32ZM48 32L48 34L49 34L49 33L51 33L51 32ZM36 33L36 34L37 34L37 33ZM53 33L53 36L52 36L52 37L51 37L51 38L52 38L52 37L54 37L54 33ZM19 34L19 35L20 35L20 34ZM22 34L22 35L23 35L23 34ZM24 35L24 37L23 37L23 36L22 36L22 37L23 37L23 38L25 38L25 35ZM38 35L38 36L39 36L39 35ZM3 36L3 37L4 37L4 36ZM37 37L37 38L36 38L36 39L37 39L37 38L38 38L38 37ZM56 37L56 38L57 38L57 37ZM1 38L1 39L2 39L2 38ZM33 38L33 39L34 39L34 38ZM5 39L5 40L4 40L4 41L7 41L7 40L6 40L6 39ZM22 39L22 40L23 40L23 39ZM38 39L38 40L40 40L40 39ZM43 39L43 40L44 40L44 39ZM56 39L56 40L57 40L57 39ZM8 41L8 42L9 42L9 43L8 43L8 44L9 44L9 43L10 43L10 42L9 42L9 41ZM35 42L35 43L36 43L36 42ZM42 42L42 43L43 43L43 44L42 44L42 45L43 45L43 46L44 46L44 47L45 47L45 45L44 45L44 44L46 44L46 43L44 43L44 42ZM3 43L3 44L4 44L4 43ZM15 44L15 45L16 45L16 44ZM19 44L19 45L20 45L20 44ZM39 44L39 45L40 45L40 44ZM25 45L25 46L26 46L26 45ZM28 45L28 47L29 47L29 48L31 48L31 49L33 49L33 50L31 50L31 52L32 52L32 53L33 53L33 52L32 52L32 51L34 51L34 52L35 52L35 54L36 54L36 52L35 52L35 51L34 51L34 50L35 50L35 49L34 49L34 47L33 47L33 48L32 48L32 47L31 47L31 46L29 46L29 45ZM1 46L1 47L2 47L2 46ZM10 46L10 47L11 47L11 46ZM12 46L12 48L13 48L13 46ZM6 48L6 49L7 49L7 48ZM10 48L10 49L11 49L11 48ZM47 48L47 50L48 50L48 48ZM27 49L27 52L30 52L30 49ZM49 49L49 52L52 52L52 49ZM28 50L28 51L29 51L29 50ZM50 50L50 51L51 51L51 50ZM37 52L37 55L38 55L38 52ZM41 52L41 53L42 53L42 54L43 54L43 53L44 53L44 52ZM9 53L9 56L10 56L10 55L11 55L11 53ZM13 53L13 54L14 54L14 53ZM27 53L27 54L26 54L26 55L27 55L27 56L28 56L28 55L29 55L29 53ZM52 53L52 54L53 54L53 56L54 56L54 54L53 54L53 53ZM27 54L27 55L28 55L28 54ZM48 54L48 56L50 56L50 55L49 55L49 54ZM45 55L45 56L46 56L46 55ZM13 56L13 57L14 57L14 56ZM16 56L16 57L17 57L17 56ZM24 56L24 57L25 57L25 56ZM0 0L0 7L7 7L7 0ZM1 1L1 6L6 6L6 1ZM2 2L2 5L5 5L5 2ZM50 0L50 7L57 7L57 0ZM51 1L51 6L56 6L56 1ZM52 2L52 5L55 5L55 2ZM0 50L0 57L7 57L7 50ZM1 51L1 56L6 56L6 51ZM2 52L2 55L5 55L5 52Z" fill="#000000"/></g></g></svg>
