<?xml version="1.0" encoding="UTF-8"?>
<svg xmlns="http://www.w3.org/2000/svg" version="1.1" width="100" height="100" viewBox="0 0 100 100"><rect x="0" y="0" width="100" height="100" fill="#ffffff"/><g transform="scale(1.754)"><g transform="translate(0,0)"><path fill-rule="evenodd" d="M14 0L14 1L13 1L13 2L11 2L11 3L10 3L10 2L9 2L9 1L8 1L8 3L10 3L10 4L8 4L8 8L6 8L6 9L7 9L7 10L5 10L5 9L4 9L4 8L3 8L3 9L4 9L4 12L2 12L2 8L0 8L0 10L1 10L1 11L0 11L0 12L1 12L1 13L0 13L0 17L2 17L2 20L3 20L3 22L0 22L0 25L1 25L1 26L3 26L3 27L4 27L4 28L3 28L3 30L1 30L1 28L0 28L0 30L1 30L1 31L0 31L0 32L1 32L1 31L3 31L3 30L4 30L4 31L7 31L7 32L5 32L5 35L7 35L7 36L5 36L5 38L4 38L4 39L3 39L3 40L1 40L1 39L2 39L2 37L1 37L1 36L2 36L2 35L3 35L3 33L4 33L4 32L3 32L3 33L2 33L2 35L1 35L1 33L0 33L0 35L1 35L1 36L0 36L0 38L1 38L1 39L0 39L0 40L1 40L1 41L0 41L0 42L3 42L3 40L4 40L4 42L6 42L6 43L8 43L8 42L9 42L9 43L10 43L10 44L11 44L11 43L12 43L12 42L15 42L15 43L16 43L16 44L14 44L14 43L13 43L13 44L14 44L14 45L13 45L13 46L12 46L12 47L13 47L13 48L12 48L12 49L13 49L13 48L14 48L14 49L16 49L16 48L14 48L14 47L13 47L13 46L14 46L14 45L16 45L16 44L20 44L20 43L21 43L21 42L20 42L20 38L19 38L19 37L21 37L21 39L24 39L24 40L25 40L25 39L26 39L26 40L27 40L27 41L26 41L26 42L27 42L27 43L28 43L28 44L25 44L25 45L24 45L24 44L23 44L23 42L24 42L24 41L23 41L23 42L22 42L22 45L24 45L24 47L23 47L23 48L24 48L24 49L25 49L25 51L26 51L26 52L23 52L23 49L22 49L22 46L21 46L21 45L19 45L19 46L18 46L18 45L17 45L17 46L15 46L15 47L18 47L18 50L17 50L17 51L18 51L18 53L17 53L17 54L16 54L16 51L15 51L15 50L14 50L14 51L13 51L13 52L14 52L14 53L12 53L12 51L11 51L11 50L10 50L10 49L8 49L8 48L9 48L9 46L10 46L10 48L11 48L11 45L9 45L9 44L5 44L5 45L9 45L9 46L5 46L5 47L3 47L3 46L4 46L4 43L2 43L2 44L1 44L1 43L0 43L0 45L1 45L1 46L0 46L0 48L5 48L5 47L8 47L8 48L6 48L6 49L8 49L8 51L10 51L10 52L9 52L9 53L8 53L8 54L10 54L10 55L11 55L11 56L9 56L9 55L8 55L8 57L13 57L13 55L11 55L11 54L14 54L14 57L15 57L15 56L17 56L17 55L19 55L19 56L18 56L18 57L20 57L20 56L21 56L21 55L19 55L19 53L22 53L22 55L23 55L23 56L22 56L22 57L25 57L25 56L26 56L26 57L29 57L29 56L30 56L30 57L31 57L31 56L32 56L32 55L33 55L33 57L35 57L35 56L36 56L36 55L37 55L37 56L38 56L38 57L39 57L39 56L40 56L40 55L41 55L41 51L44 51L44 52L43 52L43 53L42 53L42 54L43 54L43 56L41 56L41 57L44 57L44 55L46 55L46 56L45 56L45 57L46 57L46 56L48 56L48 57L49 57L49 56L50 56L50 57L56 57L56 56L57 56L57 51L53 51L53 49L54 49L54 48L55 48L55 47L56 47L56 44L57 44L57 42L55 42L55 43L53 43L53 42L54 42L54 41L56 41L56 40L57 40L57 39L56 39L56 38L54 38L54 39L55 39L55 40L52 40L52 38L53 38L53 36L48 36L48 35L49 35L49 33L50 33L50 35L51 35L51 33L52 33L52 35L54 35L54 37L55 37L55 36L56 36L56 37L57 37L57 36L56 36L56 35L54 35L54 33L56 33L56 34L57 34L57 33L56 33L56 32L57 32L57 30L55 30L55 31L54 31L54 32L53 32L53 30L54 30L54 28L55 28L55 27L56 27L56 26L55 26L55 27L54 27L54 25L55 25L55 24L56 24L56 25L57 25L57 22L56 22L56 19L57 19L57 18L56 18L56 19L55 19L55 18L54 18L54 17L55 17L55 16L56 16L56 17L57 17L57 16L56 16L56 15L57 15L57 14L56 14L56 13L57 13L57 10L56 10L56 12L55 12L55 16L54 16L54 15L53 15L53 14L54 14L54 13L53 13L53 12L54 12L54 11L53 11L53 12L51 12L51 11L52 11L52 10L50 10L50 9L53 9L53 8L50 8L50 9L49 9L49 10L50 10L50 12L51 12L51 14L49 14L49 12L48 12L48 10L47 10L47 13L45 13L45 10L44 10L44 11L43 11L43 13L42 13L42 15L44 15L44 16L43 16L43 17L42 17L42 16L41 16L41 13L40 13L40 12L42 12L42 9L41 9L41 8L39 8L39 10L38 10L38 12L37 12L37 10L36 10L36 11L35 11L35 12L36 12L36 14L35 14L35 15L36 15L36 17L35 17L35 19L34 19L34 21L32 21L32 25L31 25L31 24L30 24L30 23L31 23L31 20L33 20L33 17L34 17L34 16L31 16L31 17L32 17L32 18L30 18L30 19L31 19L31 20L29 20L29 21L28 21L28 22L26 22L26 21L25 21L25 20L26 20L26 19L27 19L27 20L28 20L28 19L29 19L29 18L28 18L28 19L27 19L27 17L26 17L26 16L27 16L27 15L29 15L29 14L30 14L30 15L32 15L32 14L33 14L33 13L31 13L31 12L34 12L34 11L31 11L31 10L33 10L33 8L31 8L31 6L32 6L32 7L33 7L33 6L34 6L34 7L35 7L35 6L36 6L36 7L37 7L37 8L35 8L35 9L34 9L34 10L35 10L35 9L37 9L37 8L38 8L38 7L39 7L39 6L38 6L38 4L40 4L40 5L41 5L41 6L40 6L40 7L41 7L41 6L42 6L42 7L43 7L43 6L42 6L42 5L44 5L44 9L47 9L47 8L48 8L48 7L49 7L49 6L48 6L48 7L47 7L47 5L48 5L48 0L45 0L45 1L47 1L47 2L46 2L46 3L45 3L45 2L42 2L42 1L41 1L41 0L40 0L40 2L39 2L39 3L38 3L38 1L39 1L39 0L34 0L34 1L33 1L33 2L32 2L32 0L28 0L28 2L26 2L26 0L25 0L25 1L24 1L24 0L23 0L23 1L22 1L22 0L20 0L20 2L19 2L19 3L18 3L18 2L15 2L15 5L14 5L14 7L15 7L15 6L16 6L16 7L17 7L17 11L18 11L18 12L15 12L15 11L16 11L16 8L15 8L15 10L13 10L13 9L14 9L14 8L13 8L13 5L12 5L12 7L11 7L11 6L10 6L10 5L11 5L11 3L12 3L12 4L14 4L14 1L17 1L17 0ZM43 0L43 1L44 1L44 0ZM21 1L21 2L20 2L20 3L19 3L19 4L18 4L18 3L16 3L16 4L18 4L18 6L17 6L17 7L18 7L18 8L21 8L21 9L20 9L20 10L18 10L18 11L19 11L19 12L18 12L18 14L17 14L17 13L14 13L14 11L13 11L13 12L11 12L11 11L12 11L12 10L11 10L11 7L10 7L10 6L9 6L9 7L10 7L10 8L8 8L8 10L9 10L9 11L8 11L8 12L7 12L7 11L6 11L6 12L7 12L7 13L6 13L6 14L7 14L7 13L8 13L8 12L11 12L11 13L9 13L9 14L8 14L8 15L9 15L9 16L7 16L7 15L5 15L5 13L4 13L4 14L3 14L3 15L4 15L4 16L2 16L2 17L3 17L3 18L4 18L4 17L5 17L5 16L7 16L7 17L6 17L6 18L7 18L7 17L8 17L8 19L6 19L6 20L5 20L5 19L3 19L3 20L5 20L5 21L4 21L4 23L5 23L5 22L7 22L7 23L6 23L6 24L7 24L7 23L8 23L8 25L6 25L6 26L9 26L9 27L11 27L11 28L10 28L10 29L9 29L9 32L8 32L8 33L6 33L6 34L9 34L9 35L8 35L8 36L9 36L9 37L6 37L6 38L5 38L5 39L4 39L4 40L7 40L7 41L6 41L6 42L7 42L7 41L9 41L9 42L10 42L10 43L11 43L11 42L12 42L12 41L14 41L14 40L15 40L15 42L17 42L17 41L18 41L18 43L20 43L20 42L19 42L19 41L18 41L18 40L19 40L19 39L18 39L18 38L17 38L17 37L16 37L16 36L18 36L18 37L19 37L19 36L20 36L20 35L21 35L21 37L22 37L22 38L24 38L24 39L25 39L25 38L27 38L27 40L28 40L28 41L27 41L27 42L29 42L29 43L31 43L31 44L32 44L32 45L33 45L33 44L32 44L32 43L34 43L34 38L35 38L35 41L36 41L36 42L35 42L35 43L36 43L36 42L37 42L37 44L36 44L36 45L37 45L37 47L36 47L36 48L38 48L38 44L39 44L39 46L40 46L40 47L39 47L39 49L38 49L38 51L36 51L36 50L37 50L37 49L36 49L36 50L35 50L35 44L34 44L34 50L33 50L33 48L32 48L32 46L31 46L31 45L30 45L30 44L29 44L29 45L28 45L28 47L27 47L27 48L32 48L32 49L31 49L31 50L32 50L32 51L34 51L34 52L36 52L36 53L35 53L35 54L36 54L36 53L37 53L37 55L39 55L39 53L37 53L37 52L39 52L39 49L40 49L40 50L43 50L43 49L40 49L40 47L41 47L41 45L40 45L40 43L38 43L38 42L37 42L37 41L36 41L36 40L37 40L37 39L36 39L36 38L35 38L35 37L36 37L36 36L37 36L37 35L38 35L38 34L37 34L37 35L36 35L36 36L35 36L35 35L34 35L34 31L35 31L35 30L36 30L36 27L37 27L37 28L38 28L38 29L37 29L37 30L39 30L39 31L38 31L38 33L39 33L39 34L40 34L40 35L39 35L39 36L38 36L38 37L37 37L37 38L38 38L38 40L39 40L39 42L40 42L40 41L41 41L41 42L42 42L42 43L41 43L41 44L42 44L42 45L43 45L43 46L44 46L44 45L45 45L45 47L42 47L42 48L45 48L45 47L46 47L46 50L44 50L44 51L45 51L45 53L44 53L44 54L46 54L46 53L48 53L48 48L53 48L53 47L54 47L54 46L55 46L55 45L53 45L53 46L52 46L52 45L51 45L51 44L52 44L52 41L50 41L50 40L51 40L51 39L50 39L50 40L49 40L49 41L50 41L50 42L49 42L49 43L48 43L48 40L47 40L47 39L46 39L46 37L45 37L45 36L47 36L47 37L48 37L48 36L47 36L47 35L48 35L48 32L47 32L47 33L46 33L46 34L47 34L47 35L44 35L44 34L45 34L45 33L44 33L44 34L42 34L42 33L41 33L41 34L40 34L40 33L39 33L39 32L43 32L43 31L40 31L40 29L41 29L41 30L43 30L43 29L46 29L46 28L48 28L48 26L53 26L53 24L54 24L54 23L55 23L55 19L54 19L54 20L53 20L53 21L51 21L51 22L50 22L50 20L51 20L51 19L50 19L50 16L51 16L51 17L52 17L52 18L53 18L53 17L54 17L54 16L53 16L53 17L52 17L52 16L51 16L51 15L49 15L49 14L48 14L48 13L47 13L47 14L48 14L48 15L45 15L45 13L44 13L44 15L45 15L45 18L46 18L46 17L47 17L47 21L48 21L48 20L49 20L49 23L48 23L48 22L47 22L47 23L44 23L44 22L43 22L43 23L42 23L42 24L38 24L38 25L39 25L39 26L38 26L38 27L37 27L37 26L35 26L35 27L33 27L33 25L32 25L32 26L31 26L31 27L32 27L32 29L34 29L34 31L29 31L29 33L31 33L31 32L32 32L32 34L30 34L30 35L28 35L28 31L27 31L27 33L26 33L26 31L24 31L24 30L26 30L26 26L30 26L30 24L29 24L29 25L26 25L26 26L25 26L25 23L26 23L26 22L25 22L25 21L24 21L24 20L25 20L25 18L26 18L26 17L25 17L25 18L23 18L23 20L22 20L22 21L24 21L24 22L25 22L25 23L23 23L23 22L22 22L22 23L21 23L21 22L20 22L20 21L21 21L21 18L22 18L22 17L24 17L24 16L25 16L25 15L26 15L26 14L27 14L27 13L28 13L28 14L29 14L29 12L31 12L31 11L29 11L29 9L28 9L28 11L27 11L27 9L26 9L26 4L25 4L25 3L24 3L24 5L23 5L23 4L21 4L21 2L22 2L22 3L23 3L23 2L22 2L22 1ZM34 1L34 2L36 2L36 3L35 3L35 4L34 4L34 5L36 5L36 6L37 6L37 7L38 7L38 6L37 6L37 4L36 4L36 3L37 3L37 1ZM29 2L29 4L32 4L32 5L33 5L33 4L32 4L32 3L30 3L30 2ZM40 2L40 4L41 4L41 5L42 5L42 4L44 4L44 5L45 5L45 8L46 8L46 5L47 5L47 3L46 3L46 4L44 4L44 3L42 3L42 2ZM27 3L27 4L28 4L28 3ZM41 3L41 4L42 4L42 3ZM19 4L19 5L20 5L20 7L21 7L21 4ZM24 5L24 8L23 8L23 6L22 6L22 9L21 9L21 10L20 10L20 13L19 13L19 14L18 14L18 15L17 15L17 14L16 14L16 15L17 15L17 17L18 17L18 16L19 16L19 14L20 14L20 13L21 13L21 10L22 10L22 9L23 9L23 12L22 12L22 14L21 14L21 16L20 16L20 18L18 18L18 20L17 20L17 19L16 19L16 20L15 20L15 19L14 19L14 18L16 18L16 16L15 16L15 15L14 15L14 17L13 17L13 15L12 15L12 14L14 14L14 13L12 13L12 14L11 14L11 15L12 15L12 16L10 16L10 17L9 17L9 20L8 20L8 21L9 21L9 23L12 23L12 22L13 22L13 23L14 23L14 24L11 24L11 25L9 25L9 26L12 26L12 27L13 27L13 28L15 28L15 29L11 29L11 31L12 31L12 30L13 30L13 34L12 34L12 32L11 32L11 33L10 33L10 35L9 35L9 36L10 36L10 37L9 37L9 38L8 38L8 39L7 39L7 38L6 38L6 39L7 39L7 40L9 40L9 38L10 38L10 41L11 41L11 40L12 40L12 39L13 39L13 40L14 40L14 39L13 39L13 36L14 36L14 38L15 38L15 34L14 34L14 31L16 31L16 33L18 33L18 32L20 32L20 31L22 31L22 33L21 33L21 35L22 35L22 36L24 36L24 38L25 38L25 37L26 37L26 35L27 35L27 34L26 34L26 33L25 33L25 32L24 32L24 34L25 34L25 36L24 36L24 35L22 35L22 34L23 34L23 30L22 30L22 29L24 29L24 28L23 28L23 27L25 27L25 26L23 26L23 24L21 24L21 28L20 28L20 29L21 29L21 30L20 30L20 31L19 31L19 30L18 30L18 29L19 29L19 28L18 28L18 29L17 29L17 28L15 28L15 27L14 27L14 26L12 26L12 25L14 25L14 24L16 24L16 25L15 25L15 26L16 26L16 27L20 27L20 26L19 26L19 24L18 24L18 23L20 23L20 22L17 22L17 24L16 24L16 21L19 21L19 20L20 20L20 18L21 18L21 16L22 16L22 15L25 15L25 14L26 14L26 12L27 12L27 11L26 11L26 10L24 10L24 8L25 8L25 5ZM27 5L27 8L30 8L30 5ZM18 6L18 7L19 7L19 6ZM28 6L28 7L29 7L29 6ZM12 8L12 9L13 9L13 8ZM54 8L54 10L55 10L55 9L56 9L56 8ZM30 9L30 10L31 10L31 9ZM40 9L40 11L41 11L41 9ZM10 10L10 11L11 11L11 10ZM24 11L24 12L25 12L25 11ZM38 12L38 13L37 13L37 17L36 17L36 18L37 18L37 19L35 19L35 20L36 20L36 21L37 21L37 19L38 19L38 22L37 22L37 23L35 23L35 22L33 22L33 23L34 23L34 24L36 24L36 25L37 25L37 23L38 23L38 22L39 22L39 23L41 23L41 22L39 22L39 20L40 20L40 21L43 21L43 20L44 20L44 21L45 21L45 22L46 22L46 19L42 19L42 17L41 17L41 16L40 16L40 17L41 17L41 19L39 19L39 18L38 18L38 16L39 16L39 15L38 15L38 14L39 14L39 12ZM1 13L1 15L2 15L2 13ZM24 13L24 14L25 14L25 13ZM30 13L30 14L31 14L31 13ZM52 13L52 14L53 14L53 13ZM9 14L9 15L10 15L10 14ZM29 16L29 17L30 17L30 16ZM10 17L10 18L11 18L11 17ZM12 17L12 18L13 18L13 17ZM43 17L43 18L44 18L44 17ZM48 17L48 19L49 19L49 17ZM0 19L0 20L1 20L1 19ZM10 19L10 20L9 20L9 21L10 21L10 22L12 22L12 21L10 21L10 20L11 20L11 19ZM12 19L12 20L14 20L14 19ZM6 20L6 21L7 21L7 20ZM14 21L14 23L15 23L15 21ZM29 21L29 22L28 22L28 23L29 23L29 22L30 22L30 21ZM53 21L53 23L52 23L52 22L51 22L51 23L49 23L49 25L50 25L50 24L53 24L53 23L54 23L54 21ZM2 23L2 25L4 25L4 26L5 26L5 24L3 24L3 23ZM47 23L47 25L48 25L48 23ZM43 24L43 25L45 25L45 27L44 27L44 26L43 26L43 28L45 28L45 27L46 27L46 25L45 25L45 24ZM16 25L16 26L18 26L18 25ZM40 25L40 26L39 26L39 28L41 28L41 27L42 27L42 25ZM22 26L22 27L23 27L23 26ZM5 27L5 30L8 30L8 27ZM27 27L27 30L30 30L30 27ZM49 27L49 30L52 30L52 27ZM53 27L53 28L54 28L54 27ZM6 28L6 29L7 29L7 28ZM28 28L28 29L29 29L29 28ZM34 28L34 29L35 29L35 28ZM50 28L50 29L51 29L51 28ZM56 28L56 29L57 29L57 28ZM15 29L15 30L16 30L16 31L17 31L17 29ZM47 29L47 30L48 30L48 29ZM36 31L36 32L35 32L35 33L37 33L37 31ZM44 31L44 32L46 32L46 31ZM49 31L49 32L50 32L50 33L51 33L51 32L52 32L52 31L51 31L51 32L50 32L50 31ZM19 33L19 34L16 34L16 35L19 35L19 34L20 34L20 33ZM11 34L11 37L10 37L10 38L11 38L11 39L12 39L12 38L11 38L11 37L12 37L12 34ZM32 34L32 36L33 36L33 37L32 37L32 38L31 38L31 36L28 36L28 37L30 37L30 39L31 39L31 40L29 40L29 39L28 39L28 40L29 40L29 41L30 41L30 42L31 42L31 43L32 43L32 41L31 41L31 40L32 40L32 38L34 38L34 36L33 36L33 34ZM41 34L41 35L40 35L40 37L41 37L41 36L42 36L42 38L39 38L39 40L40 40L40 39L41 39L41 41L42 41L42 38L43 38L43 37L44 37L44 38L45 38L45 37L44 37L44 36L42 36L42 34ZM49 37L49 38L51 38L51 37ZM16 39L16 41L17 41L17 39ZM43 39L43 40L44 40L44 41L43 41L43 43L46 43L46 44L48 44L48 43L47 43L47 41L46 41L46 42L44 42L44 41L45 41L45 39ZM21 40L21 41L22 41L22 40ZM50 42L50 43L49 43L49 45L46 45L46 47L47 47L47 48L48 48L48 47L49 47L49 46L50 46L50 44L51 44L51 42ZM55 43L55 44L56 44L56 43ZM25 45L25 46L27 46L27 45ZM1 46L1 47L2 47L2 46ZM19 46L19 48L20 48L20 49L21 49L21 50L22 50L22 49L21 49L21 48L20 48L20 47L21 47L21 46ZM29 46L29 47L31 47L31 46ZM47 46L47 47L48 47L48 46ZM24 47L24 48L25 48L25 47ZM56 48L56 49L55 49L55 50L56 50L56 49L57 49L57 48ZM27 49L27 52L30 52L30 49ZM49 49L49 52L52 52L52 49ZM19 50L19 51L20 51L20 52L21 52L21 51L20 51L20 50ZM28 50L28 51L29 51L29 50ZM34 50L34 51L35 51L35 50ZM46 50L46 51L47 51L47 50ZM50 50L50 51L51 51L51 50ZM14 51L14 52L15 52L15 51ZM10 52L10 53L11 53L11 52ZM31 52L31 53L29 53L29 54L31 54L31 55L30 55L30 56L31 56L31 55L32 55L32 54L33 54L33 55L34 55L34 54L33 54L33 52ZM53 52L53 53L54 53L54 54L55 54L55 55L53 55L53 54L52 54L52 53L51 53L51 54L50 54L50 53L49 53L49 55L48 55L48 54L47 54L47 55L48 55L48 56L49 56L49 55L50 55L50 56L51 56L51 54L52 54L52 56L55 56L55 55L56 55L56 52L55 52L55 53L54 53L54 52ZM14 53L14 54L15 54L15 53ZM23 53L23 54L26 54L26 53ZM31 53L31 54L32 54L32 53ZM27 54L27 55L28 55L28 56L29 56L29 55L28 55L28 54ZM24 55L24 56L25 56L25 55ZM0 0L0 7L7 7L7 0ZM1 1L1 6L6 6L6 1ZM2 2L2 5L5 5L5 2ZM50 0L50 7L57 7L57 0ZM51 1L51 6L56 6L56 1ZM52 2L52 5L55 5L55 2ZM0 50L0 57L7 57L7 50ZM1 51L1 56L6 56L6 51ZM2 52L2 55L5 55L5 52Z" fill="#000000"/></g></g></svg>
