<?xml version="1.0" encoding="UTF-8"?>
<svg xmlns="http://www.w3.org/2000/svg" version="1.1" width="100" height="100" viewBox="0 0 100 100"><rect x="0" y="0" width="100" height="100" fill="#ffffff"/><g transform="scale(2.041)"><g transform="translate(0,0)"><path fill-rule="evenodd" d="M11 0L11 2L10 2L10 1L8 1L8 2L10 2L10 3L8 3L8 4L9 4L9 5L8 5L8 7L9 7L9 8L6 8L6 9L5 9L5 8L0 8L0 13L1 13L1 14L3 14L3 13L4 13L4 14L5 14L5 19L4 19L4 18L3 18L3 20L1 20L1 19L2 19L2 18L0 18L0 21L1 21L1 22L2 22L2 23L4 23L4 24L0 24L0 25L4 25L4 26L3 26L3 28L4 28L4 29L7 29L7 30L4 30L4 32L3 32L3 33L2 33L2 31L0 31L0 32L1 32L1 33L0 33L0 34L1 34L1 33L2 33L2 35L1 35L1 36L0 36L0 37L1 37L1 40L0 40L0 41L3 41L3 40L4 40L4 39L2 39L2 37L4 37L4 38L5 38L5 39L7 39L7 40L6 40L6 41L8 41L8 43L11 43L11 44L12 44L12 48L11 48L11 49L12 49L12 48L13 48L13 49L14 49L14 48L15 48L15 49L22 49L22 48L23 48L23 49L27 49L27 48L31 48L31 49L34 49L34 48L33 48L33 47L32 47L32 44L31 44L31 43L32 43L32 42L29 42L29 43L27 43L27 42L28 42L28 41L27 41L27 40L25 40L25 39L26 39L26 38L25 38L25 39L24 39L24 38L23 38L23 39L22 39L22 37L23 37L23 36L22 36L22 35L24 35L24 37L26 37L26 36L25 36L25 35L24 35L24 34L26 34L26 35L28 35L28 34L29 34L29 33L30 33L30 34L31 34L31 35L30 35L30 36L27 36L27 37L28 37L28 38L29 38L29 37L30 37L30 36L31 36L31 37L32 37L32 36L31 36L31 35L32 35L32 34L34 34L34 32L32 32L32 33L31 33L31 31L32 31L32 29L31 29L31 28L32 28L32 26L31 26L31 25L33 25L33 27L35 27L35 29L36 29L36 27L37 27L37 28L38 28L38 29L40 29L40 30L38 30L38 31L37 31L37 30L36 30L36 31L35 31L35 32L36 32L36 31L37 31L37 32L38 32L38 33L37 33L37 34L35 34L35 35L36 35L36 36L35 36L35 37L34 37L34 36L33 36L33 37L34 37L34 38L35 38L35 39L37 39L37 38L39 38L39 40L37 40L37 41L39 41L39 40L40 40L40 42L39 42L39 43L40 43L40 44L38 44L38 42L35 42L35 40L34 40L34 41L33 41L33 40L32 40L32 41L33 41L33 42L35 42L35 44L34 44L34 43L33 43L33 44L34 44L34 45L33 45L33 46L34 46L34 45L35 45L35 44L36 44L36 45L37 45L37 44L38 44L38 46L35 46L35 49L36 49L36 48L38 48L38 46L39 46L39 48L40 48L40 47L42 47L42 48L41 48L41 49L42 49L42 48L43 48L43 49L44 49L44 48L45 48L45 49L46 49L46 48L47 48L47 49L49 49L49 48L48 48L48 47L49 47L49 41L48 41L48 42L46 42L46 43L45 43L45 40L46 40L46 41L47 41L47 40L46 40L46 38L44 38L44 37L45 37L45 36L44 36L44 34L45 34L45 35L46 35L46 36L47 36L47 37L48 37L48 38L47 38L47 39L49 39L49 36L47 36L47 35L48 35L48 33L47 33L47 32L48 32L48 30L49 30L49 28L48 28L48 27L49 27L49 22L48 22L48 21L49 21L49 19L48 19L48 17L49 17L49 16L48 16L48 15L47 15L47 14L46 14L46 15L47 15L47 16L46 16L46 17L47 17L47 18L46 18L46 19L45 19L45 20L44 20L44 22L42 22L42 21L41 21L41 20L43 20L43 19L44 19L44 17L43 17L43 18L41 18L41 20L38 20L38 19L40 19L40 18L39 18L39 17L40 17L40 16L39 16L39 17L36 17L36 16L38 16L38 15L37 15L37 14L35 14L35 12L36 12L36 13L39 13L39 12L38 12L38 11L37 11L37 10L36 10L36 9L35 9L35 8L34 8L34 7L35 7L35 6L36 6L36 7L37 7L37 5L36 5L36 4L38 4L38 2L39 2L39 4L40 4L40 3L41 3L41 0L40 0L40 1L37 1L37 0L36 0L36 1L35 1L35 0L33 0L33 2L36 2L36 3L32 3L32 4L30 4L30 3L31 3L31 2L32 2L32 1L31 1L31 2L29 2L29 6L28 6L28 7L29 7L29 8L30 8L30 9L29 9L29 10L33 10L33 12L32 12L32 11L29 11L29 12L28 12L28 13L26 13L26 14L28 14L28 13L29 13L29 16L31 16L31 17L29 17L29 18L31 18L31 19L29 19L29 20L27 20L27 21L28 21L28 22L30 22L30 21L31 21L31 23L28 23L28 24L27 24L27 22L25 22L25 21L26 21L26 19L25 19L25 17L28 17L28 16L25 16L25 14L23 14L23 15L22 15L22 14L21 14L21 15L22 15L22 17L23 17L23 19L22 19L22 18L21 18L21 17L20 17L20 18L17 18L17 17L19 17L19 16L20 16L20 13L21 13L21 12L23 12L23 11L25 11L25 12L26 12L26 10L27 10L27 5L28 5L28 4L24 4L24 3L26 3L26 0L24 0L24 1L23 1L23 3L22 3L22 5L21 5L21 3L20 3L20 2L19 2L19 1L20 1L20 0L18 0L18 2L17 2L17 3L18 3L18 2L19 2L19 4L18 4L18 5L17 5L17 4L16 4L16 3L15 3L15 4L14 4L14 5L12 5L12 4L10 4L10 3L11 3L11 2L12 2L12 3L14 3L14 1L15 1L15 2L16 2L16 0ZM21 0L21 1L22 1L22 0ZM28 0L28 1L27 1L27 3L28 3L28 1L30 1L30 0ZM19 4L19 7L20 7L20 9L21 9L21 10L19 10L19 11L17 11L17 10L16 10L16 9L15 9L15 8L17 8L17 7L18 7L18 6L17 6L17 5L16 5L16 6L15 6L15 5L14 5L14 6L13 6L13 7L12 7L12 5L10 5L10 6L9 6L9 7L10 7L10 6L11 6L11 8L12 8L12 9L10 9L10 8L9 8L9 9L6 9L6 10L7 10L7 11L5 11L5 10L3 10L3 9L1 9L1 12L2 12L2 13L3 13L3 12L4 12L4 11L5 11L5 12L7 12L7 13L5 13L5 14L7 14L7 13L8 13L8 14L9 14L9 15L8 15L8 16L7 16L7 15L6 15L6 16L7 16L7 17L6 17L6 18L7 18L7 19L6 19L6 20L5 20L5 22L7 22L7 21L6 21L6 20L9 20L9 19L10 19L10 21L9 21L9 22L10 22L10 24L9 24L9 27L8 27L8 28L10 28L10 29L9 29L9 31L6 31L6 32L7 32L7 33L3 33L3 35L2 35L2 36L3 36L3 35L4 35L4 37L5 37L5 36L8 36L8 37L10 37L10 39L12 39L12 40L14 40L14 39L15 39L15 42L14 42L14 43L15 43L15 44L16 44L16 45L15 45L15 46L14 46L14 44L13 44L13 46L14 46L14 47L15 47L15 48L17 48L17 44L18 44L18 45L20 45L20 48L22 48L22 47L23 47L23 48L24 48L24 46L23 46L23 45L22 45L22 47L21 47L21 44L22 44L22 41L18 41L18 40L19 40L19 39L20 39L20 40L21 40L21 39L20 39L20 38L19 38L19 37L21 37L21 35L22 35L22 34L24 34L24 33L22 33L22 34L21 34L21 35L20 35L20 33L19 33L19 35L20 35L20 36L19 36L19 37L17 37L17 35L15 35L15 34L14 34L14 31L15 31L15 32L18 32L18 31L17 31L17 30L18 30L18 28L19 28L19 29L20 29L20 32L21 32L21 29L20 29L20 28L21 28L21 27L20 27L20 26L19 26L19 27L18 27L18 26L17 26L17 24L18 24L18 25L21 25L21 26L22 26L22 25L21 25L21 22L24 22L24 21L25 21L25 20L24 20L24 21L20 21L20 20L22 20L22 19L19 19L19 21L20 21L20 22L19 22L19 23L20 23L20 24L18 24L18 23L17 23L17 21L16 21L16 20L17 20L17 19L16 19L16 18L15 18L15 17L17 17L17 15L15 15L15 14L17 14L17 13L13 13L13 14L12 14L12 13L11 13L11 12L12 12L12 9L14 9L14 11L13 11L13 12L14 12L14 11L15 11L15 12L19 12L19 13L18 13L18 14L19 14L19 13L20 13L20 12L21 12L21 11L22 11L22 10L24 10L24 9L21 9L21 7L22 7L22 6L21 6L21 7L20 7L20 4ZM32 4L32 6L31 6L31 5L30 5L30 6L29 6L29 7L30 7L30 6L31 6L31 7L32 7L32 8L31 8L31 9L34 9L34 8L33 8L33 7L34 7L34 6L35 6L35 4L34 4L34 5L33 5L33 4ZM23 5L23 8L26 8L26 5ZM38 5L38 7L39 7L39 5ZM14 6L14 7L15 7L15 6ZM16 6L16 7L17 7L17 6ZM24 6L24 7L25 7L25 6ZM32 6L32 7L33 7L33 6ZM40 6L40 7L41 7L41 6ZM37 8L37 9L39 9L39 8ZM41 8L41 9L42 9L42 8ZM43 8L43 10L42 10L42 11L41 11L41 12L43 12L43 13L40 13L40 14L39 14L39 15L40 15L40 14L42 14L42 15L41 15L41 17L42 17L42 16L45 16L45 15L44 15L44 14L45 14L45 13L46 13L46 12L47 12L47 13L49 13L49 11L48 11L48 12L47 12L47 11L46 11L46 12L45 12L45 13L44 13L44 12L43 12L43 10L45 10L45 9L46 9L46 8L45 8L45 9L44 9L44 8ZM47 8L47 9L48 9L48 10L49 10L49 9L48 9L48 8ZM9 9L9 10L8 10L8 11L7 11L7 12L8 12L8 13L9 13L9 14L10 14L10 15L11 15L11 17L10 17L10 18L13 18L13 19L11 19L11 21L10 21L10 22L11 22L11 24L10 24L10 25L11 25L11 24L12 24L12 25L13 25L13 26L12 26L12 27L14 27L14 25L15 25L15 27L16 27L16 25L15 25L15 24L12 24L12 22L13 22L13 23L14 23L14 20L15 20L15 19L14 19L14 17L15 17L15 15L14 15L14 14L13 14L13 15L11 15L11 14L10 14L10 13L9 13L9 12L11 12L11 11L10 11L10 9ZM25 9L25 10L26 10L26 9ZM15 10L15 11L16 11L16 10ZM34 10L34 12L35 12L35 10ZM39 10L39 11L40 11L40 10ZM8 11L8 12L9 12L9 11ZM19 11L19 12L20 12L20 11ZM30 12L30 13L31 13L31 14L30 14L30 15L31 15L31 16L32 16L32 20L31 20L31 21L32 21L32 20L34 20L34 21L33 21L33 22L32 22L32 23L33 23L33 24L35 24L35 25L36 25L36 26L35 26L35 27L36 27L36 26L37 26L37 27L38 27L38 28L40 28L40 29L41 29L41 30L42 30L42 31L44 31L44 32L43 32L43 33L41 33L41 31L38 31L38 32L40 32L40 33L41 33L41 34L40 34L40 36L41 36L41 35L42 35L42 36L43 36L43 35L42 35L42 34L43 34L43 33L45 33L45 34L47 34L47 33L46 33L46 31L47 31L47 29L48 29L48 28L47 28L47 27L48 27L48 26L47 26L47 25L46 25L46 24L48 24L48 22L47 22L47 20L48 20L48 19L47 19L47 20L46 20L46 21L45 21L45 26L47 26L47 27L46 27L46 28L45 28L45 27L44 27L44 28L43 28L43 27L42 27L42 28L43 28L43 29L44 29L44 28L45 28L45 30L42 30L42 29L41 29L41 28L40 28L40 27L38 27L38 25L36 25L36 24L37 24L37 23L35 23L35 22L37 22L37 21L35 21L35 20L36 20L36 19L35 19L35 18L36 18L36 17L35 17L35 15L34 15L34 13L31 13L31 12ZM31 14L31 15L32 15L32 14ZM0 15L0 16L1 16L1 17L2 17L2 16L1 16L1 15ZM18 15L18 16L19 16L19 15ZM23 15L23 16L24 16L24 15ZM8 16L8 17L9 17L9 16ZM12 16L12 17L14 17L14 16ZM33 16L33 17L34 17L34 18L35 18L35 17L34 17L34 16ZM47 16L47 17L48 17L48 16ZM8 18L8 19L9 19L9 18ZM37 18L37 19L38 19L38 18ZM13 19L13 20L14 20L14 19ZM3 20L3 21L2 21L2 22L4 22L4 20ZM29 20L29 21L30 21L30 20ZM11 21L11 22L12 22L12 21ZM15 21L15 22L16 22L16 21ZM34 21L34 22L35 22L35 21ZM38 21L38 24L39 24L39 25L40 25L40 24L39 24L39 23L40 23L40 22L41 22L41 21L40 21L40 22L39 22L39 21ZM46 22L46 23L47 23L47 22ZM5 23L5 26L8 26L8 23ZM23 23L23 26L26 26L26 23ZM41 23L41 26L44 26L44 23ZM6 24L6 25L7 25L7 24ZM24 24L24 25L25 25L25 24ZM28 24L28 25L27 25L27 27L28 27L28 28L29 28L29 27L30 27L30 26L29 26L29 25L30 25L30 24ZM42 24L42 25L43 25L43 24ZM0 26L0 30L1 30L1 28L2 28L2 26ZM10 26L10 27L11 27L11 26ZM6 27L6 28L7 28L7 27ZM17 27L17 28L15 28L15 29L14 29L14 28L13 28L13 29L12 29L12 31L14 31L14 30L15 30L15 29L17 29L17 28L18 28L18 27ZM19 27L19 28L20 28L20 27ZM22 27L22 28L23 28L23 29L22 29L22 30L23 30L23 31L22 31L22 32L23 32L23 31L24 31L24 30L26 30L26 31L25 31L25 32L26 32L26 34L28 34L28 33L27 33L27 32L29 32L29 30L30 30L30 31L31 31L31 30L30 30L30 29L29 29L29 30L28 30L28 29L27 29L27 28L26 28L26 27L25 27L25 28L23 28L23 27ZM25 28L25 29L26 29L26 30L27 30L27 31L26 31L26 32L27 32L27 31L28 31L28 30L27 30L27 29L26 29L26 28ZM10 29L10 31L11 31L11 29ZM23 29L23 30L24 30L24 29ZM33 30L33 31L34 31L34 30ZM45 30L45 31L46 31L46 30ZM9 32L9 33L10 33L10 32ZM11 32L11 33L13 33L13 32ZM7 33L7 34L6 34L6 35L7 35L7 34L8 34L8 36L9 36L9 34L8 34L8 33ZM17 33L17 34L18 34L18 33ZM38 33L38 34L39 34L39 33ZM10 34L10 35L12 35L12 34ZM13 34L13 35L14 35L14 34ZM38 35L38 36L36 36L36 37L38 37L38 36L39 36L39 35ZM10 36L10 37L11 37L11 38L12 38L12 37L14 37L14 38L13 38L13 39L14 39L14 38L15 38L15 39L16 39L16 38L15 38L15 37L14 37L14 36L12 36L12 37L11 37L11 36ZM6 37L6 38L7 38L7 39L9 39L9 38L7 38L7 37ZM39 37L39 38L40 38L40 39L41 39L41 40L42 40L42 39L41 39L41 38L42 38L42 37ZM17 38L17 39L19 39L19 38ZM30 38L30 39L29 39L29 40L30 40L30 41L31 41L31 39L32 39L32 38ZM44 39L44 40L45 40L45 39ZM8 40L8 41L9 41L9 42L11 42L11 43L12 43L12 42L13 42L13 41L12 41L12 42L11 42L11 41L10 41L10 40ZM16 41L16 42L15 42L15 43L16 43L16 42L17 42L17 43L18 43L18 44L20 44L20 42L18 42L18 41ZM23 41L23 44L26 44L26 41ZM41 41L41 44L44 44L44 41ZM24 42L24 43L25 43L25 42ZM42 42L42 43L43 43L43 42ZM36 43L36 44L37 44L37 43ZM46 43L46 46L45 46L45 45L43 45L43 46L42 46L42 47L46 47L46 46L47 46L47 47L48 47L48 46L47 46L47 43ZM8 44L8 49L9 49L9 47L11 47L11 45L10 45L10 44ZM27 44L27 45L26 45L26 46L27 46L27 47L26 47L26 48L27 48L27 47L29 47L29 45L28 45L28 44ZM30 44L30 45L31 45L31 44ZM27 45L27 46L28 46L28 45ZM39 45L39 46L41 46L41 45ZM30 46L30 47L31 47L31 48L32 48L32 47L31 47L31 46ZM18 47L18 48L19 48L19 47ZM0 0L0 7L7 7L7 0ZM1 1L1 6L6 6L6 1ZM2 2L2 5L5 5L5 2ZM42 0L42 7L49 7L49 0ZM43 1L43 6L48 6L48 1ZM44 2L44 5L47 5L47 2ZM0 42L0 49L7 49L7 42ZM1 43L1 48L6 48L6 43ZM2 44L2 47L5 47L5 44Z" fill="#000000"/></g></g></svg>
