<?xml version="1.0" encoding="UTF-8"?>
<svg xmlns="http://www.w3.org/2000/svg" version="1.1" width="100" height="100" viewBox="0 0 100 100"><rect x="0" y="0" width="100" height="100" fill="#ffffff"/><g transform="scale(2.041)"><g transform="translate(0,0)"><path fill-rule="evenodd" d="M10 0L10 2L11 2L11 3L8 3L8 4L11 4L11 6L10 6L10 5L8 5L8 7L9 7L9 6L10 6L10 7L11 7L11 6L12 6L12 10L13 10L13 11L10 11L10 9L11 9L11 8L6 8L6 9L5 9L5 8L0 8L0 9L1 9L1 10L2 10L2 11L0 11L0 15L4 15L4 16L1 16L1 17L0 17L0 19L1 19L1 18L2 18L2 20L0 20L0 24L1 24L1 22L2 22L2 21L5 21L5 20L4 20L4 18L3 18L3 17L5 17L5 19L7 19L7 20L6 20L6 21L7 21L7 22L4 22L4 23L3 23L3 24L4 24L4 25L2 25L2 26L1 26L1 27L0 27L0 29L3 29L3 31L2 31L2 30L0 30L0 32L1 32L1 33L0 33L0 36L2 36L2 37L0 37L0 38L1 38L1 40L0 40L0 41L3 41L3 40L4 40L4 39L2 39L2 38L3 38L3 36L4 36L4 38L5 38L5 39L7 39L7 38L8 38L8 35L7 35L7 34L6 34L6 33L7 33L7 32L6 32L6 33L5 33L5 32L4 32L4 34L3 34L3 31L4 31L4 30L5 30L5 28L6 28L6 29L7 29L7 28L6 28L6 27L8 27L8 28L9 28L9 27L10 27L10 28L11 28L11 30L10 30L10 29L8 29L8 30L6 30L6 31L8 31L8 30L9 30L9 34L10 34L10 35L11 35L11 34L10 34L10 32L11 32L11 33L12 33L12 32L13 32L13 33L14 33L14 30L13 30L13 31L12 31L12 32L11 32L11 30L12 30L12 28L13 28L13 29L17 29L17 28L15 28L15 27L18 27L18 28L20 28L20 27L21 27L21 28L22 28L22 30L24 30L24 31L23 31L23 32L22 32L22 31L21 31L21 29L20 29L20 30L19 30L19 29L18 29L18 30L17 30L17 32L18 32L18 33L17 33L17 36L16 36L16 37L17 37L17 36L18 36L18 37L19 37L19 36L20 36L20 35L19 35L19 34L18 34L18 33L19 33L19 32L20 32L20 31L21 31L21 32L22 32L22 33L20 33L20 34L22 34L22 33L23 33L23 34L24 34L24 32L25 32L25 33L26 33L26 36L25 36L25 35L24 35L24 36L25 36L25 37L24 37L24 38L23 38L23 39L21 39L21 40L20 40L20 39L19 39L19 38L18 38L18 39L17 39L17 40L16 40L16 42L15 42L15 39L16 39L16 38L15 38L15 39L14 39L14 37L13 37L13 36L14 36L14 35L13 35L13 34L12 34L12 35L13 35L13 36L12 36L12 37L11 37L11 38L12 38L12 37L13 37L13 39L14 39L14 41L13 41L13 40L12 40L12 39L11 39L11 41L10 41L10 42L9 42L9 41L8 41L8 40L6 40L6 41L8 41L8 43L9 43L9 44L8 44L8 49L12 49L12 48L15 48L15 49L16 49L16 48L15 48L15 47L17 47L17 48L18 48L18 47L19 47L19 48L20 48L20 49L26 49L26 48L23 48L23 47L22 47L22 48L20 48L20 47L21 47L21 46L20 46L20 45L22 45L22 46L24 46L24 47L26 47L26 45L28 45L28 46L29 46L29 47L28 47L28 49L29 49L29 48L30 48L30 49L34 49L34 48L32 48L32 46L33 46L33 47L34 47L34 46L35 46L35 49L36 49L36 47L37 47L37 48L38 48L38 47L39 47L39 48L40 48L40 46L38 46L38 45L41 45L41 46L43 46L43 47L41 47L41 48L42 48L42 49L44 49L44 48L45 48L45 47L44 47L44 45L46 45L46 44L45 44L45 43L48 43L48 44L47 44L47 46L48 46L48 47L47 47L47 49L49 49L49 48L48 48L48 47L49 47L49 41L48 41L48 42L45 42L45 41L46 41L46 40L44 40L44 39L46 39L46 38L44 38L44 37L45 37L45 36L44 36L44 35L46 35L46 37L48 37L48 38L47 38L47 39L49 39L49 33L47 33L47 34L46 34L46 33L45 33L45 32L44 32L44 31L42 31L42 30L45 30L45 31L46 31L46 32L48 32L48 31L49 31L49 28L48 28L48 27L47 27L47 26L45 26L45 25L46 25L46 24L47 24L47 23L48 23L48 21L49 21L49 18L48 18L48 17L49 17L49 16L47 16L47 14L45 14L45 13L44 13L44 14L41 14L41 13L39 13L39 12L38 12L38 11L40 11L40 9L39 9L39 8L38 8L38 7L39 7L39 5L38 5L38 2L39 2L39 4L40 4L40 3L41 3L41 0L40 0L40 1L38 1L38 0L37 0L37 1L36 1L36 0L35 0L35 1L34 1L34 2L35 2L35 3L34 3L34 4L33 4L33 3L32 3L32 1L33 1L33 0L32 0L32 1L31 1L31 0L30 0L30 1L29 1L29 2L28 2L28 3L26 3L26 4L25 4L25 2L26 2L26 1L25 1L25 0L23 0L23 3L22 3L22 2L21 2L21 3L22 3L22 4L20 4L20 5L21 5L21 6L20 6L20 7L19 7L19 4L18 4L18 7L17 7L17 4L16 4L16 3L15 3L15 4L16 4L16 5L15 5L15 6L14 6L14 4L13 4L13 3L14 3L14 2L13 2L13 3L12 3L12 2L11 2L11 0ZM17 0L17 3L18 3L18 2L19 2L19 3L20 3L20 1L18 1L18 0ZM27 0L27 1L28 1L28 0ZM8 1L8 2L9 2L9 1ZM15 1L15 2L16 2L16 1ZM30 1L30 2L31 2L31 1ZM37 1L37 2L38 2L38 1ZM11 3L11 4L12 4L12 3ZM23 3L23 4L24 4L24 3ZM28 3L28 4L30 4L30 5L27 5L27 7L28 7L28 8L27 8L27 11L26 11L26 12L29 12L29 13L30 13L30 15L31 15L31 12L32 12L32 13L33 13L33 14L32 14L32 15L33 15L33 16L34 16L34 17L31 17L31 16L29 16L29 17L28 17L28 16L27 16L27 15L29 15L29 14L26 14L26 13L25 13L25 11L23 11L23 13L20 13L20 12L21 12L21 11L22 11L22 10L23 10L23 9L22 9L22 8L21 8L21 7L22 7L22 6L21 6L21 7L20 7L20 9L21 9L21 10L19 10L19 11L18 11L18 9L19 9L19 7L18 7L18 8L17 8L17 9L15 9L15 8L16 8L16 6L15 6L15 7L14 7L14 6L13 6L13 9L14 9L14 10L17 10L17 11L15 11L15 12L16 12L16 16L15 16L15 17L14 17L14 16L13 16L13 14L14 14L14 15L15 15L15 13L13 13L13 14L12 14L12 12L10 12L10 14L8 14L8 15L5 15L5 17L6 17L6 18L7 18L7 17L6 17L6 16L8 16L8 17L10 17L10 15L11 15L11 14L12 14L12 16L11 16L11 18L10 18L10 19L11 19L11 20L10 20L10 21L9 21L9 20L8 20L8 22L10 22L10 21L12 21L12 20L13 20L13 21L14 21L14 23L13 23L13 22L11 22L11 24L10 24L10 23L9 23L9 24L10 24L10 25L9 25L9 26L10 26L10 27L11 27L11 28L12 28L12 27L11 27L11 26L10 26L10 25L12 25L12 26L13 26L13 25L12 25L12 23L13 23L13 24L15 24L15 25L14 25L14 26L15 26L15 25L16 25L16 26L17 26L17 25L16 25L16 24L18 24L18 25L19 25L19 24L21 24L21 25L20 25L20 26L21 26L21 27L22 27L22 28L23 28L23 29L24 29L24 30L25 30L25 31L26 31L26 33L28 33L28 34L27 34L27 36L26 36L26 37L27 37L27 38L26 38L26 39L25 39L25 38L24 38L24 39L23 39L23 40L24 40L24 39L25 39L25 40L27 40L27 43L28 43L28 45L30 45L30 47L31 47L31 46L32 46L32 44L35 44L35 45L36 45L36 46L37 46L37 47L38 47L38 46L37 46L37 45L36 45L36 44L37 44L37 43L36 43L36 44L35 44L35 43L34 43L34 42L35 42L35 41L34 41L34 40L36 40L36 38L37 38L37 37L38 37L38 40L39 40L39 41L40 41L40 39L39 39L39 38L40 38L40 36L41 36L41 35L40 35L40 36L39 36L39 35L38 35L38 36L37 36L37 35L35 35L35 34L37 34L37 33L38 33L38 32L39 32L39 34L40 34L40 33L41 33L41 34L42 34L42 36L43 36L43 37L41 37L41 40L43 40L43 37L44 37L44 36L43 36L43 33L44 33L44 34L45 34L45 33L44 33L44 32L43 32L43 33L42 33L42 32L39 32L39 29L41 29L41 30L42 30L42 29L41 29L41 28L40 28L40 27L39 27L39 25L40 25L40 23L38 23L38 24L37 24L37 23L36 23L36 22L37 22L37 21L38 21L38 20L39 20L39 21L40 21L40 22L42 22L42 21L46 21L46 22L45 22L45 23L46 23L46 22L47 22L47 20L46 20L46 19L45 19L45 18L47 18L47 19L48 19L48 18L47 18L47 16L46 16L46 15L45 15L45 14L44 14L44 15L43 15L43 16L42 16L42 17L43 17L43 18L41 18L41 17L40 17L40 16L41 16L41 15L38 15L38 16L37 16L37 15L36 15L36 14L39 14L39 13L37 13L37 11L34 11L34 10L37 10L37 7L38 7L38 5L37 5L37 3L35 3L35 4L34 4L34 5L32 5L32 4L31 4L31 3ZM23 5L23 8L26 8L26 5ZM30 5L30 7L29 7L29 6L28 6L28 7L29 7L29 11L30 11L30 12L31 12L31 11L32 11L32 8L31 8L31 6L32 6L32 7L33 7L33 6L32 6L32 5ZM34 5L34 7L35 7L35 6L36 6L36 7L37 7L37 5ZM24 6L24 7L25 7L25 6ZM40 6L40 7L41 7L41 6ZM30 8L30 9L31 9L31 8ZM34 8L34 9L36 9L36 8ZM41 8L41 9L42 9L42 8ZM43 8L43 9L44 9L44 8ZM45 8L45 9L46 9L46 8ZM47 8L47 10L45 10L45 11L44 11L44 10L41 10L41 12L45 12L45 11L46 11L46 13L48 13L48 14L49 14L49 12L47 12L47 10L48 10L48 8ZM4 9L4 13L3 13L3 11L2 11L2 13L3 13L3 14L7 14L7 13L8 13L8 12L7 12L7 11L9 11L9 9L8 9L8 10L7 10L7 9L6 9L6 10L7 10L7 11L6 11L6 12L5 12L5 9ZM38 9L38 10L39 10L39 9ZM30 10L30 11L31 11L31 10ZM13 11L13 12L14 12L14 11ZM17 11L17 12L18 12L18 11ZM19 11L19 12L20 12L20 11ZM33 11L33 13L34 13L34 15L35 15L35 13L36 13L36 12L34 12L34 11ZM6 12L6 13L7 13L7 12ZM18 13L18 14L17 14L17 16L16 16L16 17L17 17L17 18L16 18L16 19L19 19L19 20L15 20L15 22L16 22L16 23L18 23L18 24L19 24L19 23L21 23L21 24L22 24L22 25L21 25L21 26L22 26L22 27L23 27L23 28L25 28L25 29L26 29L26 30L29 30L29 29L30 29L30 30L31 30L31 31L29 31L29 32L28 32L28 33L29 33L29 32L30 32L30 33L31 33L31 34L29 34L29 36L30 36L30 37L28 37L28 38L29 38L29 39L30 39L30 40L29 40L29 41L30 41L30 42L29 42L29 43L30 43L30 44L32 44L32 41L30 41L30 40L33 40L33 39L35 39L35 38L34 38L34 37L36 37L36 36L33 36L33 35L34 35L34 34L35 34L35 33L36 33L36 31L37 31L37 32L38 32L38 31L37 31L37 30L38 30L38 29L39 29L39 28L38 28L38 27L37 27L37 26L38 26L38 25L37 25L37 24L36 24L36 23L35 23L35 26L34 26L34 25L33 25L33 24L32 24L32 25L31 25L31 23L32 23L32 22L33 22L33 23L34 23L34 21L35 21L35 22L36 22L36 21L37 21L37 18L38 18L38 19L40 19L40 17L36 17L36 16L35 16L35 17L34 17L34 18L35 18L35 20L34 20L34 21L33 21L33 20L32 20L32 22L31 22L31 19L32 19L32 18L31 18L31 17L29 17L29 18L31 18L31 19L29 19L29 20L28 20L28 19L27 19L27 20L28 20L28 21L25 21L25 20L26 20L26 19L25 19L25 18L26 18L26 17L27 17L27 18L28 18L28 17L27 17L27 16L26 16L26 14L23 14L23 15L22 15L22 14L20 14L20 13ZM19 14L19 15L18 15L18 16L19 16L19 15L20 15L20 16L22 16L22 15L20 15L20 14ZM8 15L8 16L9 16L9 15ZM23 15L23 17L20 17L20 18L22 18L22 19L20 19L20 20L19 20L19 21L17 21L17 22L20 22L20 21L21 21L21 23L22 23L22 22L23 22L23 21L24 21L24 20L25 20L25 19L23 19L23 18L25 18L25 17L26 17L26 16L25 16L25 15ZM44 15L44 18L43 18L43 19L41 19L41 21L42 21L42 20L45 20L45 19L44 19L44 18L45 18L45 17L46 17L46 16L45 16L45 15ZM12 16L12 17L13 17L13 16ZM18 17L18 18L19 18L19 17ZM35 17L35 18L36 18L36 17ZM12 18L12 19L13 19L13 20L14 20L14 19L13 19L13 18ZM22 19L22 20L23 20L23 19ZM29 20L29 22L27 22L27 23L28 23L28 25L27 25L27 26L28 26L28 27L30 27L30 26L28 26L28 25L30 25L30 24L29 24L29 22L30 22L30 23L31 23L31 22L30 22L30 20ZM35 20L35 21L36 21L36 20ZM5 23L5 26L8 26L8 23ZM23 23L23 26L26 26L26 23ZM41 23L41 26L44 26L44 23ZM6 24L6 25L7 25L7 24ZM24 24L24 25L25 25L25 24ZM42 24L42 25L43 25L43 24ZM48 24L48 26L49 26L49 24ZM36 25L36 26L37 26L37 25ZM3 26L3 27L2 27L2 28L3 28L3 27L4 27L4 26ZM32 26L32 27L33 27L33 29L32 29L32 31L31 31L31 33L32 33L32 32L33 32L33 33L34 33L34 32L35 32L35 30L37 30L37 29L38 29L38 28L37 28L37 27L36 27L36 28L35 28L35 27L34 27L34 26ZM13 27L13 28L14 28L14 27ZM25 27L25 28L26 28L26 29L27 29L27 28L26 28L26 27ZM42 27L42 28L43 28L43 27ZM44 27L44 29L45 29L45 30L46 30L46 31L47 31L47 27ZM28 28L28 29L29 29L29 28ZM34 28L34 29L35 29L35 28ZM36 28L36 29L37 29L37 28ZM15 30L15 31L16 31L16 30ZM33 31L33 32L34 32L34 31ZM15 32L15 33L16 33L16 32ZM1 33L1 34L2 34L2 35L3 35L3 34L2 34L2 33ZM4 34L4 36L5 36L5 37L6 37L6 38L7 38L7 37L6 37L6 36L7 36L7 35L6 35L6 36L5 36L5 34ZM31 34L31 35L33 35L33 34ZM47 34L47 36L48 36L48 34ZM21 35L21 36L22 36L22 37L23 37L23 35ZM31 36L31 37L30 37L30 38L32 38L32 39L33 39L33 38L32 38L32 37L33 37L33 36ZM38 36L38 37L39 37L39 36ZM9 37L9 38L10 38L10 37ZM20 37L20 38L21 38L21 37ZM9 39L9 40L10 40L10 39ZM18 39L18 40L17 40L17 42L16 42L16 43L15 43L15 45L13 45L13 47L15 47L15 46L18 46L18 45L20 45L20 44L21 44L21 43L22 43L22 41L21 41L21 42L19 42L19 43L17 43L17 42L18 42L18 41L19 41L19 39ZM27 39L27 40L28 40L28 39ZM12 41L12 42L11 42L11 43L12 43L12 42L13 42L13 41ZM23 41L23 44L26 44L26 41ZM37 41L37 42L38 42L38 44L40 44L40 42L38 42L38 41ZM41 41L41 44L44 44L44 41ZM24 42L24 43L25 43L25 42ZM42 42L42 43L43 43L43 42ZM13 43L13 44L14 44L14 43ZM19 43L19 44L20 44L20 43ZM17 44L17 45L18 45L18 44ZM9 45L9 47L10 47L10 48L12 48L12 47L10 47L10 46L12 46L12 45ZM33 45L33 46L34 46L34 45ZM19 46L19 47L20 47L20 46ZM43 47L43 48L44 48L44 47ZM0 0L0 7L7 7L7 0ZM1 1L1 6L6 6L6 1ZM2 2L2 5L5 5L5 2ZM42 0L42 7L49 7L49 0ZM43 1L43 6L48 6L48 1ZM44 2L44 5L47 5L47 2ZM0 42L0 49L7 49L7 42ZM1 43L1 48L6 48L6 43ZM2 44L2 47L5 47L5 44Z" fill="#000000"/></g></g></svg>
