<?xml version="1.0" encoding="UTF-8"?>
<svg xmlns="http://www.w3.org/2000/svg" version="1.1" width="100" height="100" viewBox="0 0 100 100"><rect x="0" y="0" width="100" height="100" fill="#ffffff"/><g transform="scale(1.754)"><g transform="translate(0,0)"><path fill-rule="evenodd" d="M9 0L9 1L8 1L8 3L9 3L9 4L8 4L8 8L6 8L6 9L5 9L5 10L4 10L4 8L3 8L3 9L2 9L2 8L0 8L0 9L1 9L1 10L2 10L2 11L0 11L0 15L1 15L1 17L0 17L0 22L2 22L2 24L1 24L1 25L2 25L2 24L3 24L3 28L0 28L0 29L1 29L1 30L0 30L0 31L1 31L1 34L0 34L0 35L1 35L1 34L2 34L2 35L4 35L4 34L5 34L5 36L1 36L1 37L0 37L0 38L2 38L2 37L4 37L4 38L3 38L3 39L2 39L2 40L3 40L3 39L5 39L5 36L6 36L6 37L7 37L7 38L6 38L6 39L7 39L7 40L6 40L6 41L5 41L5 42L4 42L4 41L3 41L3 43L0 43L0 45L1 45L1 46L0 46L0 48L5 48L5 47L7 47L7 48L6 48L6 49L7 49L7 48L9 48L9 49L8 49L8 51L10 51L10 52L11 52L11 51L10 51L10 47L12 47L12 44L13 44L13 46L14 46L14 44L13 44L13 43L12 43L12 42L13 42L13 41L14 41L14 43L16 43L16 44L15 44L15 45L16 45L16 44L17 44L17 45L20 45L20 46L15 46L15 47L14 47L14 48L13 48L13 49L11 49L11 50L12 50L12 51L15 51L15 52L13 52L13 53L15 53L15 52L16 52L16 51L15 51L15 49L16 49L16 48L15 48L15 47L18 47L18 49L20 49L20 51L21 51L21 50L22 50L22 52L23 52L23 50L24 50L24 51L25 51L25 50L24 50L24 49L22 49L22 48L24 48L24 47L25 47L25 49L26 49L26 53L25 53L25 52L24 52L24 53L23 53L23 54L22 54L22 53L21 53L21 52L20 52L20 53L19 53L19 50L18 50L18 52L17 52L17 53L16 53L16 54L17 54L17 55L22 55L22 56L20 56L20 57L24 57L24 56L25 56L25 57L30 57L30 56L31 56L31 55L34 55L34 57L37 57L37 56L38 56L38 55L37 55L37 54L38 54L38 52L37 52L37 50L38 50L38 49L39 49L39 47L40 47L40 46L41 46L41 45L42 45L42 46L44 46L44 48L42 48L42 47L41 47L41 48L40 48L40 49L41 49L41 50L40 50L40 52L41 52L41 50L42 50L42 51L44 51L44 52L45 52L45 54L44 54L44 53L43 53L43 52L42 52L42 53L40 53L40 54L39 54L39 55L40 55L40 56L39 56L39 57L41 57L41 55L43 55L43 56L42 56L42 57L43 57L43 56L45 56L45 57L47 57L47 56L48 56L48 57L49 57L49 56L50 56L50 55L51 55L51 57L53 57L53 56L52 56L52 54L53 54L53 55L55 55L55 56L54 56L54 57L56 57L56 56L57 56L57 52L56 52L56 55L55 55L55 54L54 54L54 53L55 53L55 51L56 51L56 50L53 50L53 49L54 49L54 48L55 48L55 49L57 49L57 48L55 48L55 47L56 47L56 46L54 46L54 47L53 47L53 48L49 48L49 47L52 47L52 46L53 46L53 45L56 45L56 44L57 44L57 42L56 42L56 40L57 40L57 39L56 39L56 38L54 38L54 39L55 39L55 40L54 40L54 41L53 41L53 42L52 42L52 45L51 45L51 46L49 46L49 47L48 47L48 49L47 49L47 50L46 50L46 48L45 48L45 47L47 47L47 46L46 46L46 44L48 44L48 43L51 43L51 42L50 42L50 41L51 41L51 40L52 40L52 38L53 38L53 37L57 37L57 35L54 35L54 34L53 34L53 33L56 33L56 34L57 34L57 33L56 33L56 32L53 32L53 31L54 31L54 30L53 30L53 29L54 29L54 28L56 28L56 30L55 30L55 31L56 31L56 30L57 30L57 28L56 28L56 26L57 26L57 22L56 22L56 19L57 19L57 16L56 16L56 15L55 15L55 14L57 14L57 9L56 9L56 8L54 8L54 10L53 10L53 8L50 8L50 9L52 9L52 10L51 10L51 11L49 11L49 8L48 8L48 11L47 11L47 10L46 10L46 11L47 11L47 13L45 13L45 12L44 12L44 14L42 14L42 13L41 13L41 14L38 14L38 12L42 12L42 11L43 11L43 10L44 10L44 11L45 11L45 9L47 9L47 5L48 5L48 0L46 0L46 1L45 1L45 3L44 3L44 2L42 2L42 1L44 1L44 0L42 0L42 1L41 1L41 0L40 0L40 2L39 2L39 3L42 3L42 4L40 4L40 5L44 5L44 7L43 7L43 6L42 6L42 7L43 7L43 8L42 8L42 9L43 9L43 10L42 10L42 11L40 11L40 9L39 9L39 10L37 10L37 9L38 9L38 7L39 7L39 8L40 8L40 7L41 7L41 6L40 6L40 7L39 7L39 4L37 4L37 3L38 3L38 1L39 1L39 0L38 0L38 1L37 1L37 2L36 2L36 3L35 3L35 2L33 2L33 3L32 3L32 1L33 1L33 0L32 0L32 1L31 1L31 2L30 2L30 3L31 3L31 4L29 4L29 3L27 3L27 4L24 4L24 5L23 5L23 0L22 0L22 4L21 4L21 5L23 5L23 6L22 6L22 9L23 9L23 10L21 10L21 9L19 9L19 8L21 8L21 6L20 6L20 5L19 5L19 4L20 4L20 2L21 2L21 0L18 0L18 1L20 1L20 2L19 2L19 3L17 3L17 1L16 1L16 0L15 0L15 2L13 2L13 1L12 1L12 0ZM24 0L24 3L25 3L25 2L26 2L26 1L27 1L27 0ZM28 0L28 2L29 2L29 1L30 1L30 0ZM9 1L9 2L10 2L10 1ZM46 1L46 2L47 2L47 1ZM11 2L11 3L10 3L10 4L9 4L9 8L8 8L8 10L9 10L9 13L8 13L8 12L7 12L7 11L6 11L6 12L7 12L7 13L6 13L6 14L9 14L9 13L10 13L10 14L11 14L11 13L12 13L12 10L11 10L11 8L10 8L10 6L11 6L11 7L12 7L12 6L13 6L13 8L12 8L12 9L13 9L13 11L14 11L14 13L13 13L13 14L14 14L14 15L13 15L13 16L14 16L14 17L16 17L16 16L17 16L17 17L18 17L18 18L19 18L19 19L18 19L18 20L17 20L17 21L19 21L19 20L20 20L20 22L19 22L19 23L17 23L17 24L18 24L18 25L15 25L15 24L16 24L16 19L17 19L17 18L16 18L16 19L14 19L14 18L13 18L13 17L12 17L12 19L11 19L11 21L12 21L12 19L14 19L14 20L13 20L13 22L10 22L10 20L8 20L8 19L5 19L5 18L7 18L7 17L8 17L8 18L9 18L9 19L10 19L10 18L11 18L11 17L10 17L10 18L9 18L9 17L8 17L8 16L7 16L7 15L5 15L5 18L4 18L4 19L3 19L3 18L2 18L2 17L4 17L4 14L5 14L5 13L3 13L3 11L2 11L2 12L1 12L1 14L2 14L2 15L3 15L3 16L2 16L2 17L1 17L1 18L2 18L2 19L1 19L1 20L3 20L3 21L2 21L2 22L4 22L4 21L5 21L5 20L7 20L7 21L6 21L6 22L7 22L7 21L9 21L9 22L10 22L10 23L8 23L8 24L9 24L9 25L10 25L10 27L12 27L12 28L13 28L13 31L14 31L14 32L12 32L12 33L11 33L11 32L10 32L10 35L8 35L8 34L9 34L9 33L8 33L8 31L5 31L5 33L6 33L6 34L7 34L7 35L6 35L6 36L7 36L7 37L8 37L8 38L7 38L7 39L8 39L8 38L9 38L9 40L8 40L8 41L6 41L6 42L5 42L5 44L4 44L4 43L3 43L3 44L2 44L2 45L4 45L4 46L3 46L3 47L5 47L5 45L6 45L6 46L7 46L7 47L10 47L10 46L11 46L11 42L12 42L12 40L13 40L13 37L12 37L12 36L11 36L11 35L12 35L12 34L13 34L13 33L15 33L15 34L14 34L14 35L13 35L13 36L18 36L18 37L20 37L20 35L21 35L21 33L22 33L22 32L23 32L23 34L22 34L22 35L24 35L24 36L25 36L25 35L24 35L24 32L26 32L26 31L24 31L24 30L26 30L26 28L25 28L25 27L24 27L24 26L27 26L27 25L26 25L26 24L28 24L28 25L29 25L29 26L32 26L32 28L31 28L31 29L32 29L32 30L34 30L34 31L36 31L36 33L35 33L35 32L34 32L34 33L35 33L35 34L33 34L33 31L32 31L32 33L30 33L30 32L31 32L31 31L29 31L29 33L28 33L28 31L27 31L27 34L29 34L29 33L30 33L30 34L31 34L31 35L32 35L32 36L31 36L31 37L29 37L29 39L28 39L28 38L25 38L25 37L24 37L24 38L23 38L23 36L22 36L22 37L21 37L21 38L23 38L23 39L24 39L24 40L25 40L25 39L26 39L26 40L27 40L27 39L28 39L28 40L30 40L30 39L31 39L31 38L32 38L32 39L33 39L33 43L29 43L29 44L28 44L28 41L26 41L26 42L25 42L25 41L24 41L24 42L23 42L23 41L22 41L22 39L21 39L21 40L20 40L20 38L19 38L19 39L18 39L18 38L17 38L17 39L16 39L16 40L14 40L14 41L16 41L16 40L20 40L20 41L22 41L22 47L24 47L24 46L25 46L25 47L26 47L26 48L29 48L29 47L30 47L30 48L31 48L31 47L32 47L32 46L33 46L33 49L31 49L31 50L32 50L32 51L31 51L31 53L30 53L30 55L31 55L31 54L34 54L34 53L35 53L35 54L36 54L36 50L37 50L37 49L38 49L38 47L39 47L39 46L40 46L40 45L41 45L41 44L42 44L42 45L43 45L43 44L44 44L44 43L41 43L41 44L40 44L40 43L39 43L39 42L42 42L42 41L44 41L44 40L45 40L45 41L47 41L47 43L48 43L48 40L47 40L47 39L45 39L45 38L44 38L44 37L41 37L41 36L40 36L40 35L42 35L42 36L43 36L43 35L44 35L44 34L45 34L45 36L47 36L47 37L49 37L49 36L47 36L47 35L50 35L50 36L54 36L54 35L52 35L52 33L51 33L51 32L52 32L52 31L51 31L51 32L50 32L50 31L49 31L49 32L48 32L48 29L47 29L47 32L46 32L46 33L47 33L47 34L45 34L45 31L41 31L41 32L40 32L40 31L39 31L39 30L38 30L38 32L37 32L37 31L36 31L36 30L34 30L34 28L35 28L35 27L36 27L36 28L37 28L37 29L39 29L39 28L41 28L41 29L40 29L40 30L42 30L42 29L43 29L43 27L45 27L45 28L44 28L44 30L45 30L45 29L46 29L46 28L48 28L48 26L46 26L46 25L45 25L45 26L43 26L43 25L40 25L40 24L41 24L41 22L42 22L42 24L43 24L43 23L44 23L44 22L42 22L42 21L41 21L41 22L40 22L40 23L39 23L39 26L37 26L37 25L38 25L38 22L39 22L39 21L38 21L38 22L37 22L37 23L36 23L36 22L34 22L34 23L33 23L33 24L32 24L32 25L30 25L30 24L31 24L31 23L32 23L32 22L29 22L29 21L28 21L28 20L30 20L30 21L31 21L31 20L33 20L33 21L34 21L34 16L35 16L35 17L36 17L36 18L37 18L37 17L38 17L38 18L39 18L39 17L40 17L40 16L39 16L39 15L38 15L38 14L37 14L37 17L36 17L36 14L34 14L34 15L33 15L33 14L31 14L31 13L33 13L33 12L34 12L34 13L35 13L35 12L36 12L36 11L35 11L35 10L34 10L34 6L35 6L35 8L36 8L36 9L37 9L37 8L36 8L36 6L37 6L37 7L38 7L38 5L37 5L37 4L35 4L35 3L34 3L34 6L33 6L33 7L32 7L32 5L33 5L33 4L32 4L32 5L31 5L31 7L32 7L32 9L33 9L33 10L34 10L34 11L33 11L33 12L31 12L31 11L32 11L32 10L31 10L31 9L30 9L30 12L29 12L29 10L28 10L28 11L27 11L27 9L25 9L25 10L24 10L24 11L23 11L23 12L22 12L22 13L24 13L24 12L25 12L25 13L26 13L26 14L23 14L23 16L22 16L22 15L20 15L20 14L19 14L19 13L18 13L18 12L20 12L20 13L21 13L21 12L20 12L20 11L21 11L21 10L19 10L19 9L16 9L16 8L14 8L14 5L13 5L13 4L11 4L11 3L13 3L13 2ZM15 3L15 7L16 7L16 6L17 6L17 8L19 8L19 7L20 7L20 6L19 6L19 5L18 5L18 6L17 6L17 3ZM43 3L43 4L44 4L44 5L45 5L45 8L44 8L44 9L45 9L45 8L46 8L46 5L47 5L47 3L45 3L45 4L44 4L44 3ZM10 4L10 5L11 5L11 4ZM24 5L24 6L23 6L23 7L24 7L24 8L26 8L26 6L25 6L25 5ZM27 5L27 8L30 8L30 5ZM35 5L35 6L36 6L36 5ZM18 6L18 7L19 7L19 6ZM24 6L24 7L25 7L25 6ZM28 6L28 7L29 7L29 6ZM48 6L48 7L49 7L49 6ZM13 8L13 9L14 9L14 10L15 10L15 11L16 11L16 10L15 10L15 9L14 9L14 8ZM6 9L6 10L7 10L7 9ZM9 9L9 10L10 10L10 9ZM18 10L18 11L17 11L17 12L15 12L15 15L14 15L14 16L15 16L15 15L16 15L16 13L17 13L17 12L18 12L18 11L19 11L19 10ZM25 10L25 11L26 11L26 10ZM52 10L52 11L51 11L51 12L50 12L50 13L49 13L49 11L48 11L48 14L46 14L46 15L45 15L45 14L44 14L44 15L42 15L42 14L41 14L41 17L42 17L42 18L41 18L41 20L43 20L43 16L44 16L44 17L45 17L45 16L46 16L46 19L45 19L45 20L46 20L46 21L48 21L48 20L49 20L49 22L48 22L48 24L49 24L49 25L50 25L50 23L51 23L51 24L52 24L52 23L53 23L53 25L51 25L51 26L53 26L53 25L54 25L54 27L53 27L53 28L54 28L54 27L55 27L55 26L56 26L56 24L55 24L55 23L53 23L53 22L55 22L55 21L53 21L53 20L52 20L52 19L51 19L51 18L49 18L49 17L50 17L50 16L51 16L51 17L52 17L52 18L54 18L54 19L55 19L55 17L56 17L56 16L55 16L55 17L52 17L52 16L51 16L51 12L53 12L53 10ZM54 10L54 12L56 12L56 11L55 11L55 10ZM10 11L10 12L11 12L11 11ZM37 11L37 12L38 12L38 11ZM26 12L26 13L27 13L27 16L26 16L26 15L25 15L25 16L26 16L26 19L25 19L25 20L24 20L24 19L23 19L23 18L25 18L25 17L24 17L24 16L23 16L23 18L21 18L21 22L20 22L20 23L19 23L19 24L20 24L20 26L19 26L19 27L17 27L17 26L16 26L16 27L17 27L17 28L16 28L16 32L17 32L17 31L18 31L18 33L16 33L16 34L17 34L17 35L18 35L18 36L19 36L19 35L20 35L20 33L21 33L21 32L22 32L22 31L23 31L23 30L21 30L21 32L20 32L20 28L19 28L19 27L20 27L20 26L21 26L21 24L25 24L25 23L26 23L26 22L27 22L27 23L28 23L28 22L27 22L27 20L28 20L28 18L29 18L29 19L30 19L30 18L29 18L29 16L28 16L28 15L29 15L29 14L28 14L28 12ZM30 12L30 13L31 13L31 12ZM52 13L52 14L53 14L53 15L54 15L54 14L55 14L55 13ZM18 14L18 15L17 15L17 16L18 16L18 17L19 17L19 14ZM11 15L11 16L12 16L12 15ZM31 15L31 16L32 16L32 17L33 17L33 15ZM6 16L6 17L7 17L7 16ZM21 16L21 17L22 17L22 16ZM47 16L47 17L49 17L49 16ZM31 18L31 19L33 19L33 18ZM47 18L47 19L46 19L46 20L47 20L47 19L49 19L49 18ZM26 19L26 20L25 20L25 22L24 22L24 21L22 21L22 23L25 23L25 22L26 22L26 20L27 20L27 19ZM37 19L37 20L35 20L35 21L37 21L37 20L39 20L39 19ZM50 20L50 22L51 22L51 23L52 23L52 21L51 21L51 20ZM13 22L13 23L12 23L12 24L14 24L14 23L15 23L15 22ZM45 22L45 24L47 24L47 23L46 23L46 22ZM6 23L6 24L5 24L5 26L8 26L8 25L6 25L6 24L7 24L7 23ZM10 23L10 25L11 25L11 26L12 26L12 27L13 27L13 26L15 26L15 25L11 25L11 23ZM29 23L29 24L30 24L30 23ZM33 24L33 25L32 25L32 26L33 26L33 28L32 28L32 29L33 29L33 28L34 28L34 27L35 27L35 25L37 25L37 24L35 24L35 25L34 25L34 24ZM54 24L54 25L55 25L55 24ZM23 25L23 26L22 26L22 27L23 27L23 26L24 26L24 25ZM33 25L33 26L34 26L34 25ZM0 26L0 27L2 27L2 26ZM36 26L36 27L37 27L37 26ZM40 26L40 27L41 27L41 26ZM42 26L42 27L43 27L43 26ZM5 27L5 30L8 30L8 27ZM27 27L27 30L30 30L30 27ZM49 27L49 30L52 30L52 27ZM6 28L6 29L7 29L7 28ZM10 28L10 29L11 29L11 30L12 30L12 29L11 29L11 28ZM18 28L18 29L17 29L17 30L19 30L19 28ZM23 28L23 29L25 29L25 28ZM28 28L28 29L29 29L29 28ZM50 28L50 29L51 29L51 28ZM2 29L2 30L1 30L1 31L2 31L2 30L3 30L3 32L4 32L4 30L3 30L3 29ZM14 29L14 30L15 30L15 29ZM6 32L6 33L7 33L7 34L8 34L8 33L7 33L7 32ZM39 32L39 33L38 33L38 34L37 34L37 33L36 33L36 34L35 34L35 36L36 36L36 38L35 38L35 37L34 37L34 36L32 36L32 38L33 38L33 39L34 39L34 38L35 38L35 40L34 40L34 41L35 41L35 40L37 40L37 42L35 42L35 43L34 43L34 44L33 44L33 46L34 46L34 44L35 44L35 48L34 48L34 49L35 49L35 50L33 50L33 51L35 51L35 50L36 50L36 49L35 49L35 48L36 48L36 47L38 47L38 46L39 46L39 44L38 44L38 46L37 46L37 43L38 43L38 42L39 42L39 41L40 41L40 39L41 39L41 41L42 41L42 39L44 39L44 38L40 38L40 36L39 36L39 35L40 35L40 32ZM41 32L41 33L43 33L43 34L42 34L42 35L43 35L43 34L44 34L44 32ZM47 32L47 33L48 33L48 34L50 34L50 35L51 35L51 33L50 33L50 32L49 32L49 33L48 33L48 32ZM18 33L18 34L19 34L19 33ZM25 33L25 34L26 34L26 33ZM32 34L32 35L33 35L33 34ZM38 34L38 35L36 35L36 36L37 36L37 37L38 37L38 35L39 35L39 34ZM7 35L7 36L8 36L8 37L9 37L9 38L12 38L12 37L9 37L9 36L8 36L8 35ZM26 35L26 36L27 36L27 37L28 37L28 36L30 36L30 35ZM33 37L33 38L34 38L34 37ZM50 37L50 38L48 38L48 39L49 39L49 41L50 41L50 39L51 39L51 37ZM14 38L14 39L15 39L15 38ZM24 38L24 39L25 39L25 38ZM37 38L37 40L39 40L39 39L40 39L40 38L39 38L39 39L38 39L38 38ZM0 39L0 42L1 42L1 39ZM10 40L10 42L11 42L11 40ZM8 41L8 43L7 43L7 42L6 42L6 43L7 43L7 44L6 44L6 45L7 45L7 44L8 44L8 46L9 46L9 44L10 44L10 43L9 43L9 41ZM17 41L17 42L16 42L16 43L17 43L17 44L19 44L19 43L18 43L18 42L19 42L19 41ZM29 41L29 42L32 42L32 41ZM54 41L54 42L53 42L53 43L55 43L55 44L56 44L56 43L55 43L55 41ZM24 42L24 43L25 43L25 42ZM26 42L26 45L25 45L25 46L26 46L26 47L29 47L29 46L26 46L26 45L27 45L27 42ZM45 42L45 44L46 44L46 42ZM8 43L8 44L9 44L9 43ZM20 43L20 45L21 45L21 43ZM35 43L35 44L36 44L36 43ZM29 44L29 45L30 45L30 46L32 46L32 44ZM49 44L49 45L50 45L50 44ZM23 45L23 46L24 46L24 45ZM44 45L44 46L45 46L45 45ZM1 46L1 47L2 47L2 46ZM19 47L19 48L20 48L20 47ZM14 48L14 49L13 49L13 50L14 50L14 49L15 49L15 48ZM41 48L41 49L42 49L42 50L44 50L44 51L45 51L45 48L44 48L44 49L42 49L42 48ZM27 49L27 52L30 52L30 49ZM49 49L49 52L52 52L52 49ZM28 50L28 51L29 51L29 50ZM47 50L47 51L46 51L46 52L47 52L47 53L46 53L46 54L47 54L47 55L48 55L48 56L49 56L49 55L50 55L50 53L49 53L49 55L48 55L48 50ZM50 50L50 51L51 51L51 50ZM53 51L53 52L54 52L54 51ZM32 52L32 53L33 53L33 52ZM8 53L8 54L9 54L9 53ZM10 53L10 55L8 55L8 57L10 57L10 56L12 56L12 57L13 57L13 56L14 56L14 57L17 57L17 56L15 56L15 55L13 55L13 54L12 54L12 55L11 55L11 53ZM26 53L26 54L27 54L27 55L25 55L25 54L23 54L23 56L24 56L24 55L25 55L25 56L27 56L27 55L28 55L28 56L29 56L29 53L28 53L28 54L27 54L27 53ZM42 53L42 54L43 54L43 55L44 55L44 54L43 54L43 53ZM51 53L51 54L52 54L52 53ZM45 55L45 56L46 56L46 55ZM18 56L18 57L19 57L19 56ZM32 56L32 57L33 57L33 56ZM0 0L0 7L7 7L7 0ZM1 1L1 6L6 6L6 1ZM2 2L2 5L5 5L5 2ZM50 0L50 7L57 7L57 0ZM51 1L51 6L56 6L56 1ZM52 2L52 5L55 5L55 2ZM0 50L0 57L7 57L7 50ZM1 51L1 56L6 56L6 51ZM2 52L2 55L5 55L5 52Z" fill="#000000"/></g></g></svg>
