<?xml version="1.0" encoding="UTF-8"?>
<svg xmlns="http://www.w3.org/2000/svg" version="1.1" width="100" height="100" viewBox="0 0 100 100"><rect x="0" y="0" width="100" height="100" fill="#ffffff"/><g transform="scale(1.754)"><g transform="translate(0,0)"><path fill-rule="evenodd" d="M9 0L9 1L8 1L8 3L9 3L9 1L10 1L10 2L12 2L12 1L11 1L11 0ZM15 0L15 2L13 2L13 3L12 3L12 4L11 4L11 5L10 5L10 4L8 4L8 8L6 8L6 9L5 9L5 11L4 11L4 8L3 8L3 9L2 9L2 8L0 8L0 9L2 9L2 10L1 10L1 11L0 11L0 12L1 12L1 11L2 11L2 12L3 12L3 14L2 14L2 13L0 13L0 14L2 14L2 15L4 15L4 13L5 13L5 14L6 14L6 15L5 15L5 16L1 16L1 15L0 15L0 16L1 16L1 17L0 17L0 20L1 20L1 21L2 21L2 22L0 22L0 23L2 23L2 24L0 24L0 25L2 25L2 24L3 24L3 22L4 22L4 23L5 23L5 24L6 24L6 25L4 25L4 26L3 26L3 27L2 27L2 26L1 26L1 27L0 27L0 28L1 28L1 27L2 27L2 29L0 29L0 32L2 32L2 33L0 33L0 34L2 34L2 35L0 35L0 36L2 36L2 37L1 37L1 39L0 39L0 40L1 40L1 41L0 41L0 43L2 43L2 41L3 41L3 43L4 43L4 44L5 44L5 45L3 45L3 46L2 46L2 47L1 47L1 45L2 45L2 44L1 44L1 45L0 45L0 48L5 48L5 47L8 47L8 46L9 46L9 49L8 49L8 51L9 51L9 52L10 52L10 53L8 53L8 54L9 54L9 55L8 55L8 57L11 57L11 56L12 56L12 57L13 57L13 56L12 56L12 55L14 55L14 56L15 56L15 57L17 57L17 56L15 56L15 53L14 53L14 54L10 54L10 53L11 53L11 52L12 52L12 51L15 51L15 52L16 52L16 51L15 51L15 50L14 50L14 49L13 49L13 50L12 50L12 49L11 49L11 50L9 50L9 49L10 49L10 48L12 48L12 46L13 46L13 48L15 48L15 49L16 49L16 48L15 48L15 47L18 47L18 49L20 49L20 51L21 51L21 50L22 50L22 52L23 52L23 50L24 50L24 51L25 51L25 50L24 50L24 49L22 49L22 48L24 48L24 47L25 47L25 49L26 49L26 53L25 53L25 52L24 52L24 53L23 53L23 54L21 54L21 52L20 52L20 53L19 53L19 50L18 50L18 52L17 52L17 53L16 53L16 54L17 54L17 55L21 55L21 56L20 56L20 57L24 57L24 56L26 56L26 55L27 55L27 57L30 57L30 53L31 53L31 51L32 51L32 50L31 50L31 49L33 49L33 46L34 46L34 44L35 44L35 48L34 48L34 49L35 49L35 50L33 50L33 51L35 51L35 50L36 50L36 54L35 54L35 53L34 53L34 54L31 54L31 57L32 57L32 56L33 56L33 55L34 55L34 57L37 57L37 56L38 56L38 55L37 55L37 54L38 54L38 52L37 52L37 50L38 50L38 49L39 49L39 47L38 47L38 46L39 46L39 44L40 44L40 46L41 46L41 45L42 45L42 46L44 46L44 48L42 48L42 47L41 47L41 48L40 48L40 49L41 49L41 50L40 50L40 52L41 52L41 53L40 53L40 54L39 54L39 55L40 55L40 56L39 56L39 57L41 57L41 55L43 55L43 56L42 56L42 57L43 57L43 56L45 56L45 57L47 57L47 56L48 56L48 57L49 57L49 56L50 56L50 55L51 55L51 57L53 57L53 56L52 56L52 54L53 54L53 55L55 55L55 56L54 56L54 57L56 57L56 56L57 56L57 52L56 52L56 51L57 51L57 48L55 48L55 47L56 47L56 44L57 44L57 42L56 42L56 40L57 40L57 39L56 39L56 38L54 38L54 39L55 39L55 40L54 40L54 41L53 41L53 42L52 42L52 45L51 45L51 46L49 46L49 47L48 47L48 49L47 49L47 50L46 50L46 48L45 48L45 47L47 47L47 46L46 46L46 44L48 44L48 43L51 43L51 42L50 42L50 41L51 41L51 40L52 40L52 38L53 38L53 37L57 37L57 35L54 35L54 34L53 34L53 33L55 33L55 34L57 34L57 33L56 33L56 32L54 32L54 30L53 30L53 29L54 29L54 28L56 28L56 29L55 29L55 31L56 31L56 29L57 29L57 28L56 28L56 26L57 26L57 22L56 22L56 20L57 20L57 19L56 19L56 20L55 20L55 19L54 19L54 18L52 18L52 17L55 17L55 18L56 18L56 17L57 17L57 14L56 14L56 13L57 13L57 9L56 9L56 8L54 8L54 10L53 10L53 8L50 8L50 9L52 9L52 10L51 10L51 11L49 11L49 9L48 9L48 11L47 11L47 10L46 10L46 11L47 11L47 13L45 13L45 9L47 9L47 5L48 5L48 0L46 0L46 1L45 1L45 3L44 3L44 2L42 2L42 1L44 1L44 0L42 0L42 1L41 1L41 0L40 0L40 2L39 2L39 3L41 3L41 2L42 2L42 4L43 4L43 5L44 5L44 7L43 7L43 6L42 6L42 5L41 5L41 4L40 4L40 5L41 5L41 6L40 6L40 7L39 7L39 4L37 4L37 3L38 3L38 1L39 1L39 0L38 0L38 1L37 1L37 2L36 2L36 3L35 3L35 2L33 2L33 3L32 3L32 1L33 1L33 0L32 0L32 1L31 1L31 2L30 2L30 3L31 3L31 4L29 4L29 3L27 3L27 4L24 4L24 5L23 5L23 0L22 0L22 5L23 5L23 6L22 6L22 8L21 8L21 6L20 6L20 5L19 5L19 6L18 6L18 5L17 5L17 6L16 6L16 7L15 7L15 3L17 3L17 4L20 4L20 2L21 2L21 0L18 0L18 1L20 1L20 2L19 2L19 3L17 3L17 0ZM24 0L24 3L25 3L25 0ZM28 0L28 2L29 2L29 1L30 1L30 0ZM46 1L46 2L47 2L47 1ZM34 3L34 6L33 6L33 8L32 8L32 5L33 5L33 4L32 4L32 5L31 5L31 9L30 9L30 10L28 10L28 11L27 11L27 9L25 9L25 10L26 10L26 11L24 11L24 10L23 10L23 9L21 9L21 8L19 8L19 7L20 7L20 6L19 6L19 7L18 7L18 6L17 6L17 8L19 8L19 9L16 9L16 8L14 8L14 5L13 5L13 4L12 4L12 5L11 5L11 7L10 7L10 6L9 6L9 8L8 8L8 11L6 11L6 12L5 12L5 13L6 13L6 14L7 14L7 15L6 15L6 16L7 16L7 17L6 17L6 18L4 18L4 17L1 17L1 18L2 18L2 19L1 19L1 20L2 20L2 21L4 21L4 22L5 22L5 23L6 23L6 24L7 24L7 25L6 25L6 26L9 26L9 29L12 29L12 28L13 28L13 30L12 30L12 31L11 31L11 30L10 30L10 31L9 31L9 32L8 32L8 33L9 33L9 34L11 34L11 33L12 33L12 31L13 31L13 35L12 35L12 36L14 36L14 37L9 37L9 38L8 38L8 37L6 37L6 36L7 36L7 35L8 35L8 36L11 36L11 35L8 35L8 34L7 34L7 33L6 33L6 34L7 34L7 35L5 35L5 36L3 36L3 38L2 38L2 40L4 40L4 39L3 39L3 38L4 38L4 37L5 37L5 38L8 38L8 39L9 39L9 41L8 41L8 42L9 42L9 43L10 43L10 44L9 44L9 45L11 45L11 46L12 46L12 44L16 44L16 45L13 45L13 46L14 46L14 47L15 47L15 46L20 46L20 44L21 44L21 43L20 43L20 44L19 44L19 43L18 43L18 42L20 42L20 41L17 41L17 42L16 42L16 43L10 43L10 41L11 41L11 42L13 42L13 41L12 41L12 40L13 40L13 39L11 39L11 40L10 40L10 39L9 39L9 38L15 38L15 36L18 36L18 37L20 37L20 35L21 35L21 33L22 33L22 32L23 32L23 34L22 34L22 35L24 35L24 36L25 36L25 35L24 35L24 32L26 32L26 31L24 31L24 30L26 30L26 28L25 28L25 26L27 26L27 25L26 25L26 24L28 24L28 25L31 25L31 24L32 24L32 22L31 22L31 21L30 21L30 20L33 20L33 21L34 21L34 16L35 16L35 17L36 17L36 18L37 18L37 17L38 17L38 18L39 18L39 17L40 17L40 16L39 16L39 15L38 15L38 14L39 14L39 13L40 13L40 14L41 14L41 17L42 17L42 18L41 18L41 20L43 20L43 16L44 16L44 17L46 17L46 19L45 19L45 20L46 20L46 19L47 19L47 21L45 21L45 24L47 24L47 25L48 25L48 24L49 24L49 25L50 25L50 23L51 23L51 24L52 24L52 23L53 23L53 25L51 25L51 26L53 26L53 25L54 25L54 27L53 27L53 28L54 28L54 27L55 27L55 26L56 26L56 24L55 24L55 23L53 23L53 22L55 22L55 21L53 21L53 20L52 20L52 19L51 19L51 18L49 18L49 17L50 17L50 16L51 16L51 17L52 17L52 16L51 16L51 12L53 12L53 10L52 10L52 11L51 11L51 12L50 12L50 13L49 13L49 11L48 11L48 14L46 14L46 15L45 15L45 13L44 13L44 10L43 10L43 9L42 9L42 8L43 8L43 7L42 7L42 6L41 6L41 7L40 7L40 8L39 8L39 7L38 7L38 5L37 5L37 4L35 4L35 3ZM43 3L43 4L44 4L44 5L45 5L45 8L44 8L44 9L45 9L45 8L46 8L46 5L47 5L47 3L45 3L45 4L44 4L44 3ZM45 4L45 5L46 5L46 4ZM24 5L24 6L23 6L23 7L24 7L24 8L26 8L26 6L25 6L25 5ZM27 5L27 8L30 8L30 5ZM35 5L35 6L34 6L34 10L33 10L33 9L31 9L31 10L32 10L32 11L31 11L31 12L33 12L33 13L31 13L31 14L33 14L33 15L31 15L31 16L32 16L32 17L33 17L33 15L34 15L34 14L36 14L36 17L37 17L37 14L38 14L38 12L42 12L42 11L43 11L43 10L42 10L42 11L40 11L40 9L39 9L39 10L37 10L37 9L38 9L38 7L37 7L37 6L36 6L36 5ZM12 6L12 8L11 8L11 9L10 9L10 8L9 8L9 11L8 11L8 12L6 12L6 13L8 13L8 15L7 15L7 16L8 16L8 18L6 18L6 19L8 19L8 18L11 18L11 17L12 17L12 15L11 15L11 14L13 14L13 15L14 15L14 16L13 16L13 18L14 18L14 19L12 19L12 20L14 20L14 19L16 19L16 24L15 24L15 25L18 25L18 24L17 24L17 23L19 23L19 24L24 24L24 25L23 25L23 26L22 26L22 27L23 27L23 26L25 26L25 23L26 23L26 22L27 22L27 23L28 23L28 22L27 22L27 20L28 20L28 21L29 21L29 20L28 20L28 18L29 18L29 19L30 19L30 18L29 18L29 16L28 16L28 15L29 15L29 14L30 14L30 12L29 12L29 14L28 14L28 12L26 12L26 13L25 13L25 12L24 12L24 11L23 11L23 10L21 10L21 9L19 9L19 10L18 10L18 11L17 11L17 12L15 12L15 15L14 15L14 14L13 14L13 13L14 13L14 11L13 11L13 9L14 9L14 10L15 10L15 11L16 11L16 10L15 10L15 9L14 9L14 8L13 8L13 6ZM24 6L24 7L25 7L25 6ZM28 6L28 7L29 7L29 6ZM35 6L35 8L36 8L36 9L37 9L37 8L36 8L36 6ZM48 6L48 7L49 7L49 6ZM6 9L6 10L7 10L7 9ZM11 9L11 10L12 10L12 9ZM19 10L19 11L18 11L18 12L17 12L17 13L16 13L16 15L15 15L15 16L14 16L14 17L15 17L15 18L17 18L17 17L18 17L18 18L19 18L19 19L18 19L18 20L17 20L17 22L19 22L19 23L20 23L20 22L21 22L21 21L23 21L23 22L22 22L22 23L25 23L25 22L26 22L26 21L25 21L25 22L24 22L24 21L23 21L23 19L24 19L24 20L25 20L25 18L26 18L26 20L27 20L27 18L26 18L26 16L27 16L27 13L26 13L26 14L23 14L23 16L22 16L22 15L20 15L20 14L19 14L19 13L18 13L18 12L20 12L20 13L21 13L21 12L20 12L20 11L21 11L21 10ZM34 10L34 11L33 11L33 12L34 12L34 13L35 13L35 12L36 12L36 11L35 11L35 10ZM54 10L54 12L56 12L56 11L55 11L55 10ZM3 11L3 12L4 12L4 11ZM12 11L12 12L13 12L13 11ZM37 11L37 12L38 12L38 11ZM8 12L8 13L9 13L9 17L10 17L10 16L11 16L11 15L10 15L10 13L9 13L9 12ZM22 12L22 13L24 13L24 12ZM41 13L41 14L42 14L42 15L44 15L44 14L42 14L42 13ZM52 13L52 14L55 14L55 17L56 17L56 14L55 14L55 13ZM18 14L18 15L17 15L17 16L18 16L18 17L19 17L19 14ZM25 15L25 16L26 16L26 15ZM53 15L53 16L54 16L54 15ZM21 16L21 17L22 17L22 16ZM23 16L23 18L21 18L21 19L23 19L23 18L25 18L25 17L24 17L24 16ZM47 16L47 17L49 17L49 16ZM3 18L3 19L2 19L2 20L4 20L4 18ZM31 18L31 19L33 19L33 18ZM47 18L47 19L49 19L49 18ZM37 19L37 20L35 20L35 21L37 21L37 20L39 20L39 19ZM6 20L6 21L9 21L9 20ZM10 20L10 21L11 21L11 24L10 24L10 23L9 23L9 22L8 22L8 23L7 23L7 22L6 22L6 23L7 23L7 24L8 24L8 25L9 25L9 26L10 26L10 28L12 28L12 27L13 27L13 24L12 24L12 22L13 22L13 23L14 23L14 22L13 22L13 21L11 21L11 20ZM19 20L19 22L20 22L20 20ZM48 20L48 21L47 21L47 23L48 23L48 21L49 21L49 20ZM50 20L50 22L51 22L51 23L52 23L52 21L51 21L51 20ZM38 21L38 22L37 22L37 23L36 23L36 22L34 22L34 23L33 23L33 24L34 24L34 25L33 25L33 26L31 26L31 27L33 27L33 26L34 26L34 25L35 25L35 27L34 27L34 28L33 28L33 30L34 30L34 31L36 31L36 32L34 32L34 33L35 33L35 34L33 34L33 31L32 31L32 33L30 33L30 31L29 31L29 33L28 33L28 31L27 31L27 34L29 34L29 35L26 35L26 36L27 36L27 37L28 37L28 36L30 36L30 35L32 35L32 36L31 36L31 37L29 37L29 39L28 39L28 38L26 38L26 37L24 37L24 38L23 38L23 36L22 36L22 37L21 37L21 38L23 38L23 39L21 39L21 40L22 40L22 41L23 41L23 42L22 42L22 47L24 47L24 46L25 46L25 47L26 47L26 48L29 48L29 47L30 47L30 48L31 48L31 47L32 47L32 46L33 46L33 44L34 44L34 43L35 43L35 44L36 44L36 43L35 43L35 42L37 42L37 40L39 40L39 39L40 39L40 41L39 41L39 42L38 42L38 43L37 43L37 46L38 46L38 44L39 44L39 42L42 42L42 41L44 41L44 40L45 40L45 41L47 41L47 43L48 43L48 41L47 41L47 39L45 39L45 38L47 38L47 37L49 37L49 36L47 36L47 35L50 35L50 36L54 36L54 35L52 35L52 33L51 33L51 32L52 32L52 31L51 31L51 32L50 32L50 31L49 31L49 32L48 32L48 29L47 29L47 32L46 32L46 33L47 33L47 34L45 34L45 31L41 31L41 32L40 32L40 31L39 31L39 30L38 30L38 32L37 32L37 31L36 31L36 30L34 30L34 28L35 28L35 29L36 29L36 26L37 26L37 29L39 29L39 27L40 27L40 26L41 26L41 29L40 29L40 30L42 30L42 29L43 29L43 30L44 30L44 28L45 28L45 29L46 29L46 28L48 28L48 26L46 26L46 25L45 25L45 26L43 26L43 25L40 25L40 24L41 24L41 23L42 23L42 24L43 24L43 23L44 23L44 22L42 22L42 21L41 21L41 22L40 22L40 23L39 23L39 26L37 26L37 25L38 25L38 22L39 22L39 21ZM30 22L30 23L29 23L29 24L30 24L30 23L31 23L31 22ZM8 23L8 24L9 24L9 23ZM11 24L11 25L10 25L10 26L12 26L12 24ZM35 24L35 25L37 25L37 24ZM54 24L54 25L55 25L55 24ZM19 25L19 26L20 26L20 27L21 27L21 25ZM14 26L14 28L15 28L15 26ZM16 26L16 27L17 27L17 28L16 28L16 32L17 32L17 31L18 31L18 33L16 33L16 34L17 34L17 35L18 35L18 36L19 36L19 35L20 35L20 33L21 33L21 32L22 32L22 31L23 31L23 30L21 30L21 28L19 28L19 27L17 27L17 26ZM42 26L42 27L43 27L43 28L44 28L44 27L43 27L43 26ZM3 27L3 28L4 28L4 27ZM5 27L5 30L8 30L8 27ZM27 27L27 30L30 30L30 27ZM49 27L49 30L52 30L52 27ZM6 28L6 29L7 29L7 28ZM18 28L18 29L17 29L17 30L19 30L19 31L20 31L20 32L21 32L21 31L20 31L20 29L19 29L19 28ZM23 28L23 29L25 29L25 28ZM28 28L28 29L29 29L29 28ZM31 28L31 29L32 29L32 28ZM50 28L50 29L51 29L51 28ZM2 30L2 32L3 32L3 33L5 33L5 32L7 32L7 31L5 31L5 32L3 32L3 31L4 31L4 30ZM13 30L13 31L14 31L14 30ZM10 31L10 33L11 33L11 31ZM36 32L36 35L35 35L35 36L36 36L36 38L35 38L35 37L34 37L34 36L32 36L32 38L31 38L31 39L30 39L30 40L28 40L28 39L27 39L27 40L26 40L26 39L25 39L25 38L24 38L24 39L23 39L23 40L24 40L24 43L25 43L25 42L26 42L26 45L25 45L25 46L26 46L26 47L29 47L29 46L26 46L26 45L27 45L27 43L28 43L28 44L29 44L29 45L30 45L30 46L31 46L31 45L32 45L32 44L31 44L31 39L32 39L32 38L33 38L33 39L34 39L34 38L35 38L35 40L34 40L34 41L35 41L35 40L37 40L37 38L38 38L38 39L39 39L39 38L40 38L40 39L41 39L41 41L42 41L42 38L43 38L43 39L44 39L44 38L45 38L45 34L44 34L44 32L41 32L41 33L43 33L43 34L42 34L42 35L40 35L40 32L39 32L39 33L38 33L38 34L37 34L37 32ZM47 32L47 33L48 33L48 34L50 34L50 35L51 35L51 33L50 33L50 32L49 32L49 33L48 33L48 32ZM14 33L14 36L15 36L15 33ZM18 33L18 34L19 34L19 33ZM25 33L25 34L26 34L26 33ZM29 33L29 34L30 34L30 33ZM32 34L32 35L33 35L33 34ZM38 34L38 35L36 35L36 36L37 36L37 37L38 37L38 35L39 35L39 36L40 36L40 38L41 38L41 37L43 37L43 38L44 38L44 37L43 37L43 35L44 35L44 34L43 34L43 35L42 35L42 36L40 36L40 35L39 35L39 34ZM46 36L46 37L47 37L47 36ZM33 37L33 38L34 38L34 37ZM50 37L50 38L48 38L48 40L49 40L49 41L50 41L50 39L51 39L51 37ZM17 38L17 39L16 39L16 40L14 40L14 42L15 42L15 41L16 41L16 40L20 40L20 38L19 38L19 39L18 39L18 38ZM5 39L5 40L7 40L7 39ZM24 39L24 40L25 40L25 39ZM32 40L32 41L33 41L33 40ZM6 41L6 42L7 42L7 41ZM26 41L26 42L27 42L27 41ZM28 41L28 42L30 42L30 41ZM54 41L54 42L53 42L53 43L55 43L55 44L56 44L56 43L55 43L55 41ZM32 42L32 43L33 43L33 42ZM45 42L45 44L46 44L46 42ZM5 43L5 44L8 44L8 43ZM16 43L16 44L17 44L17 45L19 45L19 44L17 44L17 43ZM29 43L29 44L30 44L30 43ZM40 43L40 44L42 44L42 45L43 45L43 44L44 44L44 43ZM49 44L49 45L50 45L50 44ZM6 45L6 46L8 46L8 45ZM23 45L23 46L24 46L24 45ZM44 45L44 46L45 46L45 45ZM53 45L53 46L52 46L52 47L49 47L49 48L53 48L53 47L54 47L54 46L55 46L55 45ZM3 46L3 47L5 47L5 46ZM19 47L19 48L20 48L20 47ZM36 47L36 48L37 48L37 49L36 49L36 50L37 50L37 49L38 49L38 47ZM6 48L6 49L7 49L7 48ZM41 48L41 49L42 49L42 50L41 50L41 52L43 52L43 53L41 53L41 54L43 54L43 55L44 55L44 54L45 54L45 56L46 56L46 54L47 54L47 55L48 55L48 56L49 56L49 55L50 55L50 53L49 53L49 55L48 55L48 50L47 50L47 51L46 51L46 52L47 52L47 53L46 53L46 54L45 54L45 52L44 52L44 51L45 51L45 48L44 48L44 49L42 49L42 48ZM27 49L27 52L30 52L30 49ZM49 49L49 52L52 52L52 49ZM53 49L53 50L56 50L56 49ZM28 50L28 51L29 51L29 50ZM42 50L42 51L44 51L44 50ZM50 50L50 51L51 51L51 50ZM10 51L10 52L11 52L11 51ZM53 51L53 52L54 52L54 51ZM32 52L32 53L33 53L33 52ZM55 52L55 53L54 53L54 54L55 54L55 55L56 55L56 52ZM26 53L26 54L27 54L27 55L28 55L28 56L29 56L29 53L28 53L28 54L27 54L27 53ZM43 53L43 54L44 54L44 53ZM51 53L51 54L52 54L52 53ZM23 54L23 56L24 56L24 55L25 55L25 54ZM18 56L18 57L19 57L19 56ZM0 0L0 7L7 7L7 0ZM1 1L1 6L6 6L6 1ZM2 2L2 5L5 5L5 2ZM50 0L50 7L57 7L57 0ZM51 1L51 6L56 6L56 1ZM52 2L52 5L55 5L55 2ZM0 50L0 57L7 57L7 50ZM1 51L1 56L6 56L6 51ZM2 52L2 55L5 55L5 52Z" fill="#000000"/></g></g></svg>
