<?xml version="1.0" encoding="UTF-8"?>
<svg xmlns="http://www.w3.org/2000/svg" version="1.1" width="100" height="100" viewBox="0 0 100 100"><rect x="0" y="0" width="100" height="100" fill="#ffffff"/><g transform="scale(2.041)"><g transform="translate(0,0)"><path fill-rule="evenodd" d="M9 0L9 1L8 1L8 2L9 2L9 3L8 3L8 4L9 4L9 5L8 5L8 7L9 7L9 8L6 8L6 9L5 9L5 8L0 8L0 11L1 11L1 12L0 12L0 15L1 15L1 12L4 12L4 13L5 13L5 15L4 15L4 14L3 14L3 15L2 15L2 17L3 17L3 18L2 18L2 20L0 20L0 23L1 23L1 24L0 24L0 26L2 26L2 25L3 25L3 27L0 27L0 33L1 33L1 32L2 32L2 30L3 30L3 31L4 31L4 29L7 29L7 30L6 30L6 31L5 31L5 33L4 33L4 34L6 34L6 35L7 35L7 36L6 36L6 37L7 37L7 38L5 38L5 35L2 35L2 34L1 34L1 35L0 35L0 38L1 38L1 40L0 40L0 41L3 41L3 40L4 40L4 39L2 39L2 38L1 38L1 37L3 37L3 36L4 36L4 38L5 38L5 39L7 39L7 38L8 38L8 40L9 40L9 39L10 39L10 40L12 40L12 39L10 39L10 38L12 38L12 37L13 37L13 39L14 39L14 40L13 40L13 42L12 42L12 41L10 41L10 42L9 42L9 41L8 41L8 43L11 43L11 44L8 44L8 49L9 49L9 47L10 47L10 48L11 48L11 49L13 49L13 48L15 48L15 49L22 49L22 48L23 48L23 49L28 49L28 48L29 48L29 49L32 49L32 48L33 48L33 49L36 49L36 48L38 48L38 46L39 46L39 48L40 48L40 47L42 47L42 48L41 48L41 49L42 49L42 48L43 48L43 49L44 49L44 48L45 48L45 49L46 49L46 48L47 48L47 49L49 49L49 48L48 48L48 47L49 47L49 41L48 41L48 42L46 42L46 43L45 43L45 40L46 40L46 41L47 41L47 40L46 40L46 38L44 38L44 37L45 37L45 36L44 36L44 34L45 34L45 35L46 35L46 36L47 36L47 37L48 37L48 38L47 38L47 39L49 39L49 36L47 36L47 35L48 35L48 33L47 33L47 32L48 32L48 30L49 30L49 28L48 28L48 27L47 27L47 26L49 26L49 22L48 22L48 21L49 21L49 19L48 19L48 17L49 17L49 16L48 16L48 15L47 15L47 14L46 14L46 15L47 15L47 16L46 16L46 17L47 17L47 18L46 18L46 19L45 19L45 20L44 20L44 22L42 22L42 21L41 21L41 20L43 20L43 19L44 19L44 17L43 17L43 18L41 18L41 20L38 20L38 19L40 19L40 18L39 18L39 17L40 17L40 16L39 16L39 17L36 17L36 15L37 15L37 16L38 16L38 15L37 15L37 14L35 14L35 12L36 12L36 13L39 13L39 12L38 12L38 11L37 11L37 9L39 9L39 8L37 8L37 5L36 5L36 4L38 4L38 2L39 2L39 4L40 4L40 3L41 3L41 0L40 0L40 1L36 1L36 0L35 0L35 1L34 1L34 2L36 2L36 3L32 3L32 4L33 4L33 5L34 5L34 4L35 4L35 6L34 6L34 7L35 7L35 6L36 6L36 8L37 8L37 9L35 9L35 8L34 8L34 9L31 9L31 10L30 10L30 11L29 11L29 12L28 12L28 13L27 13L27 12L26 12L26 10L28 10L28 9L27 9L27 8L29 8L29 9L30 9L30 8L31 8L31 6L32 6L32 7L33 7L33 6L32 6L32 5L31 5L31 4L30 4L30 3L31 3L31 2L32 2L32 0L29 0L29 1L31 1L31 2L29 2L29 6L28 6L28 7L27 7L27 5L28 5L28 4L25 4L25 3L26 3L26 1L25 1L25 0L24 0L24 1L23 1L23 2L25 2L25 3L23 3L23 4L22 4L22 3L20 3L20 2L19 2L19 1L20 1L20 0L18 0L18 1L17 1L17 2L18 2L18 3L17 3L17 4L16 4L16 3L15 3L15 2L16 2L16 0L12 0L12 4L13 4L13 2L14 2L14 4L15 4L15 5L17 5L17 6L16 6L16 7L17 7L17 8L15 8L15 9L16 9L16 10L15 10L15 11L14 11L14 9L12 9L12 12L11 12L11 10L10 10L10 9L11 9L11 8L10 8L10 7L11 7L11 6L10 6L10 4L11 4L11 3L10 3L10 2L11 2L11 1L10 1L10 0ZM21 0L21 1L22 1L22 0ZM27 0L27 1L28 1L28 0ZM9 1L9 2L10 2L10 1ZM14 1L14 2L15 2L15 1ZM27 2L27 3L28 3L28 2ZM18 3L18 4L17 4L17 5L19 5L19 7L20 7L20 9L21 9L21 10L19 10L19 11L20 11L20 13L17 13L17 14L15 14L15 13L14 13L14 11L13 11L13 12L12 12L12 15L13 15L13 14L14 14L14 15L15 15L15 17L14 17L14 16L12 16L12 19L13 19L13 20L11 20L11 19L5 19L5 18L8 18L8 17L9 17L9 18L10 18L10 17L11 17L11 16L10 16L10 15L11 15L11 14L10 14L10 13L9 13L9 12L10 12L10 11L9 11L9 9L10 9L10 8L9 8L9 9L8 9L8 10L7 10L7 9L6 9L6 10L7 10L7 11L5 11L5 13L6 13L6 14L7 14L7 15L6 15L6 16L7 16L7 17L4 17L4 20L2 20L2 21L1 21L1 23L2 23L2 24L1 24L1 25L2 25L2 24L3 24L3 25L4 25L4 24L3 24L3 22L2 22L2 21L4 21L4 22L8 22L8 20L11 20L11 21L9 21L9 22L11 22L11 23L9 23L9 24L12 24L12 25L9 25L9 26L10 26L10 28L7 28L7 27L3 27L3 28L7 28L7 29L9 29L9 30L7 30L7 31L6 31L6 32L7 32L7 33L6 33L6 34L7 34L7 35L8 35L8 36L9 36L9 35L10 35L10 36L11 36L11 37L12 37L12 36L11 36L11 35L10 35L10 31L11 31L11 30L12 30L12 29L13 29L13 28L12 28L12 27L11 27L11 26L12 26L12 25L13 25L13 24L15 24L15 25L16 25L16 27L15 27L15 26L14 26L14 27L15 27L15 28L14 28L14 29L15 29L15 28L16 28L16 29L17 29L17 28L18 28L18 27L17 27L17 24L18 24L18 25L21 25L21 26L22 26L22 25L21 25L21 22L24 22L24 21L27 21L27 23L31 23L31 25L32 25L32 28L34 28L34 29L31 29L31 30L30 30L30 29L29 29L29 30L28 30L28 29L27 29L27 28L26 28L26 27L25 27L25 28L23 28L23 29L22 29L22 30L23 30L23 31L22 31L22 32L21 32L21 30L20 30L20 28L21 28L21 27L20 27L20 26L19 26L19 27L20 27L20 28L19 28L19 30L20 30L20 32L21 32L21 33L23 33L23 34L24 34L24 35L23 35L23 37L22 37L22 39L23 39L23 40L24 40L24 39L25 39L25 40L27 40L27 43L31 43L31 44L30 44L30 45L31 45L31 46L30 46L30 47L31 47L31 48L32 48L32 47L33 47L33 48L35 48L35 47L33 47L33 45L31 45L31 44L32 44L32 43L33 43L33 44L34 44L34 46L38 46L38 44L40 44L40 43L39 43L39 42L40 42L40 40L39 40L39 38L40 38L40 39L41 39L41 40L42 40L42 39L41 39L41 38L42 38L42 37L39 37L39 38L37 38L37 39L34 39L34 40L33 40L33 38L32 38L32 35L33 35L33 36L34 36L34 37L35 37L35 36L36 36L36 37L38 37L38 36L39 36L39 35L38 35L38 36L36 36L36 35L35 35L35 34L36 34L36 33L38 33L38 34L39 34L39 33L38 33L38 32L40 32L40 33L41 33L41 34L40 34L40 36L41 36L41 35L42 35L42 36L43 36L43 35L42 35L42 34L43 34L43 33L45 33L45 34L47 34L47 33L46 33L46 31L47 31L47 27L46 27L46 28L45 28L45 27L44 27L44 28L43 28L43 27L42 27L42 28L43 28L43 29L44 29L44 28L45 28L45 30L42 30L42 29L41 29L41 28L40 28L40 27L38 27L38 25L36 25L36 24L37 24L37 23L33 23L33 22L34 22L34 21L35 21L35 22L37 22L37 21L35 21L35 20L36 20L36 19L35 19L35 18L36 18L36 17L35 17L35 15L34 15L34 13L31 13L31 12L30 12L30 13L31 13L31 14L30 14L30 15L31 15L31 14L32 14L32 20L31 20L31 21L30 21L30 20L29 20L29 19L31 19L31 18L27 18L27 17L31 17L31 16L27 16L27 15L29 15L29 13L28 13L28 14L26 14L26 13L25 13L25 11L23 11L23 12L21 12L21 11L22 11L22 10L23 10L23 9L22 9L22 4L20 4L20 3ZM19 4L19 5L20 5L20 4ZM12 5L12 7L13 7L13 6L14 6L14 7L15 7L15 6L14 6L14 5ZM23 5L23 8L26 8L26 5ZM30 5L30 6L29 6L29 8L30 8L30 6L31 6L31 5ZM38 5L38 7L39 7L39 5ZM9 6L9 7L10 7L10 6ZM17 6L17 7L18 7L18 6ZM20 6L20 7L21 7L21 6ZM24 6L24 7L25 7L25 6ZM40 6L40 7L41 7L41 6ZM41 8L41 9L42 9L42 8ZM43 8L43 10L42 10L42 11L41 11L41 12L43 12L43 13L40 13L40 14L39 14L39 15L40 15L40 14L42 14L42 15L41 15L41 17L42 17L42 16L45 16L45 15L44 15L44 14L45 14L45 13L46 13L46 12L47 12L47 13L49 13L49 11L48 11L48 12L47 12L47 11L46 11L46 12L45 12L45 13L44 13L44 12L43 12L43 10L45 10L45 9L46 9L46 8L45 8L45 9L44 9L44 8ZM47 8L47 9L48 9L48 10L49 10L49 9L48 9L48 8ZM1 9L1 10L3 10L3 11L4 11L4 9ZM25 9L25 10L26 10L26 9ZM16 10L16 11L15 11L15 12L18 12L18 11L17 11L17 10ZM31 10L31 11L32 11L32 12L33 12L33 11L34 11L34 12L35 12L35 10ZM39 10L39 11L40 11L40 10ZM7 11L7 12L6 12L6 13L7 13L7 12L8 12L8 11ZM8 13L8 15L7 15L7 16L8 16L8 15L9 15L9 13ZM20 13L20 14L21 14L21 16L23 16L23 17L24 17L24 18L23 18L23 19L22 19L22 18L21 18L21 17L20 17L20 18L17 18L17 17L19 17L19 16L20 16L20 15L19 15L19 14L17 14L17 17L15 17L15 18L16 18L16 19L17 19L17 21L18 21L18 22L16 22L16 20L15 20L15 19L14 19L14 18L13 18L13 19L14 19L14 20L15 20L15 21L12 21L12 22L13 22L13 23L12 23L12 24L13 24L13 23L14 23L14 22L16 22L16 23L15 23L15 24L16 24L16 23L18 23L18 24L20 24L20 22L19 22L19 19L22 19L22 20L21 20L21 21L24 21L24 20L26 20L26 19L25 19L25 17L27 17L27 16L23 16L23 15L25 15L25 14L23 14L23 15L22 15L22 14L21 14L21 13ZM3 15L3 16L4 16L4 15ZM18 15L18 16L19 16L19 15ZM0 16L0 17L1 17L1 16ZM9 16L9 17L10 17L10 16ZM33 16L33 17L34 17L34 18L35 18L35 17L34 17L34 16ZM47 16L47 17L48 17L48 16ZM0 18L0 19L1 19L1 18ZM37 18L37 19L38 19L38 18ZM47 19L47 20L46 20L46 21L45 21L45 26L47 26L47 25L46 25L46 24L48 24L48 22L47 22L47 20L48 20L48 19ZM6 20L6 21L7 21L7 20ZM27 20L27 21L28 21L28 22L30 22L30 21L29 21L29 20ZM33 20L33 21L31 21L31 22L33 22L33 21L34 21L34 20ZM38 21L38 24L39 24L39 25L40 25L40 24L39 24L39 23L40 23L40 22L41 22L41 21L40 21L40 22L39 22L39 21ZM46 22L46 23L47 23L47 22ZM5 23L5 26L8 26L8 23ZM23 23L23 26L26 26L26 23ZM41 23L41 26L44 26L44 23ZM6 24L6 25L7 25L7 24ZM24 24L24 25L25 25L25 24ZM27 24L27 25L28 25L28 26L27 26L27 27L28 27L28 28L29 28L29 25L30 25L30 24ZM33 24L33 25L34 25L34 24ZM42 24L42 25L43 25L43 24ZM35 25L35 26L36 26L36 27L35 27L35 29L36 29L36 27L37 27L37 28L38 28L38 29L40 29L40 30L38 30L38 31L37 31L37 30L36 30L36 31L35 31L35 33L34 33L34 32L33 32L33 33L32 33L32 30L31 30L31 31L30 31L30 30L29 30L29 32L30 32L30 33L31 33L31 34L35 34L35 33L36 33L36 32L38 32L38 31L41 31L41 33L43 33L43 32L44 32L44 31L42 31L42 30L41 30L41 29L40 29L40 28L38 28L38 27L37 27L37 26L36 26L36 25ZM33 26L33 27L34 27L34 26ZM1 28L1 29L2 29L2 28ZM10 28L10 29L11 29L11 28ZM25 28L25 29L23 29L23 30L25 30L25 31L23 31L23 33L24 33L24 34L25 34L25 35L24 35L24 37L23 37L23 39L24 39L24 38L25 38L25 39L26 39L26 38L25 38L25 37L26 37L26 36L25 36L25 35L26 35L26 34L25 34L25 33L26 33L26 32L28 32L28 30L27 30L27 29L26 29L26 28ZM25 29L25 30L26 30L26 31L25 31L25 32L26 32L26 31L27 31L27 30L26 30L26 29ZM9 30L9 31L8 31L8 32L9 32L9 31L10 31L10 30ZM14 30L14 31L13 31L13 32L12 32L12 35L15 35L15 36L17 36L17 38L18 38L18 37L20 37L20 40L21 40L21 41L18 41L18 40L19 40L19 39L15 39L15 38L16 38L16 37L14 37L14 39L15 39L15 42L13 42L13 43L15 43L15 45L14 45L14 46L13 46L13 47L15 47L15 48L17 48L17 46L20 46L20 48L22 48L22 47L23 47L23 48L24 48L24 46L22 46L22 47L21 47L21 45L22 45L22 44L21 44L21 43L22 43L22 42L21 42L21 41L22 41L22 40L21 40L21 37L20 37L20 36L21 36L21 35L20 35L20 33L19 33L19 35L18 35L18 36L17 36L17 35L15 35L15 32L18 32L18 31L16 31L16 30ZM33 30L33 31L34 31L34 30ZM45 30L45 31L46 31L46 30ZM13 32L13 33L14 33L14 32ZM7 33L7 34L9 34L9 33ZM17 33L17 34L18 34L18 33ZM27 33L27 34L29 34L29 33ZM1 35L1 36L2 36L2 35ZM19 35L19 36L20 36L20 35ZM30 35L30 36L27 36L27 37L28 37L28 38L29 38L29 37L30 37L30 36L31 36L31 35ZM8 37L8 38L9 38L9 37ZM30 38L30 39L29 39L29 40L30 40L30 41L29 41L29 42L31 42L31 43L32 43L32 42L31 42L31 41L32 41L32 38ZM44 39L44 40L45 40L45 39ZM6 40L6 41L7 41L7 40ZM34 40L34 41L33 41L33 43L34 43L34 41L35 41L35 40ZM37 40L37 41L39 41L39 40ZM16 41L16 42L15 42L15 43L16 43L16 42L17 42L17 43L18 43L18 44L17 44L17 45L19 45L19 44L20 44L20 45L21 45L21 44L20 44L20 42L18 42L18 41ZM23 41L23 44L26 44L26 41ZM41 41L41 44L44 44L44 41ZM11 42L11 43L12 43L12 42ZM24 42L24 43L25 43L25 42ZM35 42L35 44L36 44L36 45L37 45L37 44L38 44L38 42ZM42 42L42 43L43 43L43 42ZM36 43L36 44L37 44L37 43ZM46 43L46 46L45 46L45 45L43 45L43 46L42 46L42 47L46 47L46 46L47 46L47 47L48 47L48 46L47 46L47 44L48 44L48 43ZM11 44L11 46L10 46L10 47L11 47L11 48L12 48L12 44ZM27 44L27 45L26 45L26 46L25 46L25 48L28 48L28 47L29 47L29 45L28 45L28 44ZM27 45L27 46L26 46L26 47L27 47L27 46L28 46L28 45ZM39 45L39 46L41 46L41 45ZM31 46L31 47L32 47L32 46ZM18 47L18 48L19 48L19 47ZM0 0L0 7L7 7L7 0ZM1 1L1 6L6 6L6 1ZM2 2L2 5L5 5L5 2ZM42 0L42 7L49 7L49 0ZM43 1L43 6L48 6L48 1ZM44 2L44 5L47 5L47 2ZM0 42L0 49L7 49L7 42ZM1 43L1 48L6 48L6 43ZM2 44L2 47L5 47L5 44Z" fill="#000000"/></g></g></svg>
