<?xml version="1.0" encoding="UTF-8"?>
<svg xmlns="http://www.w3.org/2000/svg" version="1.1" width="100" height="100" viewBox="0 0 100 100"><rect x="0" y="0" width="100" height="100" fill="#ffffff"/><g transform="scale(1.887)"><g transform="translate(0,0)"><path fill-rule="evenodd" d="M8 0L8 1L10 1L10 4L9 4L9 2L8 2L8 5L10 5L10 7L9 7L9 6L8 6L8 7L9 7L9 8L8 8L8 11L7 11L7 10L6 10L6 9L7 9L7 8L6 8L6 9L4 9L4 8L0 8L0 9L1 9L1 10L0 10L0 12L1 12L1 13L0 13L0 14L1 14L1 13L2 13L2 14L4 14L4 15L1 15L1 17L2 17L2 20L1 20L1 19L0 19L0 20L1 20L1 21L0 21L0 22L2 22L2 24L1 24L1 23L0 23L0 25L2 25L2 26L0 26L0 27L2 27L2 28L1 28L1 29L2 29L2 30L3 30L3 29L4 29L4 31L2 31L2 32L1 32L1 30L0 30L0 32L1 32L1 33L0 33L0 35L2 35L2 36L1 36L1 37L0 37L0 38L3 38L3 39L5 39L5 40L4 40L4 42L3 42L3 43L2 43L2 42L0 42L0 43L1 43L1 44L3 44L3 45L4 45L4 44L3 44L3 43L7 43L7 42L5 42L5 40L6 40L6 41L8 41L8 42L9 42L9 43L8 43L8 44L6 44L6 45L8 45L8 46L9 46L9 47L10 47L10 48L9 48L9 49L8 49L8 53L9 53L9 52L10 52L10 53L12 53L12 52L13 52L13 53L14 53L14 52L15 52L15 53L16 53L16 51L18 51L18 53L19 53L19 52L20 52L20 51L22 51L22 52L21 52L21 53L22 53L22 52L23 52L23 53L24 53L24 49L26 49L26 50L25 50L25 53L28 53L28 52L26 52L26 51L29 51L29 52L31 52L31 51L29 51L29 49L31 49L31 48L32 48L32 50L33 50L33 51L32 51L32 53L34 53L34 52L33 52L33 51L36 51L36 50L37 50L37 52L35 52L35 53L38 53L38 50L39 50L39 51L40 51L40 52L41 52L41 53L45 53L45 49L48 49L48 50L49 50L49 51L50 51L50 52L49 52L49 53L52 53L52 52L53 52L53 50L52 50L52 49L51 49L51 47L52 47L52 48L53 48L53 46L51 46L51 47L50 47L50 48L49 48L49 45L50 45L50 44L51 44L51 43L49 43L49 44L48 44L48 42L47 42L47 41L46 41L46 40L49 40L49 41L50 41L50 40L51 40L51 41L52 41L52 42L53 42L53 41L52 41L52 40L51 40L51 38L52 38L52 39L53 39L53 35L51 35L51 36L50 36L50 38L48 38L48 37L46 37L46 38L45 38L45 36L44 36L44 35L43 35L43 36L42 36L42 35L41 35L41 36L42 36L42 40L41 40L41 37L40 37L40 38L39 38L39 37L38 37L38 36L35 36L35 35L34 35L34 34L35 34L35 32L34 32L34 31L33 31L33 32L34 32L34 34L33 34L33 33L31 33L31 32L32 32L32 30L30 30L30 29L33 29L33 30L35 30L35 31L37 31L37 33L39 33L39 35L40 35L40 34L42 34L42 33L40 33L40 32L39 32L39 31L38 31L38 30L39 30L39 28L40 28L40 30L41 30L41 31L43 31L43 32L45 32L45 33L43 33L43 34L45 34L45 35L46 35L46 36L48 36L48 33L49 33L49 34L50 34L50 33L51 33L51 32L52 32L52 33L53 33L53 29L52 29L52 28L53 28L53 27L51 27L51 24L52 24L52 23L53 23L53 22L52 22L52 21L53 21L53 19L51 19L51 18L50 18L50 21L48 21L48 19L49 19L49 15L48 15L48 11L46 11L46 10L47 10L47 9L46 9L46 8L45 8L45 6L44 6L44 7L43 7L43 3L44 3L44 4L45 4L45 3L44 3L44 1L43 1L43 0L42 0L42 1L41 1L41 0L40 0L40 1L38 1L38 0L37 0L37 2L36 2L36 3L35 3L35 2L33 2L33 0L27 0L27 1L26 1L26 0L18 0L18 1L21 1L21 2L20 2L20 3L18 3L18 4L20 4L20 5L19 5L19 6L18 6L18 7L19 7L19 9L17 9L17 8L16 8L16 7L17 7L17 6L16 6L16 4L17 4L17 2L16 2L16 0L15 0L15 1L14 1L14 0L13 0L13 1L12 1L12 2L14 2L14 3L13 3L13 5L14 5L14 7L15 7L15 8L14 8L14 9L15 9L15 8L16 8L16 11L15 11L15 10L13 10L13 8L11 8L11 6L12 6L12 7L13 7L13 6L12 6L12 5L10 5L10 4L11 4L11 0ZM34 0L34 1L35 1L35 0ZM22 1L22 2L21 2L21 5L20 5L20 6L19 6L19 7L20 7L20 6L21 6L21 8L20 8L20 9L19 9L19 10L17 10L17 11L16 11L16 13L15 13L15 14L14 14L14 16L13 16L13 12L12 12L12 11L13 11L13 10L12 10L12 9L11 9L11 10L9 10L9 12L7 12L7 11L6 11L6 10L5 10L5 11L4 11L4 10L1 10L1 12L3 12L3 13L4 13L4 14L5 14L5 13L6 13L6 14L8 14L8 15L9 15L9 16L8 16L8 17L9 17L9 19L10 19L10 17L11 17L11 19L12 19L12 20L11 20L11 21L10 21L10 24L11 24L11 27L10 27L10 26L9 26L9 29L8 29L8 30L7 30L7 29L5 29L5 30L7 30L7 31L6 31L6 32L4 32L4 33L3 33L3 34L4 34L4 36L2 36L2 37L3 37L3 38L4 38L4 37L5 37L5 33L6 33L6 34L8 34L8 32L9 32L9 29L10 29L10 30L11 30L11 28L13 28L13 29L12 29L12 32L13 32L13 31L16 31L16 32L17 32L17 31L16 31L16 30L18 30L18 31L21 31L21 33L20 33L20 32L19 32L19 33L20 33L20 34L18 34L18 33L16 33L16 35L15 35L15 36L14 36L14 35L13 35L13 33L11 33L11 31L10 31L10 35L8 35L8 36L10 36L10 35L11 35L11 34L12 34L12 35L13 35L13 36L11 36L11 38L10 38L10 37L8 37L8 39L10 39L10 40L11 40L11 41L10 41L10 43L9 43L9 44L8 44L8 45L9 45L9 44L10 44L10 43L11 43L11 44L12 44L12 45L13 45L13 47L12 47L12 46L10 46L10 47L11 47L11 48L10 48L10 49L11 49L11 48L14 48L14 49L12 49L12 50L13 50L13 52L14 52L14 49L15 49L15 50L17 50L17 48L18 48L18 51L20 51L20 49L21 49L21 50L22 50L22 49L21 49L21 48L22 48L22 47L23 47L23 48L24 48L24 44L23 44L23 43L25 43L25 44L26 44L26 43L27 43L27 44L30 44L30 45L31 45L31 42L32 42L32 46L33 46L33 47L32 47L32 48L33 48L33 47L34 47L34 46L33 46L33 45L34 45L34 44L37 44L37 45L38 45L38 46L39 46L39 47L37 47L37 46L36 46L36 45L35 45L35 47L36 47L36 48L34 48L34 49L36 49L36 48L37 48L37 49L38 49L38 48L39 48L39 49L41 49L41 48L39 48L39 47L41 47L41 46L44 46L44 45L42 45L42 44L43 44L43 43L44 43L44 42L42 42L42 43L41 43L41 40L39 40L39 38L38 38L38 39L37 39L37 37L34 37L34 35L33 35L33 36L31 36L31 33L27 33L27 32L26 32L26 31L28 31L28 32L31 32L31 31L30 31L30 30L27 30L27 29L26 29L26 31L25 31L25 32L24 32L24 31L23 31L23 30L21 30L21 29L20 29L20 30L18 30L18 29L16 29L16 27L17 27L17 28L19 28L19 25L18 25L18 24L20 24L20 25L21 25L21 22L20 22L20 21L21 21L21 20L20 20L20 19L18 19L18 20L19 20L19 21L17 21L17 18L20 18L20 17L18 17L18 16L19 16L19 15L15 15L15 14L16 14L16 13L18 13L18 14L19 14L19 13L20 13L20 16L21 16L21 19L23 19L23 21L26 21L26 22L25 22L25 24L26 24L26 22L27 22L27 20L24 20L24 19L23 19L23 18L26 18L26 19L28 19L28 20L29 20L29 21L31 21L31 18L32 18L32 19L33 19L33 17L34 17L34 18L35 18L35 15L34 15L34 14L35 14L35 12L36 12L36 11L37 11L37 12L40 12L40 11L42 11L42 12L41 12L41 13L43 13L43 16L42 16L42 17L41 17L41 16L40 16L40 14L39 14L39 13L37 13L37 14L36 14L36 15L37 15L37 14L38 14L38 16L36 16L36 18L37 18L37 19L36 19L36 20L35 20L35 19L34 19L34 20L35 20L35 21L33 21L33 20L32 20L32 22L33 22L33 23L31 23L31 22L28 22L28 23L27 23L27 24L30 24L30 25L31 25L31 26L29 26L29 29L30 29L30 27L33 27L33 28L34 28L34 29L35 29L35 30L36 30L36 29L37 29L37 30L38 30L38 28L39 28L39 26L40 26L40 25L38 25L38 24L39 24L39 23L37 23L37 22L40 22L40 23L42 23L42 24L43 24L43 25L42 25L42 26L41 26L41 27L40 27L40 28L41 28L41 30L43 30L43 31L45 31L45 30L47 30L47 31L46 31L46 32L51 32L51 31L49 31L49 30L47 30L47 29L44 29L44 28L43 28L43 29L42 29L42 26L43 26L43 27L44 27L44 26L43 26L43 25L44 25L44 24L45 24L45 23L46 23L46 20L47 20L47 19L48 19L48 16L47 16L47 15L46 15L46 14L47 14L47 13L46 13L46 11L45 11L45 10L46 10L46 9L44 9L44 8L43 8L43 7L42 7L42 4L41 4L41 1L40 1L40 2L37 2L37 4L36 4L36 6L35 6L35 3L32 3L32 4L33 4L33 5L29 5L29 9L26 9L26 10L27 10L27 11L28 11L28 14L29 14L29 11L30 11L30 12L31 12L31 11L32 11L32 10L31 10L31 8L32 8L32 6L33 6L33 7L34 7L34 8L33 8L33 11L34 11L34 8L35 8L35 7L36 7L36 6L37 6L37 7L38 7L38 6L39 6L39 9L37 9L37 8L36 8L36 9L37 9L37 10L35 10L35 12L32 12L32 13L33 13L33 14L31 14L31 13L30 13L30 14L31 14L31 15L33 15L33 17L32 17L32 16L29 16L29 15L28 15L28 17L26 17L26 16L27 16L27 14L25 14L25 10L22 10L22 9L21 9L21 8L23 8L23 9L24 9L24 8L23 8L23 7L24 7L24 6L23 6L23 7L22 7L22 6L21 6L21 5L24 5L24 4L23 4L23 3L22 3L22 2L23 2L23 1ZM25 1L25 2L24 2L24 3L25 3L25 4L26 4L26 3L25 3L25 2L26 2L26 1ZM28 1L28 2L30 2L30 3L27 3L27 4L30 4L30 3L31 3L31 2L30 2L30 1ZM15 2L15 3L14 3L14 5L15 5L15 4L16 4L16 2ZM42 2L42 3L43 3L43 2ZM40 4L40 5L39 5L39 6L40 6L40 7L41 7L41 8L40 8L40 10L39 10L39 11L40 11L40 10L42 10L42 11L44 11L44 10L42 10L42 9L43 9L43 8L42 8L42 7L41 7L41 4ZM25 5L25 8L28 8L28 5ZM37 5L37 6L38 6L38 5ZM15 6L15 7L16 7L16 6ZM26 6L26 7L27 7L27 6ZM30 6L30 7L31 7L31 6ZM34 6L34 7L35 7L35 6ZM9 8L9 9L10 9L10 8ZM41 8L41 9L42 9L42 8ZM48 8L48 9L49 9L49 11L51 11L51 12L52 12L52 9L53 9L53 8L52 8L52 9L51 9L51 8ZM29 9L29 10L30 10L30 9ZM50 9L50 10L51 10L51 9ZM11 10L11 11L10 11L10 12L9 12L9 13L8 13L8 14L9 14L9 15L12 15L12 14L10 14L10 13L11 13L11 11L12 11L12 10ZM20 10L20 11L17 11L17 12L20 12L20 13L21 13L21 15L23 15L23 14L22 14L22 12L23 12L23 13L24 13L24 11L22 11L22 10ZM3 11L3 12L4 12L4 11ZM14 11L14 12L15 12L15 11ZM20 11L20 12L21 12L21 11ZM6 12L6 13L7 13L7 12ZM26 12L26 13L27 13L27 12ZM44 12L44 15L45 15L45 12ZM49 13L49 14L50 14L50 15L51 15L51 16L50 16L50 17L52 17L52 18L53 18L53 17L52 17L52 14L53 14L53 13ZM41 14L41 15L42 15L42 14ZM6 15L6 16L3 16L3 19L5 19L5 20L4 20L4 21L5 21L5 22L4 22L4 23L3 23L3 26L4 26L4 23L6 23L6 24L7 24L7 23L6 23L6 22L7 22L7 21L5 21L5 20L7 20L7 19L8 19L8 18L7 18L7 17L6 17L6 16L7 16L7 15ZM25 15L25 16L24 16L24 17L25 17L25 16L26 16L26 15ZM9 16L9 17L10 17L10 16ZM14 16L14 17L16 17L16 18L17 18L17 17L16 17L16 16ZM22 16L22 17L23 17L23 16ZM43 16L43 18L44 18L44 19L43 19L43 20L46 20L46 19L45 19L45 16ZM46 16L46 18L47 18L47 16ZM4 17L4 18L5 18L5 17ZM28 17L28 18L29 18L29 19L30 19L30 18L29 18L29 17ZM38 17L38 18L39 18L39 17ZM6 18L6 19L7 19L7 18ZM12 18L12 19L13 19L13 21L12 21L12 22L11 22L11 23L12 23L12 25L14 25L14 26L12 26L12 27L13 27L13 28L15 28L15 27L14 27L14 26L17 26L17 27L18 27L18 26L17 26L17 25L16 25L16 24L18 24L18 22L17 22L17 21L16 21L16 20L15 20L15 19L14 19L14 18ZM41 18L41 19L42 19L42 18ZM37 19L37 20L36 20L36 21L35 21L35 22L36 22L36 21L37 21L37 20L39 20L39 19ZM8 20L8 21L9 21L9 20ZM14 20L14 21L15 21L15 22L14 22L14 23L17 23L17 22L16 22L16 21L15 21L15 20ZM41 20L41 21L40 21L40 22L41 22L41 21L42 21L42 22L43 22L43 23L45 23L45 22L43 22L43 21L42 21L42 20ZM50 21L50 24L51 24L51 23L52 23L52 22L51 22L51 21ZM12 22L12 23L13 23L13 22ZM19 22L19 23L20 23L20 22ZM22 22L22 25L24 25L24 24L23 24L23 22ZM47 22L47 23L48 23L48 24L49 24L49 22ZM33 23L33 24L31 24L31 25L32 25L32 26L33 26L33 25L34 25L34 26L37 26L37 25L36 25L36 24L37 24L37 23ZM5 25L5 28L8 28L8 25ZM25 25L25 28L28 28L28 25ZM45 25L45 28L48 28L48 25ZM6 26L6 27L7 27L7 26ZM20 26L20 28L21 28L21 26ZM26 26L26 27L27 27L27 26ZM46 26L46 27L47 27L47 26ZM49 26L49 27L50 27L50 30L52 30L52 29L51 29L51 27L50 27L50 26ZM3 27L3 28L4 28L4 27ZM22 27L22 28L23 28L23 29L24 29L24 30L25 30L25 29L24 29L24 27ZM35 27L35 28L36 28L36 27ZM37 27L37 28L38 28L38 27ZM13 29L13 30L14 30L14 29ZM22 31L22 33L21 33L21 34L20 34L20 35L22 35L22 34L23 34L23 35L24 35L24 37L23 37L23 36L20 36L20 37L22 37L22 40L23 40L23 42L24 42L24 40L23 40L23 38L24 38L24 39L25 39L25 38L26 38L26 37L25 37L25 36L26 36L26 35L27 35L27 36L28 36L28 37L27 37L27 39L26 39L26 40L25 40L25 43L26 43L26 40L27 40L27 41L28 41L28 43L30 43L30 42L31 42L31 41L32 41L32 42L33 42L33 41L34 41L34 42L35 42L35 43L37 43L37 44L40 44L40 46L41 46L41 43L39 43L39 41L38 41L38 42L37 42L37 41L35 41L35 40L34 40L34 39L36 39L36 40L37 40L37 39L36 39L36 38L33 38L33 37L32 37L32 38L33 38L33 39L31 39L31 38L28 38L28 37L29 37L29 36L30 36L30 34L26 34L26 33L25 33L25 34L24 34L24 33L23 33L23 31ZM6 32L6 33L7 33L7 32ZM14 32L14 34L15 34L15 32ZM1 33L1 34L2 34L2 33ZM45 33L45 34L46 34L46 35L47 35L47 33ZM37 34L37 35L38 35L38 34ZM6 35L6 36L7 36L7 35ZM16 35L16 37L15 37L15 38L14 38L14 36L13 36L13 37L12 37L12 38L14 38L14 40L13 40L13 39L11 39L11 40L12 40L12 44L13 44L13 42L14 42L14 40L15 40L15 38L17 38L17 37L18 37L18 38L19 38L19 39L17 39L17 42L16 42L16 41L15 41L15 44L17 44L17 42L18 42L18 44L22 44L22 45L23 45L23 44L22 44L22 43L20 43L20 42L22 42L22 41L19 41L19 42L18 42L18 40L20 40L20 39L21 39L21 38L19 38L19 37L18 37L18 36L19 36L19 35L18 35L18 36L17 36L17 35ZM43 36L43 37L44 37L44 36ZM51 36L51 37L52 37L52 36ZM6 37L6 38L7 38L7 37ZM44 38L44 39L45 39L45 38ZM46 38L46 39L47 39L47 38ZM1 39L1 41L2 41L2 39ZM6 39L6 40L7 40L7 39ZM30 40L30 41L31 41L31 40ZM45 41L45 42L46 42L46 44L47 44L47 42L46 42L46 41ZM33 43L33 44L34 44L34 43ZM52 43L52 44L53 44L53 43ZM14 45L14 48L17 48L17 45ZM18 45L18 48L19 48L19 46L20 46L20 47L22 47L22 46L21 46L21 45ZM25 45L25 48L28 48L28 45ZM45 45L45 48L48 48L48 45ZM15 46L15 47L16 47L16 46ZM26 46L26 47L27 47L27 46ZM30 46L30 48L31 48L31 46ZM46 46L46 47L47 47L47 46ZM42 47L42 50L41 50L41 51L43 51L43 49L44 49L44 47ZM27 49L27 50L28 50L28 49ZM50 50L50 51L51 51L51 52L52 52L52 50ZM10 51L10 52L11 52L11 51ZM46 51L46 53L47 53L47 51ZM0 0L0 7L7 7L7 0ZM1 1L1 6L6 6L6 1ZM2 2L2 5L5 5L5 2ZM46 0L46 7L53 7L53 0ZM47 1L47 6L52 6L52 1ZM48 2L48 5L51 5L51 2ZM0 46L0 53L7 53L7 46ZM1 47L1 52L6 52L6 47ZM2 48L2 51L5 51L5 48Z" fill="#000000"/></g></g></svg>
