<?xml version="1.0" encoding="UTF-8"?>
<svg xmlns="http://www.w3.org/2000/svg" version="1.1" width="100" height="100" viewBox="0 0 100 100"><rect x="0" y="0" width="100" height="100" fill="#ffffff"/><g transform="scale(1.754)"><g transform="translate(0,0)"><path fill-rule="evenodd" d="M8 0L8 4L10 4L10 7L11 7L11 6L12 6L12 8L11 8L11 9L9 9L9 10L8 10L8 9L7 9L7 8L4 8L4 9L2 9L2 8L0 8L0 9L2 9L2 10L0 10L0 13L1 13L1 15L0 15L0 16L1 16L1 17L0 17L0 19L1 19L1 17L3 17L3 15L2 15L2 14L3 14L3 13L4 13L4 15L8 15L8 17L7 17L7 16L6 16L6 17L7 17L7 18L6 18L6 19L3 19L3 18L2 18L2 20L5 20L5 21L7 21L7 22L5 22L5 23L7 23L7 22L8 22L8 23L9 23L9 24L11 24L11 22L12 22L12 20L13 20L13 21L14 21L14 22L13 22L13 23L12 23L12 24L13 24L13 25L14 25L14 27L13 27L13 26L12 26L12 28L11 28L11 25L10 25L10 28L9 28L9 25L7 25L7 24L5 24L5 26L4 26L4 23L3 23L3 24L0 24L0 25L1 25L1 28L0 28L0 31L1 31L1 32L0 32L0 33L3 33L3 34L5 34L5 33L4 33L4 31L9 31L9 29L10 29L10 31L11 31L11 32L13 32L13 31L11 31L11 29L13 29L13 28L15 28L15 27L16 27L16 29L15 29L15 31L16 31L16 32L15 32L15 33L13 33L13 34L12 34L12 35L11 35L11 34L10 34L10 33L8 33L8 35L7 35L7 34L6 34L6 35L5 35L5 36L6 36L6 37L5 37L5 38L4 38L4 35L2 35L2 37L0 37L0 40L1 40L1 41L0 41L0 48L5 48L5 47L7 47L7 48L6 48L6 49L8 49L8 50L10 50L10 49L9 49L9 47L10 47L10 48L11 48L11 52L12 52L12 53L9 53L9 51L8 51L8 53L9 53L9 54L12 54L12 53L15 53L15 55L16 55L16 54L18 54L18 53L19 53L19 55L20 55L20 54L21 54L21 52L20 52L20 51L23 51L23 50L20 50L20 49L23 49L23 48L22 48L22 47L24 47L24 46L25 46L25 47L26 47L26 49L24 49L24 50L26 50L26 51L25 51L25 52L24 52L24 53L23 53L23 54L22 54L22 55L21 55L21 56L23 56L23 55L24 55L24 56L25 56L25 57L28 57L28 54L27 54L27 56L26 56L26 53L29 53L29 54L30 54L30 55L29 55L29 56L31 56L31 57L32 57L32 56L31 56L31 55L32 55L32 54L31 54L31 52L32 52L32 53L33 53L33 54L34 54L34 56L36 56L36 57L40 57L40 56L41 56L41 57L46 57L46 56L47 56L47 57L52 57L52 55L51 55L51 56L50 56L50 55L49 55L49 56L48 56L48 54L45 54L45 55L43 55L43 56L41 56L41 53L42 53L42 54L44 54L44 53L43 53L43 52L45 52L45 53L47 53L47 48L48 48L48 53L50 53L50 54L55 54L55 53L56 53L56 54L57 54L57 51L54 51L54 50L57 50L57 43L56 43L56 40L57 40L57 39L56 39L56 38L57 38L57 36L56 36L56 37L55 37L55 35L57 35L57 34L56 34L56 33L57 33L57 32L56 32L56 33L55 33L55 31L57 31L57 30L56 30L56 29L57 29L57 28L56 28L56 29L54 29L54 28L55 28L55 27L56 27L56 25L57 25L57 24L54 24L54 23L53 23L53 22L57 22L57 18L56 18L56 17L57 17L57 12L56 12L56 11L55 11L55 10L56 10L56 9L57 9L57 8L53 8L53 9L52 9L52 8L51 8L51 9L50 9L50 10L49 10L49 11L51 11L51 10L52 10L52 12L51 12L51 13L48 13L48 12L47 12L47 11L48 11L48 8L47 8L47 5L48 5L48 0L46 0L46 1L47 1L47 2L46 2L46 3L47 3L47 5L46 5L46 4L45 4L45 3L44 3L44 2L45 2L45 1L43 1L43 0L42 0L42 2L43 2L43 3L42 3L42 4L43 4L43 5L41 5L41 2L40 2L40 1L39 1L39 0L37 0L37 1L35 1L35 0L34 0L34 1L33 1L33 0L31 0L31 1L30 1L30 0L29 0L29 2L31 2L31 3L32 3L32 4L28 4L28 1L27 1L27 0L26 0L26 2L27 2L27 4L26 4L26 3L25 3L25 4L24 4L24 5L23 5L23 4L22 4L22 5L21 5L21 6L20 6L20 5L18 5L18 4L17 4L17 2L18 2L18 3L20 3L20 1L21 1L21 3L23 3L23 2L24 2L24 1L25 1L25 0L24 0L24 1L23 1L23 2L22 2L22 1L21 1L21 0L20 0L20 1L19 1L19 0L18 0L18 1L17 1L17 0L14 0L14 1L11 1L11 0L10 0L10 1L9 1L9 0ZM10 1L10 2L9 2L9 3L10 3L10 2L11 2L11 1ZM15 1L15 5L16 5L16 6L15 6L15 7L16 7L16 6L17 6L17 8L15 8L15 9L14 9L14 5L13 5L13 8L12 8L12 9L11 9L11 10L12 10L12 9L13 9L13 10L15 10L15 12L14 12L14 11L13 11L13 13L12 13L12 11L10 11L10 12L11 12L11 14L10 14L10 13L8 13L8 15L9 15L9 14L10 14L10 16L9 16L9 17L8 17L8 20L7 20L7 19L6 19L6 20L7 20L7 21L8 21L8 22L9 22L9 21L11 21L11 20L9 20L9 17L10 17L10 18L13 18L13 19L14 19L14 20L15 20L15 21L17 21L17 20L16 20L16 19L18 19L18 22L16 22L16 23L15 23L15 22L14 22L14 23L13 23L13 24L14 24L14 23L15 23L15 24L16 24L16 25L17 25L17 23L18 23L18 25L19 25L19 24L21 24L21 25L20 25L20 28L21 28L21 29L22 29L22 30L20 30L20 29L19 29L19 28L18 28L18 29L17 29L17 32L16 32L16 33L17 33L17 35L18 35L18 36L16 36L16 35L15 35L15 36L16 36L16 37L14 37L14 36L13 36L13 37L12 37L12 36L11 36L11 37L10 37L10 34L9 34L9 40L8 40L8 37L6 37L6 38L5 38L5 40L4 40L4 38L2 38L2 39L3 39L3 40L2 40L2 41L1 41L1 43L2 43L2 44L1 44L1 45L2 45L2 44L4 44L4 43L6 43L6 44L5 44L5 45L6 45L6 46L7 46L7 45L8 45L8 44L7 44L7 43L8 43L8 42L9 42L9 45L10 45L10 46L11 46L11 47L12 47L12 48L13 48L13 49L12 49L12 50L13 50L13 49L14 49L14 50L15 50L15 49L14 49L14 48L16 48L16 47L20 47L20 48L19 48L19 49L20 49L20 48L21 48L21 47L22 47L22 46L24 46L24 45L25 45L25 44L26 44L26 45L28 45L28 46L26 46L26 47L27 47L27 48L28 48L28 47L31 47L31 49L32 49L32 48L33 48L33 49L35 49L35 52L34 52L34 50L32 50L32 52L33 52L33 53L35 53L35 55L38 55L38 56L40 56L40 54L39 54L39 53L41 53L41 52L43 52L43 50L42 50L42 48L43 48L43 49L45 49L45 50L44 50L44 51L46 51L46 49L45 49L45 48L46 48L46 47L47 47L47 45L45 45L45 44L46 44L46 43L45 43L45 42L46 42L46 41L47 41L47 42L48 42L48 45L49 45L49 47L51 47L51 48L52 48L52 47L53 47L53 48L54 48L54 47L56 47L56 46L54 46L54 47L53 47L53 46L52 46L52 47L51 47L51 46L50 46L50 44L51 44L51 45L52 45L52 43L51 43L51 41L52 41L52 42L53 42L53 41L54 41L54 40L56 40L56 39L55 39L55 38L53 38L53 36L52 36L52 35L54 35L54 34L52 34L52 35L51 35L51 33L50 33L50 31L49 31L49 32L48 32L48 31L47 31L47 33L48 33L48 34L49 34L49 33L50 33L50 35L49 35L49 36L48 36L48 35L47 35L47 36L46 36L46 35L45 35L45 34L46 34L46 33L45 33L45 34L44 34L44 35L43 35L43 34L42 34L42 35L40 35L40 34L41 34L41 33L42 33L42 32L43 32L43 33L44 33L44 32L45 32L45 31L46 31L46 27L47 27L47 28L48 28L48 26L51 26L51 25L48 25L48 24L49 24L49 23L48 23L48 21L47 21L47 20L50 20L50 21L49 21L49 22L51 22L51 23L50 23L50 24L52 24L52 25L53 25L53 26L54 26L54 24L53 24L53 23L52 23L52 22L53 22L53 21L54 21L54 20L53 20L53 21L52 21L52 18L53 18L53 19L54 19L54 17L52 17L52 16L53 16L53 15L54 15L54 16L55 16L55 17L56 17L56 16L55 16L55 15L56 15L56 12L55 12L55 11L54 11L54 10L55 10L55 9L54 9L54 10L53 10L53 12L52 12L52 13L51 13L51 14L49 14L49 15L48 15L48 13L46 13L46 11L47 11L47 8L46 8L46 6L45 6L45 8L46 8L46 11L45 11L45 9L44 9L44 8L43 8L43 7L44 7L44 5L45 5L45 4L44 4L44 5L43 5L43 7L42 7L42 6L41 6L41 5L40 5L40 2L38 2L38 1L37 1L37 2L35 2L35 3L37 3L37 2L38 2L38 4L39 4L39 5L40 5L40 6L39 6L39 7L38 7L38 5L37 5L37 4L34 4L34 5L33 5L33 4L32 4L32 5L31 5L31 7L32 7L32 8L31 8L31 9L32 9L32 11L31 11L31 10L30 10L30 11L29 11L29 13L30 13L30 12L32 12L32 13L31 13L31 15L30 15L30 14L29 14L29 18L28 18L28 17L27 17L27 18L26 18L26 16L27 16L27 15L28 15L28 13L27 13L27 14L26 14L26 13L25 13L25 11L26 11L26 6L25 6L25 7L24 7L24 6L23 6L23 5L22 5L22 6L21 6L21 9L20 9L20 10L21 10L21 11L20 11L20 12L19 12L19 10L18 10L18 11L17 11L17 12L16 12L16 10L17 10L17 9L18 9L18 8L19 8L19 7L20 7L20 6L19 6L19 7L18 7L18 6L17 6L17 4L16 4L16 2L17 2L17 1ZM31 1L31 2L32 2L32 3L34 3L34 2L32 2L32 1ZM11 3L11 5L12 5L12 3ZM13 3L13 4L14 4L14 3ZM8 5L8 7L9 7L9 5ZM27 5L27 8L30 8L30 5ZM32 5L32 7L33 7L33 5ZM35 5L35 6L34 6L34 8L35 8L35 6L36 6L36 8L38 8L38 10L39 10L39 8L40 8L40 9L41 9L41 10L40 10L40 11L39 11L39 12L40 12L40 15L39 15L39 13L38 13L38 15L36 15L36 17L35 17L35 15L34 15L34 17L33 17L33 15L32 15L32 17L33 17L33 19L34 19L34 20L35 20L35 21L34 21L34 24L33 24L33 26L34 26L34 27L32 27L32 25L31 25L31 24L29 24L29 23L30 23L30 22L31 22L31 23L32 23L32 21L31 21L31 20L29 20L29 22L28 22L28 19L27 19L27 22L26 22L26 23L25 23L25 22L24 22L24 21L26 21L26 19L25 19L25 18L24 18L24 16L23 16L23 18L22 18L22 16L21 16L21 18L20 18L20 19L21 19L21 18L22 18L22 20L20 20L20 21L19 21L19 23L20 23L20 22L21 22L21 23L24 23L24 25L25 25L25 26L24 26L24 27L26 27L26 30L25 30L25 28L23 28L23 26L22 26L22 25L21 25L21 27L22 27L22 28L23 28L23 29L24 29L24 30L22 30L22 31L21 31L21 32L22 32L22 31L24 31L24 30L25 30L25 31L26 31L26 32L27 32L27 31L28 31L28 32L29 32L29 33L30 33L30 34L31 34L31 35L28 35L28 36L29 36L29 38L27 38L27 37L26 37L26 36L27 36L27 35L26 35L26 36L22 36L22 35L24 35L24 33L25 33L25 32L23 32L23 33L22 33L22 35L21 35L21 33L19 33L19 32L20 32L20 30L19 30L19 29L18 29L18 30L19 30L19 31L18 31L18 32L17 32L17 33L18 33L18 34L20 34L20 35L19 35L19 37L18 37L18 38L19 38L19 37L21 37L21 38L20 38L20 39L19 39L19 40L17 40L17 38L16 38L16 39L15 39L15 38L13 38L13 39L15 39L15 40L11 40L11 39L10 39L10 40L9 40L9 42L10 42L10 41L11 41L11 42L12 42L12 41L15 41L15 40L16 40L16 42L17 42L17 43L16 43L16 44L15 44L15 42L14 42L14 44L13 44L13 45L12 45L12 47L14 47L14 46L13 46L13 45L14 45L14 44L15 44L15 46L16 46L16 45L17 45L17 46L19 46L19 45L20 45L20 42L21 42L21 41L20 41L20 42L19 42L19 40L22 40L22 42L23 42L23 41L24 41L24 43L23 43L23 44L22 44L22 43L21 43L21 45L24 45L24 43L25 43L25 42L26 42L26 41L27 41L27 42L28 42L28 45L29 45L29 46L31 46L31 47L32 47L32 46L33 46L33 47L34 47L34 48L35 48L35 49L36 49L36 50L37 50L37 49L38 49L38 50L39 50L39 51L41 51L41 49L39 49L39 48L38 48L38 47L40 47L40 48L41 48L41 47L43 47L43 48L44 48L44 46L45 46L45 45L43 45L43 46L42 46L42 45L39 45L39 46L38 46L38 47L37 47L37 48L35 48L35 46L33 46L33 45L35 45L35 43L34 43L34 41L35 41L35 40L37 40L37 41L36 41L36 42L37 42L37 43L36 43L36 45L38 45L38 44L37 44L37 43L39 43L39 44L40 44L40 43L41 43L41 42L40 42L40 40L41 40L41 41L42 41L42 39L43 39L43 40L44 40L44 41L43 41L43 43L44 43L44 44L45 44L45 43L44 43L44 42L45 42L45 40L44 40L44 37L45 37L45 38L46 38L46 40L47 40L47 41L49 41L49 43L50 43L50 41L51 41L51 40L53 40L53 39L49 39L49 38L47 38L47 37L45 37L45 36L44 36L44 37L43 37L43 38L41 38L41 36L38 36L38 35L39 35L39 34L38 34L38 35L37 35L37 36L36 36L36 37L35 37L35 35L36 35L36 33L41 33L41 30L40 30L40 32L38 32L38 31L39 31L39 29L41 29L41 28L40 28L40 27L41 27L41 26L43 26L43 24L41 24L41 23L44 23L44 21L43 21L43 20L45 20L45 23L46 23L46 24L44 24L44 25L45 25L45 27L46 27L46 24L48 24L48 23L47 23L47 22L46 22L46 20L47 20L47 19L46 19L46 20L45 20L45 19L44 19L44 18L45 18L45 17L44 17L44 14L45 14L45 12L44 12L44 9L43 9L43 8L40 8L40 7L41 7L41 6L40 6L40 7L39 7L39 8L38 8L38 7L37 7L37 5ZM22 6L22 8L24 8L24 9L25 9L25 8L24 8L24 7L23 7L23 6ZM28 6L28 7L29 7L29 6ZM48 6L48 7L49 7L49 6ZM32 8L32 9L33 9L33 10L34 10L34 12L33 12L33 13L37 13L37 12L38 12L38 11L35 11L35 9L33 9L33 8ZM5 9L5 10L7 10L7 9ZM15 9L15 10L16 10L16 9ZM22 9L22 10L23 10L23 9ZM27 9L27 12L28 12L28 9ZM2 10L2 11L1 11L1 12L2 12L2 13L3 13L3 12L7 12L7 11L4 11L4 10ZM24 10L24 11L23 11L23 12L22 12L22 11L21 11L21 13L23 13L23 14L22 14L22 15L23 15L23 14L24 14L24 15L25 15L25 13L24 13L24 11L25 11L25 10ZM42 10L42 11L40 11L40 12L41 12L41 15L40 15L40 16L39 16L39 15L38 15L38 16L37 16L37 17L38 17L38 19L37 19L37 18L35 18L35 19L37 19L37 20L36 20L36 21L35 21L35 22L36 22L36 24L37 24L37 21L39 21L39 22L38 22L38 24L39 24L39 25L37 25L37 26L35 26L35 25L34 25L34 26L35 26L35 29L36 29L36 32L37 32L37 29L39 29L39 25L41 25L41 24L40 24L40 21L42 21L42 22L43 22L43 21L42 21L42 20L43 20L43 19L41 19L41 20L40 20L40 21L39 21L39 19L40 19L40 16L41 16L41 17L43 17L43 14L42 14L42 13L43 13L43 10ZM8 11L8 12L9 12L9 11ZM15 12L15 13L13 13L13 15L12 15L12 14L11 14L11 15L12 15L12 17L13 17L13 18L15 18L15 19L16 19L16 18L19 18L19 16L20 16L20 15L21 15L21 14L20 14L20 15L16 15L16 14L19 14L19 12L18 12L18 13L16 13L16 12ZM53 12L53 13L52 13L52 15L51 15L51 16L50 16L50 15L49 15L49 16L47 16L47 15L46 15L46 16L47 16L47 17L48 17L48 18L50 18L50 19L51 19L51 16L52 16L52 15L53 15L53 14L55 14L55 12ZM6 13L6 14L7 14L7 13ZM15 13L15 14L14 14L14 15L15 15L15 16L14 16L14 17L15 17L15 18L16 18L16 17L15 17L15 16L16 16L16 15L15 15L15 14L16 14L16 13ZM4 16L4 18L5 18L5 16ZM17 16L17 17L18 17L18 16ZM49 16L49 17L50 17L50 16ZM30 17L30 19L32 19L32 18L31 18L31 17ZM55 18L55 21L56 21L56 18ZM24 19L24 20L22 20L22 21L21 21L21 22L23 22L23 21L24 21L24 20L25 20L25 19ZM8 20L8 21L9 21L9 20ZM0 21L0 22L1 22L1 21ZM2 21L2 22L4 22L4 21ZM27 22L27 24L28 24L28 22ZM6 25L6 26L7 26L7 25ZM27 25L27 26L29 26L29 25ZM2 26L2 27L3 27L3 28L2 28L2 29L3 29L3 31L2 31L2 32L3 32L3 31L4 31L4 27L3 27L3 26ZM17 26L17 27L18 27L18 26ZM5 27L5 30L8 30L8 27ZM27 27L27 30L30 30L30 27ZM31 27L31 28L32 28L32 27ZM36 27L36 29L37 29L37 28L38 28L38 27ZM49 27L49 30L52 30L52 27ZM53 27L53 28L54 28L54 27ZM6 28L6 29L7 29L7 28ZM10 28L10 29L11 29L11 28ZM28 28L28 29L29 29L29 28ZM33 28L33 29L34 29L34 28ZM44 28L44 30L43 30L43 31L44 31L44 30L45 30L45 28ZM50 28L50 29L51 29L51 28ZM47 29L47 30L48 30L48 29ZM32 30L32 32L31 32L31 34L32 34L32 35L31 35L31 36L32 36L32 35L33 35L33 36L34 36L34 35L33 35L33 34L34 34L34 33L33 33L33 34L32 34L32 32L33 32L33 31L35 31L35 30ZM53 30L53 31L54 31L54 30ZM51 31L51 32L52 32L52 33L54 33L54 32L52 32L52 31ZM6 32L6 33L7 33L7 32ZM27 33L27 34L28 34L28 33ZM0 34L0 36L1 36L1 34ZM13 34L13 35L14 35L14 34ZM6 35L6 36L7 36L7 35ZM20 35L20 36L21 36L21 35ZM50 35L50 38L51 38L51 37L52 37L52 36L51 36L51 35ZM23 37L23 39L24 39L24 41L25 41L25 40L26 40L26 39L25 39L25 38L26 38L26 37L25 37L25 38L24 38L24 37ZM32 37L32 39L31 39L31 40L32 40L32 39L33 39L33 41L34 41L34 39L35 39L35 37L34 37L34 38L33 38L33 37ZM36 37L36 39L38 39L38 40L39 40L39 39L38 39L38 38L40 38L40 37ZM6 38L6 39L7 39L7 38ZM21 38L21 39L22 39L22 38ZM29 38L29 40L27 40L27 41L28 41L28 42L29 42L29 44L30 44L30 43L31 43L31 46L32 46L32 44L34 44L34 43L33 43L33 42L32 42L32 41L29 41L29 40L30 40L30 38ZM48 39L48 40L49 40L49 41L50 41L50 40L49 40L49 39ZM5 40L5 41L7 41L7 42L6 42L6 43L7 43L7 42L8 42L8 41L7 41L7 40ZM2 41L2 43L3 43L3 42L4 42L4 41ZM17 41L17 42L18 42L18 43L17 43L17 45L18 45L18 44L19 44L19 42L18 42L18 41ZM31 42L31 43L32 43L32 42ZM39 42L39 43L40 43L40 42ZM10 43L10 45L11 45L11 43ZM26 43L26 44L27 44L27 43ZM55 43L55 45L56 45L56 43ZM6 44L6 45L7 45L7 44ZM53 44L53 45L54 45L54 44ZM3 45L3 47L5 47L5 46L4 46L4 45ZM1 46L1 47L2 47L2 46ZM17 48L17 49L18 49L18 48ZM55 48L55 49L56 49L56 48ZM27 49L27 52L30 52L30 49ZM49 49L49 52L52 52L52 49ZM16 50L16 51L17 51L17 52L15 52L15 51L14 51L14 52L15 52L15 53L17 53L17 52L18 52L18 51L20 51L20 50ZM28 50L28 51L29 51L29 50ZM50 50L50 51L51 51L51 50ZM36 51L36 53L37 53L37 54L38 54L38 55L39 55L39 54L38 54L38 51ZM53 51L53 52L54 52L54 51ZM19 52L19 53L20 53L20 52ZM25 52L25 53L24 53L24 54L25 54L25 53L26 53L26 52ZM8 55L8 57L9 57L9 56L10 56L10 57L16 57L16 56L13 56L13 55L12 55L12 56L11 56L11 55ZM45 55L45 56L46 56L46 55ZM55 55L55 56L53 56L53 57L55 57L55 56L56 56L56 57L57 57L57 55ZM17 56L17 57L20 57L20 56ZM0 0L0 7L7 7L7 0ZM1 1L1 6L6 6L6 1ZM2 2L2 5L5 5L5 2ZM50 0L50 7L57 7L57 0ZM51 1L51 6L56 6L56 1ZM52 2L52 5L55 5L55 2ZM0 50L0 57L7 57L7 50ZM1 51L1 56L6 56L6 51ZM2 52L2 55L5 55L5 52Z" fill="#000000"/></g></g></svg>
