<?xml version="1.0" encoding="UTF-8"?>
<svg xmlns="http://www.w3.org/2000/svg" version="1.1" width="100" height="100" viewBox="0 0 100 100"><rect x="0" y="0" width="100" height="100" fill="#ffffff"/><g transform="scale(1.887)"><g transform="translate(0,0)"><path fill-rule="evenodd" d="M8 0L8 1L9 1L9 0ZM11 0L11 1L10 1L10 2L8 2L8 5L9 5L9 6L8 6L8 7L9 7L9 6L10 6L10 8L11 8L11 6L12 6L12 9L13 9L13 5L14 5L14 7L15 7L15 6L16 6L16 7L17 7L17 6L16 6L16 5L17 5L17 4L18 4L18 5L19 5L19 6L18 6L18 7L19 7L19 8L21 8L21 10L19 10L19 9L17 9L17 8L16 8L16 11L15 11L15 10L13 10L13 11L12 11L12 10L11 10L11 11L10 11L10 10L8 10L8 9L9 9L9 8L8 8L8 9L7 9L7 8L6 8L6 9L7 9L7 10L6 10L6 11L10 11L10 12L9 12L9 13L7 13L7 12L5 12L5 11L1 11L1 10L0 10L0 11L1 11L1 13L0 13L0 17L1 17L1 18L3 18L3 19L2 19L2 20L1 20L1 19L0 19L0 23L3 23L3 25L0 25L0 26L3 26L3 27L4 27L4 29L5 29L5 31L7 31L7 30L6 30L6 29L9 29L9 27L10 27L10 29L11 29L11 27L13 27L13 26L12 26L12 25L11 25L11 24L13 24L13 25L14 25L14 26L17 26L17 27L16 27L16 28L15 28L15 30L16 30L16 31L13 31L13 34L14 34L14 36L15 36L15 37L14 37L14 40L12 40L12 38L13 38L13 37L12 37L12 38L11 38L11 37L10 37L10 38L11 38L11 40L10 40L10 39L8 39L8 38L6 38L6 37L7 37L7 36L5 36L5 35L7 35L7 34L9 34L9 35L10 35L10 36L13 36L13 35L12 35L12 33L11 33L11 34L9 34L9 33L10 33L10 32L12 32L12 31L11 31L11 30L10 30L10 31L9 31L9 30L8 30L8 32L9 32L9 33L7 33L7 32L5 32L5 33L7 33L7 34L3 34L3 35L2 35L2 34L1 34L1 35L2 35L2 36L5 36L5 38L6 38L6 39L4 39L4 38L2 38L2 41L1 41L1 40L0 40L0 41L1 41L1 42L0 42L0 43L1 43L1 44L3 44L3 45L4 45L4 44L3 44L3 43L7 43L7 44L6 44L6 45L8 45L8 46L9 46L9 45L11 45L11 46L13 46L13 48L12 48L12 47L10 47L10 49L11 49L11 50L13 50L13 49L15 49L15 48L17 48L17 50L15 50L15 52L14 52L14 51L10 51L10 50L9 50L9 49L8 49L8 53L9 53L9 52L14 52L14 53L17 53L17 52L16 52L16 51L18 51L18 53L19 53L19 52L20 52L20 53L21 53L21 51L22 51L22 53L23 53L23 50L22 50L22 48L23 48L23 49L24 49L24 50L26 50L26 49L29 49L29 48L30 48L30 49L32 49L32 50L33 50L33 51L32 51L32 52L31 52L31 51L29 51L29 50L27 50L27 53L28 53L28 52L31 52L31 53L34 53L34 52L33 52L33 51L35 51L35 53L36 53L36 52L37 52L37 53L40 53L40 52L42 52L42 53L47 53L47 52L49 52L49 53L52 53L52 52L53 52L53 50L52 50L52 49L49 49L49 48L50 48L50 45L51 45L51 47L52 47L52 46L53 46L53 45L51 45L51 44L48 44L48 42L47 42L47 41L49 41L49 38L50 38L50 39L51 39L51 40L50 40L50 41L52 41L52 42L53 42L53 41L52 41L52 39L53 39L53 38L51 38L51 37L50 37L50 36L51 36L51 34L50 34L50 33L49 33L49 32L50 32L50 31L51 31L51 30L53 30L53 29L52 29L52 27L53 27L53 25L52 25L52 23L51 23L51 25L50 25L50 23L49 23L49 24L47 24L47 22L46 22L46 23L45 23L45 22L43 22L43 23L45 23L45 24L44 24L44 27L42 27L42 26L43 26L43 25L40 25L40 24L42 24L42 23L40 23L40 22L41 22L41 21L45 21L45 20L46 20L46 19L47 19L47 21L48 21L48 22L50 22L50 21L51 21L51 20L52 20L52 22L53 22L53 18L50 18L50 19L51 19L51 20L50 20L50 21L48 21L48 19L49 19L49 17L48 17L48 18L47 18L47 16L46 16L46 19L45 19L45 18L44 18L44 17L45 17L45 16L44 16L44 17L43 17L43 13L41 13L41 14L39 14L39 13L40 13L40 8L41 8L41 5L42 5L42 7L43 7L43 8L42 8L42 10L41 10L41 12L42 12L42 11L44 11L44 9L43 9L43 8L45 8L45 9L46 9L46 10L45 10L45 12L46 12L46 14L44 14L44 15L48 15L48 16L49 16L49 15L48 15L48 13L49 13L49 14L50 14L50 17L52 17L52 14L53 14L53 13L49 13L49 12L48 12L48 11L47 11L47 9L46 9L46 8L45 8L45 6L44 6L44 7L43 7L43 3L44 3L44 4L45 4L45 3L44 3L44 1L43 1L43 0L42 0L42 2L43 2L43 3L41 3L41 2L40 2L40 0L39 0L39 2L40 2L40 3L41 3L41 5L40 5L40 4L37 4L37 5L39 5L39 6L38 6L38 7L37 7L37 6L36 6L36 4L35 4L35 2L36 2L36 0L30 0L30 1L32 1L32 2L31 2L31 3L30 3L30 2L29 2L29 1L28 1L28 0L27 0L27 1L26 1L26 0L24 0L24 1L25 1L25 2L29 2L29 4L27 4L27 3L26 3L26 4L25 4L25 3L21 3L21 2L22 2L22 1L21 1L21 0L18 0L18 1L21 1L21 2L20 2L20 3L21 3L21 4L18 4L18 3L19 3L19 2L18 2L18 3L17 3L17 2L16 2L16 0L15 0L15 1L14 1L14 0L13 0L13 2L14 2L14 4L13 4L13 3L12 3L12 4L13 4L13 5L11 5L11 2L12 2L12 0ZM37 0L37 1L38 1L38 0ZM33 1L33 2L35 2L35 1ZM15 2L15 3L16 3L16 4L15 4L15 5L16 5L16 4L17 4L17 3L16 3L16 2ZM9 3L9 5L10 5L10 3ZM31 3L31 4L29 4L29 9L30 9L30 10L28 10L28 9L25 9L25 10L24 10L24 11L25 11L25 10L26 10L26 11L27 11L27 12L22 12L22 11L23 11L23 9L24 9L24 8L22 8L22 6L23 6L23 7L24 7L24 6L23 6L23 5L24 5L24 4L23 4L23 5L22 5L22 4L21 4L21 5L20 5L20 6L19 6L19 7L20 7L20 6L21 6L21 8L22 8L22 11L20 11L20 16L19 16L19 15L15 15L15 14L17 14L17 13L19 13L19 12L17 12L17 11L19 11L19 10L17 10L17 11L16 11L16 12L15 12L15 11L14 11L14 12L15 12L15 14L14 14L14 16L13 16L13 17L12 17L12 18L10 18L10 15L11 15L11 16L12 16L12 15L11 15L11 14L10 14L10 13L9 13L9 14L10 14L10 15L9 15L9 17L8 17L8 16L7 16L7 15L8 15L8 14L7 14L7 13L6 13L6 14L5 14L5 13L4 13L4 12L3 12L3 13L2 13L2 14L1 14L1 15L2 15L2 14L3 14L3 15L5 15L5 16L7 16L7 17L6 17L6 18L4 18L4 19L3 19L3 21L1 21L1 22L3 22L3 21L4 21L4 22L5 22L5 21L6 21L6 22L7 22L7 23L5 23L5 24L7 24L7 23L9 23L9 26L10 26L10 27L11 27L11 25L10 25L10 24L11 24L11 22L12 22L12 18L14 18L14 19L13 19L13 22L14 22L14 23L17 23L17 22L16 22L16 21L17 21L17 18L19 18L19 19L18 19L18 20L19 20L19 21L18 21L18 24L16 24L16 25L17 25L17 26L18 26L18 27L19 27L19 28L20 28L20 29L17 29L17 30L18 30L18 31L20 31L20 29L21 29L21 30L22 30L22 32L20 32L20 33L21 33L21 34L18 34L18 33L16 33L16 35L15 35L15 36L16 36L16 37L15 37L15 38L16 38L16 40L14 40L14 43L13 43L13 42L12 42L12 44L11 44L11 45L13 45L13 46L14 46L14 48L15 48L15 47L17 47L17 48L18 48L18 51L19 51L19 49L20 49L20 50L21 50L21 47L23 47L23 45L24 45L24 44L23 44L23 42L24 42L24 41L23 41L23 42L22 42L22 41L20 41L20 43L19 43L19 44L18 44L18 43L17 43L17 44L16 44L16 46L14 46L14 45L13 45L13 44L15 44L15 41L16 41L16 42L17 42L17 39L19 39L19 38L18 38L18 37L17 37L17 36L16 36L16 35L19 35L19 37L21 37L21 36L22 36L22 37L24 37L24 38L22 38L22 39L23 39L23 40L24 40L24 39L26 39L26 40L27 40L27 41L25 41L25 42L26 42L26 43L25 43L25 44L26 44L26 43L27 43L27 44L30 44L30 45L29 45L29 46L30 46L30 45L32 45L32 46L34 46L34 44L37 44L37 46L36 46L36 45L35 45L35 47L36 47L36 51L37 51L37 47L38 47L38 48L39 48L39 50L38 50L38 52L40 52L40 51L39 51L39 50L40 50L40 49L41 49L41 50L42 50L42 49L44 49L44 50L43 50L43 51L46 51L46 52L47 52L47 51L46 51L46 50L47 50L47 49L46 49L46 50L45 50L45 49L44 49L44 46L43 46L43 43L45 43L45 42L46 42L46 41L47 41L47 39L48 39L48 38L47 38L47 37L48 37L48 36L50 36L50 34L49 34L49 33L48 33L48 32L49 32L49 31L50 31L50 30L51 30L51 27L52 27L52 26L51 26L51 27L50 27L50 26L49 26L49 27L50 27L50 29L48 29L48 31L47 31L47 29L46 29L46 31L47 31L47 33L46 33L46 35L45 35L45 34L43 34L43 35L42 35L42 32L43 32L43 33L45 33L45 32L43 32L43 31L45 31L45 30L43 30L43 28L41 28L41 27L40 27L40 28L39 28L39 27L38 27L38 28L39 28L39 29L38 29L38 30L39 30L39 32L38 32L38 34L37 34L37 32L36 32L36 31L35 31L35 29L34 29L34 28L35 28L35 27L33 27L33 26L34 26L34 24L32 24L32 25L30 25L30 24L31 24L31 22L28 22L28 21L27 21L27 20L28 20L28 19L29 19L29 20L30 20L30 21L32 21L32 22L33 22L33 23L35 23L35 21L36 21L36 23L37 23L37 25L38 25L38 26L40 26L40 25L39 25L39 23L38 23L38 22L40 22L40 21L41 21L41 19L42 19L42 20L43 20L43 19L42 19L42 18L41 18L41 17L39 17L39 16L40 16L40 15L38 15L38 17L39 17L39 18L40 18L40 19L39 19L39 20L38 20L38 22L37 22L37 20L36 20L36 19L34 19L34 20L35 20L35 21L33 21L33 20L32 20L32 19L33 19L33 17L34 17L34 18L37 18L37 19L38 19L38 18L37 18L37 17L36 17L36 16L37 16L37 13L39 13L39 11L37 11L37 10L38 10L38 9L39 9L39 8L40 8L40 6L39 6L39 8L38 8L38 9L37 9L37 8L36 8L36 6L35 6L35 7L34 7L34 3ZM32 4L32 5L33 5L33 4ZM21 5L21 6L22 6L22 5ZM25 5L25 8L28 8L28 5ZM26 6L26 7L27 7L27 6ZM30 6L30 7L31 7L31 9L32 9L32 8L33 8L33 9L34 9L34 7L33 7L33 6L32 6L32 7L31 7L31 6ZM0 8L0 9L3 9L3 10L5 10L5 9L4 9L4 8ZM14 8L14 9L15 9L15 8ZM48 8L48 9L49 9L49 10L50 10L50 11L51 11L51 12L53 12L53 10L52 10L52 9L53 9L53 8L52 8L52 9L51 9L51 8ZM35 9L35 10L31 10L31 11L33 11L33 12L32 12L32 13L31 13L31 12L30 12L30 11L28 11L28 10L27 10L27 11L28 11L28 12L29 12L29 13L26 13L26 15L25 15L25 13L24 13L24 15L23 15L23 14L22 14L22 12L21 12L21 14L22 14L22 15L23 15L23 16L24 16L24 17L21 17L21 16L20 16L20 19L19 19L19 20L20 20L20 19L21 19L21 20L23 20L23 21L24 21L24 23L25 23L25 24L24 24L24 26L21 26L21 25L20 25L20 22L19 22L19 24L18 24L18 25L20 25L20 26L21 26L21 29L24 29L24 30L23 30L23 31L24 31L24 32L22 32L22 33L24 33L24 32L25 32L25 31L26 31L26 32L27 32L27 34L25 34L25 35L24 35L24 34L23 34L23 35L22 35L22 34L21 34L21 35L20 35L20 36L21 36L21 35L22 35L22 36L23 36L23 35L24 35L24 37L25 37L25 35L28 35L28 37L29 37L29 36L30 36L30 38L29 38L29 39L27 39L27 40L29 40L29 41L27 41L27 42L31 42L31 44L34 44L34 43L32 43L32 41L30 41L30 40L32 40L32 39L30 39L30 38L33 38L33 37L34 37L34 36L35 36L35 37L38 37L38 39L37 39L37 40L38 40L38 41L36 41L36 38L35 38L35 40L33 40L33 41L35 41L35 42L36 42L36 43L37 43L37 44L38 44L38 47L39 47L39 43L38 43L38 42L39 42L39 40L38 40L38 39L41 39L41 40L43 40L43 41L41 41L41 42L42 42L42 43L43 43L43 42L45 42L45 41L46 41L46 37L45 37L45 38L42 38L42 37L44 37L44 36L45 36L45 35L43 35L43 36L42 36L42 35L41 35L41 38L40 38L40 34L41 34L41 32L39 32L39 33L40 33L40 34L38 34L38 35L37 35L37 36L35 36L35 35L33 35L33 34L36 34L36 32L35 32L35 33L34 33L34 32L33 32L33 31L32 31L32 30L31 30L31 29L33 29L33 27L30 27L30 25L29 25L29 24L30 24L30 23L27 23L27 22L26 22L26 21L24 21L24 19L25 19L25 20L26 20L26 19L25 19L25 18L24 18L24 17L25 17L25 16L26 16L26 17L28 17L28 18L29 18L29 17L30 17L30 18L31 18L31 19L32 19L32 17L33 17L33 16L31 16L31 14L32 14L32 13L33 13L33 14L34 14L34 13L33 13L33 12L35 12L35 15L36 15L36 12L37 12L37 11L35 11L35 10L37 10L37 9ZM50 9L50 10L51 10L51 9ZM11 11L11 13L12 13L12 14L13 14L13 13L12 13L12 11ZM16 12L16 13L17 13L17 12ZM30 13L30 14L27 14L27 15L26 15L26 16L27 16L27 15L30 15L30 14L31 14L31 13ZM6 14L6 15L7 15L7 14ZM2 16L2 17L3 17L3 16ZM14 16L14 17L16 17L16 18L17 18L17 17L16 17L16 16ZM18 16L18 17L19 17L19 16ZM28 16L28 17L29 17L29 16ZM6 18L6 19L8 19L8 20L9 20L9 19L10 19L10 18ZM21 18L21 19L23 19L23 18ZM14 19L14 20L15 20L15 19ZM6 20L6 21L7 21L7 20ZM10 20L10 21L11 21L11 20ZM8 21L8 22L9 22L9 21ZM21 22L21 23L23 23L23 22ZM22 24L22 25L23 25L23 24ZM5 25L5 28L8 28L8 25ZM25 25L25 28L28 28L28 25ZM35 25L35 26L36 26L36 27L37 27L37 26L36 26L36 25ZM45 25L45 28L48 28L48 25ZM6 26L6 27L7 27L7 26ZM26 26L26 27L27 27L27 26ZM46 26L46 27L47 27L47 26ZM1 27L1 28L0 28L0 29L1 29L1 28L2 28L2 29L3 29L3 28L2 28L2 27ZM22 27L22 28L24 28L24 27ZM12 28L12 29L13 29L13 28ZM29 28L29 30L28 30L28 31L27 31L27 29L25 29L25 30L26 30L26 31L27 31L27 32L28 32L28 34L29 34L29 35L30 35L30 36L31 36L31 35L32 35L32 34L31 34L31 33L29 33L29 32L32 32L32 33L33 33L33 32L32 32L32 31L30 31L30 28ZM36 28L36 30L37 30L37 28ZM40 28L40 30L42 30L42 31L43 31L43 30L42 30L42 29L41 29L41 28ZM1 30L1 31L2 31L2 32L0 32L0 33L3 33L3 32L4 32L4 30L3 30L3 31L2 31L2 30ZM16 31L16 32L17 32L17 31ZM28 31L28 32L29 32L29 31ZM14 32L14 34L15 34L15 32ZM51 32L51 33L53 33L53 32ZM47 33L47 35L46 35L46 36L48 36L48 33ZM38 35L38 36L39 36L39 35ZM52 35L52 37L53 37L53 35ZM26 36L26 38L27 38L27 36ZM32 36L32 37L33 37L33 36ZM0 37L0 38L1 38L1 37ZM16 37L16 38L17 38L17 37ZM20 38L20 40L21 40L21 38ZM41 38L41 39L42 39L42 38ZM6 39L6 40L4 40L4 42L7 42L7 41L8 41L8 40L7 40L7 39ZM43 39L43 40L44 40L44 39ZM6 40L6 41L7 41L7 40ZM9 40L9 42L8 42L8 43L9 43L9 44L10 44L10 43L11 43L11 41L10 41L10 40ZM18 40L18 42L19 42L19 40ZM2 42L2 43L3 43L3 42ZM9 42L9 43L10 43L10 42ZM50 42L50 43L51 43L51 42ZM20 43L20 45L19 45L19 46L18 46L18 44L17 44L17 46L18 46L18 48L19 48L19 46L20 46L20 47L21 47L21 43ZM46 43L46 44L47 44L47 43ZM52 43L52 44L53 44L53 43ZM22 44L22 45L23 45L23 44ZM40 44L40 46L41 46L41 47L40 47L40 48L41 48L41 47L42 47L42 46L41 46L41 45L42 45L42 44ZM25 45L25 48L28 48L28 45ZM45 45L45 48L48 48L48 45ZM26 46L26 47L27 47L27 46ZM46 46L46 47L47 47L47 46ZM30 47L30 48L31 48L31 47ZM32 47L32 49L33 49L33 47ZM34 48L34 49L35 49L35 48ZM48 49L48 50L49 50L49 49ZM50 50L50 51L51 51L51 52L52 52L52 50ZM25 51L25 53L26 53L26 51ZM0 0L0 7L7 7L7 0ZM1 1L1 6L6 6L6 1ZM2 2L2 5L5 5L5 2ZM46 0L46 7L53 7L53 0ZM47 1L47 6L52 6L52 1ZM48 2L48 5L51 5L51 2ZM0 46L0 53L7 53L7 46ZM1 47L1 52L6 52L6 47ZM2 48L2 51L5 51L5 48Z" fill="#000000"/></g></g></svg>
