<?xml version="1.0" encoding="UTF-8"?>
<svg xmlns="http://www.w3.org/2000/svg" version="1.1" width="100" height="100" viewBox="0 0 100 100"><rect x="0" y="0" width="100" height="100" fill="#ffffff"/><g transform="scale(2.041)"><g transform="translate(0,0)"><path fill-rule="evenodd" d="M12 0L12 1L13 1L13 3L14 3L14 0ZM16 0L16 1L15 1L15 3L16 3L16 4L15 4L15 5L14 5L14 4L13 4L13 5L14 5L14 7L15 7L15 6L16 6L16 8L17 8L17 6L18 6L18 7L19 7L19 8L18 8L18 9L20 9L20 10L17 10L17 9L16 9L16 10L17 10L17 12L16 12L16 14L18 14L18 16L17 16L17 17L16 17L16 16L15 16L15 15L14 15L14 14L13 14L13 15L11 15L11 16L10 16L10 14L11 14L11 13L12 13L12 12L13 12L13 13L15 13L15 12L13 12L13 11L15 11L15 10L13 10L13 8L12 8L12 7L13 7L13 6L12 6L12 5L10 5L10 3L9 3L9 1L8 1L8 3L9 3L9 4L8 4L8 8L6 8L6 9L7 9L7 10L5 10L5 9L4 9L4 8L3 8L3 9L2 9L2 8L0 8L0 13L2 13L2 14L4 14L4 13L5 13L5 11L7 11L7 10L10 10L10 11L8 11L8 12L6 12L6 13L8 13L8 15L7 15L7 14L5 14L5 16L4 16L4 15L3 15L3 16L4 16L4 17L2 17L2 15L1 15L1 14L0 14L0 15L1 15L1 16L0 16L0 17L2 17L2 18L0 18L0 19L4 19L4 20L3 20L3 21L2 21L2 20L0 20L0 24L1 24L1 25L0 25L0 27L1 27L1 29L2 29L2 30L3 30L3 31L1 31L1 30L0 30L0 31L1 31L1 32L0 32L0 33L1 33L1 34L0 34L0 35L1 35L1 36L0 36L0 38L1 38L1 40L0 40L0 41L3 41L3 40L4 40L4 39L2 39L2 38L3 38L3 36L4 36L4 35L3 35L3 34L5 34L5 33L7 33L7 32L6 32L6 31L7 31L7 30L6 30L6 31L5 31L5 29L7 29L7 28L5 28L5 27L8 27L8 30L9 30L9 29L10 29L10 31L8 31L8 32L9 32L9 33L8 33L8 34L6 34L6 35L5 35L5 37L4 37L4 38L5 38L5 39L7 39L7 38L8 38L8 40L9 40L9 41L8 41L8 43L10 43L10 44L11 44L11 45L8 45L8 46L10 46L10 49L11 49L11 46L12 46L12 47L13 47L13 46L12 46L12 45L15 45L15 46L14 46L14 47L16 47L16 45L15 45L15 42L14 42L14 43L13 43L13 41L12 41L12 40L15 40L15 41L16 41L16 44L18 44L18 43L19 43L19 44L20 44L20 45L22 45L22 46L23 46L23 45L27 45L27 46L24 46L24 47L26 47L26 48L23 48L23 47L22 47L22 49L29 49L29 48L30 48L30 46L29 46L29 47L28 47L28 43L31 43L31 46L32 46L32 47L31 47L31 49L32 49L32 47L34 47L34 46L35 46L35 48L34 48L34 49L36 49L36 47L37 47L37 46L38 46L38 49L42 49L42 48L40 48L40 47L42 47L42 46L40 46L40 47L39 47L39 44L38 44L38 43L39 43L39 41L40 41L40 45L43 45L43 47L45 47L45 48L43 48L43 49L45 49L45 48L46 48L46 49L49 49L49 46L48 46L48 47L47 47L47 46L46 46L46 45L47 45L47 44L48 44L48 45L49 45L49 44L48 44L48 43L49 43L49 42L47 42L47 43L46 43L46 42L45 42L45 41L47 41L47 40L49 40L49 38L48 38L48 37L49 37L49 35L48 35L48 34L49 34L49 33L48 33L48 32L49 32L49 31L48 31L48 29L49 29L49 26L47 26L47 25L49 25L49 24L47 24L47 25L46 25L46 24L45 24L45 23L47 23L47 22L45 22L45 20L46 20L46 21L47 21L47 20L48 20L48 23L49 23L49 20L48 20L48 18L49 18L49 15L48 15L48 14L49 14L49 12L48 12L48 11L46 11L46 10L45 10L45 8L42 8L42 9L41 9L41 6L40 6L40 8L37 8L37 6L38 6L38 7L39 7L39 5L38 5L38 4L37 4L37 6L36 6L36 4L35 4L35 3L38 3L38 2L39 2L39 4L40 4L40 3L41 3L41 0L40 0L40 1L37 1L37 0L36 0L36 1L37 1L37 2L34 2L34 1L33 1L33 0L32 0L32 1L30 1L30 0L28 0L28 3L29 3L29 2L30 2L30 4L29 4L29 6L28 6L28 8L27 8L27 4L26 4L26 2L27 2L27 1L26 1L26 0L24 0L24 1L26 1L26 2L24 2L24 3L25 3L25 4L23 4L23 0L22 0L22 7L21 7L21 6L20 6L20 7L19 7L19 6L18 6L18 5L17 5L17 6L16 6L16 4L18 4L18 3L20 3L20 2L17 2L17 0ZM18 0L18 1L21 1L21 0ZM10 1L10 2L11 2L11 4L12 4L12 2L11 2L11 1ZM32 1L32 2L31 2L31 3L33 3L33 1ZM19 4L19 5L20 5L20 4ZM31 4L31 7L30 7L30 6L29 6L29 8L31 8L31 9L27 9L27 10L28 10L28 11L27 11L27 12L28 12L28 13L29 13L29 15L27 15L27 14L25 14L25 15L26 15L26 16L22 16L22 13L20 13L20 11L18 11L18 12L19 12L19 13L18 13L18 14L19 14L19 13L20 13L20 15L19 15L19 16L22 16L22 17L20 17L20 19L17 19L17 18L18 18L18 17L17 17L17 18L16 18L16 19L14 19L14 20L13 20L13 17L12 17L12 16L11 16L11 17L12 17L12 18L11 18L11 19L12 19L12 20L13 20L13 21L12 21L12 22L13 22L13 23L11 23L11 22L10 22L10 21L11 21L11 20L10 20L10 21L9 21L9 20L8 20L8 19L9 19L9 18L10 18L10 17L9 17L9 18L8 18L8 19L6 19L6 18L7 18L7 17L6 17L6 16L7 16L7 15L6 15L6 16L5 16L5 18L4 18L4 19L5 19L5 22L10 22L10 23L9 23L9 24L13 24L13 23L14 23L14 22L15 22L15 21L16 21L16 19L17 19L17 20L21 20L21 21L19 21L19 23L16 23L16 24L18 24L18 25L17 25L17 27L16 27L16 26L14 26L14 27L13 27L13 25L12 25L12 26L11 26L11 25L10 25L10 26L11 26L11 27L13 27L13 28L14 28L14 29L16 29L16 28L20 28L20 29L18 29L18 30L20 30L20 29L22 29L22 30L21 30L21 31L20 31L20 32L21 32L21 31L23 31L23 32L22 32L22 33L21 33L21 34L20 34L20 35L19 35L19 36L17 36L17 35L16 35L16 34L15 34L15 33L18 33L18 34L19 34L19 33L18 33L18 32L19 32L19 31L18 31L18 32L16 32L16 30L15 30L15 31L14 31L14 34L13 34L13 33L11 33L11 32L12 32L12 31L11 31L11 32L10 32L10 33L9 33L9 34L10 34L10 33L11 33L11 34L12 34L12 35L14 35L14 34L15 34L15 36L14 36L14 39L15 39L15 40L16 40L16 41L18 41L18 40L17 40L17 39L18 39L18 38L19 38L19 36L20 36L20 35L22 35L22 36L21 36L21 37L20 37L20 39L19 39L19 41L21 41L21 39L22 39L22 38L21 38L21 37L23 37L23 36L25 36L25 35L26 35L26 34L27 34L27 33L28 33L28 35L27 35L27 37L24 37L24 38L23 38L23 39L24 39L24 40L25 40L25 38L26 38L26 40L28 40L28 42L29 42L29 41L30 41L30 42L31 42L31 41L30 41L30 40L31 40L31 39L27 39L27 38L29 38L29 36L30 36L30 37L31 37L31 35L32 35L32 32L33 32L33 33L34 33L34 35L33 35L33 36L36 36L36 37L35 37L35 39L33 39L33 37L32 37L32 41L33 41L33 40L35 40L35 42L36 42L36 41L39 41L39 39L40 39L40 37L41 37L41 35L42 35L42 34L39 34L39 33L40 33L40 31L41 31L41 33L42 33L42 32L43 32L43 36L44 36L44 38L45 38L45 39L42 39L42 38L43 38L43 37L42 37L42 38L41 38L41 39L42 39L42 40L45 40L45 39L46 39L46 40L47 40L47 39L48 39L48 38L47 38L47 39L46 39L46 37L45 37L45 36L46 36L46 34L48 34L48 33L47 33L47 32L48 32L48 31L46 31L46 30L47 30L47 29L48 29L48 27L47 27L47 26L46 26L46 25L45 25L45 27L43 27L43 28L44 28L44 29L41 29L41 28L42 28L42 27L41 27L41 28L40 28L40 26L39 26L39 27L38 27L38 25L39 25L39 24L38 24L38 22L39 22L39 21L40 21L40 22L42 22L42 21L44 21L44 20L45 20L45 19L41 19L41 20L40 20L40 18L42 18L42 17L43 17L43 18L44 18L44 17L43 17L43 16L44 16L44 15L45 15L45 16L47 16L47 17L45 17L45 18L46 18L46 20L47 20L47 17L48 17L48 15L47 15L47 14L46 14L46 11L45 11L45 14L44 14L44 15L40 15L40 14L43 14L43 11L42 11L42 10L41 10L41 9L38 9L38 10L39 10L39 12L38 12L38 11L36 11L36 12L35 12L35 10L36 10L36 9L37 9L37 8L36 8L36 9L35 9L35 8L34 8L34 9L35 9L35 10L33 10L33 11L34 11L34 12L33 12L33 13L32 13L32 16L31 16L31 10L32 10L32 9L33 9L33 7L34 7L34 6L35 6L35 7L36 7L36 6L35 6L35 4L33 4L33 7L32 7L32 4ZM23 5L23 8L26 8L26 5ZM9 6L9 8L8 8L8 9L9 9L9 8L10 8L10 9L11 9L11 11L12 11L12 9L11 9L11 8L10 8L10 6ZM11 6L11 7L12 7L12 6ZM24 6L24 7L25 7L25 6ZM20 7L20 9L21 9L21 10L23 10L23 9L22 9L22 8L21 8L21 7ZM31 7L31 8L32 8L32 7ZM46 8L46 9L47 9L47 10L48 10L48 8ZM1 9L1 12L2 12L2 13L4 13L4 11L3 11L3 10L4 10L4 9L3 9L3 10L2 10L2 9ZM24 9L24 10L25 10L25 12L24 12L24 11L23 11L23 13L26 13L26 10L25 10L25 9ZM43 9L43 10L44 10L44 9ZM29 11L29 13L30 13L30 11ZM41 11L41 12L39 12L39 13L41 13L41 12L42 12L42 11ZM8 12L8 13L9 13L9 14L10 14L10 13L11 13L11 12L10 12L10 13L9 13L9 12ZM36 12L36 13L35 13L35 14L36 14L36 15L37 15L37 13L38 13L38 12ZM23 14L23 15L24 15L24 14ZM33 14L33 15L34 15L34 14ZM45 14L45 15L46 15L46 14ZM8 15L8 16L9 16L9 15ZM13 15L13 16L14 16L14 17L15 17L15 16L14 16L14 15ZM32 16L32 18L31 18L31 20L29 20L29 18L30 18L30 17L29 17L29 18L27 18L27 17L23 17L23 18L22 18L22 19L25 19L25 20L26 20L26 21L27 21L27 20L26 20L26 19L28 19L28 20L29 20L29 21L28 21L28 22L24 22L24 21L23 21L23 22L22 22L22 24L21 24L21 22L20 22L20 25L19 25L19 26L18 26L18 27L19 27L19 26L20 26L20 27L21 27L21 28L22 28L22 29L23 29L23 30L24 30L24 31L26 31L26 32L24 32L24 33L22 33L22 34L23 34L23 35L24 35L24 33L25 33L25 34L26 34L26 32L28 32L28 31L30 31L30 30L29 30L29 29L31 29L31 31L33 31L33 30L35 30L35 29L36 29L36 32L35 32L35 31L34 31L34 33L35 33L35 35L37 35L37 33L36 33L36 32L38 32L38 33L39 33L39 32L38 32L38 31L37 31L37 30L39 30L39 29L38 29L38 28L37 28L37 25L38 25L38 24L37 24L37 21L39 21L39 20L38 20L38 19L37 19L37 18L35 18L35 17L36 17L36 16L35 16L35 17L34 17L34 18L33 18L33 16ZM37 16L37 17L39 17L39 16ZM41 16L41 17L42 17L42 16ZM25 18L25 19L26 19L26 18ZM32 19L32 21L31 21L31 22L30 22L30 21L29 21L29 22L28 22L28 23L27 23L27 24L28 24L28 25L29 25L29 26L32 26L32 27L28 27L28 28L27 28L27 29L26 29L26 28L25 28L25 27L22 27L22 26L21 26L21 27L22 27L22 28L25 28L25 29L26 29L26 30L27 30L27 31L28 31L28 28L32 28L32 30L33 30L33 28L36 28L36 29L37 29L37 28L36 28L36 27L35 27L35 26L36 26L36 23L35 23L35 22L34 22L34 19ZM36 19L36 20L35 20L35 21L36 21L36 20L37 20L37 19ZM6 20L6 21L8 21L8 20ZM14 20L14 21L15 21L15 20ZM41 20L41 21L42 21L42 20ZM1 21L1 24L4 24L4 22L3 22L3 23L2 23L2 21ZM32 21L32 22L31 22L31 23L34 23L34 22L33 22L33 21ZM5 23L5 26L8 26L8 23ZM23 23L23 26L26 26L26 23ZM29 23L29 24L30 24L30 25L32 25L32 24L30 24L30 23ZM41 23L41 26L44 26L44 23ZM6 24L6 25L7 25L7 24ZM14 24L14 25L15 25L15 24ZM24 24L24 25L25 25L25 24ZM42 24L42 25L43 25L43 24ZM2 25L2 26L1 26L1 27L4 27L4 25ZM33 25L33 26L34 26L34 25ZM9 27L9 28L10 28L10 27ZM32 27L32 28L33 28L33 27ZM45 27L45 29L46 29L46 27ZM2 28L2 29L3 29L3 30L4 30L4 29L5 29L5 28L4 28L4 29L3 29L3 28ZM11 28L11 29L12 29L12 30L13 30L13 29L12 29L12 28ZM40 29L40 30L41 30L41 31L42 31L42 30L41 30L41 29ZM44 30L44 31L43 31L43 32L44 32L44 31L45 31L45 30ZM3 31L3 32L4 32L4 33L5 33L5 32L4 32L4 31ZM1 32L1 33L2 33L2 34L1 34L1 35L2 35L2 36L1 36L1 38L2 38L2 36L3 36L3 35L2 35L2 34L3 34L3 33L2 33L2 32ZM29 32L29 33L30 33L30 34L31 34L31 32ZM45 32L45 33L44 33L44 36L45 36L45 33L46 33L46 32ZM6 35L6 36L7 36L7 37L6 37L6 38L7 38L7 37L8 37L8 38L10 38L10 39L9 39L9 40L12 40L12 39L13 39L13 38L12 38L12 36L11 36L11 35L9 35L9 36L7 36L7 35ZM38 35L38 36L40 36L40 35ZM47 35L47 36L48 36L48 35ZM10 36L10 37L11 37L11 36ZM16 37L16 38L15 38L15 39L17 39L17 38L18 38L18 37ZM37 37L37 38L36 38L36 39L35 39L35 40L38 40L38 39L37 39L37 38L39 38L39 37ZM11 38L11 39L12 39L12 38ZM6 40L6 41L7 41L7 40ZM9 41L9 42L11 42L11 44L13 44L13 43L12 43L12 42L11 42L11 41ZM23 41L23 44L26 44L26 41ZM41 41L41 44L44 44L44 41ZM21 42L21 43L20 43L20 44L22 44L22 42ZM24 42L24 43L25 43L25 42ZM42 42L42 43L43 43L43 42ZM33 43L33 44L34 44L34 45L35 45L35 44L36 44L36 43L35 43L35 44L34 44L34 43ZM37 44L37 45L38 45L38 44ZM45 44L45 45L44 45L44 46L45 46L45 45L46 45L46 44ZM32 45L32 46L33 46L33 45ZM17 46L17 49L20 49L20 48L21 48L21 46L20 46L20 48L19 48L19 46ZM8 47L8 49L9 49L9 47ZM0 0L0 7L7 7L7 0ZM1 1L1 6L6 6L6 1ZM2 2L2 5L5 5L5 2ZM42 0L42 7L49 7L49 0ZM43 1L43 6L48 6L48 1ZM44 2L44 5L47 5L47 2ZM0 42L0 49L7 49L7 42ZM1 43L1 48L6 48L6 43ZM2 44L2 47L5 47L5 44Z" fill="#000000"/></g></g></svg>
